<?xml version="1.0" encoding="UTF-8" standalone="no"?>
<svg xmlns:inkscape="http://www.inkscape.org/namespaces/inkscape" xmlns:sodipodi="http://sodipodi.sourceforge.net/DTD/sodipodi-0.dtd" xmlns="http://www.w3.org/2000/svg" xmlns:svg="http://www.w3.org/2000/svg" id="svg34" version="1.1" height="147.935" width="147.935" sodipodi:docname="abc.svg" inkscape:version="1.1 (c4e8f9e, 2021-05-24)">
  <defs id="defs7052">
    <clipPath id="clipPath3078">
      <path d="M 0,0 H 496.063 V 822.047 H 0 Z" id="path3076"></path>
    </clipPath>
  </defs>
  <g id="g13" transform="translate(-126.03378,-76.033786)">
    <path id="canvas_background" fill="none" d="M -1,-1 H 401 V 301 H -1 Z"></path>
  </g>
  <style type="text/css" id="style42">.st0{fill:#e10915}</style>
  <g id="g1006" transform="matrix(1.4343199,0,0,1.4592295,9.4148251,3.9220771)">
    <path id="Fill_1-2" data-name="Fill 1" d="m 30.106,9.639 -28.6,63 a 16.492,16.492 0 0 0 14.9,23.362 h 57.2 a 16.492,16.492 0 0 0 14.9,-23.361 l -28.6,-63 a 16.332,16.332 0 0 0 -29.794,0" fill="#006946"></path>
    <path id="Fill_3" data-name="Fill 3" d="m 18.981,85.176 h -5.943 l 8.888,-19.609 h 5.667 l 8.86,19.607 h -6 l -1.29,-3.207 h -8.888 l -1.293,3.208 z m 5.752,-14.116 -2.56,6.256 h 5.091 z" fill="#fbe300"></path>
    <path id="Fill_5" data-name="Fill 5" d="M 47.594,85.175 H 37.472 V 65.567 h 10.041 a 8.685,8.685 0 0 1 5.021,1.349 4.856,4.856 0 0 1 2.082,4.143 c 0,1.9 -0.723,3.184 -2.15,3.808 a 5.108,5.108 0 0 1 2.721,4.569 4.962,4.962 0 0 1 -2.449,4.511 10.108,10.108 0 0 1 -5.144,1.228 z m -4.652,-8.05 v 3.726 h 4.68 c 1.353,0 2.068,-0.64 2.068,-1.85 a 1.836,1.836 0 0 0 -2.068,-1.876 z m 0,-7.07 v 2.991 h 4.43 c 1.091,0 1.769,-0.563 1.769,-1.469 a 1.539,1.539 0 0 0 -1.709,-1.523 z" fill="#fbe300"></path>
    <path id="Fill_7" data-name="Fill 7" d="m 67.693,85.38 c -7.639,0 -10.673,-4.837 -10.673,-10.106 0,-5.02 3.332,-10.32 10.673,-10.32 a 10.583,10.583 0 0 1 7.585,3.107 l -3.413,3.322 a 5.841,5.841 0 0 0 -4.172,-1.674 c -3.793,0 -5.2,3.053 -5.2,5.592 0,2.513 1.355,5.4 5.2,5.4 a 6.7,6.7 0 0 0 4.605,-2 l 3.251,3.62 a 10.519,10.519 0 0 1 -7.856,3.053" fill="#fbe300"></path>
    <path id="Fill_9" data-name="Fill 9" d="M 71.704,59.358 A 29.637,29.637 0 0 1 68.765,58.22 c -0.2,-0.1 -0.379,-0.161 -0.379,-0.161 -0.916,-0.265 -1.967,-0.525 -2.444,-0.648 -0.185,-0.048 -0.247,-0.279 -0.247,-0.279 a 17.957,17.957 0 0 1 -0.188,-3.154 0.278,0.278 0 0 0 -0.355,-0.258 3.077,3.077 0 0 0 -2.373,1.149 0.6,0.6 0 0 0 -0.031,0.426 11.636,11.636 0 0 1 0.486,2.547 c 0.087,0.135 0.249,1.052 0.487,1.619 a 1.109,1.109 0 0 0 0.937,0.472 c 0.98,0.148 1.5,0.371 2.363,0.526 a 0.865,0.865 0 0 0 0.609,-0.348 c 0.09,-0.147 -1.022,-0.355 -0.519,-0.8 0.503,-0.445 1.9,0.618 2.533,0.618 0.633,0 1.516,-0.022 1.9,-0.041 a 0.341,0.341 0 0 0 0.328,-0.316 c 0,0 0.081,-0.141 -0.168,-0.219" fill="#ffffff"></path>
    <path id="Fill_11" data-name="Fill 11" d="m 57.336,56.584 c -1.35,0 -3.049,-2.693 -3.267,-3.709 -0.247,-1.156 -1.607,-5.038 -2.73,-5.753 a 2.36,2.36 0 0 1 -0.96,-1.84 c -0.046,-0.244 -0.094,-0.5 -0.163,-0.766 a 11.724,11.724 0 0 0 -0.711,-1.968 c -0.051,-0.112 -0.12,-0.257 -0.2,-0.424 a 16.3,16.3 0 0 1 -1.152,-2.84 6.347,6.347 0 0 0 -1.558,-3.814 6.636,6.636 0 0 0 -0.752,-0.6 c 0.212,-0.014 0.413,-0.02 0.6,-0.02 a 6.192,6.192 0 0 1 1.052,0.08 2.315,2.315 0 0 0 0.393,0.037 c 0.274,0 0.47,-0.067 0.523,-0.179 A 0.218,0.218 0 0 0 48.354,34.556 C 48.132,34.284 47.675,33.712 47.585,33.6 a 0.415,0.415 0 0 0 -0.286,-0.125 0.392,0.392 0 0 0 -0.128,0.022 42.11,42.11 0 0 1 -1.249,0.387 0.643,0.643 0 0 1 -0.183,0.036 0.126,0.126 0 0 1 -0.1,-0.037 0.12,0.12 0 0 1 -0.01,-0.106 c 0.052,-0.219 0.388,-1.493 0.422,-1.634 a 0.39,0.39 0 0 1 0.284,-0.272 l 0.1,-0.036 a 1.117,1.117 0 0 1 0.387,-0.1 0.476,0.476 0 0 1 0.437,0.317 11.9,11.9 0 0 0 1.251,1.832 c 0.152,-0.015 0.2,-0.741 0.172,-1.409 a 0.084,0.084 0 0 1 0.019,-0.064 0.1,0.1 0 0 1 0.078,-0.023 0.982,0.982 0 0 1 0.146,0.017 h 0.021 a 1.358,1.358 0 0 0 0.211,0.021 0.5,0.5 0 0 0 0.354,-0.127 v -0.021 c 0.1,-0.461 0.138,-0.638 0.156,-0.706 0.041,-0.155 0.132,-0.321 0.26,-0.321 a 0.217,0.217 0 0 1 0.121,0.043 0.509,0.509 0 0 0 0.294,0.09 1.3,1.3 0 0 0 0.838,-0.388 7.57,7.57 0 0 0 0.924,-1.1 0.523,0.523 0 0 0 0.072,-0.525 0.222,0.222 0 0 0 -0.2,-0.123 0.369,0.369 0 0 0 -0.22,0.089 c -0.065,0.051 -0.129,0.11 -0.19,0.168 a 1.086,1.086 0 0 1 -0.436,0.3 4.486,4.486 0 0 1 -0.9,0.1 1.327,1.327 0 0 1 -0.94,-0.259 5.387,5.387 0 0 1 -1.367,-2.042 c -0.041,-0.209 -0.065,-0.44 -0.087,-0.644 a 1.512,1.512 0 0 0 -0.133,-0.639 c -0.125,-0.118 -0.432,-0.959 -0.148,-1.275 0,0 0.2,-0.225 0.362,-0.225 a 0.157,0.157 0 0 1 0.087,0.025 3.148,3.148 0 0 0 0.45,0.071 h 0.017 c 0.252,0 0.252,-0.145 0.252,-0.251 a 1.85,1.85 0 0 0 0.334,-0.126 0.592,0.592 0 0 1 0.213,-0.072 c 0.066,0 0.109,0.044 0.143,0.147 a 6.422,6.422 0 0 1 -0.281,1.582 2.236,2.236 0 0 1 -0.708,0.7 0.712,0.712 0 0 0 -0.158,0.8 4.326,4.326 0 0 0 1.211,1.1 2.07,2.07 0 0 0 0.614,0.087 c 0.1,0 0.186,-0.007 0.226,-0.011 a 0.333,0.333 0 0 0 0.254,-0.185 0.211,0.211 0 0 0 -0.076,-0.223 C 50.45,28.457 50.056,28.377 49.957,28.22 a 0.2,0.2 0 0 1 -0.04,-0.149 0.165,0.165 0 0 1 0.073,-0.095 h 0.027 a 4.585,4.585 0 0 0 0.694,-0.08 2.193,2.193 0 0 0 0.841,-0.307 0.886,0.886 0 0 0 0.078,0.439 0.156,0.156 0 0 0 0.117,0.073 h 0.013 a 0.377,0.377 0 0 0 0.268,-0.19 0.671,0.671 0 0 0 0.152,-0.467 l -0.015,-0.047 c -0.067,-0.208 -0.223,-0.694 -0.436,-0.694 a 0.146,0.146 0 0 0 -0.042,0.006 c -0.156,0.047 -0.146,0.557 -0.146,0.563 H 51.53 a 3.04,3.04 0 0 1 -0.427,0.031 2.436,2.436 0 0 1 -0.417,-0.034 1.305,1.305 0 0 0 -0.227,-0.021 1.277,1.277 0 0 0 -0.247,0.026 0.974,0.974 0 0 1 -0.113,0.016 h -0.035 c -0.113,0 -0.176,-0.04 -0.178,-0.078 -0.002,-0.038 0.036,-0.065 0.143,-0.075 a 0.465,0.465 0 0 0 0.29,-0.139 0.265,0.265 0 0 1 0.181,-0.091 0.343,0.343 0 0 1 0.13,0.031 0.236,0.236 0 0 0 0.091,0.019 0.306,0.306 0 0 0 0.263,-0.231 c 0.024,-0.08 0.013,-0.148 -0.028,-0.175 a 0.662,0.662 0 0 0 -0.329,-0.146 0.206,0.206 0 0 0 -0.048,0.005 0.553,0.553 0 0 0 -0.116,0.047 0.641,0.641 0 0 1 -0.327,0.078 h -0.042 a 0.477,0.477 0 0 1 -0.3,-0.174 0.237,0.237 0 0 1 -0.058,-0.194 l 0.199,-0.783 0.114,-1.2 a 0.645,0.645 0 0 0 -0.218,-0.281 c -0.153,-0.1 -0.519,-0.345 -0.519,-0.345 l -1.41,-0.256 a 0.018,0.018 0 0 1 0,-0.008 c 0.014,-0.125 0.059,-0.424 0.179,-0.507 a 1.3,1.3 0 0 1 0.213,-0.094 2.773,2.773 0 0 0 1.1,-0.677 1.96,1.96 0 0 1 1.073,-0.287 h 0.123 c 0.164,0.008 0.3,0.012 0.414,0.012 a 5.165,5.165 0 0 0 1.213,-0.157 l 0.1,-0.021 0.017,0.013 c 0.155,0.128 0.279,0.234 0.368,0.315 a 1,1 0 0 0 0.111,0.083 1.285,1.285 0 0 1 0.562,0.862 3.618,3.618 0 0 1 0.094,1.144 4.019,4.019 0 0 0 0,0.477 c 0.02,0.224 0.121,0.324 0.211,0.324 0.09,0 0.186,-0.112 0.212,-0.285 a 8.972,8.972 0 0 0 0.086,-1.77 2.221,2.221 0 0 0 -0.734,-1.381 l -0.007,-0.6 a 0.1,0.1 0 0 0 -0.015,-0.074 0.094,0.094 0 0 0 -0.078,-0.03 0.4,0.4 0 0 0 -0.129,0.027 h -0.008 a 3.721,3.721 0 0 1 -1.325,0.226 5.159,5.159 0 0 1 -0.538,-0.029 9.2,9.2 0 0 0 -0.958,-0.062 c -0.533,0 -0.852,0.09 -1,0.285 a 3.376,3.376 0 0 1 -1.035,0.543 4.543,4.543 0 0 0 -1.018,0.508 1.181,1.181 0 0 0 -0.424,0.7 c 0,0.01 -0.082,0.239 -0.158,0.239 -0.034,0.006 -0.055,-0.027 -0.075,-0.084 a 3.151,3.151 0 0 1 -0.134,-1.42 1.336,1.336 0 0 1 0.252,-0.51 0.984,0.984 0 0 0 0.223,-0.49 c 0.04,-0.362 0.736,-1.868 3.2,-2.071 h 0.018 a 1.553,1.553 0 0 0 0.415,-0.061 1.9,1.9 0 0 1 0.497,-0.058 2.561,2.561 0 0 1 2.061,1.054 h 0.005 a 1.23,1.23 0 0 1 0.365,-0.074 0.263,0.263 0 0 1 0.179,0.051 1.048,1.048 0 0 1 0.32,1.095 c -0.019,0.1 -0.032,0.163 0,0.179 0.23,0.107 0.947,0.666 0.53,3.386 0,0 -0.01,0.161 0.08,0.207 0.09,0.046 0.249,0.492 0,1.2 l -0.309,0.9 a 0.7,0.7 0 0 1 -0.218,0.311 c -0.147,0.1 -0.3,0.184 -0.3,0.184 a 0.317,0.317 0 0 0 -0.184,0.229 c -0.009,0.036 -0.019,0.1 -0.032,0.191 a 2.4,2.4 0 0 1 -0.449,1.3 0.545,0.545 0 0 0 -0.126,0.346 7.939,7.939 0 0 1 -0.342,1.426 5.29,5.29 0 0 1 -1.477,1.973 l -0.256,0.256 -0.09,0.091 a 2.789,2.789 0 0 0 -1.121,1.877 l -0.052,0.392 a 8.731,8.731 0 0 0 -0.1,0.978 0.536,0.536 0 0 0 0.127,0.4 0.4,0.4 0 0 0 0.293,0.116 0.459,0.459 0 0 0 0.477,-0.385 3.275,3.275 0 0 1 0.994,-2.507 6.215,6.215 0 0 0 2.624,-3.551 c 0.052,-0.31 0.235,-0.356 0.339,-0.356 a 0.577,0.577 0 0 1 0.372,0.163 3.463,3.463 0 0 1 0.472,0.609 c 0.222,0.333 0.432,0.647 0.676,0.708 a 19.155,19.155 0 0 1 4.083,2.092 2.966,2.966 0 0 1 0.663,0.508 l 0.039,-0.008 a 2.025,2.025 0 0 1 0.324,0.453 c 0.037,0.057 0.079,0.124 0.12,0.2 a 0.274,0.274 0 0 1 0.023,0.054 c 0.935,1.7 2.579,5.63 2.767,6.1 a 30.957,30.957 0 0 1 1.451,5.837 18.071,18.071 0 0 0 0.23,3.078 c 0.011,0.175 0.167,0.189 0.34,0.189 h 0.22 a 0.929,0.929 0 0 1 0.441,0.085 c 0.509,0.311 0.166,1.933 0.163,1.949 -0.003,0.016 -0.065,0.62 -0.887,0.62 h -0.243 a 12.362,12.362 0 0 0 -3.621,0.787 7.64,7.64 0 0 1 -0.3,0.1 1.032,1.032 0 0 1 -0.255,0.035 0.428,0.428 0 0 1 -0.4,-0.2 c -0.1,-0.183 -0.431,-1.282 -0.574,-1.785 -0.1,-0.381 0.738,-0.717 1.353,-0.963 0.146,-0.058 0.284,-0.113 0.392,-0.162 0.108,-0.049 0.146,-0.1 0.14,-0.157 -0.008,-0.077 -0.115,-0.143 -0.292,-0.18 A 3.645,3.645 0 0 0 61.244,49.7 c -0.264,0 -0.5,0.019 -0.629,0.029 l -0.072,0.005 h -0.052 a 0.348,0.348 0 0 1 -0.281,-0.1 0.318,0.318 0 0 1 -0.059,-0.25 c 0,0 0.188,-0.113 0.081,-0.463 a 1.125,1.125 0 0 0 -0.269,-0.426 c -0.108,-0.122 -0.2,-0.227 -0.182,-0.375 0.083,-0.615 0.727,-0.93 1.244,-1.182 0.333,-0.163 0.621,-0.3 0.675,-0.484 a 0.256,0.256 0 0 0 -0.034,-0.237 0.781,0.781 0 0 0 -0.623,-0.194 3.492,3.492 0 0 0 -0.975,0.164 0.39,0.39 0 0 1 -0.113,0.018 c -0.35,0 -0.444,-0.565 -0.445,-0.57 l -0.157,-0.976 -0.233,-2.32 a 2.913,2.913 0 0 1 0.07,-1.255 11.159,11.159 0 0 0 0.544,-3.374 c -0.062,-0.572 -0.345,-0.617 -0.43,-0.617 a 0.279,0.279 0 0 0 -0.284,0.21 21.721,21.721 0 0 1 -1.287,4.2 c 0,0.021 -0.231,2.2 -0.231,2.938 0,2.083 0.025,3.568 0.076,4.542 0.034,0.644 0.148,2.147 0.291,3.829 v -0.015 c 0,0 0,0.03 0.008,0.07 l 0.007,0.063 0.083,0.951 c 0.076,1.111 0.094,2.468 -0.252,2.623 a 0.917,0.917 0 0 1 -0.379,0.08 z M 49.789,37.048 a 0.389,0.389 0 0 0 -0.4,0.4 33.8,33.8 0 0 0 0.1,3.4 c 0.04,0.352 0.234,0.51 0.408,0.51 0.155,0 0.329,-0.133 0.344,-0.426 0.028,-0.571 0.072,-3.038 0.042,-3.479 a 0.479,0.479 0 0 0 -0.494,-0.405 z m 4.808,1.745 c -0.822,0 -1.961,0.017 -2.3,0.034 a 0.366,0.366 0 0 0 -0.328,0.414 0.49,0.49 0 0 0 0.416,0.524 h 0.212 c 0.7,0 2.432,-0.04 2.913,-0.078 a 0.416,0.416 0 0 0 0.393,-0.437 0.428,0.428 0 0 0 -0.4,-0.444 c -0.162,-0.01 -0.586,-0.013 -0.906,-0.013 z m -1.624,-5.685 a 0.51,0.51 0 0 0 -0.271,0.067 l -1.221,1.18 a 0.346,0.346 0 0 0 -0.048,0.334 0.116,0.116 0 0 0 0.1,0.064 0.152,0.152 0 0 0 0.032,0 22.819,22.819 0 0 1 2.431,-0.169 c 0.218,0 0.415,0.007 0.586,0.02 h 0.035 c 0.119,0 0.194,-0.047 0.217,-0.137 a 0.724,0.724 0 0 0 -0.361,-0.644 c -0.217,-0.122 -1.075,-0.6 -1.111,-0.615 a 0.891,0.891 0 0 0 -0.389,-0.1 z m -0.95,-9.771 a 3.288,3.288 0 0 0 -0.719,0.067 c -0.137,0.052 -0.613,0.359 -0.64,0.476 -0.027,0.117 0.18,0.256 0.182,0.257 a 0.611,0.611 0 0 0 0.009,0.27 c 0.043,0.081 0.327,0.489 0.531,0.515 a 3.08,3.08 0 0 0 0.363,0.024 0.846,0.846 0 0 0 0.235,-0.024 c 0.121,-0.038 0.122,-0.23 0.122,-0.232 a 1.514,1.514 0 0 0 0.5,-0.247 0.2,0.2 0 0 0 0.051,-0.172 c -0.023,-0.065 -0.112,-0.116 -0.271,-0.159 -0.1,-0.027 -0.2,-0.048 -0.277,-0.065 -0.164,-0.036 -0.272,-0.059 -0.272,-0.1 0,-0.041 0.1,-0.063 0.208,-0.072 l 0.059,-0.005 a 1.513,1.513 0 0 0 0.495,-0.1 c 0.061,-0.057 0.129,-0.17 0.091,-0.244 -0.038,-0.074 -0.418,-0.168 -0.558,-0.18 a 0.389,0.389 0 0 0 -0.109,-0.009 z" fill="#ffffff"></path>
    <path id="Fill_13" data-name="Fill 13" d="m 57.694,59.323 a 17.419,17.419 0 0 1 -2.188,-0.58 c -0.2,-0.084 -1.185,-0.705 -1.185,-0.705 a 3.773,3.773 0 0 1 -0.484,-0.684 c -0.17,-0.337 -1.072,-1.684 -1.072,-1.684 0,0 -0.543,-1.15 -1.209,-2.553 a 0.421,0.421 0 0 0 -0.268,-0.214 c -1.066,-0.016 -1.843,1.025 -2.072,1.275 a 0.246,0.246 0 0 0 0.028,0.407 c 0.479,0.607 1.631,1.984 1.531,2.469 -0.048,0.215 -0.064,0.954 -0.249,1.157 a 5.211,5.211 0 0 1 -1.651,1.215 c 0,0 -0.034,0.411 0.235,0.408 a 8.167,8.167 0 0 0 1.037,-0.01 c 0.435,-0.047 0.726,-0.516 0.931,-0.557 a 1.8,1.8 0 0 1 1.353,-0.08 c 0,0 2.156,0.643 2.438,0.647 1.347,0.017 2.778,-0.017 2.778,-0.017 0,0 0.386,-0.408 0.047,-0.494" fill="#ffffff"></path>
    <path id="Fill_15" data-name="Fill 15" d="m 25.78,59.364 a 15.913,15.913 0 0 0 -0.479,-0.118 l -0.018,-0.009 a 3.885,3.885 0 0 1 -0.5,-0.472 8.541,8.541 0 0 1 -0.762,-1.142 0.8,0.8 0 0 1 0,-0.726 c 0.022,-0.069 0.046,-0.147 0.072,-0.238 l 0.01,-0.017 c 0.005,-0.007 0.587,-0.778 1.514,-2.025 a 0.247,0.247 0 0 0 0.025,-0.3 5.675,5.675 0 0 0 -1.964,-1.608 c -0.1,-0.049 -0.2,0.1 -0.2,0.1 -0.853,1.657 -1.365,2.666 -1.6,3.129 l -0.005,0.009 -1.362,1.741 c -0.027,0.035 -0.373,0.4 -0.412,0.445 l -0.01,0.008 a 10.994,10.994 0 0 1 -1.406,0.721 10.389,10.389 0 0 1 -1.27,0.347 c -0.244,0.056 -0.456,0.1 -0.592,0.147 -0.136,0.047 -0.118,0.105 -0.118,0.127 0.014,0.133 0.271,0.332 0.4,0.343 0.111,0.01 0.875,-0.009 1.763,-0.009 0.8,0 1.433,0.037 1.6,0.026 a 3.457,3.457 0 0 0 0.829,-0.392 3.339,3.339 0 0 1 0.93,-0.366 c 0.1,-0.008 0.193,-0.012 0.289,-0.012 a 2.837,2.837 0 0 1 0.472,0.034 c 0.731,0.118 1.026,0.574 1.3,0.685 a 3.091,3.091 0 0 0 1.017,0.022 2.522,2.522 0 0 0 0.4,-0.022 0.138,0.138 0 0 0 0.112,-0.1 c 0.036,-0.117 0.1,-0.288 -0.041,-0.325" fill="#ffffff"></path>
    <path id="Fill_17" data-name="Fill 17" d="m 32.42,34.276 c 0.4,0.189 0.976,-0.354 0.976,-0.354 a 4.522,4.522 0 0 0 1.761,-1.647 c 0.256,-0.634 0.022,-1.259 -0.181,-0.888 a 6.122,6.122 0 0 1 -0.55,1.125 c -0.354,0.446 -0.533,0.077 -0.533,0.077 0.863,-3.194 0.507,-3.413 0.507,-3.413 -0.269,-0.471 -0.388,-0.728 -0.262,-1.087 a 8.452,8.452 0 0 1 1.044,-2.387 c 2.15,-2.79 4.176,-2.887 4.358,-2.854 0.216,0.041 0.308,0.83 1.361,1.988 a 6.1,6.1 0 0 1 1.026,3.083 c 0.095,0.578 -0.111,3.524 0.254,4.392 0.6,1.426 1.555,1.748 1.6,1.607 a 3.623,3.623 0 0 0 0.064,-2.293 c -0.327,-1.481 -1,-1.478 -1.034,-3.1 -0.055,-2.3 -0.675,-4.5 -1.882,-5.663 a 4.57,4.57 0 0 0 -1.767,-1 c -0.17,-0.556 -1.97,-0.764 -3.683,0.8 a 5.952,5.952 0 0 0 -1.863,4.462 c 0.006,0.162 0.085,1.053 0.1,1.288 0.097,1.783 -1.226,3.136 -1.325,5.77 a 0.066,0.066 0 0 0 0.029,0.094" fill="#ffffff"></path>
    <path id="Fill_19" data-name="Fill 19" d="M 45.03,59.847 H 30.737 a 0.631,0.631 0 0 1 -0.629,-0.632 0.671,0.671 0 0 1 0.01,-0.113 26.143,26.143 0 0 1 1.155,-5.95 24.977,24.977 0 0 0 0.912,-4.12 4.447,4.447 0 0 0 -0.7,-2.843 4.191,4.191 0 0 1 -0.672,-2.779 c 0.251,-2.1 0.061,-2.411 -0.432,-2.62 a 0.171,0.171 0 0 0 -0.067,-0.015 c -0.35,0 -0.47,1.267 -0.587,2.493 -0.03,0.315 -0.058,0.612 -0.09,0.891 a 7.413,7.413 0 0 0 0.629,3.167 3.494,3.494 0 0 1 -0.547,2.49 0.987,0.987 0 0 1 -0.408,0 2.66,2.66 0 0 0 -0.329,-0.035 6.02,6.02 0 0 1 -0.752,-0.091 0.389,0.389 0 0 0 -0.074,-0.007 0.311,0.311 0 0 0 -0.306,0.224 c -0.012,0.052 0,0.092 0.034,0.108 a 7.646,7.646 0 0 1 1.171,0.653 1.622,1.622 0 0 1 0.234,0.179 0.493,0.493 0 0 1 0.189,0.319 0.222,0.222 0 0 1 -0.071,0.163 c -0.34,0.376 -0.683,0.8 -1.015,1.215 a 14.966,14.966 0 0 1 -0.985,1.146 0.354,0.354 0 0 1 -0.243,0.112 0.362,0.362 0 0 1 -0.247,-0.118 l -0.05,-0.048 a 13.653,13.653 0 0 0 -2.78,-2.177 0.352,0.352 0 0 1 -0.257,-0.375 5.616,5.616 0 0 1 0.329,-1.032 c 0.108,-0.283 0.23,-0.6 0.343,-0.956 a 0.324,0.324 0 0 1 0.328,-0.254 0.575,0.575 0 0 1 0.139,0.019 h 0.045 a 0.254,0.254 0 0 0 0.262,-0.2 1.422,1.422 0 0 1 0.219,-0.337 2.232,2.232 0 0 0 0.587,-1.412 6.3,6.3 0 0 1 0.268,-1.687 7.443,7.443 0 0 0 0.19,-0.89 c 0.242,-0.754 0.472,-1.42 0.674,-2.007 a 15.788,15.788 0 0 0 0.616,-2 c 0.123,-0.768 1.044,-3.891 2.435,-4.685 l 0.047,-0.028 a 2.681,2.681 0 0 1 1.255,-0.425 1.216,1.216 0 0 1 0.19,0.014 c 0.479,0.077 1.2,0.907 1.584,1.353 a 3.064,3.064 0 0 0 0.25,0.274 3.573,3.573 0 0 0 0.519,0.014 h 1.062 a 12.248,12.248 0 0 1 1.328,0.041 0.538,0.538 0 0 0 0.1,0.01 0.213,0.213 0 0 0 0.183,-0.077 0.4,0.4 0 0 0 0.007,-0.351 c -0.043,-0.389 -1.025,-1.077 -1.216,-1.2 a 0.079,0.079 0 0 0 -0.041,-0.009 3.076,3.076 0 0 0 -0.731,0.269 l -0.085,0.037 a 3.183,3.183 0 0 1 -0.9,0.307 c -0.023,0 -0.036,-0.007 -0.042,-0.022 -0.049,-0.127 0.479,-0.824 1.316,-1.622 a 0.168,0.168 0 0 1 0.106,-0.04 0.307,0.307 0 0 1 0.127,0.037 3.072,3.072 0 0 1 0.7,0.6 c 0.158,0.165 0.283,0.295 0.348,0.295 a 0.038,0.038 0 0 0 0.025,-0.008 0.984,0.984 0 0 0 0.126,-0.265 3.889,3.889 0 0 1 1.167,-1.724 c 0.332,-0.252 0.527,-0.389 0.669,-0.488 a 3.064,3.064 0 0 0 0.4,-0.316 0.346,0.346 0 0 0 0.077,-0.377 0.239,0.239 0 0 0 -0.22,-0.166 0.3,0.3 0 0 0 -0.144,0.041 1.287,1.287 0 0 1 -0.612,0.145 1.509,1.509 0 0 1 -0.557,-0.107 C 36.86,31.668 35.93,30.319 35.93,30.306 c -0.045,-0.21 -0.081,-0.4 -0.113,-0.564 a 3.293,3.293 0 0 0 -0.452,-1.34 c -0.114,-0.172 0.037,-0.829 0.087,-1.045 a 0.843,0.843 0 0 0 0.016,-0.073 0.068,0.068 0 0 1 0.062,-0.034 0.72,0.72 0 0 1 0.271,0.121 1.326,1.326 0 0 0 0.325,0.154 0.486,0.486 0 0 0 0.111,0.014 0.22,0.22 0 0 0 0.249,-0.195 c 0.007,-0.086 0.281,-0.176 0.424,-0.176 a 0.1,0.1 0 0 1 0.077,0.021 1.914,1.914 0 0 1 -0.2,1.29 2.747,2.747 0 0 1 -0.621,0.653 c -0.236,0.182 -0.206,0.36 -0.083,0.723 0.123,0.363 0.853,0.8 1.028,0.876 a 1.5,1.5 0 0 0 0.537,0.118 c 0.144,0 0.238,-0.036 0.28,-0.108 a 0.172,0.172 0 0 0 0.025,-0.145 c -0.032,-0.09 -0.169,-0.16 -0.365,-0.236 a 0.223,0.223 0 0 1 -0.179,-0.2 c 0.005,-0.05 0.047,-0.08 0.115,-0.084 h 0.3 a 1.343,1.343 0 0 0 0.166,-0.01 4.632,4.632 0 0 0 1.055,-0.324 c 0,0 -0.014,0.251 0.065,0.334 a 0.078,0.078 0 0 0 0.058,0.026 h 0.011 a 0.544,0.544 0 0 0 0.367,-0.469 0.942,0.942 0 0 0 -0.26,-0.558 0.354,0.354 0 0 0 -0.214,-0.142 h -0.019 a 0.093,0.093 0 0 0 -0.06,0.046 c -0.069,0.116 0.009,0.41 0.01,0.413 l -0.022,0.005 c -0.048,0.009 -0.16,0.029 -0.277,0.042 a 0.875,0.875 0 0 1 -0.09,0 1.044,1.044 0 0 1 -0.27,-0.044 4.114,4.114 0 0 0 -0.191,-0.045 1.232,1.232 0 0 0 -0.25,-0.027 1.3,1.3 0 0 0 -0.244,0.026 c -0.035,0.006 -0.067,0.012 -0.1,0.015 h -0.016 c -0.069,0 -0.134,-0.044 -0.137,-0.093 0,-0.024 0.011,-0.082 0.166,-0.1 a 0.612,0.612 0 0 0 0.218,-0.081 0.427,0.427 0 0 1 0.2,-0.074 0.2,0.2 0 0 1 0.1,0.03 0.152,0.152 0 0 0 0.077,0.021 0.445,0.445 0 0 0 0.319,-0.247 0.131,0.131 0 0 0 -0.019,-0.126 0.368,0.368 0 0 0 -0.284,-0.139 h -0.021 a 0.638,0.638 0 0 0 -0.167,0.044 0.621,0.621 0 0 1 -0.216,0.05 0.383,0.383 0 0 1 -0.124,-0.021 c -0.071,-0.024 -0.28,-0.162 -0.256,-0.272 a 0.9,0.9 0 0 1 0.081,-0.191 1.018,1.018 0 0 0 0.091,-0.215 6.524,6.524 0 0 0 0.117,-1.04 0.928,0.928 0 0 0 -0.486,-0.661 0.387,0.387 0 0 0 -0.184,-0.074 c -0.308,-0.109 -0.81,-0.276 -0.815,-0.278 -0.005,-0.002 0,-0.005 0.006,-0.011 a 7.384,7.384 0 0 1 1.268,-1.438 3.818,3.818 0 0 1 1.761,-0.958 0.257,0.257 0 0 1 0.128,0.028 0.979,0.979 0 0 1 0.214,0.278 6.457,6.457 0 0 0 0.406,0.576 4.86,4.86 0 0 1 1.027,3.543 3.181,3.181 0 0 1 -0.175,0.713 4.42,4.42 0 0 0 -0.183,0.678 l -0.035,0.213 v 0.005 a 2.557,2.557 0 0 1 -0.294,0.917 8.449,8.449 0 0 1 -0.526,0.77 3.6,3.6 0 0 0 -0.1,1.024 c 0.005,0.067 0.012,0.131 0.018,0.193 0.062,0.6 0.107,1.041 -1.093,2.337 a 3.815,3.815 0 0 1 -0.363,0.329 1.786,1.786 0 0 0 -0.788,1.234 11.319,11.319 0 0 0 -0.11,1.561 0.377,0.377 0 0 0 0.372,0.36 0.463,0.463 0 0 0 0.456,-0.334 3.548,3.548 0 0 1 0.991,-2.412 3.632,3.632 0 0 0 1.559,-2.025 c 0.057,-0.179 0.092,-0.286 0.174,-0.286 0.184,0 1.152,1.027 1.162,1.038 0.01,0.011 1.821,0.746 1.993,0.795 0.817,0.233 2.989,0.852 3.762,5.62 0.012,0.044 1.176,4.419 1.552,6.936 a 1.7,1.7 0 0 0 1.294,1.241 l 0.42,-0.008 a 0.231,0.231 0 0 1 0.034,0 c 0.093,0 0.4,0.044 0.46,0.613 l 0.536,1.92 a 0.323,0.323 0 0 1 -0.065,0.222 0.369,0.369 0 0 1 -0.268,0.121 7.406,7.406 0 0 0 -3.01,1.651 0.472,0.472 0 0 1 -0.294,0.136 0.33,0.33 0 0 1 -0.251,-0.128 l -1.47,-1.636 c 0.006,-0.047 0.183,-1.124 2.019,-1.937 0.1,-0.057 0.149,-0.113 0.141,-0.166 -0.017,-0.112 -0.285,-0.174 -0.288,-0.175 a 8.712,8.712 0 0 1 -2.212,0.392 2.924,2.924 0 0 1 -0.579,-0.056 L 45.83,49.763 a 1.42,1.42 0 0 1 -0.755,-0.6 0.972,0.972 0 0 1 -0.158,-0.758 c 0.039,-0.156 0.115,-0.379 0.2,-0.636 a 7.807,7.807 0 0 0 0.6,-3.323 14.452,14.452 0 0 1 -0.077,-1.978 c 0.006,-0.874 0.011,-1.565 -0.217,-1.737 a 0.138,0.138 0 0 0 -0.084,-0.024 0.5,0.5 0 0 0 -0.321,0.172 2.841,2.841 0 0 0 -0.525,2.083 5.7,5.7 0 0 1 -0.588,2.858 6.453,6.453 0 0 0 -0.652,2.986 13.051,13.051 0 0 0 0.947,4.059 23.354,23.354 0 0 1 1.43,6.184 0.512,0.512 0 0 0 0.011,0.071 0.465,0.465 0 0 1 0.012,0.089 0.633,0.633 0 0 1 -0.623,0.638 z M 37.705,38.77 a 0.321,0.321 0 0 0 -0.357,0.286 55.15,55.15 0 0 0 -0.052,3.264 0.4,0.4 0 0 0 0.41,0.316 c 0.1,0 0.328,-0.038 0.361,-0.394 0.057,-0.608 0.145,-2.712 0.129,-3.083 A 0.458,0.458 0 0 0 37.705,38.77 Z m 3.361,1.42 a 6.218,6.218 0 0 0 -1.615,0.135 c -0.141,0.06 -0.18,0.253 -0.156,0.418 0.024,0.165 0.121,0.365 0.314,0.386 0.061,0.007 0.174,0.01 0.343,0.01 0.3,0 0.736,-0.011 1.121,-0.02 h 0.028 C 41.508,41.109 41.89,41.1 42.152,41.1 h 0.224 a 0.481,0.481 0 0 0 0.432,-0.5 C 42.814,40.442 42.755,40.251 42.567,40.236 42.379,40.221 41.738,40.19 41.066,40.19 Z m -1.262,-3.353 c 0.433,0 1.172,0.041 1.662,0.069 0.23,0.013 0.41,0.023 0.5,0.026 a 1.21,1.21 0 0 0 0.154,0.011 c 0.166,0 0.266,-0.046 0.3,-0.138 0.056,-0.166 -0.131,-0.424 -0.243,-0.51 a 7.4,7.4 0 0 0 -1.583,-0.957 0.059,0.059 0 0 0 -0.031,0.007 c -0.019,0.012 -0.049,0.028 -0.089,0.05 -0.287,0.155 -1.051,0.568 -1.126,1.145 a 0.283,0.283 0 0 0 0.139,0.314 1.968,1.968 0 0 1 0.317,-0.018 z m -0.156,-10.9 a 5.405,5.405 0 0 0 -1,0.2 0.918,0.918 0 0 0 -0.253,0.305 c 0,0.022 0.021,0.039 0.046,0.06 a 0.187,0.187 0 0 1 0.082,0.121 0.3,0.3 0 0 1 -0.039,0.143 0.391,0.391 0 0 0 -0.044,0.274 c 0.1,0.331 0.7,0.465 0.8,0.465 0.1,0 0.172,-0.21 0.173,-0.212 a 4.758,4.758 0 0 0 0.477,-0.128 c 0.217,-0.077 0.316,-0.184 0.3,-0.327 -0.011,-0.119 -0.155,-0.152 -0.322,-0.19 l -0.1,-0.024 -0.055,-0.013 C 39.564,26.575 39.424,26.54 39.401,26.495 a 0.029,0.029 0 0 1 0,-0.025 c 0.021,-0.052 0.12,-0.062 0.208,-0.071 l 0.062,-0.007 a 2.719,2.719 0 0 1 0.28,-0.008 h 0.241 a 0.148,0.148 0 0 0 0.122,-0.05 0.117,0.117 0 0 0 0.015,-0.106 1.445,1.445 0 0 0 -0.663,-0.29 z" fill="#ffffff"></path>
  </g>
</svg>
