<?xml version="1.0" encoding="UTF-8" standalone="no"?>
<svg xmlns:inkscape="http://www.inkscape.org/namespaces/inkscape" xmlns:sodipodi="http://sodipodi.sourceforge.net/DTD/sodipodi-0.dtd" xmlns="http://www.w3.org/2000/svg" xmlns:svg="http://www.w3.org/2000/svg" viewBox="0 0 63.4 25.1" version="1.1" id="svg842" sodipodi:docname="agata-meble.svg" width="63.400002" height="25.1" inkscape:version="1.1 (c4e8f9e, 2021-05-24)">
  <defs id="defs846">
    <clipPath id="clipPath199">
      <path d="M 112.015,688.512 H 398.221 V 801.104 H 112.015 Z" id="path197"></path>
    </clipPath>
    <clipPath id="clipPath199-6">
      <path d="M 112.015,688.512 H 398.221 V 801.104 H 112.015 Z" id="path197-1"></path>
    </clipPath>
    <clipPath id="clipPath61-8">
      <path d="M 34.009,13.337 H 80.297 V 31.49 H 34.009 Z" id="path59-1"></path>
    </clipPath>
  </defs>
  <g id="g135" transform="translate(-170.91866,-102.19311)">
    <path fill="none" d="M -1,-1 H 401 V 301 H -1 Z" id="path9"></path>
    <g id="g55" transform="matrix(1.6987824,0,0,-1.6987824,107.04907,157.06379)" style="fill:#ffffff">
      <g id="g57" clip-path="url(#clipPath61-8)" style="fill:#ffffff">
        <g id="g63" transform="translate(56.2658,27.6203)" style="fill:#ffffff">
          <path d="m 0,0 v -0.561 -2.89 -0.631 c 0,-1.806 1.48,-2.422 2.626,-2.033 v -0.864 c 0,-0.292 0.052,-0.548 -0.162,-0.793 -0.114,-0.13 -0.276,-0.213 -0.466,-0.22 -0.004,0 -0.008,0 -0.011,0 H 1.986 v 0 0 c -0.005,0 -0.01,0 -0.014,0 H 1.971 c -0.004,0 -0.009,0 -0.014,0 H 1.955 c -0.004,0 -0.008,0 -0.011,0 -0.043,0.002 -0.085,0.008 -0.125,0.017 v 0 c -0.237,0.054 -0.414,0.232 -0.483,0.468 -0.046,0.191 -0.073,0.333 -0.245,0.438 -0.115,0.07 -0.266,0.112 -0.435,0.112 -0.356,0 -0.638,-0.204 -0.638,-0.456 0,-0.082 -0.009,-0.143 0,-0.216 0.104,-0.847 0.907,-1.57 1.801,-1.645 v -0.001 c 0.05,-0.004 0.101,-0.006 0.152,-0.006 h 10e-4 c 0.009,0 0.017,0.001 0.026,0.001 0.822,0.011 1.546,0.563 1.822,1.309 0.145,0.395 0.121,0.779 0.121,1.19 v 2.563 0.767 2.89 0.694 C 3.941,2.673 0,2.888 0,0 m 1.322,0.124 v -4.375 c 0,-0.332 0.317,-0.663 0.636,-0.663 0.365,0 0.668,0.265 0.668,0.63 v 4.441 c 0,0.327 -0.29,0.629 -0.604,0.629 H 1.958 C 1.629,0.786 1.322,0.467 1.322,0.124" style="fill:#ffffff;fill-opacity:1;fill-rule:evenodd;stroke:none" id="path65"></path>
        </g>
        <g id="g67" transform="translate(52.7731,27.9314)" style="fill:#ffffff">
          <path d="M 0,0 C 0.069,0.235 0.246,0.414 0.483,0.468 V 0.467 c 0.041,0.01 0.082,0.015 0.125,0.017 0.004,0 0.008,0.001 0.011,0.001 h 0.002 c 0.005,0 0.01,0 0.015,0 v 0 c 0.005,0 0.009,0 0.014,0 v 0 h 0.001 v 0 c 0.004,0 0.007,-0.001 0.011,-0.001 0.377,-0.013 0.642,-0.323 0.642,-0.711 v -0.305 c -0.641,-0.15 -1.605,-0.631 -2.174,-1.262 -0.278,-0.308 -0.461,-0.652 -0.461,-1.01 v -0.451 -1.19 c 0,-1.182 0.81,-2.102 1.967,-2.102 1.15,0 1.966,0.926 1.966,2.102 v 4.252 c 0,1.056 -0.89,1.951 -1.94,1.966 -0.009,0 -0.017,0 -0.026,0 v 0 C 0.584,1.773 0.534,1.771 0.483,1.767 v 0 C -0.41,1.691 -1.214,0.969 -1.318,0.122 c -0.009,-0.074 0,-0.135 0,-0.216 0,-0.252 0.282,-0.456 0.639,-0.456 0.168,0 0.319,0.042 0.434,0.112 0.173,0.105 0.2,0.247 0.245,0.438 m -0.033,-2.974 v -1.641 c 0,-0.335 0.323,-0.644 0.669,-0.644 0.391,0 0.668,0.315 0.668,0.712 v 2.659 c -0.403,-0.034 -1.337,-0.6 -1.337,-1.086" style="fill:#ffffff;fill-opacity:1;fill-rule:evenodd;stroke:none" id="path69"></path>
        </g>
        <g id="g71" transform="translate(62.415,27.9314)" style="fill:#ffffff">
          <path d="M 0,0 C 0.069,0.235 0.246,0.414 0.483,0.468 V 0.467 c 0.041,0.01 0.082,0.015 0.125,0.017 0.004,0 0.008,0.001 0.011,0.001 h 0.003 c 0.004,0 0.009,0 0.014,0 v 0 c 0.005,0 0.009,0 0.014,0 v 0 h 0.001 v 0 c 0.004,0 0.007,-0.001 0.011,-0.001 0.377,-0.013 0.642,-0.323 0.642,-0.711 v -0.305 c -0.641,-0.15 -1.605,-0.631 -2.174,-1.262 -0.278,-0.308 -0.461,-0.652 -0.461,-1.01 v -0.451 -1.19 c 0,-1.182 0.81,-2.102 1.967,-2.102 1.15,0 1.966,0.926 1.966,2.102 v 4.252 c 0,1.056 -0.89,1.951 -1.94,1.966 -0.009,0 -0.017,0 -0.026,0 v 0 C 0.585,1.773 0.534,1.771 0.483,1.767 v 0 C -0.41,1.691 -1.214,0.969 -1.318,0.122 c -0.009,-0.074 0,-0.135 0,-0.216 0,-0.252 0.282,-0.456 0.639,-0.456 0.168,0 0.319,0.042 0.434,0.112 0.173,0.105 0.2,0.247 0.245,0.438 m -0.033,-2.974 v -1.641 c 0,-0.335 0.323,-0.644 0.669,-0.644 0.391,0 0.668,0.315 0.668,0.712 v 2.659 c -0.403,-0.034 -1.337,-0.6 -1.337,-1.086" style="fill:#ffffff;fill-opacity:1;fill-rule:evenodd;stroke:none" id="path73"></path>
        </g>
        <g id="g75" transform="translate(70.7588,27.9314)" style="fill:#ffffff">
          <path d="M 0,0 C 0.069,0.235 0.246,0.414 0.483,0.468 V 0.467 c 0.041,0.01 0.082,0.015 0.125,0.017 0.004,0 0.008,0.001 0.011,0.001 h 0.003 c 0.004,0 0.009,0 0.014,0 v 0 c 0.005,0 0.009,0 0.014,0 v 0 h 0.001 v 0 c 0.004,0 0.007,-0.001 0.011,-0.001 0.377,-0.013 0.642,-0.323 0.642,-0.711 v -0.305 c -0.641,-0.15 -1.605,-0.631 -2.174,-1.262 -0.278,-0.308 -0.46,-0.652 -0.46,-1.01 v -0.451 -1.19 c 0,-1.182 0.809,-2.102 1.966,-2.102 1.15,0 1.966,0.926 1.966,2.102 v 4.252 c 0,1.056 -0.89,1.951 -1.94,1.966 -0.009,0 -0.017,0 -0.026,0 v 0 C 0.585,1.773 0.534,1.771 0.483,1.767 v 0 C -0.41,1.691 -1.214,0.969 -1.318,0.122 c -0.009,-0.074 0,-0.135 0,-0.216 0,-0.252 0.282,-0.456 0.639,-0.456 0.168,0 0.319,0.042 0.434,0.112 0.173,0.105 0.2,0.247 0.245,0.438 m -0.033,-2.974 v -1.641 c 0,-0.335 0.323,-0.644 0.669,-0.644 0.391,0 0.668,0.315 0.668,0.712 v 2.659 c -0.403,-0.034 -1.337,-0.6 -1.337,-1.086" style="fill:#ffffff;fill-opacity:1;fill-rule:evenodd;stroke:none" id="path77"></path>
        </g>
        <g id="g79" transform="translate(66.3473,29.7228)" style="fill:#ffffff">
          <path d="M 0,0 C -0.135,0 -0.258,-0.002 -0.4,-0.002 H -0.44 -0.442 -0.443 -0.445 -0.446 -0.447 -0.449 -0.45 -0.452 -0.453 -0.455 -0.456 -0.457 -0.459 -0.46 -0.462 -0.463 -0.464 -0.466 -0.467 -0.469 -0.47 -0.471 -0.473 -0.474 -0.476 -0.477 -0.478 -0.48 -0.481 -0.483 -0.484 -0.485 -0.487 -0.488 -0.49 c -0.446,0.012 -0.539,-0.996 -0.157,-1.254 0.015,-0.01 0.032,-0.019 0.049,-0.027 0.096,-0.047 0.311,-0.039 0.458,-0.039 H 0 V -6.463 C 0,-7.551 0.86,-8.28 1.888,-8.336 2.352,-8.361 2.646,-8.16 2.637,-7.671 2.628,-7.215 2.381,-7.069 1.969,-7.007 1.653,-6.96 1.322,-6.749 1.322,-6.428 v 5.116 H 1.69 c 0.453,0 0.771,0.263 0.888,0.669 0.043,0.148 0.056,0.31 0.044,0.464 C 2.609,-0.011 2.532,0 2.184,0 H 1.322 v 1.276 c 0,0.03 0,0.06 0,0.09 C 1.336,1.88 -0.015,1.926 0,1.317 Z" style="fill:#ffffff;fill-opacity:1;fill-rule:evenodd;stroke:none" id="path81"></path>
        </g>
        <g id="g83" transform="translate(45.1181,21.3983)" style="fill:#ffffff">
          <path d="m 0,0 h -1.39 -1.671 c -0.807,0 -1.352,0.101 -1.749,0.341 -0.435,0.263 -0.66,0.654 -0.807,1.218 -0.105,0.405 -0.202,0.875 -0.266,1.344 -0.056,0.408 -0.088,0.819 -0.079,1.189 0.01,0.422 0.115,0.791 0.414,1.049 0.261,0.225 0.642,0.335 1.198,0.274 -0.01,0.249 -0.016,0.509 -0.018,0.784 L -4.37,6.385 c -0.002,0.162 -0.004,0.298 -0.004,0.431 0.006,1.473 0.201,1.51 2.002,1.503 H 0.982 C 2.782,8.326 2.977,8.289 2.983,6.816 2.984,6.683 2.982,6.547 2.98,6.385 L 2.978,6.199 C 2.975,5.924 2.97,5.664 2.96,5.415 3.516,5.476 3.896,5.366 4.158,5.141 4.456,4.883 4.562,4.514 4.572,4.092 4.581,3.722 4.549,3.311 4.493,2.903 4.429,2.434 4.332,1.964 4.226,1.559 4.08,0.995 3.854,0.604 3.419,0.341 3.023,0.101 2.478,0 1.671,0 Z m -2.376,7.474 c -1.037,0.004 -1.149,-0.012 -1.152,-0.662 0,-0.125 10e-4,-0.26 0.003,-0.421 L -3.523,6.206 C -3.519,5.847 -3.511,5.518 -3.493,5.204 -3.297,5.124 -3.115,5.025 -2.949,4.907 -2.603,4.66 -2.329,4.328 -2.148,3.912 -1.889,3.314 -1.963,2.8 -2.185,2.477 -2.302,2.308 -2.458,2.187 -2.635,2.124 -2.819,2.059 -3.021,2.056 -3.221,2.125 -3.57,2.247 -3.906,2.601 -4.064,3.25 -4.174,3.702 -4.245,4.124 -4.29,4.553 L -4.323,4.559 C -4.688,4.616 -4.894,4.587 -4.994,4.501 -5.08,4.427 -5.112,4.269 -5.116,4.073 c -0.008,-0.32 0.021,-0.687 0.072,-1.058 0.06,-0.434 0.149,-0.87 0.246,-1.244 0.09,-0.345 0.211,-0.574 0.426,-0.705 0.254,-0.153 0.664,-0.218 1.311,-0.218 H -1.39 0 1.671 c 0.647,0 1.057,0.065 1.31,0.218 0.216,0.131 0.337,0.36 0.426,0.705 0.097,0.374 0.187,0.81 0.247,1.244 0.051,0.371 0.08,0.738 0.072,1.058 C 3.721,4.269 3.69,4.427 3.604,4.501 3.504,4.587 3.298,4.616 2.933,4.559 L 2.9,4.553 C 2.854,4.124 2.784,3.702 2.674,3.25 2.516,2.601 2.179,2.247 1.83,2.125 1.63,2.056 1.428,2.059 1.245,2.124 1.068,2.187 0.912,2.308 0.795,2.477 0.572,2.8 0.498,3.314 0.758,3.912 0.939,4.328 1.213,4.66 1.558,4.907 1.724,5.025 1.907,5.124 2.103,5.204 2.121,5.518 2.129,5.847 2.132,6.206 L 2.134,6.391 C 2.136,6.552 2.138,6.687 2.137,6.812 2.135,7.462 2.023,7.478 0.985,7.474 -0.137,7.469 -1.253,7.469 -2.376,7.474 M 1.534,3.577 C 1.64,3.82 1.798,4.02 1.998,4.176 1.96,3.939 1.912,3.699 1.851,3.449 1.772,3.12 1.657,2.96 1.552,2.924 1.543,2.921 1.536,2.921 1.53,2.923 1.518,2.927 1.504,2.939 1.492,2.957 1.415,3.068 1.406,3.282 1.534,3.577 m -4.458,0 C -3.03,3.82 -3.188,4.02 -3.388,4.176 c 0.037,-0.237 0.085,-0.477 0.146,-0.727 0.08,-0.329 0.195,-0.489 0.3,-0.525 0.008,-0.003 0.016,-0.003 0.022,-10e-4 0.012,0.004 0.025,0.016 0.038,0.034 0.077,0.111 0.086,0.325 -0.042,0.62" style="fill:#ffffff;fill-opacity:1;fill-rule:evenodd;stroke:none" id="path85"></path>
        </g>
      </g>
    </g>
  </g>
</svg>
