<?xml version="1.0" encoding="UTF-8" standalone="no"?>
<svg xmlns:inkscape="http://www.inkscape.org/namespaces/inkscape" xmlns:sodipodi="http://sodipodi.sourceforge.net/DTD/sodipodi-0.dtd" xmlns="http://www.w3.org/2000/svg" xmlns:svg="http://www.w3.org/2000/svg" width="145" height="35" viewBox="0 0 145 35" fill="none" version="1.1" id="svg27" sodipodi:docname="auchan.svg" inkscape:version="1.1 (c4e8f9e, 2021-05-24)">
  <g clip-path="url(#clip0_121_3152)" id="g20" transform="matrix(0.95060146,0,0,0.95060146,3.4078861,0.96062779)">
    <mask id="mask0_121_3152" maskUnits="userSpaceOnUse" x="0" y="0" width="145" height="35">
      <path d="M 145,0 H 0 v 35 h 145 z" fill="#ffffff" id="path9"></path>
    </mask>
    <g mask="url(#mask0_121_3152)" id="g18">
      <path fill-rule="evenodd" clip-rule="evenodd" d="m 35.4232,8.65625 h -3.0483 l -0.7408,0.91341 c -0.1303,0.1306 -0.0869,0.26119 0.0435,0.3042 l 1.0023,0.43474 2.8307,-1.30436 C 35.6852,8.91748 35.6414,8.65625 35.4232,8.65625 Z M 24.0998,23.4877 h -3.7453 c -0.958,0.5662 -1.263,0.7398 -2.6133,1.2622 -0.0961,0.0375 -0.1304,0.1298 -0.0866,0.2612 l 3.3455,9.3514 h 1.9169 l -3.0722,-8.5686 c 1.9967,0 6.7673,-0.5299 9.3506,-4.6972 -0.7738,1.2097 -2.6514,2.391 -5.0956,2.391 z m -2.0469,3.5663 2.613,7.3085 h 1.9165 l -2.7442,-7.6552 c -0.5218,0.1293 -1.1322,0.2608 -1.7853,0.3467 z m 2.5796,-9.1089 c 0.2047,-0.3084 0.4007,-0.6247 0.587,-0.9477 -0.086,-0.0434 -0.1617,-0.0337 -0.2486,0.0535 -3.876,4.0888 -7.6217,4.6104 -10.4966,4.6104 H 10.076 c -0.13031,0 -0.24022,-0.1669 -0.14788,-0.2971 3.40518,-4.701 7.18258,-8.3725 9.95808,-10.7697 l -7.371,6.1522 c -0.5665,0.4782 -1.263,0.7828 -2.2215,0.7828 H 1.01709 c -0.261544,0 -0.174225,0.2174 -0.130773,0.3475 0.653453,2.0004 2.395723,3.7843 5.444053,3.7843 l -2.1772,2.2186 c -0.08774,0.0864 -0.08774,0.3034 0.13035,0.3034 h 8.27558 c 5.9813,0 9.6593,-2.595 12.0734,-6.2382 z" fill="#ffffff" id="path12"></path>
      <path fill-rule="evenodd" clip-rule="evenodd" d="m 27.2334,11.2462 c -0.5933,-0.5929 -0.5933,-1.55431 0,-2.14642 0.5937,-0.59294 1.5555,-0.59294 2.1492,0 0.5933,0.59294 0.5933,1.55352 4e-4,2.14642 -0.5941,0.5921 -1.5559,0.5925 -2.1496,0 z m 1.9624,9.8505 C 31.7787,16.929 32.6804,10.3086 32.6804,10.3086 L 31.6781,9.87385 C 31.5473,9.83045 31.5038,9.70025 31.6342,9.56922 L 32.375,8.65624 C 31.8953,7.74244 30.2408,6.2636 27.8016,6.2636 c -1.4481,0 -2.7128,0.38684 -3.8505,1.12831 0,0 -1.6549,1.12123 -4.0649,3.20209 -2.7751,2.3973 -6.5529,6.0692 -9.95762,10.7697 -0.09273,0.1306 0.01669,0.2975 0.14792,0.2975 h 4.3983 c 2.8745,0 6.6201,-0.5224 10.4966,-4.6108 0.0865,-0.0868 0.1621,-0.0964 0.2486,-0.0534 0.0877,0.0442 0.0994,0.1407 0.0555,0.2279 -0.6095,1.4788 -2.1333,4.4802 -4.9209,6.2627 h 3.7457 c 2.4433,0 4.3213,-1.1808 5.0955,-2.3909 z m -3.7953,5.0331 2.9313,8.2327 h 8.1807 c -1.6988,-5.0448 -3.528,-9.787 -5.2263,-14.1358 -1.416,2.9188 -2.7572,4.3876 -5.8857,5.9031 z M 0.438049,34.3625 H 8.71234 L 11.5133,25.6199 H 3.45672 c -0.95845,2.61 -1.97373,5.48 -3.018671,8.7426 z M 11.6441,15.615 l 4.181,-3.4357 c 0.8712,-2.39225 1.7857,-4.82786 2.7433,-6.87247 0.4793,1.08741 0.9238,2.17687 1.4035,3.35151 2.2967,-1.8819 3.7026,-3.00562 5.6003,-3.54261 C 24.3969,2.54951 23.5772,0.782797 23.1853,0 H 13.9086 C 13.1248,1.6528 10.163,7.78623 6.72316,16.0937 h 3.35334 c 0.6092,0 1.1322,-0.0868 1.5676,-0.4787 z M 114.723,27.9691 c -0.61,0.696 -1.612,1.4354 -3.266,1.4354 -1.828,0 -2.83,-1.6962 -2.83,-4.958 0,-4.0008 1.088,-6.0015 3.267,-6.0015 1.261,0 1.915,0.0859 2.829,0.3045 z m -12.995,-3.2622 c 0,7.0464 2.613,10.0908 7.665,10.0908 3.092,0 5.224,-1.044 6.401,-2.7402 l 0.348,2.305 h 5.531 V 14.3561 c -2.221,-0.6956 -4.747,-1.3043 -9.494,-1.3043 -6.749,0 -10.451,4.1313 -10.451,11.6551 z m 36.231,-11.6551 c -3.527,0 -5.574,1.0869 -7.054,2.7397 l -0.436,-2.3049 h -5.486 v 20.8759 h 6.793 v -14.483 c 0.566,-0.696 2.046,-1.4345 3.265,-1.4345 2.004,0 3.136,1.0869 3.136,3.0447 v 12.8728 h 6.75 V 20.5759 c 0,-5.0452 -2.265,-7.5241 -6.968,-7.5241 z m -45.6378,0 c -2.7861,0 -4.6155,0.6521 -6.0099,1.7833 V 5.70154 h -6.967 V 34.3625 h 6.7931 v -14.483 c 0.5669,-0.696 2.0476,-1.4345 3.2667,-1.4345 2.0033,0 3.1352,1.0869 3.1352,3.0447 V 34.3625 H 99.332 V 20.5759 c 0,-5.0452 -2.2635,-7.5241 -7.0108,-7.5241 z M 71.5249,29.0131 c -3.3534,0 -5.0956,-2.088 -5.0956,-5.2626 0,-3.0444 1.7422,-4.9145 5.0522,-4.9145 1.7851,0 3.222,0.4781 4.4849,1.3051 l 0.9581,-5.6977 c -1.8294,-0.7829 -3.788,-1.3916 -7.098,-1.3916 -6.7502,0 -10.451,3.8705 -10.451,10.9603 0,7.1316 3.4835,10.7856 10.2766,10.7856 3.2662,0 6.4015,-1.0002 7.7078,-1.8714 l -0.9585,-5.3048 c -1.5231,0.7832 -3.0038,1.3916 -4.8765,1.3916 z m -21.3383,-1.044 c -0.5659,0.696 -2.0462,1.4354 -3.2662,1.4354 -2.0033,0 -3.1351,-1.0874 -3.1351,-3.0439 v -12.874 h -6.7931 v 13.7865 c 0,5.0448 2.2641,7.5246 7.0102,7.5246 3.5278,0 5.574,-1.0878 7.0547,-2.7402 l 0.4363,2.305 h 5.4868 V 13.4866 h -6.7936 z" fill="#ffffff" id="path14"></path>
      <path fill-rule="evenodd" clip-rule="evenodd" d="m 28.3742,9.09983 c -0.2783,0.2779 -0.2783,0.72897 0,1.00687 0.2782,0.2775 0.7299,0.2779 1.0086,0 0.2778,-0.2779 0.2778,-0.72897 -4e-4,-1.00687 -0.2783,-0.27829 -0.73,-0.27829 -1.0082,0 z" fill="#ffffff" id="path16"></path>
    </g>
  </g>
  <defs id="defs25">
    <clipPath id="clip0_121_3152">
      <rect width="145" height="35" fill="white" id="rect22"></rect>
    </clipPath>
  </defs>
</svg>
