<?xml version="1.0" encoding="UTF-8" standalone="no"?>
<svg xmlns:inkscape="http://www.inkscape.org/namespaces/inkscape" xmlns:sodipodi="http://sodipodi.sourceforge.net/DTD/sodipodi-0.dtd" xmlns="http://www.w3.org/2000/svg" xmlns:svg="http://www.w3.org/2000/svg" viewBox="0 0 90.4 25.1" version="1.1" id="svg842" sodipodi:docname="bonprix.svg" width="90.400002" height="25.1" inkscape:version="1.1 (c4e8f9e, 2021-05-24)">
  <defs id="defs846">
    <clipPath id="clipPath199">
      <path d="M 112.015,688.512 H 398.221 V 801.104 H 112.015 Z" id="path197"></path>
    </clipPath>
    <clipPath id="clipPath199-6">
      <path d="M 112.015,688.512 H 398.221 V 801.104 H 112.015 Z" id="path197-1"></path>
    </clipPath>
    <clipPath id="clipPath61-8">
      <path d="M 34.009,13.337 H 80.297 V 31.49 H 34.009 Z" id="path59-1"></path>
    </clipPath>
    <clipPath id="clipPath155">
      <path d="m 139.802,170.008 h 34.505 v -32.966 h -34.505 z" id="path153"></path>
    </clipPath>
    <clipPath id="clipPath171">
      <path d="m 155.464,180.18 h 20.04 v -39.244 h -20.04 z" id="path169"></path>
    </clipPath>
  </defs>
  <g id="g135" transform="translate(-638.85054,-184.09859)">
    <path fill="none" d="M -1,-1 H 401 V 301 H -1 Z" id="path9"></path>
    <g id="Logo" transform="matrix(0.06535286,0,0,0.06535294,641.09084,177.44463)">
      <g id="g147">
        <path d="m 381.9,208 c -43.9,0 -79.5,38.5 -79.5,85.9 0,47.4 35.6,85.9 79.5,85.9 43.9,0 79.5,-38.5 79.5,-85.9 C 461.3,246.4 425.8,208 381.9,208 Z m 0,144.2 c -26.3,0 -47.6,-26.1 -47.6,-58.4 0,-32.3 21.3,-58.4 47.6,-58.4 26.3,0 47.6,26.1 47.6,58.4 0,32.3 -21.4,58.4 -47.6,58.4 z" id="path131"></path>
        <path d="m 206,208 c -17.8,0 -34.1,6.3 -47.4,16.9 v -92.4 c 0,-3.6 -2.3,-5.9 -5.9,-5.9 -8.5,-0.1 -20.2,3.9 -24.6,15.5 -1.4,3.8 -1.6,7.6 -1.6,10.8 0,9.2 0,143.1 0,144.1 h 0.1 c 1.5,46 36.5,82.8 79.4,82.8 43.9,0 79.5,-38.5 79.5,-85.9 0,-47.5 -35.6,-85.9 -79.5,-85.9 z m 0,144.2 c -26.3,0 -47.6,-26.1 -47.6,-58.4 0,-32.3 21.3,-58.4 47.6,-58.4 26.3,0 47.6,26.1 47.6,58.4 0,32.3 -21.3,58.4 -47.6,58.4 z" id="path133"></path>
        <path d="m 594.3,353.7 c 0,3.3 0.1,7.1 1.6,10.8 4.4,11.6 16.1,15.6 24.6,15.5 3.7,0 5.9,-2.3 5.9,-5.9 V 280.4 C 626.4,240.6 593.8,208 554,208 v 0 c -39.8,0 -72.4,32.6 -72.4,72.4 v 93.7 c 0,3.6 2.3,5.9 5.9,5.9 8.5,0.1 20.2,-3.9 24.6,-15.5 1.4,-3.8 1.6,-7.6 1.6,-10.8 0,-7.8 0,-77.9 0,-77.9 0,-22.1 18.1,-40.3 40.3,-40.3 v 0 c 22.1,0 40.3,18.1 40.3,40.3 0,-0.1 0,70 0,77.9 z" id="path135"></path>
        <path d="m 729,208 c -42.9,0 -77.9,36.8 -79.4,82.8 l -0.1,164.4 c 0,3.6 2.3,5.9 5.9,5.9 8.5,0.1 20.2,-3.9 24.6,-15.5 1.4,-3.8 1.6,-7.6 1.6,-10.8 v -72 c 13.2,10.6 29.6,16.9 47.4,16.9 43.9,0 79.5,-38.5 79.5,-85.9 0,-47.4 -35.6,-85.8 -79.5,-85.8 z m 0,144.2 c -26.3,0 -47.6,-26.1 -47.6,-58.4 0,-32.3 21.3,-58.4 47.6,-58.4 26.3,0 47.6,26.1 47.6,58.4 0,32.3 -21.3,58.4 -47.6,58.4 z" id="path137"></path>
        <path d="m 859.6,285.1 c 0,-42.9 14.4,-45 27.1,-45 3.3,0 7.1,-0.1 10.8,-1.6 11.6,-4.4 15.6,-16.1 15.5,-24.6 0,-3.7 -2.3,-5.9 -5.9,-5.9 h -10.2 c -54.3,0 -69.4,30.5 -69.4,66.4 0,0 0,42.1 0,42.1 v 3.1 54.4 c 0,3.6 2.3,5.9 5.9,5.9 8.5,0.1 20.2,-3.9 24.6,-15.5 1.4,-3.8 1.6,-7.6 1.6,-10.8 0,-9.3 0,-21.4 0,-34.9 z" id="path139"></path>
        <path d="m 1117.6,341.4 c -2.7,-3.2 -39.7,-47.3 -39.7,-47.3 l 24.7,-29.5 c 0,0 12.2,-14.6 14.9,-17.8 2.1,-2.5 4.4,-5.5 5.8,-9.3 4,-11.7 -2.3,-22.3 -8.9,-27.7 -2.8,-2.3 -6,-2 -8.4,0.7 l -49.1,58.5 -49.1,-58.5 c -2.3,-2.8 -5.5,-3.1 -8.4,-0.7 -6.6,5.4 -12.9,16 -8.9,27.7 1.3,3.8 3.7,6.8 5.8,9.3 2.7,3.2 5.8,7 14.9,17.8 l 24.7,29.5 c 0,0 -36.9,44 -39.7,47.3 -2.1,2.5 -4.4,5.5 -5.8,9.3 -4,11.7 2.3,22.3 8.9,27.7 2.8,2.3 6,2 8.4,-0.7 l 49.1,-58.5 49.1,58.5 c 2.3,2.8 5.5,3.1 8.4,0.7 6.6,-5.4 12.9,-16 8.9,-27.7 -1.1,-3.8 -3.5,-6.8 -5.6,-9.3 z" id="path141"></path>
        <path d="m 963.2,213.9 c 0,-3.6 -2.3,-5.9 -5.9,-5.9 -8.5,-0.1 -20.2,3.9 -24.6,15.5 -1.4,3.8 -1.6,7.6 -1.6,10.8 0,5.9 0,139.8 0,139.8 0,3.6 2.3,5.9 5.9,5.9 8.5,0.1 20.2,-3.9 24.6,-15.5 1.4,-3.8 1.6,-7.6 1.6,-10.8 z" id="path143"></path>
        <path d="m 1188.2,344.5 c 0,-3.6 -2.3,-5.9 -5.9,-5.9 -8.5,-0.1 -20.2,3.9 -24.6,15.5 -1.4,3.8 -1.6,7.6 -1.6,10.8 v 9.2 c 0,3.6 2.3,5.9 5.9,5.9 8.5,0.1 20.2,-3.9 24.6,-15.5 1.4,-3.8 1.6,-7.6 1.6,-10.8 z" id="path145"></path>
      </g>
    </g>
  </g>
</svg>
