<?xml version="1.0" encoding="UTF-8"?><svg id="Calque_1" xmlns="http://www.w3.org/2000/svg" viewBox="0 0 841.89 243.19"><defs><style>.cls-1{fill:#e30613;}.cls-2{fill:#382224;}.cls-3{fill:none;}</style></defs><rect class="cls-3" width="841.89" height="243.19"/><g><path class="cls-2" d="m108.7,96.43c1.17-.74,2.29-1.75,3.33-3,2.11-2.51,3.17-5.75,3.17-9.61,0-5.5-1.81-10.01-5.39-13.38-3.55-3.35-8.31-5.05-14.15-5.05h-31.57v64.05h31.66c6.92,0,12.23-1.68,15.78-5,3.58-3.35,5.39-7.87,5.39-13.43,0-4.42-1.21-8.07-3.59-10.85-1.4-1.64-2.96-2.89-4.65-3.71Zm-29.24,7.29h15.39c2,0,3.55.54,4.74,1.65,1.16,1.08,1.72,2.54,1.72,4.44s-.55,3.36-1.69,4.45c-1.14,1.09-2.9,1.64-5.23,1.64h-14.94v-12.19Zm18.98-14.53h0c-1.22,1.17-2.83,1.73-4.95,1.73h-14.03v-12h14.85c1.69,0,3.08.53,4.23,1.61,1.13,1.06,1.68,2.37,1.68,4.03,0,1.97-.58,3.49-1.78,4.63Z"/><path class="cls-2" d="m176.82,99.97c3.41-3.67,5.13-8.3,5.13-13.77,0-6.19-2.19-11.27-6.51-15.1-4.27-3.79-9.94-5.71-16.85-5.71h-30.75v64.05h15.35v-22.43h4.34l20.01,22.28.14.16h19.12l-20.99-23.23c4.47-1.09,8.16-3.18,11-6.24Zm-10.13-13.77c0,1.99-.69,3.55-2.12,4.75-1.48,1.25-3.49,1.89-5.98,1.89h-15.39v-13.28h15.39c2.49,0,4.5.63,5.98,1.89,1.43,1.21,2.12,2.76,2.12,4.75Z"/><rect class="cls-2" x="192.95" y="65.39" width="15.35" height="64.05"/><path class="cls-2" d="m349.71,73.75c-6.49-6.46-14.53-9.73-23.89-9.73s-17.39,3.27-23.88,9.73c-6.49,6.46-9.78,14.45-9.78,23.75s3.29,17.19,9.78,23.62c6.49,6.43,14.52,9.68,23.88,9.68s17.39-3.26,23.88-9.68c6.49-6.43,9.78-14.38,9.78-23.62s-3.29-17.29-9.78-23.75Zm-5.66,23.75c0,5.34-1.77,9.84-5.27,13.37-3.49,3.52-7.85,5.31-12.95,5.31s-9.45-1.79-12.95-5.31c-3.5-3.53-5.27-8.02-5.27-13.37s1.78-9.88,5.28-13.47c3.49-3.58,7.85-5.39,12.94-5.39s9.45,1.81,12.94,5.39c3.5,3.59,5.28,8.12,5.28,13.47Z"/><g><path class="cls-2" d="m264.13,179.21h-4.14v-11.46l-6.28,11.46h-2.54l-6.31-11.46v11.46h-4.14v-21.04h3.74l7.98,14.54,8.01-14.54h3.7v21.04Z"/><path class="cls-2" d="m288.13,179.21l-1.82-4.49h-9.3l-1.85,4.49h-4.62l9.11-21.04h3.99l9.11,21.04h-4.62Zm-6.47-15.86l-3.08,7.51h6.12l-3.05-7.51Z"/><path class="cls-2" d="m298.02,179.21v-21.04h4.27v21.04h-4.27Z"/><path class="cls-2" d="m323.97,159.33c1.51,1.09,2.46,2.56,2.86,4.43l-4.27.88c-.15-.98-.61-1.77-1.38-2.37-.77-.6-1.69-.89-2.76-.89s-1.85.25-2.48.75c-.63.5-.94,1.12-.94,1.85,0,1.15.7,1.86,2.11,2.13l4.52.91c1.74.38,3.09,1.07,4.07,2.09.97,1.02,1.46,2.33,1.46,3.94,0,2.03-.76,3.64-2.29,4.84-1.53,1.19-3.55,1.79-6.06,1.79-2.32,0-4.31-.54-5.95-1.62-1.64-1.08-2.59-2.62-2.84-4.63l4.49-.91c.54,2.28,2.11,3.42,4.71,3.42,1.19,0,2.11-.25,2.76-.75.65-.5.98-1.14.98-1.92,0-.63-.18-1.12-.55-1.48-.37-.36-1-.63-1.9-.82l-4.46-.85c-3.68-.77-5.53-2.78-5.53-6.03,0-1.9.72-3.45,2.17-4.63,1.45-1.18,3.39-1.77,5.84-1.77,2.13,0,3.96.54,5.46,1.63Z"/><path class="cls-2" d="m353.13,160.9c2.15,2.14,3.22,4.74,3.22,7.82s-1.07,5.65-3.22,7.77c-2.15,2.13-4.77,3.19-7.86,3.19s-5.72-1.06-7.87-3.19c-2.15-2.12-3.22-4.72-3.22-7.77s1.07-5.68,3.22-7.82c2.15-2.14,4.77-3.2,7.87-3.2s5.72,1.07,7.86,3.2Zm-3.04,12.78c1.31-1.32,1.96-2.97,1.96-4.96s-.66-3.65-1.96-4.99c-1.31-1.34-2.92-2.01-4.82-2.01s-3.51.67-4.82,2.01c-1.31,1.34-1.96,3-1.96,4.99s.66,3.64,1.96,4.96c1.31,1.32,2.92,1.98,4.82,1.98s3.51-.66,4.82-1.98Z"/><path class="cls-2" d="m383.34,179.21h-3.58l-11.65-13.5v13.5h-4.27v-21.04h3.58l11.65,13.88v-13.88h4.27v21.04Z"/><path class="cls-2" d="m399.4,170.68v-4.24h12.19v4.24h-12.19Z"/><path class="cls-2" d="m445.27,171.76c0,2.3-.75,4.2-2.26,5.68-1.51,1.49-3.48,2.23-5.9,2.23-2.22,0-4.03-.63-5.45-1.88-1.41-1.26-2.29-2.92-2.62-4.99l4.05-.82c.15,1.15.57,2.08,1.26,2.79.69.71,1.61,1.07,2.76,1.07s2.09-.39,2.81-1.16c.72-.77,1.08-1.75,1.08-2.92v-13.6h4.27v13.6Z"/><path class="cls-2" d="m468.1,179.21l-1.82-4.49h-9.3l-1.85,4.49h-4.62l9.11-21.04h3.99l9.11,21.04h-4.62Zm-6.47-15.86l-3.08,7.51h6.12l-3.05-7.51Z"/><path class="cls-2" d="m492.15,179.21l-6.94-7.73h-2.23v7.73h-4.27v-21.04h10.08c2.26,0,4.08.61,5.46,1.84,1.38,1.22,2.07,2.83,2.07,4.82,0,1.76-.54,3.22-1.63,4.4-1.09,1.17-2.55,1.9-4.4,2.17l7.07,7.82h-5.21Zm-3.36-11.59c.98,0,1.78-.26,2.39-.77.61-.51.91-1.19.91-2.03s-.3-1.51-.91-2.03c-.61-.51-1.4-.77-2.39-.77h-5.81v5.59h5.81Z"/><path class="cls-2" d="m512.03,158.16c3.48,0,6.27.97,8.39,2.9,2.11,1.94,3.17,4.48,3.17,7.62s-1.06,5.68-3.17,7.62-4.91,2.9-8.39,2.9h-7.76v-21.04h7.76Zm0,17.18c2.2,0,3.96-.6,5.28-1.81,1.32-1.2,1.98-2.82,1.98-4.85s-.66-3.65-1.98-4.85c-1.32-1.2-3.08-1.81-5.28-1.81h-3.48v13.31h3.48Z"/><path class="cls-2" d="m530.36,179.21v-21.04h4.27v21.04h-4.27Z"/><path class="cls-2" d="m562.93,179.21h-3.58l-11.65-13.5v13.5h-4.27v-21.04h3.58l11.65,13.88v-13.88h4.27v21.04Z"/></g><path class="cls-2" d="m269.35,101.47l-.14.65c-1.02,4.74-3.02,8.32-5.95,10.64-2.94,2.33-6.53,3.51-10.66,3.51-5.03,0-9.36-1.81-12.85-5.39-3.5-3.59-5.28-8.12-5.28-13.47s1.76-9.87,5.23-13.42c3.46-3.55,7.8-5.35,12.9-5.35,4.08,0,7.65,1.18,10.62,3.51,2.93,2.3,4.93,5.8,5.96,10.42l15.18-2.78-.23-1.08c-1.59-7.56-5.33-13.63-11.13-18.06-5.77-4.41-12.63-6.64-20.41-6.64-9.36,0-17.38,3.26-23.84,9.69-6.46,6.43-9.73,14.41-9.73,23.71s3.28,17.36,9.74,23.75c6.46,6.39,14.47,9.64,23.83,9.64,7.84,0,14.74-2.28,20.51-6.79,5.8-4.52,9.51-10.87,11.03-18.85l.18-.96-14.97-2.74Z"/></g><g><g><rect class="cls-1" x="64.94" y="145.66" width="48.06" height="11.8" transform="translate(-25.38 18.11) rotate(-10.18)"/><rect class="cls-1" x="729.4" y="36.25" width="47.1" height="11.56" transform="translate(4.89 137.47) rotate(-10.47)"/><g><polygon class="cls-1" points="405.7 106.02 383.83 66.15 383.41 65.39 370.21 65.39 370.21 129.44 385.2 129.44 385.2 100.41 401.18 129.44 410.32 129.44 426.2 100.44 426.2 129.44 441.19 129.44 441.19 65.39 428.08 65.39 405.7 106.02"/><path class="cls-1" d="m488.43,65.86h-12.9l-27.32,63.11h15.61l5.38-13.04h25.64l5.29,13.04h15.62l-27.05-62.51-.26-.61Zm-14.14,37.21l7.73-18.85,7.65,18.85h-15.38Z"/><path class="cls-1" d="m571.74,99.97c3.41-3.67,5.13-8.3,5.13-13.77,0-6.19-2.19-11.27-6.51-15.1-4.27-3.79-9.94-5.71-16.85-5.71h-30.75v64.05h15.35v-22.43h4.34l20.01,22.28.14.16h19.12l-20.99-23.23c4.47-1.09,8.16-3.18,11-6.24Zm-10.13-13.77c0,1.99-.69,3.55-2.12,4.75-1.48,1.25-3.49,1.89-5.98,1.89h-15.39v-13.28h15.39c2.49,0,4.5.63,5.98,1.89,1.43,1.21,2.12,2.76,2.12,4.75Z"/><polygon class="cls-1" points="701.67 90.19 675.44 90.19 675.44 65.39 660.09 65.39 660.09 129.44 675.44 129.44 675.44 104.36 701.67 104.36 701.67 129.44 717.02 129.44 717.02 65.39 701.67 65.39 701.67 90.19"/><polygon class="cls-1" points="745.84 115.27 745.84 104.36 777.02 104.36 777.02 90.37 745.84 90.37 745.84 79.56 777.55 79.56 777.55 65.39 730.49 65.39 730.49 129.44 777.73 129.44 777.73 115.27 745.84 115.27"/></g></g><path class="cls-1" d="m634.58,101.47l-.14.65c-1.02,4.74-3.02,8.32-5.95,10.64-2.94,2.33-6.53,3.51-10.66,3.51-5.03,0-9.36-1.81-12.85-5.39-3.5-3.59-5.28-8.12-5.28-13.47s1.76-9.87,5.23-13.42c3.46-3.55,7.8-5.35,12.9-5.35,4.08,0,7.65,1.18,10.62,3.51,2.93,2.3,4.93,5.8,5.96,10.42l15.18-2.78-.23-1.08c-1.59-7.56-5.33-13.63-11.13-18.06-5.77-4.41-12.63-6.64-20.41-6.64-9.36,0-17.38,3.26-23.84,9.69-6.46,6.43-9.73,14.41-9.73,23.71s3.28,17.36,9.74,23.75c6.46,6.39,14.47,9.64,23.83,9.64,7.84,0,14.74-2.28,20.51-6.79,5.8-4.52,9.51-10.87,11.03-18.85l.18-.96-14.97-2.74Z"/></g></svg>