<?xml version="1.0" encoding="UTF-8" standalone="no"?>
<svg xmlns:inkscape="http://www.inkscape.org/namespaces/inkscape" xmlns:sodipodi="http://sodipodi.sourceforge.net/DTD/sodipodi-0.dtd" xmlns="http://www.w3.org/2000/svg" xmlns:svg="http://www.w3.org/2000/svg" xmlns:rdf="http://www.w3.org/1999/02/22-rdf-syntax-ns#" xmlns:cc="http://creativecommons.org/ns#" xmlns:dc="http://purl.org/dc/elements/1.1/" width="460.23981" height="111.04496" viewBox="0 0 121.77179 29.380645" version="1.1" id="svg2879" inkscape:version="1.1 (c4e8f9e, 2021-05-24)" sodipodi:docname="carrefour-express.svg">
  <defs id="defs2873"></defs>
  <metadata id="metadata2876"></metadata>
  <g inkscape:label="Warstwa 1" inkscape:groupmode="layer" id="layer1" transform="translate(-1.9526515,-30.546033)">
    <g id="g1683" transform="matrix(0.44422998,0,0,-0.44422998,-129.71983,73.634202)" style="fill:#04792f;fill-opacity:1">
      <g id="g87" transform="translate(391.446,44.975)" style="fill:#04792f;fill-opacity:1">
        <path d="M 0,0 C 4.31,0 5.469,1.095 5.469,2.3 5.469,3.18 4.613,4 2.845,4 0.416,4 -1.601,2.33 -2.456,0.165 -1.544,0.055 -0.716,0 0,0 m -2.926,-2.246 c 0,-2.082 1.27,-3.48 3.645,-3.48 1.933,0 3.259,0.739 4.252,2.056 0.055,0.082 1.244,-0.194 1.244,-1.123 C 6.215,-5.34 6.05,-5.67 5.552,-6.164 4.446,-7.23 2.901,-7.808 0.666,-7.808 c -4.033,0 -6.077,2.33 -6.077,5.482 0,4.793 3.673,8.354 8.368,8.354 3.175,0 4.997,-1.48 4.997,-3.643 0,-2.657 -1.767,-4.275 -7.704,-4.275 -0.966,0 -1.961,0.055 -3.149,0.166 -0.027,-0.194 -0.027,-0.357 -0.027,-0.522" style="fill:#04792f;fill-opacity:1;fill-rule:nonzero;stroke:none" id="path89"></path>
      </g>
      <g id="g91" transform="translate(398.269,38.591)" style="fill:#04792f;fill-opacity:1">
        <path d="m 0,0 c 0,0.576 0.302,1.014 1.022,1.643 l 4.171,3.946 -2.957,5.754 c -0.055,0.108 0.497,0.877 1.546,0.877 0.857,0 1.272,-0.438 1.658,-1.481 l 1.794,-3.862 5.385,5.48 c 0.055,0.028 1.493,-0.303 1.493,-1.371 0,-0.575 -0.305,-1.013 -1.023,-1.644 L 8.562,5.043 9.666,2.876 c 0.966,-1.916 1.573,-2.162 2.843,-2.218 0.11,0 0.11,-1.89 -1.767,-1.89 -1.354,0 -2.264,0.602 -3.508,3.425 L 6.545,3.753 1.491,-1.37 C 1.463,-1.395 0,-1.066 0,0" style="fill:#04792f;fill-opacity:1;fill-rule:nonzero;stroke:none" id="path93"></path>
      </g>
      <g id="g95" transform="translate(415.833,43.799)" style="fill:#04792f;fill-opacity:1">
        <path d="m 0,0 c -0.442,-2.305 0.967,-4.413 3.646,-4.413 2.955,0 4.612,2.852 4.612,5.643 0,2.357 -1.547,3.752 -3.397,3.752 C 3.095,4.982 1.437,3.888 0.496,2.3 Z m 5.607,7.204 c 2.817,0 5.358,-2.001 5.358,-5.753 0,-4.084 -2.874,-8.082 -7.125,-8.082 -2.292,0 -3.949,1.233 -4.668,2.768 l -1.407,-6.523 c -0.194,-0.956 -0.552,-1.286 -1.245,-1.286 h -0.304 c -0.743,0 -1.377,0.3 -1.159,1.286 l 3.672,17.232 c 0.029,0.055 0.306,0.138 0.692,0.138 0.939,0 1.822,-0.492 1.491,-2.328 1.131,1.615 2.624,2.548 4.695,2.548" style="fill:#04792f;fill-opacity:1;fill-rule:nonzero;stroke:none" id="path97"></path>
      </g>
      <g id="g99" transform="translate(435.939,51.003)" style="fill:#04792f;fill-opacity:1">
        <path d="m 0,0 c 1.16,0 2.128,-0.575 2.128,-1.509 0,-1.34 -1.133,-1.806 -1.188,-1.752 -0.357,0.412 -0.883,0.74 -1.766,0.74 -1.961,0 -3.26,-2.328 -3.949,-5.616 l -0.885,-4.192 c -0.193,-0.958 -0.579,-1.287 -1.242,-1.287 h -0.331 c -0.719,0 -1.355,0.3 -1.161,1.287 l 2.567,11.971 c 0.03,0.055 0.305,0.138 0.694,0.138 0.938,0 1.82,-0.492 1.49,-2.301 C -2.759,-0.877 -1.573,0 0,0" style="fill:#04792f;fill-opacity:1;fill-rule:nonzero;stroke:none" id="path101"></path>
      </g>
      <g id="g103" transform="translate(442.813,44.975)" style="fill:#04792f;fill-opacity:1">
        <path d="M 0,0 C 4.309,0 5.468,1.095 5.468,2.3 5.468,3.18 4.612,4 2.845,4 0.416,4 -1.601,2.33 -2.457,0.165 -1.548,0.055 -0.716,0 0,0 m -2.928,-2.246 c 0,-2.082 1.271,-3.48 3.646,-3.48 1.933,0 3.26,0.739 4.254,2.056 0.054,0.082 1.242,-0.194 1.242,-1.123 0,-0.547 -0.165,-0.877 -0.663,-1.371 -1.104,-1.066 -2.652,-1.644 -4.889,-1.644 -4.031,0 -6.074,2.33 -6.074,5.482 0,4.793 3.672,8.354 8.368,8.354 3.175,0 4.999,-1.48 4.999,-3.643 0,-2.657 -1.77,-4.275 -7.707,-4.275 -0.964,0 -1.96,0.055 -3.149,0.166 -0.027,-0.194 -0.027,-0.357 -0.027,-0.522" style="fill:#04792f;fill-opacity:1;fill-rule:nonzero;stroke:none" id="path105"></path>
      </g>
      <g id="g107" transform="translate(451.626,38.893)" style="fill:#04792f;fill-opacity:1">
        <path d="m 0,0 c -0.414,0.412 -0.689,0.903 -0.689,1.371 0,0.959 1.048,1.424 1.13,1.341 C 1.325,1.399 2.954,0.33 5.024,0.33 c 1.74,0 2.708,0.739 2.708,1.834 0,0.987 -1.022,1.398 -2.708,1.973 -1.904,0.685 -3.947,1.479 -3.947,3.864 0,2.383 2.016,4.109 5.163,4.109 2.043,0 3.701,-0.686 4.612,-1.618 0.471,-0.438 0.69,-0.903 0.69,-1.369 0,-1.041 -1.159,-1.452 -1.242,-1.316 -0.746,1.289 -2.32,2.247 -4.087,2.247 -1.713,0 -2.569,-0.849 -2.569,-1.78 0,-1.042 1.106,-1.478 2.874,-2.138 1.959,-0.71 3.949,-1.505 3.949,-3.751 0,-2.468 -1.961,-4.109 -5.334,-4.109 C 2.814,-1.724 0.993,-0.957 0,0" style="fill:#04792f;fill-opacity:1;fill-rule:nonzero;stroke:none" id="path109"></path>
      </g>
      <g id="g111" transform="translate(463.722,38.893)" style="fill:#04792f;fill-opacity:1">
        <path d="m 0,0 c -0.416,0.412 -0.692,0.903 -0.692,1.371 0,0.959 1.05,1.424 1.13,1.341 C 1.325,1.399 2.953,0.33 5.024,0.33 6.763,0.33 7.73,1.069 7.73,2.164 7.73,3.151 6.708,3.562 5.024,4.137 3.119,4.822 1.077,5.616 1.077,8.001 c 0,2.383 2.016,4.109 5.162,4.109 2.044,0 3.703,-0.686 4.612,-1.618 0.471,-0.438 0.692,-0.903 0.692,-1.369 0,-1.041 -1.159,-1.452 -1.246,-1.316 -0.743,1.289 -2.316,2.247 -4.085,2.247 -1.711,0 -2.567,-0.849 -2.567,-1.78 0,-1.042 1.105,-1.478 2.871,-2.138 1.961,-0.71 3.949,-1.505 3.949,-3.751 0,-2.468 -1.959,-4.109 -5.329,-4.109 C 2.815,-1.724 0.993,-0.957 0,0" style="fill:#04792f;fill-opacity:1;fill-rule:nonzero;stroke:none" id="path113"></path>
      </g>
      <g id="g115" transform="translate(306.706,64.997)" style="fill:#04792f;fill-opacity:1">
        <path d="m 0,0 c -2.429,2.492 -3.995,6.127 -3.993,10.655 0,4.333 1.529,7.988 3.919,10.559 2.388,2.57 5.639,4.055 9.065,4.055 6.145,-0.01 10.485,-4.309 10.507,-8.026 -0.002,-1.987 -1.26,-3.525 -2.964,-3.529 -0.84,0 -1.626,0.288 -2.205,0.831 -0.577,0.544 -0.936,1.339 -0.934,2.308 -0.003,1.163 0.594,1.868 1.04,2.375 -0.809,1.401 -2.408,2.556 -4.913,2.561 C 7.39,21.787 5.597,20.684 4.305,18.737 3.013,16.791 2.251,13.998 2.251,10.694 c 0,-3.297 0.795,-6.08 2.122,-8.017 1.328,-1.942 3.158,-3.039 5.291,-3.044 2.506,0.006 4.106,1.148 4.91,2.56 -0.448,0.495 -1.039,1.206 -1.038,2.36 -10e-4,0.97 0.356,1.771 0.935,2.315 0.578,0.541 1.365,0.83 2.205,0.83 1.704,0 2.959,-1.531 2.963,-3.515 C 19.619,0.448 15.277,-3.835 9.135,-3.847 5.714,-3.847 2.428,-2.491 0,0 m 88.591,9.641 c 0.397,0.009 0.504,0.099 0.581,0.226 0.079,0.137 0.1,0.403 0.098,0.732 -0.04,1.905 -1.522,3.671 -3.807,3.671 -2.877,0 -4.043,-2.303 -4.225,-4.628 h 7.353 z M 31.46,6.321 c -2.205,-0.023 -3.69,-1.06 -3.702,-3.109 0.014,-1.936 1.32,-3.238 3.377,-3.252 1.331,-0.004 2.694,0.734 3.555,1.8 v 2.836 c 0,0.388 -0.254,0.81 -0.799,1.15 -0.543,0.337 -1.369,0.575 -2.431,0.575 m 84.027,1.157 c 0.01,-5.493 2.398,-7.856 4.743,-7.862 2.678,0.003 4.616,2.366 4.633,6.992 0.002,2.414 -0.534,4.346 -1.406,5.654 -0.874,1.312 -2.068,2.008 -3.442,2.008 -2.781,-0.004 -4.513,-2.517 -4.528,-6.792 M 45.774,-2.98 c -0.861,0.236 -1.414,0.712 -1.413,1.423 0.002,0.282 0.083,0.58 0.232,0.904 l 0.047,0.103 0.111,0.021 c 0.337,0.066 0.882,0.229 1.375,0.608 0.504,0.427 0.709,1.018 0.713,2.678 v 8.361 c -0.043,1.409 -0.371,1.901 -1.541,1.934 -0.265,0 -0.575,-0.033 -0.93,-0.101 l -0.18,-0.033 -0.066,0.168 c -0.129,0.318 -0.188,0.624 -0.188,0.912 0.03,1.664 1.858,2.518 3.097,2.901 0.485,0.149 0.938,0.226 1.358,0.226 1.685,0.003 2.594,-1.18 2.986,-2.699 1.102,1.77 2.854,2.943 4.568,2.951 1.595,-0.004 3.237,-1.054 3.243,-3.062 -0.004,-1.423 -1.011,-2.917 -2.704,-2.923 -1.238,-10e-4 -2.325,0.821 -2.557,2.03 -0.958,-0.314 -2.314,-1.504 -2.329,-5.623 V 2.757 c 0.004,-1.654 0.242,-2.247 0.741,-2.67 0.461,-0.367 1.455,-0.55 1.813,-0.616 l 0.111,-0.021 0.048,-0.103 c 0.16,-0.351 0.252,-0.669 0.252,-0.97 0.005,-0.676 -0.505,-1.143 -1.322,-1.37 -0.824,-0.243 -2.027,-0.335 -3.662,-0.335 -1.667,0 -2.927,0.097 -3.803,0.348 m 16.717,0 c -0.862,0.236 -1.416,0.712 -1.415,1.423 0.004,0.282 0.085,0.58 0.234,0.904 l 0.048,0.103 0.11,0.021 c 0.338,0.066 0.88,0.229 1.372,0.608 0.503,0.427 0.71,1.018 0.713,2.678 v 8.361 c -0.041,1.409 -0.37,1.901 -1.538,1.934 -0.268,0 -0.577,-0.033 -0.932,-0.101 l -0.179,-0.033 -0.066,0.168 c -0.129,0.318 -0.189,0.624 -0.189,0.912 0.031,1.664 1.859,2.518 3.096,2.901 0.485,0.149 0.938,0.226 1.363,0.226 1.684,0.003 2.592,-1.18 2.983,-2.704 1.101,1.775 2.853,2.948 4.568,2.955 1.592,-0.003 3.235,-1.053 3.241,-3.061 -0.003,-1.423 -1.008,-2.917 -2.703,-2.923 -1.24,-10e-4 -2.323,0.821 -2.557,2.03 -0.957,-0.314 -2.317,-1.504 -2.33,-5.623 V 2.757 c 0.007,-1.654 0.247,-2.247 0.743,-2.67 0.466,-0.367 1.454,-0.55 1.814,-0.616 l 0.109,-0.021 0.048,-0.103 c 0.16,-0.35 0.249,-0.669 0.249,-0.97 0.009,-0.676 -0.502,-1.143 -1.318,-1.37 -0.825,-0.243 -2.028,-0.335 -3.661,-0.335 -1.668,0 -2.928,0.097 -3.803,0.348 m 35.374,10e-4 c -0.869,0.24 -1.43,0.714 -1.428,1.43 0,0.277 0.081,0.577 0.23,0.898 l 0.047,0.101 0.11,0.021 c 0.338,0.066 0.882,0.229 1.375,0.608 0.502,0.427 0.707,1.018 0.715,2.678 v 10.988 l -2.952,0.103 -0.052,0.131 c -0.152,0.363 -0.226,0.709 -0.226,1.034 0.002,1.071 0.831,1.786 1.865,1.786 h 1.291 v 1.217 c 0,2.939 0.547,4.612 1.295,5.734 1.149,1.788 3.147,3.015 6.19,3.011 3.827,-0.004 7.033,-1.781 7.052,-4.641 -0.003,-1.238 -0.864,-2.774 -2.663,-2.776 -1.345,0.005 -2.587,1.128 -2.594,2.557 0.002,0.525 0.175,1.056 0.436,1.452 -0.401,0.353 -1.168,0.565 -1.906,0.559 -1.189,-0.009 -1.839,-0.416 -2.252,-1.098 -0.412,-0.683 -0.551,-1.683 -0.549,-2.816 v -3.161 h 5.069 l 0.058,-0.136 c 0.153,-0.369 0.224,-0.725 0.221,-1.059 0.004,-1.099 -0.779,-1.922 -1.769,-2.015 -0.375,-0.038 -0.778,-0.038 -1.136,-0.038 -0.844,0 -1.678,0.059 -2.299,0.072 V 2.757 c 0.005,-1.649 0.276,-2.24 0.776,-2.67 0.444,-0.357 1.701,-0.55 2.069,-0.616 l 0.11,-0.019 0.047,-0.105 c 0.136,-0.296 0.208,-0.568 0.208,-0.83 0,-0.753 -0.614,-1.23 -1.542,-1.482 -0.939,-0.265 -2.275,-0.363 -3.977,-0.363 -1.67,0 -2.937,0.097 -3.819,0.349 m 60.3,-10e-4 c -0.864,0.236 -1.423,0.709 -1.419,1.423 0,0.282 0.085,0.58 0.233,0.906 l 0.046,0.101 0.109,0.021 c 0.324,0.066 0.888,0.232 1.358,0.612 0.517,0.423 0.717,1.013 0.717,2.674 v 8.361 c -0.038,1.409 -0.36,1.901 -1.532,1.934 -0.263,0 -0.573,-0.033 -0.931,-0.101 l -0.179,-0.033 -0.068,0.168 c -0.123,0.316 -0.182,0.615 -0.182,0.896 0.031,1.672 1.86,2.534 3.089,2.917 0.501,0.149 0.938,0.226 1.387,0.226 1.67,0.003 2.578,-1.198 2.963,-2.741 1.094,1.796 2.839,2.985 4.558,2.993 1.615,-0.004 3.237,-1.057 3.242,-3.062 -0.002,-1.423 -1.007,-2.915 -2.682,-2.923 -1.245,-10e-4 -2.339,0.821 -2.58,2.03 -0.949,-0.312 -2.285,-1.501 -2.301,-5.623 V 2.757 c 0.007,-1.654 0.238,-2.251 0.704,-2.67 0.486,-0.367 1.476,-0.55 1.821,-0.616 l 0.11,-0.021 0.046,-0.103 c 0.163,-0.355 0.256,-0.677 0.256,-0.979 0.005,-0.673 -0.501,-1.138 -1.311,-1.361 -0.822,-0.243 -2.022,-0.335 -3.648,-0.335 -1.668,0 -2.931,0.097 -3.806,0.348 m -38.15,-0.623 c -2.807,0 -5.365,1.054 -7.22,2.898 -1.854,1.841 -3.001,4.475 -3.001,7.609 0.01,6.204 4.892,10.425 10.4,10.436 2.964,0 5.535,-1.056 7.356,-2.892 1.825,-1.838 2.896,-4.454 2.896,-7.544 0,-3.097 -1.118,-5.732 -2.986,-7.586 -1.869,-1.851 -4.48,-2.921 -7.442,-2.921 z M 75.891,6.507 c 0,3.14 1.033,5.852 2.843,7.776 1.807,1.928 4.391,3.06 7.449,3.057 2.786,0.003 4.85,-1.032 6.203,-2.512 1.353,-1.48 1.999,-3.394 1.999,-5.158 0,-1.043 -0.22,-2.016 -0.676,-2.834 L 93.649,6.723 H 81.198 c 0.206,-3.624 2.513,-6.156 6.529,-6.169 2.47,-0.007 4.372,1.355 5.005,2.166 l 0.133,0.171 0.173,-0.129 C 93.397,2.505 93.785,2.034 93.776,1.132 93.763,-0.957 91.317,-3.633 85.893,-3.636 80.38,-3.627 75.9,0.763 75.891,6.507 m 71.814,-9.224 c -0.364,0.51 -0.562,1.156 -0.735,1.899 -0.203,-0.228 -0.442,-0.475 -0.803,-0.821 -1.335,-1.251 -3.079,-2.006 -5.045,-2.005 -2.143,-10e-4 -3.97,0.822 -5.134,2.194 -1.788,2.132 -1.774,4.837 -1.776,8.679 v 3.703 c -0.039,1.497 -0.509,2.009 -1.899,2.047 -0.179,0 -0.378,-0.012 -0.589,-0.036 l -0.166,-0.018 -0.063,0.156 c -0.11,0.274 -0.161,0.542 -0.161,0.798 0.045,1.789 2.311,2.747 3.641,3.023 0.466,0.071 0.903,0.146 1.329,0.146 1.085,0.002 1.888,-0.347 2.39,-0.973 0.504,-0.627 0.704,-1.489 0.705,-2.49 l -0.036,-6.321 c -0.001,-2.334 0.166,-4.081 0.683,-5.204 0.522,-1.113 1.312,-1.638 2.768,-1.652 1.584,0.006 2.54,0.687 3.151,1.701 0.611,1.02 0.834,2.39 0.833,3.706 v 5.117 c -0.038,1.497 -0.511,2.011 -1.901,2.047 -0.182,0 -0.378,-0.012 -0.587,-0.036 l -0.168,-0.018 -0.063,0.156 c -0.109,0.274 -0.161,0.542 -0.161,0.798 0.045,1.789 2.308,2.747 3.646,3.023 0.462,0.071 0.905,0.146 1.331,0.146 1.084,0.002 1.886,-0.347 2.392,-0.973 0.508,-0.627 0.71,-1.489 0.71,-2.489 0,-0.725 -0.069,-2.013 -0.069,-7.396 0,-2.275 -0.039,-3.484 -0.039,-3.852 0.034,-1.551 0.558,-2.247 1.993,-2.276 0.151,0 0.31,0.012 0.487,0.028 l 0.165,0.018 0.062,-0.156 c 0.108,-0.272 0.161,-0.533 0.161,-0.778 -0.056,-1.748 -2.328,-2.448 -3.644,-2.711 -0.457,-0.07 -0.875,-0.139 -1.245,-0.139 h -0.028 c -1.018,0 -1.705,0.358 -2.135,0.959 M 22.318,2.866 c -0.004,1.989 0.875,3.6 2.352,4.687 1.475,1.087 3.534,1.663 5.924,1.663 1.494,-0.002 3.031,-0.275 4.096,-0.734 v 2.233 c -0.036,2.25 -0.886,3.527 -3.411,3.556 -0.472,0 -1.529,-0.124 -2.395,-0.418 0.082,-0.322 0.133,-0.653 0.133,-0.976 0,-0.751 -0.239,-1.444 -0.693,-1.953 -0.454,-0.51 -1.125,-0.822 -1.936,-0.822 -1.455,0.004 -2.555,1.185 -2.559,2.667 0.031,2.733 3.346,4.57 7.775,4.571 3.515,0 5.72,-0.833 6.898,-2.348 1.07,-1.36 1.12,-3.345 1.125,-6.148 V 1.545 c 0.02,-1.415 0.821,-1.8 2.58,-2.072 l 0.202,-0.025 -0.013,-0.206 c -0.102,-1.925 -1.52,-2.724 -3.043,-2.845 -0.133,-0.012 -0.264,-0.017 -0.395,-0.017 -1.496,-0.004 -2.94,0.731 -3.629,2.227 -0.941,-0.793 -3.067,-2.275 -5.815,-2.278 -4.086,0.006 -7.189,2.762 -7.196,6.537 M 0,0 c -2.429,2.492 -3.995,6.127 -3.993,10.655 0,4.333 1.529,7.988 3.919,10.559 2.388,2.57 5.639,4.055 9.065,4.055 6.145,-0.01 10.485,-4.309 10.507,-8.026 -0.002,-1.987 -1.26,-3.525 -2.964,-3.529 -0.84,0 -1.626,0.288 -2.205,0.831 -0.577,0.544 -0.936,1.339 -0.934,2.308 -0.003,1.163 0.594,1.868 1.04,2.375 -0.809,1.401 -2.408,2.556 -4.913,2.561 C 7.39,21.787 5.597,20.684 4.305,18.737 3.013,16.791 2.251,13.998 2.251,10.694 c 0,-3.297 0.795,-6.08 2.122,-8.017 1.328,-1.942 3.158,-3.039 5.291,-3.044 2.506,0.006 4.106,1.148 4.91,2.56 -0.448,0.495 -1.039,1.206 -1.038,2.36 -10e-4,0.97 0.356,1.771 0.935,2.315 0.578,0.541 1.365,0.83 2.205,0.83 1.704,0 2.959,-1.531 2.963,-3.515 C 19.619,0.448 15.277,-3.835 9.135,-3.847 5.714,-3.847 2.428,-2.491 0,0 c -2.429,2.492 -3.995,6.127 -3.993,10.655 0,4.333 1.529,7.988 3.919,10.559 2.388,2.57 5.639,4.055 9.065,4.055 6.145,-0.01 10.485,-4.309 10.507,-8.026 -0.002,-1.987 -1.26,-3.525 -2.964,-3.529 -0.84,0 -1.626,0.288 -2.205,0.831 -0.577,0.544 -0.936,1.339 -0.934,2.308 -0.003,1.163 0.594,1.868 1.04,2.375 -0.809,1.401 -2.408,2.556 -4.913,2.561 C 7.39,21.787 5.597,20.684 4.305,18.737 3.013,16.791 2.251,13.998 2.251,10.694 c 0,-3.297 0.795,-6.08 2.122,-8.017 1.328,-1.942 3.158,-3.039 5.291,-3.044 2.506,0.006 4.106,1.148 4.91,2.56 -0.448,0.495 -1.039,1.206 -1.038,2.36 -10e-4,0.97 0.356,1.771 0.935,2.315 0.578,0.541 1.365,0.83 2.205,0.83 1.704,0 2.959,-1.531 2.963,-3.515 C 19.619,0.448 15.277,-3.835 9.135,-3.847 5.714,-3.847 2.428,-2.491 0,0" style="fill:#04792f;fill-opacity:1;fill-rule:nonzero;stroke:none" id="path117"></path>
      </g>
      <g id="g119" transform="translate(513.422,94.114)" style="fill:#04792f;fill-opacity:1">
        <path d="m 0,0 c 0.123,0.126 0.245,0.177 0.349,0.177 0.189,0 0.313,-0.162 0.313,-0.366 C 0.656,-0.312 0.6,-0.441 0.483,-0.56 c -4.621,-5.754 -7.989,-12.476 -7.989,-21.808 0,-9.316 3.368,-15.908 7.989,-21.662 0.117,-0.114 0.173,-0.252 0.179,-0.374 0,-0.2 -0.124,-0.364 -0.313,-0.364 -0.104,0 -0.226,0.051 -0.349,0.178 l -19.72,19.067 c -0.982,0.846 -1.611,1.824 -1.611,3.226 0,1.403 0.629,2.386 1.611,3.227 L 0,0" style="fill:#04792f;fill-opacity:1;fill-rule:nonzero;stroke:none" id="path121"></path>
      </g>
      <g id="g123" transform="translate(528.572,95.725)" style="fill:#04792f;fill-opacity:1">
        <path d="m 0,0 c -7.719,0 -10.727,-10.942 -10.727,-23.98 0,-13.036 3.008,-23.834 10.727,-23.834 4.629,0 8.584,2.71 8.595,4.941 0,0.489 -0.185,0.959 -0.589,1.359 -2.2,2.125 -3.053,4.246 -3.068,6.116 -0.008,3.571 3.087,6.236 5.94,6.236 3.934,0 6.247,-3.091 6.247,-7.083 0,-3.79 -1.621,-6.943 -3.372,-9.47 -0.062,-0.106 -0.099,-0.215 -0.099,-0.318 0.003,-0.199 0.122,-0.361 0.292,-0.361 0.108,0 0.231,0.053 0.367,0.193 l 19.719,19.063 c 0.984,0.847 1.614,1.827 1.614,3.23 0,1.399 -0.63,2.383 -1.614,3.223 L 14.313,-1.614 c -0.136,0.134 -0.259,0.187 -0.367,0.187 -0.176,0 -0.289,-0.161 -0.292,-0.357 0,-0.102 0.037,-0.218 0.099,-0.322 1.751,-2.52 3.372,-5.677 3.372,-9.46 0,-3.997 -2.313,-7.087 -6.247,-7.087 -2.853,0 -5.948,2.662 -5.94,6.233 0.015,1.867 0.868,3.993 3.068,6.109 C 8.41,-5.9 8.595,-5.435 8.595,-4.946 8.584,-2.716 4.629,0 0,0" style="fill:#04792f;fill-opacity:1;fill-rule:nonzero;stroke:none" id="path125"></path>
      </g>
    </g>
  </g>
</svg>
