<?xml version="1.0" encoding="UTF-8" standalone="no"?>
<svg xmlns:inkscape="http://www.inkscape.org/namespaces/inkscape" xmlns:sodipodi="http://sodipodi.sourceforge.net/DTD/sodipodi-0.dtd" xmlns="http://www.w3.org/2000/svg" xmlns:svg="http://www.w3.org/2000/svg" xmlns:rdf="http://www.w3.org/1999/02/22-rdf-syntax-ns#" xmlns:cc="http://creativecommons.org/ns#" xmlns:dc="http://purl.org/dc/elements/1.1/" width="460.23981" height="111.04496" viewBox="0 0 121.77179 29.380645" version="1.1" id="svg2879" inkscape:version="1.1 (c4e8f9e, 2021-05-24)" sodipodi:docname="carrefour-market.svg">
  <defs id="defs2873"></defs>
  <metadata id="metadata2876"></metadata>
  <g inkscape:label="Warstwa 1" inkscape:groupmode="layer" id="layer1" transform="translate(-1.9526515,-30.546033)">
    <g transform="matrix(1.399919,0,0,1.399919,5.2944326,31.698252)" id="g3143">
      <g transform="matrix(0.35277777,0,0,-0.35277777,27.21751,14.67243)" id="g1760">
        <path inkscape:connector-curvature="0" id="path1762" style="fill:#ea282a;fill-opacity:1;fill-rule:nonzero;stroke:none" d="m 0,0 c 0.412,1.44 2.58,1.928 3.284,1.671 0.379,-0.139 -1.121,-4.55 -1.121,-4.55 0,0 3.288,4.425 6.579,4.733 3.292,0.305 1.645,-3.701 1.645,-3.701 0,0 3.397,3.806 6.068,3.498 2.677,-0.314 1.336,-3.292 0.931,-4.217 -0.413,-0.929 -2.78,-6.377 -1.341,-6.377 1.44,0 2.469,-0.106 1.746,-1.029 -0.717,-0.929 -3.6,-1.031 -4.521,-0.311 -0.929,0.72 -0.929,2.057 0,4.628 0.921,2.571 2.053,4.938 1.54,5.247 -0.513,0.309 -2.364,-1.341 -3.804,-3.087 -1.441,-1.747 -2.984,-5.859 -3.601,-6.477 -0.618,-0.619 -2.259,-0.929 -2.568,-0.413 -0.312,0.512 1.232,4.937 1.746,6.171 0.51,1.235 1.646,3.599 0.822,3.908 C 6.583,0 4.424,-2.158 2.88,-4.316 1.337,-6.479 0.207,-9.666 -0.619,-10.179 -1.438,-10.694 -2.564,-10.737 -2.776,-10.385 -3.394,-9.354 -0.411,-1.435 0,0"></path>
      </g>
      <g transform="matrix(0.35277777,0,0,-0.35277777,38.430904,14.79943)" id="g1764">
        <path inkscape:connector-curvature="0" id="path1766" style="fill:#ea282a;fill-opacity:1;fill-rule:nonzero;stroke:none" d="m 0,0 c -1.139,-0.166 -2.307,0.066 -2.993,0.066 -1.318,0 -3.271,-0.582 -4.509,-1.995 -1.24,-1.41 -3.479,-5.44 -1.105,-5.852 2.376,-0.415 6.024,6.025 6.954,6.574 0.933,0.553 2.066,0.447 2.03,0.072 -0.031,-0.383 -1.891,-5.268 -1.648,-6.265 0.238,-1.002 1.201,-1.244 1.889,-1.072 0.69,0.172 0.657,-0.65 0.381,-1.032 -0.274,-0.378 -2.449,-1.238 -3.51,-0.827 -1.07,0.418 -1.859,2.102 -1.241,3.959 0,0 -2.581,-3.023 -4.476,-3.579 -1.89,-0.55 -3.89,-0.38 -4.408,2.067 -0.514,2.441 1.38,5.061 2.551,6.053 1.172,1.002 5.44,4.404 10.498,3.723 C 1.685,1.718 1.973,0.28 0,0"></path>
      </g>
      <g transform="matrix(0.35277777,0,0,-0.35277777,41.309216,14.77615)" id="g1768">
        <path inkscape:connector-curvature="0" id="path1770" style="fill:#ea282a;fill-opacity:1;fill-rule:nonzero;stroke:none" d="M 0,0 C 0,0 0.446,1.651 0.314,1.998 0.173,2.343 -1.312,2.172 -2.028,1.445 -2.756,0.728 -3.615,-2.825 -3.89,-3.888 -4.168,-4.957 -5.404,-9.57 -5.3,-10.054 c 0.099,-0.479 2.341,-0.443 2.891,1.069 0.552,1.519 1.546,6.852 2.343,7.539 0.788,0.691 3.713,0.764 4.956,0.657 0,0 0.928,1.789 0.512,2.475 C 4.993,2.378 4.198,2.221 2.892,1.725 1.448,1.175 0.345,0.38 0,0"></path>
      </g>
      <g transform="matrix(0.35277777,0,0,-0.35277777,45.012679,12.42135)" id="g1772">
        <path inkscape:connector-curvature="0" id="path1774" style="fill:#ea282a;fill-opacity:1;fill-rule:nonzero;stroke:none" d="m 0,0 c 0,0 -1.616,0.308 -2.202,-1.444 -0.519,-1.546 -1.15,-3.182 -1.529,-4.689 -0.302,-1.229 -2.501,-8.739 -2.739,-9.796 -0.242,-1.07 0.543,-1.32 1.136,-1.28 1.044,0.08 2.234,3.65 2.857,5.44 0,0 1.665,-2.564 2.351,-3.538 0.717,-1.02 2.933,-3.637 3.885,-4.037 0.817,-0.334 1.859,-0.389 2.51,0 0.716,0.432 0.713,0.86 -0.335,1.352 -1.669,0.78 -3.673,3.446 -4.725,5.242 -1.004,1.703 -1.069,1.843 -1.069,1.843 0,0 3.404,2.378 4.431,3.662 1.092,1.358 0.976,2.255 0.217,2.465 -0.758,0.205 -1.747,0.288 -2.24,-0.826 -0.49,-1.113 -2.444,-4.271 -4.438,-4.51 0,0 1.926,6.575 2.269,7.604 C 0.724,-1.474 1.412,-0.031 0,0"></path>
      </g>
      <g transform="matrix(0.35277777,0,0,-0.35277777,51.049058,14.77615)" id="g1776">
        <path inkscape:connector-curvature="0" id="path1778" style="fill:#ea282a;fill-opacity:1;fill-rule:nonzero;stroke:none" d="m 0,0 c 0.271,-2.649 -1.309,-3.821 -3.303,-4.507 -1.896,-0.659 -5.304,-0.513 -5.304,-0.513 -0.241,-0.83 -0.031,-2.445 1.689,-3.175 1.719,-0.721 4.643,1.105 5.199,1.689 0.545,0.587 1.03,0.893 1.339,0.348 0.308,-0.553 -1.41,-2.69 -3.888,-3.79 -2.48,-1.101 -6.165,-0.34 -6.92,2.136 -0.757,2.478 0.827,5.404 2.683,7.506 1.861,2.098 4.755,2.543 4.755,2.543 0,0 3.474,0.417 3.75,-2.237 m -2.586,-0.654 c 0.177,0.863 -0.785,1.589 -2.539,0.863 -1.761,-0.727 -3.104,-3.822 -3.104,-3.822 4.095,-0.208 5.469,2.1 5.643,2.959"></path>
      </g>
      <g transform="matrix(0.35277777,0,0,-0.35277777,53.951362,12.5293)" id="g1780">
        <path inkscape:connector-curvature="0" id="path1782" style="fill:#ea282a;fill-opacity:1;fill-rule:nonzero;stroke:none" d="m 0,0 c 0,0 -1.342,0.141 -2.24,-0.652 -0.894,-0.796 -1.479,-3.86 -1.479,-3.86 0,0 -1.996,-0.102 -2.41,-0.102 -0.413,0 -0.582,-0.478 -0.722,-0.929 -0.135,-0.447 -0.069,-0.827 0.685,-0.789 0.758,0.033 2.066,0.033 2.066,0.033 0,0 -1.373,-4.271 -1.752,-5.712 -0.381,-1.449 -0.929,-4.028 0.444,-4.445 1.377,-0.411 4.922,-0.343 6.061,1.101 1.141,1.446 -0.963,0.62 -1.066,0.587 -0.103,-0.032 -2.378,-0.45 -2.788,0.202 -0.414,0.657 0,1.794 0.343,2.931 0.343,1.135 1.755,5.438 1.755,5.438 0,0 4.131,-0.135 4.269,0.174 0.257,0.579 0.551,1.409 0.14,1.445 -0.415,0.034 -4.132,-0.036 -4.132,-0.036 0,0 1.018,3.538 1.24,4.198 C 0.516,-0.104 0,0 0,0"></path>
      </g>
      <g transform="matrix(0.35277777,0,0,-0.35277777,1.2555363,9.6601598)" id="g1784">
        <path inkscape:connector-curvature="0" id="path1786" style="fill:#ea282a;fill-opacity:1;fill-rule:nonzero;stroke:none" d="m 0,0 c -2.164,2.22 -3.56,5.46 -3.559,9.495 0,3.862 1.364,7.118 3.493,9.409 2.128,2.291 5.025,3.614 8.078,3.614 5.476,-0.009 9.344,-3.84 9.364,-7.152 -0.003,-1.77 -1.123,-3.141 -2.642,-3.145 -0.748,0 -1.449,0.256 -1.965,0.741 -0.514,0.484 -0.834,1.193 -0.832,2.056 -0.003,1.037 0.529,1.665 0.926,2.117 -0.72,1.248 -2.145,2.278 -4.378,2.282 C 6.586,19.415 4.988,18.432 3.836,16.697 2.685,14.963 2.006,12.474 2.006,9.53 c 0,-2.938 0.708,-5.418 1.891,-7.145 1.184,-1.73 2.815,-2.708 4.715,-2.712 2.233,0.005 3.659,1.023 4.376,2.281 -0.399,0.442 -0.927,1.075 -0.926,2.103 -10e-4,0.865 0.318,1.579 0.833,2.063 0.516,0.483 1.217,0.74 1.966,0.74 1.518,0 2.636,-1.365 2.64,-3.132 C 17.483,0.4 13.614,-3.417 8.14,-3.428 5.092,-3.428 2.163,-2.22 0,0 m 78.947,8.591 c 0.353,0.008 0.449,0.089 0.517,0.202 0.071,0.122 0.09,0.359 0.088,0.652 -0.035,1.698 -1.356,3.271 -3.393,3.271 -2.563,0 -3.602,-2.052 -3.764,-4.124 h 6.552 z M 28.035,5.633 C 26.07,5.613 24.747,4.689 24.737,2.862 c 0.012,-1.725 1.176,-2.886 3.008,-2.898 1.187,-0.003 2.401,0.655 3.169,1.604 v 2.528 c 0,0.345 -0.227,0.721 -0.712,1.024 -0.485,0.301 -1.22,0.513 -2.167,0.513 m 74.88,1.031 c 0.009,-4.895 2.137,-7.001 4.226,-7.006 2.387,0.002 4.114,2.108 4.129,6.23 0.002,2.152 -0.475,3.874 -1.253,5.039 -0.779,1.17 -1.842,1.789 -3.067,1.789 -2.479,-0.003 -4.021,-2.242 -4.035,-6.052 M 40.791,-2.655 c -0.768,0.21 -1.26,0.634 -1.259,1.268 0.002,0.251 0.074,0.517 0.207,0.805 l 0.042,0.092 0.098,0.018 c 0.3,0.059 0.786,0.205 1.226,0.542 0.448,0.381 0.631,0.908 0.635,2.387 v 7.45 c -0.038,1.256 -0.331,1.694 -1.374,1.724 -0.235,0 -0.511,-0.03 -0.828,-0.09 l -0.16,-0.029 -0.059,0.15 c -0.115,0.283 -0.168,0.556 -0.168,0.812 0.027,1.483 1.656,2.244 2.76,2.586 0.432,0.132 0.836,0.2 1.21,0.2 1.502,0.003 2.312,-1.051 2.662,-2.404 0.981,1.577 2.542,2.622 4.07,2.629 1.421,-0.003 2.884,-0.939 2.89,-2.729 -0.004,-1.268 -0.901,-2.599 -2.41,-2.604 -1.103,-10e-4 -2.071,0.732 -2.279,1.809 -0.853,-0.28 -2.062,-1.34 -2.075,-5.011 V 2.457 c 0.004,-1.474 0.216,-2.003 0.66,-2.379 0.412,-0.327 1.297,-0.491 1.617,-0.55 l 0.098,-0.018 0.042,-0.092 c 0.143,-0.313 0.225,-0.596 0.225,-0.864 0.005,-0.603 -0.449,-1.019 -1.178,-1.221 -0.734,-0.217 -1.806,-0.299 -3.263,-0.299 -1.486,0 -2.608,0.086 -3.389,0.311 m 14.897,0 c -0.768,0.21 -1.262,0.634 -1.261,1.268 0.004,0.251 0.076,0.517 0.209,0.805 l 0.042,0.092 0.099,0.018 c 0.3,0.059 0.784,0.205 1.222,0.542 0.448,0.381 0.633,0.908 0.636,2.387 v 7.45 c -0.037,1.256 -0.33,1.694 -1.371,1.724 -0.238,0 -0.514,-0.03 -0.831,-0.09 l -0.159,-0.029 -0.059,0.15 c -0.115,0.283 -0.168,0.556 -0.168,0.812 0.027,1.483 1.657,2.244 2.759,2.586 0.432,0.132 0.836,0.2 1.214,0.2 1.501,0.003 2.31,-1.051 2.659,-2.409 0.98,1.582 2.542,2.627 4.07,2.633 1.419,-0.002 2.883,-0.938 2.889,-2.728 -0.004,-1.268 -0.899,-2.599 -2.409,-2.604 -1.105,-10e-4 -2.071,0.732 -2.279,1.809 -0.852,-0.28 -2.065,-1.34 -2.077,-5.011 V 2.457 c 0.007,-1.474 0.221,-2.003 0.663,-2.379 0.415,-0.327 1.296,-0.491 1.616,-0.55 l 0.098,-0.018 0.043,-0.092 c 0.142,-0.312 0.222,-0.596 0.222,-0.864 0.007,-0.603 -0.448,-1.019 -1.175,-1.221 -0.736,-0.217 -1.808,-0.299 -3.263,-0.299 -1.487,0 -2.609,0.086 -3.389,0.311 m 31.523,0 c -0.774,0.214 -1.274,0.636 -1.272,1.274 0,0.248 0.072,0.515 0.205,0.801 l 0.041,0.09 0.099,0.018 c 0.301,0.059 0.785,0.205 1.225,0.542 0.447,0.381 0.63,0.908 0.637,2.387 v 9.792 l -2.631,0.091 -0.046,0.117 c -0.135,0.324 -0.201,0.632 -0.201,0.922 0.001,0.954 0.74,1.591 1.662,1.591 h 1.15 v 1.085 c 0,2.618 0.487,4.11 1.154,5.109 1.024,1.594 2.804,2.688 5.516,2.684 3.411,-0.004 6.267,-1.588 6.285,-4.136 -0.003,-1.103 -0.77,-2.472 -2.374,-2.474 -1.198,0.005 -2.305,1.005 -2.311,2.279 0.002,0.467 0.156,0.941 0.388,1.293 -0.357,0.315 -1.041,0.504 -1.698,0.499 -1.06,-0.008 -1.639,-0.371 -2.007,-0.978 -0.368,-0.61 -0.491,-1.5 -0.489,-2.51 v -2.817 h 4.517 l 0.052,-0.121 c 0.136,-0.329 0.199,-0.646 0.197,-0.944 0.003,-0.98 -0.695,-1.713 -1.577,-1.795 -0.334,-0.034 -0.693,-0.034 -1.012,-0.034 -0.752,0 -1.496,0.052 -2.049,0.063 V 2.457 c 0.004,-1.469 0.246,-1.996 0.692,-2.379 0.396,-0.318 1.515,-0.491 1.844,-0.55 l 0.097,-0.016 0.042,-0.094 c 0.121,-0.263 0.185,-0.506 0.185,-0.74 0,-0.671 -0.546,-1.096 -1.374,-1.32 -0.836,-0.237 -2.027,-0.324 -3.544,-0.324 -1.488,0 -2.617,0.086 -3.403,0.311 m 53.736,0 c -0.77,0.21 -1.268,0.631 -1.264,1.268 0,0.251 0.075,0.517 0.207,0.807 l 0.041,0.09 0.097,0.018 c 0.289,0.059 0.792,0.207 1.21,0.546 0.461,0.377 0.639,0.903 0.639,2.383 v 7.45 c -0.034,1.256 -0.32,1.694 -1.365,1.724 -0.235,0 -0.511,-0.03 -0.829,-0.09 l -0.16,-0.029 -0.061,0.15 c -0.11,0.281 -0.162,0.548 -0.162,0.798 0.028,1.489 1.658,2.258 2.753,2.6 0.446,0.132 0.835,0.2 1.236,0.2 1.488,0.003 2.297,-1.067 2.64,-2.442 0.975,1.601 2.53,2.66 4.062,2.667 1.44,-0.003 2.884,-0.942 2.889,-2.729 -0.002,-1.268 -0.897,-2.597 -2.39,-2.604 -1.109,-10e-4 -2.084,0.732 -2.299,1.809 -0.846,-0.278 -2.037,-1.338 -2.05,-5.011 V 2.457 c 0.005,-1.474 0.212,-2.006 0.627,-2.379 0.433,-0.327 1.315,-0.491 1.622,-0.55 l 0.098,-0.018 0.041,-0.092 c 0.145,-0.317 0.229,-0.603 0.229,-0.873 0.004,-0.6 -0.446,-1.014 -1.169,-1.212 -0.732,-0.217 -1.801,-0.299 -3.251,-0.299 -1.486,0 -2.612,0.086 -3.391,0.311 M 106.95,-3.211 c -2.501,0 -4.781,0.94 -6.434,2.583 -1.652,1.64 -2.674,3.988 -2.674,6.781 0.009,5.528 4.359,9.29 9.267,9.299 2.642,0 4.933,-0.94 6.556,-2.577 1.626,-1.638 2.581,-3.969 2.581,-6.722 0,-2.761 -0.997,-5.109 -2.662,-6.76 -1.665,-1.65 -3.992,-2.604 -6.631,-2.604 z M 67.629,5.798 c 0,2.799 0.921,5.215 2.534,6.93 1.61,1.718 3.913,2.727 6.638,2.724 2.483,0.003 4.322,-0.919 5.528,-2.238 1.206,-1.319 1.781,-3.024 1.781,-4.597 0,-0.929 -0.196,-1.796 -0.603,-2.526 l -0.052,-0.1 H 72.358 c 0.184,-3.23 2.24,-5.485 5.819,-5.498 2.201,-0.005 3.896,1.208 4.46,1.931 L 82.756,2.576 82.91,2.461 C 83.23,2.233 83.575,1.812 83.568,1.009 83.556,-0.852 81.376,-3.237 76.543,-3.24 71.63,-3.232 67.638,0.68 67.629,5.798 m 63.997,-8.219 c -0.325,0.454 -0.501,1.03 -0.655,1.692 -0.182,-0.203 -0.394,-0.424 -0.716,-0.732 -1.19,-1.114 -2.744,-1.787 -4.495,-1.787 -1.911,0 -3.539,0.733 -4.576,1.956 -1.593,1.9 -1.58,4.311 -1.583,7.734 v 3.3 c -0.034,1.334 -0.454,1.79 -1.692,1.824 -0.16,0 -0.336,-0.011 -0.525,-0.032 l -0.148,-0.016 -0.056,0.139 c -0.097,0.244 -0.144,0.483 -0.144,0.711 0.04,1.594 2.06,2.448 3.246,2.694 0.415,0.063 0.804,0.13 1.184,0.13 0.967,0.002 1.682,-0.309 2.13,-0.867 0.449,-0.558 0.627,-1.327 0.628,-2.219 l -0.032,-5.633 c -10e-4,-2.08 0.148,-3.636 0.608,-4.637 0.466,-0.992 1.169,-1.46 2.467,-1.473 1.411,0.006 2.263,0.612 2.808,1.517 0.545,0.909 0.743,2.129 0.743,3.302 v 4.56 c -0.035,1.334 -0.456,1.792 -1.694,1.824 -0.163,0 -0.337,-0.011 -0.524,-0.032 l -0.149,-0.016 -0.057,0.139 c -0.096,0.244 -0.144,0.483 -0.144,0.711 0.041,1.594 2.057,2.448 3.25,2.694 0.412,0.063 0.806,0.13 1.186,0.13 0.966,0.002 1.681,-0.309 2.132,-0.867 0.453,-0.558 0.632,-1.327 0.632,-2.218 0,-0.646 -0.062,-1.793 -0.062,-6.591 0,-2.027 -0.034,-3.105 -0.034,-3.433 0.031,-1.382 0.497,-2.002 1.776,-2.028 0.135,0 0.277,0.01 0.434,0.025 l 0.147,0.016 0.055,-0.139 c 0.097,-0.243 0.143,-0.475 0.143,-0.693 -0.049,-1.558 -2.074,-2.182 -3.246,-2.416 -0.407,-0.062 -0.78,-0.124 -1.11,-0.124 h -0.024 c -0.908,0 -1.52,0.319 -1.903,0.855 M 19.889,2.554 c -0.004,1.772 0.779,3.208 2.096,4.177 1.314,0.968 3.149,1.482 5.278,1.482 1.332,-0.002 2.701,-0.245 3.651,-0.655 v 1.99 c -0.032,2.005 -0.79,3.144 -3.04,3.17 -0.421,0 -1.363,-0.111 -2.134,-0.373 0.072,-0.287 0.118,-0.582 0.118,-0.87 0,-0.669 -0.213,-1.287 -0.618,-1.741 -0.404,-0.453 -1.002,-0.732 -1.724,-0.732 -1.297,0.004 -2.278,1.057 -2.281,2.377 0.028,2.435 2.982,4.072 6.929,4.073 3.132,0 5.097,-0.742 6.147,-2.092 0.953,-1.212 0.998,-2.981 1.002,-5.479 V 1.376 c 0.018,-1.26 0.732,-1.603 2.3,-1.845 l 0.179,-0.023 -0.011,-0.183 C 37.69,-2.391 36.426,-3.103 35.069,-3.211 34.951,-3.222 34.834,-3.226 34.717,-3.226 33.384,-3.23 32.097,-2.575 31.483,-1.242 30.644,-1.948 28.75,-3.269 26.301,-3.271 22.66,-3.266 19.895,-0.81 19.889,2.554 M 0,0 c -2.164,2.22 -3.56,5.46 -3.559,9.495 0,3.862 1.364,7.118 3.493,9.409 2.128,2.291 5.025,3.614 8.078,3.614 5.476,-0.009 9.344,-3.84 9.364,-7.152 -0.003,-1.77 -1.123,-3.141 -2.642,-3.145 -0.748,0 -1.449,0.256 -1.965,0.741 -0.514,0.484 -0.834,1.193 -0.832,2.056 -0.003,1.037 0.529,1.665 0.926,2.117 -0.72,1.248 -2.145,2.278 -4.378,2.282 C 6.586,19.415 4.988,18.432 3.836,16.697 2.685,14.963 2.006,12.474 2.006,9.53 c 0,-2.938 0.708,-5.418 1.891,-7.145 1.184,-1.73 2.815,-2.708 4.715,-2.712 2.233,0.005 3.659,1.023 4.376,2.281 -0.399,0.442 -0.927,1.075 -0.926,2.103 -10e-4,0.865 0.318,1.579 0.833,2.063 0.516,0.483 1.217,0.74 1.966,0.74 1.518,0 2.636,-1.365 2.64,-3.132 C 17.483,0.4 13.614,-3.417 8.14,-3.428 5.092,-3.428 2.163,-2.22 0,0 c -2.164,2.22 -3.56,5.46 -3.559,9.495 0,3.862 1.364,7.118 3.493,9.409 2.128,2.291 5.025,3.614 8.078,3.614 5.476,-0.009 9.344,-3.84 9.364,-7.152 -0.003,-1.77 -1.123,-3.141 -2.642,-3.145 -0.748,0 -1.449,0.256 -1.965,0.741 -0.514,0.484 -0.834,1.193 -0.832,2.056 -0.003,1.037 0.529,1.665 0.926,2.117 -0.72,1.248 -2.145,2.278 -4.378,2.282 C 6.586,19.415 4.988,18.432 3.836,16.697 2.685,14.963 2.006,12.474 2.006,9.53 c 0,-2.938 0.708,-5.418 1.891,-7.145 1.184,-1.73 2.815,-2.708 4.715,-2.712 2.233,0.005 3.659,1.023 4.376,2.281 -0.399,0.442 -0.927,1.075 -0.926,2.103 -10e-4,0.865 0.318,1.579 0.833,2.063 0.516,0.483 1.217,0.74 1.966,0.74 1.518,0 2.636,-1.365 2.64,-3.132 C 17.483,0.4 13.614,-3.417 8.14,-3.428 5.092,-3.428 2.163,-2.22 0,0"></path>
      </g>
      <g transform="matrix(0.35277777,0,0,-0.35277777,66.241787,0.50664)" id="g1788">
        <path inkscape:connector-curvature="0" id="path1790" style="fill:#ea282a;fill-opacity:1;fill-rule:nonzero;stroke:none" d="m 0,0 c 0.11,0.112 0.218,0.157 0.311,0.157 0.168,0 0.279,-0.143 0.279,-0.325 -0.005,-0.11 -0.055,-0.225 -0.16,-0.331 -4.117,-5.128 -7.119,-11.118 -7.119,-19.434 0,-8.302 3.002,-14.176 7.119,-19.304 0.105,-0.102 0.155,-0.224 0.16,-0.333 0,-0.178 -0.111,-0.325 -0.279,-0.325 -0.093,0 -0.201,0.046 -0.311,0.159 l -17.573,16.991 c -0.876,0.755 -1.436,1.626 -1.436,2.875 0,1.25 0.56,2.126 1.436,2.876 L 0,0"></path>
      </g>
      <path inkscape:connector-curvature="0" id="path1794" style="fill:#ea282a;fill-opacity:1;fill-rule:nonzero;stroke:none;stroke-width:0.352777" d="m 71.004287,5e-5 c -2.426758,0 -3.372202,3.43993 -3.372202,7.53851 0,4.09857 0.945444,7.493 3.372202,7.493 1.455208,0 2.69875,-0.85196 2.701925,-1.55328 0,-0.15382 -0.05821,-0.30163 -0.184856,-0.42722 -0.691796,-0.66816 -0.960261,-1.33491 -0.964846,-1.92299 -0.0024,-1.12254 0.970492,-1.9603902 1.867604,-1.9603902 1.236488,0 1.963915,0.9715502 1.963915,2.2267402 0,1.19133 -0.50941,2.18263 -1.060098,2.97744 -0.01939,0.0328 -0.03104,0.0674 -0.03104,0.0998 7.94e-4,0.0624 0.0381,0.1136 0.09172,0.1136 0.03387,0 0.07267,-0.0169 0.115359,-0.061 L 81.70298,8.5316198 C 82.012365,8.26527 82.210628,7.95694 82.210628,7.51633 c 0,-0.43992 -0.198263,-0.7493 -0.507648,-1.01354 L 75.50397,0.50734 c -0.04269,-0.042 -0.08149,-0.0586 -0.115359,-0.0586 -0.05539,0 -0.09102,0.0504 -0.09172,0.11183 0,0.0321 0.01164,0.0688 0.03104,0.1016 0.550688,0.79233 1.060098,1.7847 1.060098,2.97391 0,1.2566 -0.727427,2.22815 -1.963915,2.22815 -0.897112,0 -1.870075,-0.83714 -1.867604,-1.95968 0.0046,-0.58703 0.27305,-1.25519 0.964846,-1.92053 C 73.648004,1.8549 73.706212,1.70885 73.706212,1.55504 73.703012,0.85372 72.459495,0 71.004287,0"></path>
    </g>
  </g>
</svg>
