<?xml version="1.0" encoding="UTF-8" standalone="no"?>
<svg xmlns:inkscape="http://www.inkscape.org/namespaces/inkscape" xmlns:sodipodi="http://sodipodi.sourceforge.net/DTD/sodipodi-0.dtd" xmlns="http://www.w3.org/2000/svg" xmlns:svg="http://www.w3.org/2000/svg" height="90.545586" width="460.01376" viewBox="-5.2481373 0 149.14136 29.14152" version="1.1" id="svg17" sodipodi:docname="carrefour.svg" inkscape:version="1.1 (c4e8f9e, 2021-05-24)">
  <defs id="defs21"></defs>
  <g stroke-width="1.721" id="g15" transform="matrix(0.1806066,0,0,0.1806066,-3.3967509,1.3759127)">
    <path d="m 650.142,4.94 a 1.566,1.566 0 0 1 1.067,-0.534 1.016,1.016 0 0 1 0.947,1.12 1.721,1.721 0 0 1 -0.534,1.135 c -14.131,17.574 -24.407,38.126 -24.407,66.63 0,28.504 10.327,48.625 24.407,66.199 a 1.721,1.721 0 0 1 0.534,1.136 1.016,1.016 0 0 1 -0.947,1.119 1.55,1.55 0 0 1 -1.067,-0.534 L 589.898,82.947 a 12.324,12.324 0 0 1 0,-19.708 L 650.142,4.957" fill="#ed1c24" id="path9"></path>
    <g fill="#005bab" id="g13">
      <path d="m 696.426,0 c -23.58,0 -32.79,33.427 -32.79,73.274 0,39.846 9.21,72.843 32.79,72.843 14.149,0 26.215,-8.297 26.266,-15.113 a 5.766,5.766 0 0 0 -1.824,-4.165 c -6.713,-6.472 -9.33,-12.961 -9.364,-18.676 0,-10.912 9.433,-19.037 18.16,-19.037 12.048,0 19.07,9.433 19.07,21.636 0,11.567 -4.939,21.223 -10.327,28.935 a 1.721,1.721 0 0 0 -0.31,0.98 0.981,0.981 0 0 0 0.896,1.102 1.721,1.721 0 0 0 1.118,-0.585 L 800.355,82.93 a 12.324,12.324 0 0 0 0,-19.709 L 740.111,4.94 a 1.721,1.721 0 0 0 -1.118,-0.585 c -0.551,0 -0.895,0.499 -0.895,1.119 a 1.721,1.721 0 0 0 0.31,0.98 c 5.353,7.712 10.327,17.35 10.327,28.918 0,12.203 -7.074,21.653 -19.071,21.653 -8.727,0 -18.194,-8.142 -18.16,-19.054 0,-5.698 2.651,-12.187 9.364,-18.676 a 5.783,5.783 0 0 0 1.824,-4.165 c 0,-6.885 -12.048,-15.113 -26.266,-15.113 m -616,97.922 a 17.212,17.212 0 0 1 7.177,-14.32 30.397,30.397 0 0 1 18.108,-5.164 33.754,33.754 0 0 1 12.513,2.237 v -6.885 c -0.103,-6.885 -2.702,-10.775 -10.43,-10.86 a 26.817,26.817 0 0 0 -7.316,1.273 12.341,12.341 0 0 1 0.413,2.978 8.899,8.899 0 0 1 -2.117,5.972 7.728,7.728 0 0 1 -5.92,2.513 7.9,7.9 0 0 1 -7.815,-8.004 c 0.103,-8.348 10.224,-13.959 23.753,-13.976 10.74,0 17.47,2.547 21.085,7.178 3.27,4.165 3.443,10.224 3.443,18.796 v 22.376 c 0,4.32 2.513,5.49 7.883,6.334 h 0.62 v 0.62 c -0.31,5.886 -4.648,8.33 -9.295,8.692 h -1.205 a 11.842,11.842 0 0 1 -11.085,-6.885 28.521,28.521 0 0 1 -17.763,6.885 c -12.48,0 -21.963,-8.434 -21.98,-19.967 m 383.15,17.058 a 16.163,16.163 0 0 1 -2.238,-5.8 c -0.62,0.705 -1.343,1.445 -2.461,2.512 a 22.376,22.376 0 0 1 -15.492,6.128 20.173,20.173 0 0 1 -15.698,-6.713 C 422.3,104.394 422.335,96.132 422.335,84.393 V 73.084 c -0.12,-4.578 -1.55,-6.145 -5.801,-6.248 a 16.386,16.386 0 0 0 -1.721,0.103 h -0.5 l -0.189,-0.482 a 6.592,6.592 0 0 1 -0.499,-2.444 c 0.138,-5.473 7.057,-8.4 11.12,-9.243 a 27.764,27.764 0 0 1 4.061,-0.447 8.847,8.847 0 0 1 7.299,2.977 11.911,11.911 0 0 1 2.151,7.608 l -0.103,19.313 c 0,7.126 0.499,12.462 2.083,15.904 1.583,3.443 4.01,5.009 8.45,5.043 a 10.327,10.327 0 0 0 9.623,-5.163 22.531,22.531 0 0 0 2.547,-11.326 v -15.63 c -0.12,-4.578 -1.566,-6.144 -5.8,-6.247 a 16.06,16.06 0 0 0 -1.722,0.103 h -0.516 l -0.19,-0.482 a 6.592,6.592 0 0 1 -0.62,-2.186 c 0.139,-5.474 7.058,-8.4 11.137,-9.243 a 27.643,27.643 0 0 1 4.063,-0.448 8.899,8.899 0 0 1 7.315,2.978 11.808,11.808 0 0 1 2.169,7.608 c 0,2.22 -0.207,6.145 -0.207,22.6 0,6.885 -0.12,10.655 -0.12,11.773 0.103,4.734 1.72,6.885 6.093,6.885 h 1.997 l 0.189,0.482 a 6.437,6.437 0 0 1 0.499,2.376 c -0.172,5.336 -7.109,7.487 -11.137,8.279 a 26.645,26.645 0 0 1 -3.804,0.43 7.47,7.47 0 0 1 -6.523,-2.926 M 244.134,86.82 a 34.132,34.132 0 0 1 8.606,-23.77 30.466,30.466 0 0 1 22.755,-9.347 24.786,24.786 0 0 1 18.934,7.677 23.598,23.598 0 0 1 6.11,15.766 17.729,17.729 0 0 1 -2.066,8.607 l -0.189,0.344 h -37.936 c 0.637,11.067 7.677,18.813 19.95,18.934 a 20.655,20.655 0 0 0 15.301,-6.627 l 0.413,-0.517 0.534,0.396 a 5.611,5.611 0 0 1 2.255,4.975 c 0,6.386 -7.522,14.561 -24.098,14.561 a 30.57,30.57 0 0 1 -30.57,-30.982 m 134.826,30.896 a 30.982,30.982 0 0 1 -22.066,-8.847 32.187,32.187 0 0 1 -9.175,-23.254 31.464,31.464 0 0 1 31.775,-31.895 31.086,31.086 0 0 1 22.496,8.779 32.187,32.187 0 0 1 -23.013,55.08 z m 116.58,-1.859 c -2.65,-0.722 -4.354,-2.168 -4.337,-4.354 a 6.765,6.765 0 0 1 0.723,-2.772 l 0.137,-0.31 h 0.327 a 9.949,9.949 0 0 0 4.149,-1.875 c 1.583,-1.291 2.186,-3.099 2.186,-8.176 V 72.723 c -0.12,-4.303 -1.102,-5.8 -4.682,-5.904 a 15.491,15.491 0 0 0 -2.84,0.31 l -0.551,0.103 -0.207,-0.516 a 7.556,7.556 0 0 1 -0.55,-2.737 c 0.086,-5.164 5.68,-7.746 9.432,-8.916 a 14.562,14.562 0 0 1 4.234,-0.689 c 5.164,0 7.884,3.667 9.054,8.383 3.34,-5.491 8.606,-9.123 13.925,-9.14 4.94,0 9.897,3.236 9.914,9.363 a 8.606,8.606 0 0 1 -8.193,8.934 7.883,7.883 0 0 1 -7.883,-6.197 c -2.892,0.947 -6.988,4.596 -7.023,17.213 v 15.49 c 0,5.06 0.723,6.885 2.152,8.159 a 15.732,15.732 0 0 0 5.56,1.876 h 0.326 l 0.138,0.31 a 7.315,7.315 0 0 1 0.792,2.995 c 0,2.065 -1.532,3.442 -4.01,4.165 a 42.36,42.36 0 0 1 -11.154,1.016 45.269,45.269 0 0 1 -11.619,-1.068 m -184.173,0 c -2.651,-0.722 -4.372,-2.186 -4.372,-4.372 a 6.61,6.61 0 0 1 0.705,-2.754 l 0.138,-0.31 h 0.344 a 10.327,10.327 0 0 0 4.2,-1.858 c 1.532,-1.308 2.152,-3.116 2.186,-8.176 V 64.702 l -9.02,-0.31 -0.154,-0.396 a 8.21,8.21 0 0 1 -0.689,-3.167 5.422,5.422 0 0 1 5.698,-5.456 h 3.907 v -3.718 c 0,-8.985 1.721,-14.097 3.959,-17.523 3.442,-5.456 9.622,-9.208 18.934,-9.208 11.687,0 21.498,5.439 21.55,14.183 a 8.21,8.21 0 0 1 -8.142,8.486 8.038,8.038 0 0 1 -7.918,-7.815 8.382,8.382 0 0 1 1.343,-4.44 9.346,9.346 0 0 0 -5.818,-1.722 c -3.632,0 -5.611,1.274 -6.885,3.356 a 17.212,17.212 0 0 0 -1.721,8.607 v 9.656 h 15.491 l 0.172,0.413 a 8.296,8.296 0 0 1 0.672,3.236 5.99,5.99 0 0 1 -5.405,6.162 34.287,34.287 0 0 1 -3.443,0.12 c -2.582,0 -5.163,-0.189 -7.022,-0.223 v 33.323 c 0,5.043 0.843,6.885 2.375,8.159 1.532,1.274 5.164,1.721 6.317,1.876 h 0.327 l 0.138,0.327 a 6.128,6.128 0 0 1 0.637,2.547 c 0,2.307 -1.877,3.753 -4.717,4.527 a 47.782,47.782 0 0 1 -12.152,1.12 45.475,45.475 0 0 1 -11.67,-1.068 m -108.094,0 c -2.634,-0.723 -4.338,-2.169 -4.32,-4.355 a 6.885,6.885 0 0 1 0.722,-2.754 l 0.138,-0.31 h 0.344 a 10.327,10.327 0 0 0 4.2,-1.859 c 1.532,-1.308 2.169,-3.115 2.186,-8.175 V 72.723 c -0.12,-4.303 -1.136,-5.8 -4.699,-5.904 a 15.491,15.491 0 0 0 -2.84,0.31 l -0.55,0.103 -0.207,-0.516 a 7.384,7.384 0 0 1 -0.568,-2.789 c 0.086,-5.164 5.68,-7.694 9.467,-8.864 a 14.252,14.252 0 0 1 4.165,-0.689 c 5.164,0 7.918,3.615 9.123,8.262 3.442,-5.422 8.71,-9.002 13.959,-9.036 4.871,0 9.88,3.218 9.897,9.346 a 8.606,8.606 0 0 1 -8.262,8.933 7.797,7.797 0 0 1 -7.814,-6.196 c -2.926,0.964 -7.075,4.596 -7.126,17.212 v 15.492 c 0,5.06 0.757,6.885 2.272,8.158 a 14.975,14.975 0 0 0 5.542,1.876 h 0.327 l 0.155,0.31 a 7.264,7.264 0 0 1 0.758,2.96 c 0,2.066 -1.532,3.443 -4.028,4.183 a 42.6,42.6 0 0 1 -11.188,1.033 45.2,45.2 0 0 1 -11.619,-1.067 m -51.086,0 c -2.634,-0.723 -4.32,-2.169 -4.32,-4.355 a 6.782,6.782 0 0 1 0.705,-2.754 l 0.138,-0.31 h 0.344 a 10.327,10.327 0 0 0 4.2,-1.858 c 1.532,-1.309 2.169,-3.116 2.186,-8.176 V 72.723 c -0.138,-4.303 -1.136,-5.8 -4.716,-5.904 a 15.491,15.491 0 0 0 -2.84,0.31 l -0.551,0.103 -0.207,-0.516 a 7.384,7.384 0 0 1 -0.568,-2.789 c 0.086,-5.164 5.68,-7.694 9.467,-8.864 a 14.2,14.2 0 0 1 4.148,-0.689 c 5.164,0 7.918,3.615 9.123,8.245 3.442,-5.405 8.71,-8.985 13.96,-9.02 4.87,0 9.896,3.22 9.914,9.364 a 8.606,8.606 0 0 1 -8.262,8.934 7.814,7.814 0 0 1 -7.815,-6.197 c -2.926,0.964 -7.074,4.596 -7.109,17.213 v 15.49 c 0,5.061 0.74,6.886 2.272,8.16 a 14.906,14.906 0 0 0 5.543,1.876 h 0.344 l 0.138,0.31 a 7.23,7.23 0 0 1 0.774,2.96 c 0,2.066 -1.549,3.443 -4.045,4.183 a 42.566,42.566 0 0 1 -11.188,1.032 45.252,45.252 0 0 1 -11.618,-1.067 M 365.224,83.894 c 0,16.782 7.332,24.011 14.492,24.097 8.176,0 14.097,-7.23 14.15,-21.36 0,-7.385 -1.636,-13.289 -4.304,-17.213 A 12.445,12.445 0 0 0 379.045,63.29 c -8.503,0 -13.77,7.694 -13.77,20.759 m -256.758,3.545 c -6.748,0 -11.275,3.236 -11.31,9.502 0,5.92 4.029,9.897 10.328,9.931 a 14.545,14.545 0 0 0 10.861,-5.49 V 92.93 a 4.39,4.39 0 0 0 -2.444,-3.442 14.235,14.235 0 0 0 -7.435,-1.722 M 283.086,77.611 c 1.204,0 1.531,-0.293 1.72,-0.688 a 5.164,5.164 0 0 0 0.293,-2.238 11.377,11.377 0 0 0 -11.635,-11.223 c -8.796,0 -12.359,7.04 -12.91,14.15 h 22.463 z M 12.23,106.701 C 4.81,99.091 0.026,87.972 0.026,74.133 A 46.8,46.8 0 0 1 12.075,41.86 37.867,37.867 0 0 1 39.77,29.468 c 18.779,0 32.032,13.167 32.101,24.528 0,6.076 -3.855,10.775 -9.054,10.792 A 9.76,9.76 0 0 1 56.087,62.24 9.432,9.432 0 0 1 53.23,55.183 10.327,10.327 0 0 1 56.414,47.937 C 53.867,43.582 48.979,40.14 41.319,40.14 c -6.506,0 -12.049,3.442 -15.939,9.329 -3.89,5.886 -6.282,14.475 -6.282,24.58 0,10.105 2.427,18.571 6.489,24.492 4.062,5.922 9.656,9.278 16.162,9.295 7.66,0 12.548,-3.442 15.01,-7.814 a 10.327,10.327 0 0 1 -3.168,-7.212 9.501,9.501 0 0 1 2.858,-7.075 9.794,9.794 0 0 1 6.73,-2.564 c 5.164,0 9.036,4.682 9.054,10.74 0,11.412 -13.323,24.494 -32.102,24.545 A 38.866,38.866 0 0 1 12.213,106.7 m 0,0 C 4.794,99.092 0.009,87.973 0.009,74.134 A 46.8,46.8 0 0 1 12.058,41.861 37.867,37.867 0 0 1 39.753,29.468 c 18.778,0 32.032,13.167 32.1,24.528 0,6.076 -3.855,10.775 -9.053,10.792 a 9.76,9.76 0 0 1 -6.73,-2.548 9.432,9.432 0 0 1 -2.857,-7.057 10.327,10.327 0 0 1 3.184,-7.246 c -2.53,-4.355 -7.418,-7.797 -15.078,-7.797 -6.506,0 -12.049,3.442 -15.939,9.329 -3.89,5.886 -6.282,14.475 -6.282,24.58 0,10.105 2.427,18.571 6.489,24.492 4.062,5.922 9.656,9.278 16.162,9.295 7.66,0 12.548,-3.442 15.01,-7.814 a 10.327,10.327 0 0 1 -3.168,-7.212 9.501,9.501 0 0 1 2.858,-7.075 9.794,9.794 0 0 1 6.73,-2.564 c 5.164,0 9.036,4.682 9.054,10.74 0,11.412 -13.323,24.494 -32.102,24.545 A 38.866,38.866 0 0 1 12.213,106.7 m 0,0 C 4.794,99.092 0.009,87.973 0.009,74.134 A 46.8,46.8 0 0 1 12.058,41.861 37.867,37.867 0 0 1 39.753,29.468 c 18.778,0 32.032,13.167 32.1,24.528 0,6.076 -3.855,10.775 -9.053,10.792 a 9.76,9.76 0 0 1 -6.73,-2.548 9.432,9.432 0 0 1 -2.857,-7.057 10.327,10.327 0 0 1 3.184,-7.246 c -2.53,-4.355 -7.418,-7.797 -15.078,-7.797 -6.506,0 -12.049,3.442 -15.939,9.329 -3.89,5.886 -6.282,14.475 -6.282,24.58 0,10.105 2.427,18.571 6.489,24.492 4.062,5.922 9.656,9.278 16.162,9.295 7.66,0 12.548,-3.442 15.01,-7.814 a 10.327,10.327 0 0 1 -3.168,-7.212 9.501,9.501 0 0 1 2.858,-7.075 9.794,9.794 0 0 1 6.73,-2.564 c 5.164,0 9.036,4.682 9.054,10.74 0,11.412 -13.323,24.494 -32.102,24.545 A 38.866,38.866 0 0 1 12.213,106.7" id="path11"></path>
    </g>
  </g>
</svg>
