<svg version="1.1" id="Layer_1" xmlns:x="ns_extend;" xmlns:i="ns_ai;" xmlns:graph="ns_graphs;" xmlns="http://www.w3.org/2000/svg" xmlns:xlink="http://www.w3.org/1999/xlink" x="0px" y="0px" viewBox="0 0 281.1 55" style="enable-background:new 0 0 281.1 55;" xml:space="preserve">
 <style type="text/css">
  .st0{fill:#FFFFFF;}
 </style>
 <metadata>
  <sfw xmlns="ns_sfw;">
   <slices>
   </slices>
   <sliceSourceBounds bottomLeftOrigin="true" height="55" width="281.1" x="-32.6" y="0.4">
   </sliceSourceBounds>
  </sfw>
 </metadata>
 <g>
  <g>
   <g>
    <path class="st0" d="M19.7,23.8c-1.7,1.6-3.3,2.6-5.6,2.6c-3.6,0-6.2-2.8-6.2-6.7v-0.1c0-3.8,2.6-6.6,5.9-6.6
				c2.5,0,4.1,1.1,5.6,2.7l0.2,0.3l4.9-5.3l-0.2-0.2c-2.8-3.1-6-4.4-10.6-4.4c-3.7-0.1-7.3,1.4-9.9,4c-2.5,2.6-3.9,6-3.9,9.6v0.1
				c0,3.6,1.4,7,3.9,9.6c2.6,2.6,6.1,4,9.8,4c4.1,0.2,8.1-1.6,10.7-4.7l0.2-0.2l-4.7-4.8L19.7,23.8z M89,0h-7.9v6.6h-3.2V13h3.2
				v12.3c0,5.5,2.4,8.1,7.7,8.1c2.1,0.1,4.2-0.5,6-1.5l0.2-0.1v-6.4l-0.5,0.3c-1.1,0.6-2.2,0.9-3.4,0.8c-1.4,0-2-0.6-2-2.2V13h6V6.6
				H89L89,0L89,0z M110.4,6.1c-3.8-0.1-7.5,1.4-10.2,4c-2.6,2.5-4.1,6-4.1,9.7v0.1c0,3.6,1.5,7.1,4.1,9.6c2.7,2.6,6.4,4,10.1,3.9
				c3.8,0.1,7.5-1.4,10.2-4c2.6-2.5,4.1-6,4.1-9.7v-0.1c0-3.6-1.4-7.1-4-9.6C117.9,7.4,114.2,6,110.4,6.1z M116.8,19.8
				c0,3.9-2.6,6.6-6.3,6.6c-3.7,0-6.4-2.9-6.4-6.7v-0.1c0-3.9,2.6-6.6,6.3-6.6c3.5,0,6.4,2.9,6.4,6.4
				C116.8,19.5,116.8,19.6,116.8,19.8L116.8,19.8z M134.8,10.5v-4h-7.9v26.3h7.9V22.7c0-5.7,2.5-8.7,7.5-8.7h0.7v-8h-0.3
				C139.4,5.8,136.2,7.6,134.8,10.5L134.8,10.5L134.8,10.5z M205.5,6.1c-3.2,0-6.3,1.4-8.4,3.8c-1.5-2.4-4.1-3.8-7.3-3.8
				c-2.8,0-5.5,1.3-7.2,3.5v-3h-7.9v26.3h7.9v-15c0-3.1,1.5-4.9,4.1-4.9c3.2,0,4,2.6,4,4.9v15h7.8v-15c0-3.1,1.5-4.9,4.1-4.9
				c3.2,0,3.9,2.6,3.9,4.9v15h7.9v-17C214.5,9.6,211.3,6.1,205.5,6.1L205.5,6.1L205.5,6.1z M44.5,9.6c-1.8-2.2-4.5-3.5-7.3-3.5
				c-6.6,0-12.4,6.2-12.4,13.7v0.1c0,7.4,5.6,13.6,12.4,13.6c2.9,0,5.6-1.4,7.3-3.6v3h7.9V6.6h-7.9V9.6L44.5,9.6z M44.8,19.8
				c0,3.9-2.5,6.6-6.1,6.6c-3.6,0-6.2-2.9-6.2-6.7v-0.1c0-3.9,2.5-6.6,6.1-6.6C42.2,13,44.8,15.9,44.8,19.8L44.8,19.8L44.8,19.8z
				 M163.6,9.6c-1.8-2.2-4.5-3.5-7.3-3.5c-6.6,0-12.4,6.2-12.4,13.7v0.1c0,7.4,5.6,13.6,12.4,13.6c2.9,0,5.6-1.4,7.3-3.6v3h7.8V6.6
				h-7.8V9.6L163.6,9.6z M163.9,19.8c0,3.9-2.5,6.6-6.1,6.6c-3.5,0-6.2-2.9-6.2-6.7v-0.1c0-3.9,2.5-6.6,6.1-6.6
				C161.3,13,163.9,15.9,163.9,19.8L163.9,19.8L163.9,19.8z M236.2,6.6v3.1c-1.8-2.2-4.5-3.5-7.3-3.5c-6.6,0-12.4,6.2-12.4,13.7v0.1
				c0,7.4,5.6,13.6,12.4,13.6c2.9,0,5.6-1.4,7.3-3.6v3h7.8V6.6L236.2,6.6L236.2,6.6z M236.5,19.8c0,3.9-2.5,6.6-6.1,6.6
				c-3.6,0-6.2-2.9-6.2-6.7v-0.1c0-3.9,2.5-6.6,6.1-6.6C234,13,236.5,15.9,236.5,19.8C236.5,19.7,236.5,19.8,236.5,19.8z M63.2,14.4
				c0-1.1,1.2-1.3,2.4-1.3c3.6,0,7,2.3,7,2.3l3.3-6l-0.3-0.2c-2.9-1.9-6.3-3-9.8-3c-3.6,0-10.4,2.2-10.4,8.1c0,9.3,13.6,7.6,13.6,11
				c0,1-1.3,1.3-2.8,1.3c-4.3,0-8-2.9-8-2.9l-3.7,5.6l0.3,0.2c3.2,2.6,7.2,4,11.3,4c6.4,0,10.8-4.2,10.8-8.2
				C76.8,16.5,63.2,17.5,63.2,14.4z">
    </path>
    <path class="st0" d="M273.8,13.4c3.7-0.4,7,2.4,7.3,6.1c0.4,3.7-2.4,7-6.1,7.3c-0.4,0-0.8,0-1.3,0h-15.7c-3.7,0.3-7-2.4-7.3-6.1
				c0-0.2,0-0.4,0-0.6c0-3.7,3-6.7,6.7-6.7c0.2,0,0.4,0,0.6,0L273.8,13.4L273.8,13.4z">
    </path>
    <path class="st0" d="M38.5,47.4c-0.1-2.3,1.7-4.3,4-4.4c0.1,0,0.2,0,0.2,0c1.2-0.1,2.4,0.5,3.1,1.5L45,45.3
				c-0.5-0.7-1.3-1.1-2.2-1.1c-1.6,0-3,1.3-3,3c0,0.1,0,0.2,0,0.3c-0.1,1.6,1.1,3.1,2.7,3.2c0.1,0,0.2,0,0.3,0
				c0.9,0,1.7-0.4,2.2-1.1l0.9,0.8c-0.7,1-1.9,1.5-3.1,1.5c-2.3,0-4.2-1.8-4.3-4.2C38.5,47.6,38.5,47.5,38.5,47.4z M53.6,51.6v-5.5
				c0-1.5-0.8-1.9-1.9-1.9c-1,0-2.5,0.7-2.5,3.2v4.2h-1.3V40h1.3v4.4c0.8-0.9,1.9-1.4,3.1-1.4c1.8,0,2.7,0.8,2.7,2.7v5.9
				C54.9,51.6,53.6,51.6,53.6,51.6z M65.3,43.2v8.4H64v-1.2c-0.6,0.9-1.6,1.4-2.7,1.4c-2.3,0-4.2-1.8-4.2-4.1c0-0.1,0-0.2,0-0.3
				C57,45.1,58.7,43.2,61,43c0.1,0,0.2,0,0.3,0c1.1,0,2.1,0.6,2.7,1.5v-1.2C64,43.2,65.3,43.2,65.3,43.2z M64.1,47.5
				c0-1.7-1-3.2-2.8-3.2c-1.8,0-2.8,1.5-2.8,3.2c0,1.7,1,3.2,2.8,3.2C63.1,50.7,64.1,49.1,64.1,47.5L64.1,47.5z M73.7,51.6v-5.5
				c0-1.5-0.8-1.9-1.9-1.9c-1.2,0-2.5,0.7-2.5,3.2v4.2h-1.3v-8.4h1.3v1.2c0.8-0.9,1.9-1.4,3.1-1.4c1.8,0,2.7,0.8,2.7,2.7v5.9
				L73.7,51.6z M85.4,43.2v8.4c0,2.5-2,3.4-4.1,3.4c-1.3,0.1-2.5-0.4-3.5-1.3l0.7-1c0.7,0.8,1.7,1.3,2.7,1.2c1.4,0,2.8-0.6,2.8-2.2
				v-1.3c-0.6,0.9-1.6,1.4-2.7,1.4c-2.3,0-4.2-1.8-4.2-4.1c0-0.1,0-0.2,0-0.3C77,45.1,78.8,43.2,81,43c0.1,0,0.2,0,0.3,0
				c1.1,0,2.1,0.6,2.7,1.5v-1.2C84.1,43.2,85.4,43.2,85.4,43.2z M84.2,47.5c0-1.7-1-3.2-2.8-3.2c-1.8,0-2.8,1.5-2.8,3.2
				c0,1.7,1,3.2,2.8,3.2S84.2,49.1,84.2,47.5L84.2,47.5z M87.6,47.4c-0.1-2.3,1.7-4.3,4-4.4c0.1,0,0.1,0,0.2,0c2.6,0,4.1,2,4.1,4.5
				v0.3H89c0,1.6,1.4,2.9,3,2.8c0,0,0.1,0,0.1,0c1,0,1.9-0.4,2.6-1.1l0.7,0.9c-0.9,0.9-2.1,1.3-3.4,1.3c-2.3,0.1-4.3-1.7-4.4-4
				C87.6,47.7,87.6,47.5,87.6,47.4z M94.6,46.9c0-1.5-1.2-2.7-2.6-2.7c0,0-0.1,0-0.1,0c-1.5,0-2.8,1.2-2.8,2.7H94.6z M102.4,44.5
				h-0.5c-1,0-2.5,0.5-2.5,3v4.2H98v-8.4h1.3v1.2c0.8-0.9,1.9-1.4,3.1-1.4L102.4,44.5z M114.4,51.6v-5.5c0-1.5-0.8-1.9-1.9-1.9
				c-1,0-2.5,0.7-2.5,3.2v4.2h-1.3v-8.4h1.3v1.2c0.8-0.9,1.9-1.4,3.1-1.4c1.8,0,2.7,0.8,2.7,2.7v5.9L114.4,51.6z M117.8,47.4
				c0-2.3,1.9-4.2,4.2-4.2c2.3,0,4.2,1.9,4.2,4.2c0,2.3-1.9,4.2-4.2,4.2S117.8,49.8,117.8,47.4C117.8,47.4,117.8,47.4,117.8,47.4z
				 M124.9,47.4c0-1.7-1-3.2-2.8-3.2s-2.8,1.5-2.8,3.2c0,1.7,1,3.2,2.8,3.2S124.9,49.1,124.9,47.4z M128.4,48.4v-5.2h1.3v5.1
				c-0.1,1.2,0.9,2.3,2.1,2.4c0.1,0,0.1,0,0.2,0c0.9,0,1.8-0.6,2.1-1.5c0.1-0.3,0.1-0.6,0.1-0.9v-5.1h1.3v5.2
				c-0.1,1.9-1.7,3.4-3.6,3.4C130,51.9,128.4,50.4,128.4,48.4C128.4,48.5,128.4,48.4,128.4,48.4z M137.4,50.5l0.7-0.9
				c0.7,0.8,1.8,1.2,2.8,1.2c1.3,0,2-0.6,2-1.4c0-2-5.3-0.8-5.3-3.9c0-1.3,1.1-2.4,3.2-2.4c1.2,0,2.3,0.4,3.2,1.2l-0.6,0.9
				c-0.6-0.7-1.6-1.1-2.5-1.1c-1.2,0-1.9,0.6-1.9,1.3c0,1.8,5.3,0.6,5.3,3.9c0,1.4-1.1,2.5-3.4,2.5
				C139.6,51.9,138.4,51.4,137.4,50.5z M150,43.2h1.4c-0.1-1.8,1.3-3.3,3-3.4c0.2,0,0.3,0,0.5,0V41c-1.2-0.1-2.1,0.8-2.2,2
				c0,0.1,0,0.2,0,0.3h2.2v1.1h-2.2v7.2h-1.3v-7.2h-1.4L150,43.2z M164.5,43.2v8.4h-1.3v-1.2c-0.6,0.9-1.6,1.4-2.7,1.4
				c-1.2,0-2.3-0.4-3.1-1.3c-0.4-0.4-0.7-0.9-0.9-1.4c-0.2-0.5-0.3-1.1-0.2-1.7c-0.1-1.2,0.4-2.3,1.1-3.1c0.8-0.8,1.9-1.3,3.1-1.3
				c1.1,0,2.1,0.6,2.7,1.5v-1.2C163.2,43.2,164.5,43.2,164.5,43.2z M163.3,47.5c0-1.7-1-3.2-2.8-3.2c-1.8,0-2.8,1.5-2.8,3.2
				c0,1.7,1,3.2,2.8,3.2C162.3,50.7,163.3,49.1,163.3,47.5L163.3,47.5z M167.9,40.3c0.4,0,0.8,0.4,0.8,0.8c0,0.2-0.1,0.4-0.3,0.6
				c-0.2,0.1-0.4,0.2-0.6,0.2c-0.4,0-0.8-0.3-0.8-0.8c0,0,0,0,0,0c0-0.2,0.1-0.4,0.2-0.6C167.5,40.4,167.7,40.3,167.9,40.3z
				 M167.3,51.6v-8.4h1.3v8.4H167.3z M173.2,48.4c-0.1,0.9,0.5,1.8,1.3,2.1c0.3,0.1,0.6,0.2,0.9,0.1v1.2c-1.4,0.1-2.8-0.7-3.3-2
				c-0.2-0.4-0.2-0.9-0.2-1.4v-4.1h-1.5v-1.1h1.5v-2.3h1.3v2.3h2.2v1.1h-2.2L173.2,48.4L173.2,48.4z M189.5,43.2v8.4h-1.3v-1.2
				c-0.6,0.9-1.6,1.4-2.7,1.4c-2.3,0-4.2-1.8-4.2-4.1c0-0.1,0-0.2,0-0.3c-0.1-1.2,0.3-2.3,1.1-3.1c0.8-0.8,1.9-1.3,3.1-1.3
				c1.1,0,2.1,0.6,2.7,1.5v-1.2C188.2,43.2,189.5,43.2,189.5,43.2z M188.3,47.5c0-1.7-1-3.2-2.8-3.2c-1.8,0-2.8,1.5-2.8,3.2
				c0,1.7,1,3.2,2.8,3.2C187.3,50.7,188.3,49.1,188.3,47.5L188.3,47.5z M194.4,51.6l-3.6-8.4h1.5l2.8,6.9l2.8-6.9h1.4l-3.6,8.4
				H194.4z M208.6,43.2v8.4h-1.3v-1.2c-0.6,0.9-1.6,1.4-2.7,1.4c-2.3,0-4.2-1.8-4.2-4.1c0-0.1,0-0.2,0-0.3c-0.1-1.2,0.4-2.3,1.1-3.1
				c0.8-0.8,1.9-1.3,3.1-1.3c1.1,0,2.1,0.6,2.7,1.5v-1.2C207.3,43.2,208.6,43.2,208.6,43.2z M207.4,47.5c0-1.7-1-3.2-2.8-3.2
				c-1.8,0-2.8,1.5-2.8,3.2c0,1.7,1,3.2,2.8,3.2C206.4,50.7,207.4,49.1,207.4,47.5L207.4,47.5z M217,51.6v-5.5
				c0-1.5-0.8-1.9-1.9-1.9c-1.2,0-2.5,0.7-2.5,3.2v4.2h-1.3v-8.4h1.3v1.2c0.8-0.9,1.9-1.4,3-1.4c1.8,0,2.7,0.8,2.7,2.7v5.9L217,51.6
				z M220.4,47.4c-0.1-2.3,1.7-4.3,4-4.4c0.1,0,0.2,0,0.2,0c1.2-0.1,2.4,0.5,3.1,1.5l-0.9,0.8c-0.5-0.7-1.3-1.1-2.2-1.1
				c-1.6,0-3,1.3-3,3c0,0.1,0,0.2,0,0.3c0,0.4,0,0.8,0.1,1.2c0.4,1.2,1.5,2,2.8,2c0.9,0,1.7-0.4,2.2-1.1l0.9,0.8
				c-0.7,1-1.9,1.5-3.1,1.5c-1.8,0-3.4-1.1-4-2.7C220.5,48.6,220.4,48,220.4,47.4L220.4,47.4z M229.2,47.4c0-1.1,0.4-2.3,1.2-3.1
				c0.8-0.8,1.9-1.3,3-1.3c2.6,0,4.1,2,4.1,4.5v0.3h-6.9c0,1.6,1.4,2.9,3,2.8c0,0,0.1,0,0.1,0c1,0,1.9-0.4,2.6-1.1l0.7,0.9
				c-0.9,0.9-2.1,1.3-3.4,1.3c-2.3,0.1-4.3-1.7-4.4-4C229.2,47.7,229.2,47.5,229.2,47.4L229.2,47.4z M236.2,46.9
				c0-0.7-0.3-1.4-0.8-1.9c-0.5-0.5-1.2-0.8-2-0.7c-1.5,0-2.8,1.2-2.8,2.7H236.2z M244.1,44.5h-0.5c-1,0-2.5,0.5-2.5,3v4.2h-1.3
				v-8.4h1.3v1.2c0.8-0.9,1.9-1.4,3.1-1.4L244.1,44.5L244.1,44.5z">
    </path>
   </g>
  </g>
 </g>
</svg>