<?xml version="1.0" encoding="UTF-8" standalone="no"?>
<svg xmlns:inkscape="http://www.inkscape.org/namespaces/inkscape" xmlns:sodipodi="http://sodipodi.sourceforge.net/DTD/sodipodi-0.dtd" xmlns="http://www.w3.org/2000/svg" xmlns:svg="http://www.w3.org/2000/svg" viewBox="0 0 90.4 35.099998" version="1.1" id="svg842" sodipodi:docname="dealz.svg" width="90.400002" height="35.099998" inkscape:version="1.1 (c4e8f9e, 2021-05-24)">
  <defs id="defs846">
    <clipPath id="clipPath199">
      <path d="M 112.015,688.512 H 398.221 V 801.104 H 112.015 Z" id="path197"></path>
    </clipPath>
    <clipPath id="clipPath199-6">
      <path d="M 112.015,688.512 H 398.221 V 801.104 H 112.015 Z" id="path197-1"></path>
    </clipPath>
  </defs>
  <path d="m 13.348889,13.624121 c 0.219856,0.39823 0.362554,0.822593 0.424363,1.247371 l 8.3e-4,0.909706 a 3.4056931,3.4056931 0 0 1 -0.423949,1.257742 3.9329325,3.9329325 0 0 1 -0.835867,1.006775 3.709758,3.709758 0 0 1 -1.165652,0.674916 4.0474236,4.0474236 0 0 1 -1.388411,0.240597 c -0.5454914,0 -1.0495007,-0.09623 -1.4975092,-0.285398 A 3.9433032,3.9433032 0 0 1 7.2638567,17.894719 3.4749685,3.4749685 0 0 1 6.4620047,16.741513 3.5425845,3.5425845 0 0 1 6.1790957,15.33236 c 0,-0.497787 0.095409,-0.977322 0.2833238,-1.424915 a 3.4388789,3.4388789 0 0 1 0.8014372,-1.168141 3.95077,3.95077 0 0 1 1.1988371,-0.781111 c 0.4492529,-0.189158 0.9532623,-0.284982 1.4975092,-0.284982 0.47995,0 0.94704,0.08587 1.386752,0.25553 a 4.1565219,4.1565219 0 0 1 1.168141,0.676161 3.5537848,3.5537848 0 0 1 0.833793,1.019219 z M 13.773252,9.5696459 A 6.6964804,6.6964804 0 0 0 11.805334,8.1783301 C 11.000993,7.8058198 10.097924,7.6166602 9.1210172,7.6166602 c -0.9988927,0 -1.9455178,0.2045079 -2.8137414,0.6077162 A 7.2158382,7.2158382 0 0 0 4.0357076,9.8749552 C 3.3960512,10.567294 2.8854047,11.388642 2.5174571,12.3166 c -0.3683624,0.927958 -0.5550326,1.942614 -0.5550326,3.01576 0,1.05282 0.1866702,2.05752 0.5550326,2.985478 0.3679476,0.928787 0.879009,1.745158 1.5186654,2.426712 a 7.3228624,7.3228624 0 0 0 2.2711533,1.6344 c 0.8682236,0.403208 1.8148487,0.607716 2.8137414,0.607716 0.9773218,0 1.8799758,-0.183767 2.6839018,-0.545907 a 6.4762096,6.4762096 0 0 0 1.968333,-1.37638 v 1.860893 h 4.216671 V 4.0500165 h -4.216671 z m 16.115856,2.5403721 -5.532903,4.971234 C 24.161238,16.870107 24.011073,16.569361 23.908196,16.18482 23.793712,15.760042 23.788732,15.282996 23.89327,14.766127 l 4.14e-4,-0.0017 c 0.167588,-0.938743 0.560012,-1.697454 1.165652,-2.254561 0.607301,-0.55835 1.383018,-0.902239 2.303924,-1.021708 0.161366,-0.0166 0.318169,-0.02571 0.470823,-0.02571 0.382053,0 0.735896,0.05392 1.055309,0.160123 0.404037,0.133987 0.739629,0.297842 0.999723,0.487416 z M 31.958657,8.5321743 A 9.4330648,9.4330648 0 0 0 27.901693,7.6166602 c -1.103842,0 -2.157906,0.2040927 -3.132325,0.6064705 -0.974004,0.4019639 -1.830612,0.9565819 -2.54618,1.6480903 a 7.9741338,7.9741338 0 0 0 -1.713218,2.44123 c -0.423118,0.929618 -0.637997,1.945934 -0.637997,3.019909 0,1.053649 0.214463,2.059594 0.637582,2.989626 a 7.7758486,7.7758486 0 0 0 1.714462,2.426297 c 0.714739,0.680724 1.571347,1.230364 2.545351,1.632327 0.974419,0.402378 2.028483,0.606056 3.13274,0.606056 1.406249,0 2.737828,-0.287057 3.959481,-0.853705 1.224141,-0.568307 2.338354,-1.545214 3.311114,-2.904173 l 0.04729,-0.06595 -2.845683,-2.614211 -0.06056,0.08255 a 6.166752,6.166752 0 0 1 -1.557659,1.499583 5.9688816,5.9688816 0 0 1 -1.876243,0.832964 3.4658424,3.4658424 0 0 1 -1.194689,0.09001 c -0.317753,-0.03152 -0.576187,-0.08296 -0.77074,-0.151409 l 8.43666,-7.127899 0.06223,-0.05268 -0.04522,-0.06762 C 34.395744,10.192286 33.248345,9.1419546 31.958661,8.5321663 Z m 16.077278,5.3769297 a 3.4907318,3.4907318 0 0 1 0.299088,1.422841 c 0,0.497788 -0.100386,0.970685 -0.298673,1.407493 a 3.6948244,3.6948244 0 0 1 -0.818859,1.155281 3.9022356,3.9022356 0 0 1 -1.214186,0.781111 3.8702943,3.8702943 0 0 1 -1.481746,0.284982 c -0.545906,0 -1.049502,-0.09582 -1.49751,-0.284982 A 3.9441328,3.9441328 0 0 1 41.825626,17.894719 3.4778722,3.4778722 0 0 1 41.023361,16.741513 3.5496365,3.5496365 0 0 1 40.740452,15.33236 c 0,-0.497787 0.09541,-0.976907 0.283323,-1.424915 a 3.4388789,3.4388789 0 0 1 0.801851,-1.168141 3.9478662,3.9478662 0 0 1 1.198423,-0.781111 c 0.449667,-0.189158 0.953262,-0.284982 1.49751,-0.284982 0.522261,0 1.020878,0.09623 1.481746,0.285398 a 3.9034802,3.9034802 0 0 1 1.214186,0.780695 3.6462902,3.6462902 0 0 1 0.818444,1.1698 z M 48.39932,9.6310391 A 7.0200419,7.0200419 0 0 0 46.400291,8.2098572 c -0.827158,-0.3936663 -1.741426,-0.593197 -2.717918,-0.593197 -0.998893,0 -1.945518,0.2045079 -2.813741,0.6077162 a 7.2191567,7.2191567 0 0 0 -2.271569,1.6509927 c -0.639657,0.6919249 -1.150303,1.5132729 -1.51825,2.4412309 -0.368364,0.927544 -0.555033,1.942614 -0.555033,3.01576 0,1.05282 0.186669,2.05752 0.555033,2.985478 0.367947,0.928373 0.879008,1.745158 1.518664,2.426712 a 7.330744,7.330744 0 0 0 2.271155,1.6344 c 0.868223,0.403208 1.814848,0.607716 2.813741,0.607716 0.977736,0 1.891591,-0.194136 2.717087,-0.577018 a 6.5799152,6.5799152 0 0 0 1.99986,-1.432383 v 1.948007 h 4.21667 V 7.6780548 h -4.21667 z m 6.647531,13.2942329 h 4.184314 V 4.0500165 h -4.184314 z m 21.008273,0.06139 V 18.961228 H 68.838042 L 76.131037,7.6170754 H 61.447148 v 4.0565496 h 7.186801 L 61.501905,22.98708 h 14.553219 z m 8.797557,-3.618912 a 10.070647,10.070647 0 0 1 -0.643804,2.031386 c -1.809457,4.136196 -6.186664,6.554611 -10.644762,5.880939 l -0.546322,3.617253 c 0.68031,0.102883 1.359374,0.152654 2.032216,0.152654 5.350381,0 10.314562,-3.166755 12.510219,-8.184449 a 13.714863,13.714863 0 0 0 0.877349,-2.770598 l -3.584896,-0.72677 z m 3.427263,-6.725933 -1.496264,-3.3376618 -8.343741,3.7400398 1.496265,3.339736 8.34374,-3.741699 z" fill="#ffffff" id="path915" style="stroke-width:0.414822"></path>
</svg>
