<?xml version="1.0" encoding="UTF-8" standalone="no"?>
<svg xmlns:inkscape="http://www.inkscape.org/namespaces/inkscape" xmlns:sodipodi="http://sodipodi.sourceforge.net/DTD/sodipodi-0.dtd" xmlns="http://www.w3.org/2000/svg" xmlns:svg="http://www.w3.org/2000/svg" width="134" height="56" viewBox="0 0 134 56" fill="none" version="1.1" id="svg149" sodipodi:docname="dino.svg" inkscape:version="1.1 (c4e8f9e, 2021-05-24)">
  <defs id="defs153"></defs>
  <path fill-rule="evenodd" clip-rule="evenodd" d="M44.7692 1.348C48.6088 1.348 51.7395 4.3162 51.7395 7.95697C51.7395 11.5977 48.609 14.5661 44.7692 14.5661C40.9293 14.5659 37.7988 11.5977 37.7988 7.95697C37.7988 4.31639 40.9295 1.348 44.7692 1.348ZM66.0477 15.9128C66.2723 15.6769 66.5081 15.4565 66.7539 15.2646L66.7584 15.2611C68.693 13.7802 70.9963 13.17 73.4648 13.17C76.457 13.17 79.5067 13.8638 81.3124 16.3056C82.6929 18.1604 83.0472 20.6369 83.0472 22.8534V40.9305H69.0937V25.2517C69.0937 25.0354 69.0584 24.7817 68.9044 24.6112C68.6665 24.348 68.1633 24.3063 67.8267 24.3063C67.4901 24.3063 66.9869 24.348 66.7494 24.611C66.5952 24.7817 66.5601 25.0354 66.5601 25.2517V40.9303H52.6066V13.7149H66.0473V15.9128H66.0477ZM36.7255 13.9053C37.2408 13.9036 37.2605 13.8982 37.5131 13.9053L37.7887 13.9131L37.9653 14.1139C39.1532 15.4633 40.999 16.1612 42.8312 16.1612C44.664 16.1612 46.5106 15.4627 47.6983 14.1125L47.88 13.9059L48.1636 13.9034C48.3953 13.9015 49.0464 13.904 49.1999 13.9049L49.8088 13.9086L49.8078 40.9307H35.8541L35.8564 13.9059H36.4691C36.5541 13.9057 36.6394 13.9059 36.7255 13.9053ZM19.3021 38.6919C18.987 38.9891 18.6567 39.2685 18.3141 39.5089C16.4562 40.8087 14.3652 41.4759 12.0558 41.4759C8.67212 41.4757 5.81878 40.3431 3.94005 37.6151C1.89831 34.65 1.36328 30.7918 1.36328 27.3229C1.36328 23.7355 2.01361 19.844 4.39659 16.9374C6.6666 14.1685 9.98232 13.17 13.5935 13.17C15.1627 13.17 16.6564 13.5438 18.0552 14.2135C18.3043 14.3327 18.5499 14.4711 18.7897 14.6208V1.15857H32.7434V40.9305H19.3021V38.6919ZM17.0623 24.5996C15.3803 24.5996 14.2464 26.1077 14.2464 27.6143C14.2464 29.1209 15.3803 30.6289 17.0623 30.6289C18.7441 30.6289 19.8783 29.1209 19.8783 27.6143C19.8783 26.1077 18.7443 24.5996 17.0623 24.5996ZM100.306 13.1796C108.362 13.1796 114.93 19.4072 114.93 27.045C114.93 34.6827 108.361 40.9106 100.306 40.9106C92.2515 40.9105 85.683 34.6825 85.683 27.045C85.683 19.4074 92.2511 13.1796 100.306 13.1796ZM100.306 24.0199C98.5497 24.0199 97.116 25.3795 97.116 27.045C97.116 28.7104 98.5499 30.07 100.306 30.07C102.063 30.07 103.497 28.7104 103.497 27.045C103.497 25.3797 102.063 24.0199 100.306 24.0199Z" fill="white" id="path139"></path>
  <path fill-rule="evenodd" clip-rule="evenodd" d="M44.7697 1.92908C48.2714 1.92908 51.1275 4.63697 51.1275 7.95699C51.1275 11.2772 48.2714 13.9853 44.7697 13.9853C41.268 13.9853 38.4121 11.2774 38.4121 7.95699C38.4121 4.63697 41.268 1.92908 44.7697 1.92908ZM42.9792 3.23948C42.8259 2.96778 42.2091 3.13076 41.7526 3.42737C41.296 3.72397 40.924 4.20847 41.1688 4.46086C41.4137 4.71324 41.7354 4.14494 42.192 3.84853C42.6485 3.55211 43.1327 3.51137 42.9792 3.23948Z" fill="#009A42" id="path141"></path>
  <path fill-rule="evenodd" clip-rule="evenodd" d="M32.1293 40.3496H19.9135V37.1882C19.1732 38.0241 18.5182 38.6418 17.9489 39.0418C16.1835 40.277 14.2187 40.895 12.0546 40.895C8.6378 40.895 6.10329 39.6958 4.45186 37.2974C2.80042 34.8993 1.97461 31.5742 1.97461 27.3229C1.97461 22.9987 2.9426 19.6557 4.87918 17.2939C6.81536 14.9318 9.71954 13.7508 13.5921 13.7508C15.0158 13.7508 16.4112 14.0777 17.7778 14.732C18.2334 14.9498 18.7745 15.2952 19.4008 15.7676V1.73938H32.1293V40.3496ZM100.305 13.7605C108.022 13.7605 114.316 19.7279 114.316 27.0448C114.316 34.3617 108.022 40.3294 100.305 40.3294C92.588 40.3294 86.2941 34.3617 86.2941 27.0448C86.2941 19.7279 92.588 13.7605 100.305 13.7605ZM100.305 23.439C102.4 23.439 104.108 25.0589 104.108 27.045C104.108 29.0309 102.399 30.6508 100.305 30.6508C98.2104 30.6508 96.5021 29.0309 96.5021 27.045C96.5019 25.0589 98.2104 23.439 100.305 23.439ZM82.4332 40.3496H69.705V25.2517C69.705 24.234 69.0784 23.7254 67.8255 23.7254C66.5727 23.7254 65.9462 24.2342 65.9462 25.2517V40.3496H53.2179V14.2957H65.4334V17.6206C66.0597 16.7485 66.6294 16.1126 67.1417 15.7129C68.8503 14.4048 70.9575 13.7508 73.4632 13.7508C76.9373 13.7508 79.3859 14.7136 80.8097 16.6396C81.8918 18.0929 82.4331 20.1642 82.4331 22.8531V40.3496H82.4332ZM49.1936 40.3496H36.4652L36.4675 14.4865C36.6407 14.4865 36.6549 14.4865 36.7266 14.4863C36.8964 14.4858 37.4133 14.4836 37.4936 14.4859C38.6957 15.8514 40.641 16.7418 42.8298 16.7418C45.0194 16.7418 46.9653 15.8506 48.1674 14.4842C48.243 14.4836 49.1432 14.4856 49.1946 14.4858L49.1936 40.3496ZM17.0609 24.0187C18.9492 24.0187 20.4894 25.6338 20.4894 27.6143C20.4894 29.5946 18.9492 31.2099 17.0609 31.2099C15.1724 31.2097 13.6324 29.5947 13.6324 27.6143C13.6324 25.634 15.1724 24.0187 17.0609 24.0187Z" fill="#E30613" id="path143"></path>
  <path d="M54.479 47.6144C54.8841 46.5581 55.133 45.9201 55.2259 45.7C55.3186 45.4799 55.4662 45.3698 55.6688 45.3698C55.7703 45.3698 55.8905 45.4098 56.0297 45.4878C56.169 45.5658 56.3018 45.644 56.4286 45.7179L56.4159 46.3059C56.4666 46.282 56.6648 46.1779 57.0109 45.9941C57.357 45.8099 57.6399 45.7179 57.8592 45.7179C58.1716 45.7179 58.4331 45.8738 58.6441 46.186C58.855 46.4981 58.9606 46.8702 58.9606 47.3024C58.9606 47.6063 58.8381 48.0404 58.5934 48.6047C58.3486 49.1689 58.0617 49.827 57.7326 50.5793C57.5131 51.3235 57.3676 51.7959 57.2957 51.9957C57.224 52.1958 57.0361 52.296 56.7322 52.296C56.4537 52.296 56.2323 52.218 56.0677 52.062C55.9031 51.9058 55.8207 51.7157 55.8207 51.4917C55.8207 51.2596 55.996 50.7216 56.3462 49.8772C56.6964 49.033 57.0573 48.1748 57.4285 47.3026C57.4285 47.1824 57.3569 47.1224 57.2133 47.1224C57.0108 47.1224 56.7406 47.2323 56.4031 47.4526C56.0655 47.6725 55.8418 47.9327 55.7321 48.2327C55.6224 48.533 55.4641 48.9329 55.2573 49.4331C55.0504 49.9334 54.8586 50.4113 54.6811 50.8676C54.5631 51.2677 54.4638 51.5759 54.3837 51.7918C54.3035 52.0079 54.179 52.116 54.0104 52.116C53.8415 52.116 53.6136 52.0098 53.3267 51.798C53.0398 51.586 52.8965 51.3838 52.8965 51.1919C52.8965 50.9758 53.1454 50.3634 53.6432 49.3551C54.1411 48.3467 54.42 47.7666 54.479 47.6144ZM63.6069 46.1262C63.725 46.0541 63.858 45.896 64.0056 45.6519C64.1535 45.4078 64.2906 45.3018 64.417 45.3341C64.6955 45.4059 64.9107 45.5079 65.0626 45.6401C65.2146 45.7722 65.2905 45.9701 65.2905 46.2341C64.9867 46.8103 64.6786 47.4406 64.3663 48.1248C64.0541 48.809 63.8411 49.4051 63.7271 49.9135C63.6132 50.4216 63.5286 50.9538 63.4739 51.5099C63.419 52.0662 63.2227 52.3441 62.8851 52.3441C62.4886 52.3441 62.2184 52.2759 62.0749 52.14C61.9314 52.004 61.8597 51.8758 61.8597 51.7559V51.5159C61.8597 51.4439 61.8554 51.3838 61.847 51.3359C61.7206 51.3998 61.4629 51.5578 61.075 51.8098C60.6866 52.0622 60.3532 52.1881 60.0746 52.1881C59.7202 52.1881 59.4459 52.0141 59.2517 51.6659C59.0576 51.3178 58.9606 50.8956 58.9606 50.3995C58.9606 49.8473 59.123 49.2191 59.4479 48.5149C59.7727 47.8106 60.2519 47.2444 60.8849 46.8161C61.5179 46.3882 62.0032 46.0738 62.3408 45.8738C62.6783 45.6739 62.9188 45.5739 63.0624 45.5739C63.1214 45.5739 63.2123 45.6258 63.3345 45.7299C63.4572 45.834 63.5477 45.9661 63.6069 46.1262ZM62.4043 48.9351C62.4972 48.6948 62.6615 48.3248 62.898 47.8245C63.1342 47.3246 63.2355 47.0664 63.2018 47.0504C62.4506 47.3383 61.8133 47.8508 61.2902 48.5869C60.767 49.323 60.5053 49.9112 60.5053 50.3515C60.5053 50.5355 60.5643 50.6276 60.6825 50.6276C60.7332 50.6276 60.8471 50.5795 61.0243 50.4836C61.2016 50.3876 61.4546 50.2474 61.7839 50.0634C61.961 49.9114 62.1678 49.5352 62.4043 48.9351ZM67.215 46.7144C67.2656 46.4741 67.3289 46.2341 67.4049 45.9943C67.4811 45.7541 67.6034 45.6341 67.772 45.6341C67.8566 45.6341 67.9325 45.6662 68.0001 45.7301C68.2025 45.8821 68.3778 46.0223 68.5254 46.1503C68.673 46.2783 68.747 46.4264 68.747 46.5944C68.747 46.6425 68.7322 46.7205 68.7026 46.8285C68.673 46.9366 68.6033 47.1747 68.4939 47.5426C68.3842 47.9108 68.1733 48.4809 67.8609 49.2533C67.5484 50.0253 67.1856 50.8499 66.7719 51.726C66.3584 52.6023 65.9891 53.2886 65.6643 53.7847C65.3394 54.2807 65.0924 54.6088 64.9238 54.7689C64.7549 54.929 64.6073 55.0089 64.4807 55.0089C64.2191 55.0089 63.9258 54.9529 63.6009 54.8409C63.2758 54.7289 63.1136 54.5968 63.1136 54.4449C63.1136 54.3329 63.2801 54.1268 63.6136 53.8266C63.947 53.5265 64.2064 53.2386 64.3922 52.9622C64.5781 52.6861 64.8733 52.144 65.2784 51.3359C65.6836 50.5276 66.0106 49.7913 66.2597 49.1272C66.5086 48.4631 66.7238 47.9187 66.9053 47.4947C67.0861 47.0704 67.1897 46.8103 67.215 46.7144ZM68.1139 44.1096C68.1139 43.9895 68.1982 43.7274 68.3671 43.3235C68.5357 42.9193 68.7173 42.7171 68.9114 42.7171C69.0295 42.7171 69.2363 42.8191 69.5318 43.0232C69.8272 43.2273 69.9749 43.3853 69.9749 43.4973C69.9749 43.6013 69.9116 43.7294 69.785 43.8813C69.6584 44.0335 69.5423 44.2334 69.4369 44.4815C69.3312 44.7296 69.1603 44.8696 68.9241 44.9017C68.7469 44.9256 68.5675 44.8416 68.386 44.6495C68.2046 44.4578 68.1139 44.2776 68.1139 44.1096ZM71.6839 43.7255C71.7346 43.5175 71.7915 43.3113 71.8548 43.1074C71.9181 42.9035 72.0382 42.8013 72.2157 42.8013C72.3676 42.8013 72.566 42.8892 72.8109 43.0653C73.0555 43.2412 73.178 43.4455 73.178 43.6774C73.178 43.8935 73.0894 44.2395 72.9121 44.7157C72.7349 45.1919 72.5407 45.7062 72.3298 46.2583C72.4143 46.2262 72.5935 46.1323 72.8679 45.9761C73.1424 45.8199 73.3891 45.7419 73.6086 45.7419C73.8618 45.7419 74.117 45.924 74.3745 46.2882C74.6319 46.6524 74.7607 47.0983 74.7607 47.6266C74.7015 48.0987 74.5498 48.5728 74.3047 49.049C74.0601 49.5254 73.6928 50.0174 73.2035 50.5255C72.7139 51.0335 72.2963 51.4417 71.9502 51.7497C71.6041 52.0579 71.3297 52.212 71.1271 52.212C71.0091 52.212 70.8297 52.094 70.589 51.8579C70.3486 51.6217 70.169 51.4597 70.051 51.3716C69.9495 51.6037 69.8547 51.7918 69.7661 51.9359C69.6775 52.0799 69.5824 52.152 69.4811 52.152C69.3882 52.152 69.19 52.05 68.8861 51.8459C68.5821 51.6418 68.4304 51.4396 68.4304 51.2395C68.4304 51.1115 68.6561 50.5853 69.1078 49.6611C69.5592 48.7367 69.9094 48.0184 70.1585 47.5065C70.4074 46.9944 70.5997 46.5581 70.7347 46.1982C70.8694 45.8381 71.0447 45.3858 71.2599 44.8418C71.4752 44.2975 71.6162 43.9256 71.6839 43.7255ZM72.9624 47.2064C72.3127 47.3825 71.9159 47.5546 71.7724 47.7227C71.5953 48.3868 71.1479 49.2991 70.4304 50.4596C70.4811 50.5075 70.5529 50.5316 70.6456 50.5316C70.983 50.5316 71.4559 50.2194 72.0634 49.5953C72.671 48.9712 73.036 48.489 73.1585 48.1487C73.2808 47.8085 73.342 47.6144 73.342 47.5665C73.342 47.4466 73.3126 47.3483 73.2534 47.2724C73.1946 47.1965 73.0976 47.1745 72.9624 47.2064ZM77.2541 45.5741C77.5496 44.9419 77.8491 44.3056 78.153 43.6655C78.4484 43.1294 78.7437 42.873 79.0391 42.8971C79.1825 42.8971 79.3387 42.9871 79.5076 43.1671C79.6762 43.347 79.7734 43.5131 79.7985 43.6653C79.7985 43.6732 79.6131 44.0434 79.2417 44.7756C78.8703 45.5077 78.5096 46.2559 78.1594 47.0202C77.809 47.7845 77.4839 48.6568 77.1844 49.637C76.8848 50.6174 76.716 51.1816 76.678 51.3297C76.64 51.4776 76.6042 51.6437 76.5703 51.8277C76.5027 52.0519 76.3971 52.1637 76.2538 52.1637C76.1862 52.1637 76.0935 52.1278 75.9753 52.0558C75.6796 51.9436 75.4562 51.8476 75.3043 51.7677C75.1524 51.6876 75.0764 51.4796 75.0764 51.1436C75.0764 50.9596 75.2388 50.4453 75.5637 49.6013C75.8888 48.7568 76.2074 47.9686 76.5196 47.2365C76.832 46.5043 77.0769 45.9501 77.2541 45.5741ZM81.4954 44.0974C81.4954 43.9775 81.5799 43.7153 81.7486 43.3113C81.9172 42.9073 82.0989 42.705 82.2929 42.705C82.4026 42.705 82.5925 42.8131 82.8626 43.0292C83.1328 43.2453 83.2677 43.3934 83.2677 43.4733C83.2677 43.5693 83.2467 43.6655 83.2044 43.7614C83.1624 43.8574 83.1053 43.9474 83.0336 44.0314C82.962 44.1154 82.8712 44.2793 82.7615 44.5236C82.6519 44.7677 82.5253 44.8897 82.3817 44.8897C82.1792 44.8897 81.9807 44.7978 81.7867 44.6136C81.5924 44.4296 81.4954 44.2575 81.4954 44.0974ZM80.0521 47.5787C80.3223 47.0745 80.565 46.6304 80.78 46.2463C80.9952 45.8622 81.1493 45.6701 81.2422 45.6701C81.4531 45.6701 81.6494 45.7521 81.8307 45.9163C82.0123 46.0802 82.1028 46.2824 82.1028 46.5224C82.1028 46.5705 82.0752 46.6586 82.0205 46.7866C81.9657 46.9146 81.7926 47.2307 81.5014 47.7349C81.2102 48.2389 80.9107 48.8951 80.6025 49.7032C80.2944 50.5117 79.9972 51.3118 79.7101 52.1041C79.6425 52.1282 79.5878 52.1402 79.5455 52.1402C79.4863 52.1402 79.4421 52.1301 79.4125 52.1103C79.3829 52.0902 79.2795 52.0042 79.1023 51.8523C78.8911 51.8523 78.7203 51.8021 78.5894 51.7022C78.4587 51.602 78.3931 51.5082 78.3931 51.4201C78.3931 51.228 78.5641 50.7321 78.9059 49.9317C79.2481 49.1312 79.6301 48.3467 80.0521 47.5787ZM83.8248 46.1741C83.8248 45.8139 83.9934 45.5799 84.3312 45.4717C84.6689 45.3636 85.6182 45.3097 87.1796 45.3097C87.3399 45.3097 87.473 45.3418 87.5785 45.4057C87.6839 45.4696 87.7493 45.5416 87.7749 45.6218C87.8002 45.7017 87.8697 45.8379 87.9836 46.0298C88.0976 46.2219 88.1547 46.3701 88.1547 46.474C88.1547 46.522 88.142 46.578 88.1167 46.6421L84.6477 50.3513C84.6393 50.3752 84.6414 50.3953 84.6539 50.4113C84.6666 50.4274 84.6985 50.4353 84.749 50.4353C84.8335 50.4353 84.9979 50.4152 85.2425 50.3752C85.4875 50.3352 85.6963 50.2991 85.8693 50.2671C86.0424 50.235 86.2428 50.219 86.4707 50.219C86.6818 50.219 86.8758 50.3092 87.053 50.4892C87.2303 50.6711 87.3189 50.8553 87.3189 51.0434C87.3189 51.1932 87.2511 51.3095 87.1162 51.3915C86.9812 51.4734 86.7829 51.5155 86.5211 51.5155H86.3439C86.2849 51.5155 86.2426 51.5155 86.2175 51.5155C86.133 51.5155 86.0403 51.5155 85.9388 51.5155C85.6349 51.5155 85.3122 51.5336 84.9704 51.5696C84.6286 51.6055 84.2696 51.6655 83.8943 51.7495C83.5188 51.8337 83.2465 51.9278 83.0778 52.0317C82.909 52.1357 82.795 52.1879 82.736 52.1879C82.6429 52.1879 82.5356 52.0859 82.4131 51.8816C82.2908 51.6775 82.2 51.5116 82.141 51.3836C82.082 51.2556 82.0524 51.1474 82.0524 51.0596C82.0524 50.9794 82.0925 50.8653 82.1728 50.7174C82.2528 50.5693 82.5039 50.2912 82.9259 49.8832C83.348 49.4752 84.04 48.825 85.0021 47.9327C85.9643 47.0403 86.4284 46.578 86.3947 46.546C86.3523 46.506 86.0233 46.5581 85.4073 46.7022C84.791 46.8463 84.4619 46.9183 84.4198 46.9183C84.2342 46.9183 84.0885 46.8661 83.9831 46.7621C83.8774 46.6584 83.8248 46.4622 83.8248 46.1741ZM88.99 47.6627C89.4202 47.0305 89.9395 46.4962 90.547 46.0601C91.1547 45.6239 91.7709 45.4057 92.3953 45.4057C92.809 45.4057 93.1508 45.5416 93.4208 45.8137C93.6909 46.0858 93.8259 46.4299 93.8259 46.8463C93.8259 47.6225 93.4377 48.2687 92.6614 48.7848C91.885 49.301 91.2306 49.559 90.6991 49.559C90.5811 49.559 90.465 49.509 90.351 49.4091C90.2371 49.3093 90.1124 49.1952 89.9775 49.0671C89.8678 49.1872 89.7981 49.2952 89.7687 49.3914C89.7393 49.4871 89.7243 49.6953 89.7243 50.0153C89.7243 50.2153 89.7665 50.3634 89.8509 50.4596C89.9354 50.5556 90.0998 50.6037 90.3446 50.6037C90.5049 50.6037 90.8171 50.5276 91.2814 50.3754C91.7456 50.2234 92.0157 50.1472 92.0917 50.1472C92.1846 50.1472 92.2689 50.1952 92.3449 50.2912C92.4208 50.3874 92.4588 50.4913 92.4588 50.6035C92.4588 50.9875 92.1086 51.3336 91.408 51.6418C90.7075 51.9498 90.1927 52.1039 89.8633 52.1039C89.3233 52.1039 88.8969 51.9139 88.5849 51.5338C88.2725 51.1536 88.1165 50.7114 88.1165 50.2074C88.1165 49.8554 88.1841 49.4572 88.319 49.0129C88.454 48.5689 88.6778 48.1188 88.99 47.6627ZM92.2183 46.5222C91.7878 46.6103 91.3806 46.8723 90.9969 47.3085C90.6126 47.7446 90.3616 48.1068 90.2435 48.3947C90.2774 48.4507 90.3491 48.4787 90.4586 48.4787C90.7456 48.4787 91.1023 48.3227 91.5284 48.0107C91.9546 47.6986 92.2309 47.3466 92.3575 46.9542C92.3745 46.8743 92.3831 46.8142 92.3831 46.7742C92.3829 46.6383 92.3281 46.5543 92.2183 46.5222ZM95.877 46.7144C95.9276 46.4741 95.9911 46.2341 96.0669 45.9943C96.143 45.7541 96.2655 45.6341 96.4342 45.6341C96.5185 45.6341 96.5945 45.6662 96.6621 45.7301C96.8647 45.8821 97.0397 46.0223 97.1874 46.1503C97.335 46.2783 97.409 46.4264 97.409 46.5944C97.409 46.6425 97.3942 46.7205 97.3646 46.8285C97.335 46.9366 97.2653 47.1747 97.1558 47.5426C97.0462 47.9108 96.8352 48.4809 96.5228 49.2533C96.2104 50.0253 95.8476 50.8499 95.4339 51.726C95.0204 52.6023 94.6511 53.2886 94.3262 53.7847C94.0012 54.2807 93.7542 54.6088 93.5855 54.7689C93.4167 54.929 93.269 55.0089 93.1424 55.0089C92.8809 55.0089 92.5876 54.9529 92.2627 54.8409C91.9376 54.7289 91.7752 54.5968 91.7752 54.4449C91.7752 54.3329 91.9417 54.1268 92.2752 53.8266C92.6086 53.5265 92.868 53.2386 93.0536 52.9622C93.2394 52.6861 93.5347 52.144 93.94 51.3359C94.3449 50.5276 94.6722 49.7913 94.9211 49.1272C95.17 48.4631 95.3852 47.9187 95.5667 47.4947C95.7484 47.0704 95.8517 46.8103 95.877 46.7144ZM96.7758 44.1096C96.7758 43.9895 96.8604 43.7274 97.029 43.3235C97.1977 42.9195 97.3794 42.7171 97.5734 42.7171C97.6914 42.7171 97.8985 42.8191 98.1937 43.0232C98.4894 43.2273 98.6368 43.3853 98.6368 43.4973C98.6368 43.6013 98.5735 43.7294 98.4469 43.8813C98.3203 44.0335 98.2043 44.2334 98.0989 44.4815C97.9933 44.7296 97.8225 44.8696 97.5861 44.9017C97.4088 44.9256 97.2294 44.8416 97.0479 44.6495C96.8666 44.4578 96.7758 44.2776 96.7758 44.1096ZM102.435 45.4899C102.84 44.9376 103.216 44.4775 103.562 44.1096C103.907 43.7413 104.317 43.4295 104.79 43.1732C105.262 42.917 105.777 42.7892 106.334 42.7892C106.849 42.7892 107.195 42.9112 107.372 43.1553C107.549 43.3995 107.638 43.7056 107.638 44.0735C107.638 44.5616 107.518 45.0021 107.277 45.3941C107.037 45.7861 106.684 45.9823 106.22 45.9823C105.984 45.9823 105.804 45.9503 105.682 45.8861C105.559 45.8222 105.498 45.7102 105.498 45.5501C105.498 45.4623 105.581 45.2819 105.745 45.0098C105.91 44.738 105.992 44.4498 105.992 44.1455C105.95 44.1218 105.912 44.1096 105.878 44.1096C105.676 44.1096 105.431 44.2834 105.144 44.6317C104.857 44.9799 104.543 45.38 104.201 45.8321C103.859 46.2841 103.538 46.9443 103.239 47.8127C102.939 48.6809 102.789 49.4271 102.789 50.0516C102.789 50.3716 102.84 50.5675 102.941 50.6396C103.042 50.7116 103.169 50.7477 103.321 50.7477C103.608 50.7477 103.965 50.6517 104.391 50.4598C104.817 50.2677 105.174 50.1035 105.46 49.9676C105.578 49.9676 105.663 49.9958 105.714 50.0518C105.764 50.1076 105.79 50.2597 105.79 50.5077C105.79 50.9879 105.494 51.388 104.903 51.7082C104.313 52.0282 103.646 52.1883 102.903 52.1883C102.278 52.1883 101.789 51.9662 101.434 51.5221C101.08 51.0779 100.903 50.5318 100.903 49.8836C100.903 49.2434 101.053 48.4954 101.352 47.6389C101.652 46.7825 102.013 46.0663 102.435 45.4899ZM109.74 44.0974C109.74 43.9775 109.824 43.7153 109.993 43.3113C110.162 42.9071 110.343 42.705 110.537 42.705C110.647 42.705 110.837 42.8131 111.107 43.0292C111.377 43.2453 111.512 43.3934 111.512 43.4733C111.512 43.5693 111.491 43.6655 111.449 43.7614C111.407 43.8574 111.35 43.9474 111.278 44.0314C111.206 44.1154 111.116 44.2793 111.006 44.5236C110.896 44.7677 110.769 44.8897 110.626 44.8897C110.424 44.8897 110.225 44.7978 110.031 44.6136C109.837 44.4296 109.74 44.2575 109.74 44.0974ZM108.296 47.5787C108.566 47.0745 108.809 46.6304 109.024 46.2463C109.239 45.8622 109.393 45.6701 109.486 45.6701C109.697 45.6701 109.893 45.7521 110.075 45.9163C110.256 46.0802 110.347 46.2824 110.347 46.5224C110.347 46.5705 110.319 46.6586 110.265 46.7866C110.21 46.9146 110.037 47.2307 109.746 47.7349C109.454 48.2389 109.155 48.8951 108.847 49.7032C108.539 50.5117 108.241 51.3118 107.954 52.1041C107.887 52.1282 107.832 52.1402 107.79 52.1402C107.731 52.1402 107.686 52.1301 107.657 52.1103C107.627 52.0902 107.524 52.0042 107.346 51.8523C107.135 51.8523 106.965 51.8021 106.834 51.7022C106.703 51.602 106.637 51.5082 106.637 51.4201C106.637 51.228 106.808 50.7321 107.15 49.9317C107.492 49.1312 107.874 48.3467 108.296 47.5787ZM111.297 47.6627C111.727 47.0305 112.246 46.4962 112.854 46.0601C113.462 45.6239 114.078 45.4057 114.702 45.4057C115.116 45.4057 115.458 45.5416 115.728 45.8137C115.998 46.0858 116.133 46.4299 116.133 46.8463C116.133 47.6225 115.745 48.2687 114.968 48.7848C114.192 49.301 113.538 49.559 113.006 49.559C112.888 49.559 112.772 49.509 112.658 49.4091C112.544 49.3091 112.419 49.1952 112.284 49.0671C112.175 49.1872 112.105 49.2952 112.076 49.3914C112.046 49.4871 112.031 49.6953 112.031 50.0153C112.031 50.2153 112.073 50.3634 112.158 50.4596C112.242 50.5556 112.407 50.6037 112.651 50.6037C112.812 50.6037 113.124 50.5276 113.588 50.3754C114.052 50.2234 114.323 50.1472 114.399 50.1472C114.491 50.1472 114.576 50.1952 114.652 50.2912C114.728 50.3874 114.766 50.4913 114.766 50.6035C114.766 50.9875 114.415 51.3336 113.715 51.6418C113.014 51.9498 112.5 52.1039 112.17 52.1039C111.63 52.1039 111.204 51.9139 110.892 51.5338C110.579 51.1536 110.423 50.7114 110.423 50.2074C110.423 49.8554 110.491 49.4572 110.626 49.0129C110.761 48.5689 110.985 48.1188 111.297 47.6627ZM114.525 46.5222C114.095 46.6103 113.687 46.8723 113.303 47.3085C112.919 47.7446 112.668 48.1068 112.55 48.3947C112.584 48.4507 112.656 48.4787 112.765 48.4787C113.052 48.4787 113.409 48.3227 113.835 48.0107C114.261 47.6986 114.538 47.3466 114.664 46.9542C114.681 46.8743 114.69 46.8142 114.69 46.7742C114.69 46.6383 114.635 46.5543 114.525 46.5222ZM118.791 43.7255C118.842 43.5175 118.899 43.3113 118.962 43.1074C119.025 42.9033 119.146 42.8013 119.323 42.8013C119.475 42.8013 119.673 42.8892 119.918 43.0653C120.163 43.2412 120.285 43.4455 120.285 43.6774C120.285 43.8935 120.197 44.2395 120.02 44.7157C119.843 45.1919 119.648 45.7062 119.437 46.2583C119.522 46.2262 119.701 46.1323 119.976 45.9761C120.25 45.8199 120.497 45.7419 120.716 45.7419C120.969 45.7419 121.225 45.924 121.482 46.2882C121.74 46.6524 121.868 47.0983 121.868 47.6266C121.809 48.0987 121.657 48.5728 121.412 49.049C121.168 49.5254 120.8 50.0174 120.311 50.5255C119.821 51.0335 119.404 51.4417 119.058 51.7497C118.712 52.0579 118.437 52.212 118.235 52.212C118.117 52.212 117.937 52.094 117.696 51.8579C117.456 51.6217 117.277 51.4597 117.158 51.3716C117.057 51.6037 116.962 51.7918 116.874 51.9359C116.785 52.0799 116.69 52.152 116.589 52.152C116.496 52.152 116.298 52.05 115.994 51.8459C115.69 51.6418 115.538 51.4396 115.538 51.2395C115.538 51.1115 115.764 50.5853 116.215 49.6611C116.667 48.7367 117.017 48.0184 117.266 47.5065C117.515 46.9944 117.707 46.5581 117.842 46.1982C117.977 45.8381 118.152 45.3858 118.367 44.8418C118.583 44.2975 118.724 43.9256 118.791 43.7255ZM120.07 47.2064C119.42 47.3825 119.024 47.5546 118.88 47.7227C118.703 48.3868 118.256 49.2991 117.538 50.4596C117.589 50.5075 117.661 50.5316 117.753 50.5316C118.091 50.5316 118.563 50.2194 119.171 49.5953C119.779 48.9712 120.144 48.489 120.266 48.1487C120.389 47.8085 120.45 47.6144 120.45 47.5665C120.45 47.4466 120.42 47.3483 120.361 47.2724C120.302 47.1965 120.205 47.1745 120.07 47.2064ZM125.21 44.0974C125.21 43.9775 125.294 43.7153 125.463 43.3113C125.632 42.9073 125.814 42.705 126.008 42.705C126.117 42.705 126.307 42.8131 126.577 43.0292C126.847 43.2453 126.982 43.3934 126.982 43.4733C126.982 43.5693 126.961 43.6655 126.919 43.7614C126.877 43.8574 126.82 43.9474 126.748 44.0314C126.677 44.1154 126.586 44.2793 126.476 44.5236C126.366 44.7677 126.24 44.8897 126.096 44.8897C125.894 44.8897 125.695 44.7978 125.501 44.6136C125.307 44.4296 125.21 44.2575 125.21 44.0974ZM123.767 47.5787C124.037 47.0745 124.28 46.6304 124.495 46.2463C124.71 45.8622 124.864 45.6701 124.957 45.6701C125.168 45.6701 125.364 45.7521 125.545 45.9163C125.727 46.0802 125.817 46.2824 125.817 46.5224C125.817 46.5705 125.79 46.6586 125.735 46.7866C125.68 46.9146 125.507 47.2307 125.216 47.7349C124.925 48.2389 124.625 48.8951 124.317 49.7032C124.009 50.5117 123.712 51.3118 123.425 52.1041C123.357 52.1282 123.302 52.1402 123.26 52.1402C123.201 52.1402 123.157 52.1301 123.127 52.1103C123.097 52.0902 122.994 52.0042 122.817 51.8523C122.606 51.8523 122.435 51.8021 122.304 51.7022C122.173 51.602 122.108 51.5082 122.108 51.4201C122.108 51.228 122.279 50.7321 122.621 49.9317C122.963 49.1312 123.345 48.3467 123.767 47.5787ZM126.767 47.6627C127.198 47.0305 127.717 46.4962 128.324 46.0601C128.932 45.6239 129.548 45.4057 130.173 45.4057C130.586 45.4057 130.928 45.5416 131.198 45.8137C131.468 46.0858 131.603 46.4299 131.603 46.8463C131.603 47.6225 131.215 48.2687 130.438 48.7848C129.662 49.301 129.008 49.559 128.476 49.559C128.358 49.559 128.242 49.509 128.128 49.4091C128.014 49.3093 127.89 49.1952 127.755 49.0671C127.645 49.1872 127.575 49.2952 127.546 49.3914C127.516 49.4871 127.501 49.6953 127.501 50.0153C127.501 50.2153 127.544 50.3634 127.628 50.4596C127.713 50.5556 127.877 50.6037 128.122 50.6037C128.282 50.6037 128.594 50.5276 129.059 50.3754C129.523 50.2234 129.793 50.1472 129.869 50.1472C129.962 50.1472 130.046 50.1952 130.122 50.2912C130.198 50.3874 130.236 50.4913 130.236 50.6035C130.236 50.9875 129.886 51.3336 129.185 51.6418C128.485 51.9498 127.97 52.1039 127.641 52.1039C127.1 52.1039 126.674 51.9139 126.362 51.5338C126.05 51.1536 125.894 50.7114 125.894 50.2074C125.894 49.8554 125.961 49.4572 126.096 49.0129C126.231 48.5689 126.455 48.1188 126.767 47.6627ZM129.996 46.5222C129.565 46.6103 129.158 46.8723 128.774 47.3085C128.39 47.7446 128.139 48.1068 128.021 48.3947C128.055 48.4507 128.126 48.4787 128.236 48.4787C128.523 48.4787 128.879 48.3227 129.306 48.0107C129.732 47.6986 130.008 47.3466 130.135 46.9542C130.152 46.8743 130.16 46.8142 130.16 46.7742C130.16 46.6383 130.105 46.5543 129.996 46.5222Z" fill="#009A42" id="path145" style="fill:#ffffff"></path>
  <path d="M85.6914 44.1129C85.6914 43.993 85.7759 43.7308 85.9446 43.3268C86.1135 42.9226 86.295 42.7205 86.489 42.7205C86.5986 42.7205 86.7887 42.8286 87.0589 43.0447C87.329 43.2606 87.4638 43.4087 87.4638 43.4888C87.4638 43.5848 87.4428 43.681 87.4007 43.7769C87.3582 43.8729 87.3016 43.9629 87.2297 44.0469C87.158 44.1309 87.0673 44.2948 86.9576 44.5391C86.8479 44.7832 86.7212 44.9052 86.5778 44.9052C86.3752 44.9052 86.1768 44.8131 85.9828 44.6291C85.7884 44.4451 85.6914 44.273 85.6914 44.1129Z" fill="#009A42" id="path147" style="fill:#ffffff"></path>
</svg>
