<?xml version="1.0" encoding="UTF-8" standalone="no"?>
<!-- Generator: Adobe Illustrator 25.2.1, SVG Export Plug-In . SVG Version: 6.00 Build 0)  -->
<svg xmlns:inkscape="http://www.inkscape.org/namespaces/inkscape" xmlns:sodipodi="http://sodipodi.sourceforge.net/DTD/sodipodi-0.dtd" xmlns="http://www.w3.org/2000/svg" xmlns:svg="http://www.w3.org/2000/svg" version="1.1" id="Warstwa_1" x="0px" y="0px" viewBox="0 0 320.5 73.699996" xml:space="preserve" sodipodi:docname="groszek2.svg" width="320.5" height="73.699997" inkscape:version="1.1 (c4e8f9e, 2021-05-24)"><defs id="defs933"></defs>
<style type="text/css" id="style922">
	.st0{fill:#D91F16;}
	.st1{fill:#FFC800;}
</style>
<g id="g928" transform="matrix(1.6939507,0,0,1.6939507,3.1360726,3.1403795)">
	<path class="st0" d="m 39.7,19.9 c 0,11 -8.9,19.9 -19.9,19.9 C 8.9,39.7 0,30.8 0,19.9 0,9 8.9,0 19.9,0 30.8,0 39.7,8.9 39.7,19.9" id="path924"></path>
	<path class="st1" d="m 70.2,10.7 c -1.6,-1.4 -3.6,-1.9 -6,-1.9 -4.7,0 -8.6,4.1 -8.6,9.6 0,5.3 3.8,9.7 8.8,9.7 2.1,0 3.8,-0.5 5.9,-2.1 v 0.7 c 0,3.8 -2.8,6.4 -6.4,6.4 -3.8,0 -5.7,-2.9 -6.5,-5.7 L 53,29.1 c 1.1,4.6 5.2,8.7 10.9,8.7 6.4,0 11.2,-5.2 11.2,-11.3 V 9.2 h -4.9 z m -4.7,12.7 c -2.9,0 -4.9,-2 -4.9,-4.9 0,-2.9 2,-4.9 4.9,-4.9 2.9,0 4.8,2 4.8,4.9 0,3 -1.9,4.9 -4.8,4.9 M 77.9,9.2 h 5 v 10.1 8.4 h -5 z m 12.7,3.1 c 0,1.9 -1.6,3.4 -3.4,3.4 -2,0 -3.5,-1.5 -3.5,-3.4 0,-1.9 1.5,-3.4 3.5,-3.4 1.8,-0.1 3.4,1.5 3.4,3.4 m 45,10.9 h 9.5 v 4.5 h -16.3 v -3.8 l 9.1,-10.2 h -8.5 V 9.2 h 15.4 v 3.9 z m 43.4,4.5 -7.4,-7.8 v 7.8 h -5 V 1.9 h 5 V 16.1 L 178,9.2 h 6.4 l -8.4,8.8 9.5,9.7 z m -51.7,-5.5 c 0,4.1 -3.8,6 -8.2,6 -3.3,0 -5.8,-1 -7.7,-2.3 l 2.4,-3.9 c 1.5,1 3.4,1.8 5.8,1.8 1,0 2.8,-0.1 2.8,-1.3 0,-1 -1.3,-1.4 -4.5,-2.1 -2.8,-0.6 -6.1,-1.8 -6.1,-5.7 0,-3.9 3,-5.9 7.7,-5.9 2.7,0 5.2,0.7 7.4,2.1 l -2.5,3.6 c -1.7,-1 -3.4,-1.4 -5.2,-1.4 -1.6,0 -2.5,0.3 -2.5,1.3 0,1 1,1.3 4.4,2 3.6,0.9 6.2,2.1 6.2,5.8 M 100.5,8.8 c -5.6,0 -9.9,3.9 -9.9,9.7 0,5.8 4.3,9.7 9.9,9.7 5.8,0 10,-3.9 10,-9.7 0,-5.8 -4.3,-9.7 -10,-9.7 m 0,14.7 c -2.7,0 -4.8,-2 -4.8,-5 0,-2.9 2.1,-4.9 4.8,-4.9 2.8,0 4.9,2 4.9,4.9 0,3 -2.1,5 -4.9,5 M 155.3,8.8 c -5.8,0 -9.5,4.2 -9.5,9.7 0,5.5 3.6,9.7 9.9,9.7 3.6,0 5.8,-1.2 7.4,-2.4 l -2.4,-3.7 c -1.4,1 -3,1.6 -4.8,1.6 -2.6,0 -4.3,-1.1 -4.9,-3.3 h 13.5 v -1.7 c -0.1,-6 -3.6,-9.9 -9.2,-9.9 m -4.4,7.6 c 0.5,-1.9 1.9,-3.1 4.2,-3.1 2.3,0 3.6,1.2 4,3.1 z" id="path926"></path>
</g>
</svg>
