<?xml version="1.0" encoding="UTF-8" standalone="no"?>
<svg xmlns:inkscape="http://www.inkscape.org/namespaces/inkscape" xmlns:sodipodi="http://sodipodi.sourceforge.net/DTD/sodipodi-0.dtd" xmlns="http://www.w3.org/2000/svg" xmlns:svg="http://www.w3.org/2000/svg" viewBox="0 0 90.4 35.099998" version="1.1" id="svg842" sodipodi:docname="hebe.svg" width="90.400002" height="35.099998" inkscape:version="1.1 (c4e8f9e, 2021-05-24)">
  <defs id="defs846">
    <clipPath id="clipPath199">
      <path d="M 112.015,688.512 H 398.221 V 801.104 H 112.015 Z" id="path197"></path>
    </clipPath>
    <clipPath id="clipPath199-6">
      <path d="M 112.015,688.512 H 398.221 V 801.104 H 112.015 Z" id="path197-1"></path>
    </clipPath>
    <linearGradient id="paint0_linear" x1="25.8347" y1="59.731" x2="23.4181" y2="66.7682" gradientUnits="userSpaceOnUse">
      <stop stop-color="#FFCC00" id="stop137"></stop>
      <stop offset="0.55" stop-color="#F49205" id="stop139"></stop>
      <stop offset="1" stop-color="#EC6608" id="stop141"></stop>
    </linearGradient>
    <linearGradient id="paint1_linear" x1="16.3992" y1="53.3795" x2="11.6553" y2="58.4895" gradientUnits="userSpaceOnUse">
      <stop stop-color="#FFCC00" id="stop144"></stop>
      <stop offset="0.55" stop-color="#F49205" id="stop146"></stop>
      <stop offset="1" stop-color="#EC6608" id="stop148"></stop>
    </linearGradient>
    <linearGradient id="paint2_linear" x1="5.32617" y1="51.1209" x2="14.8458" y2="51.2351" gradientUnits="userSpaceOnUse">
      <stop stop-color="#E50069" id="stop151"></stop>
      <stop offset="0.42" stop-color="#E62242" id="stop153"></stop>
      <stop offset="1" stop-color="#E84E0F" id="stop155"></stop>
    </linearGradient>
    <linearGradient id="paint3_linear" x1="15.9038" y1="26.1066" x2="24.9243" y2="50.8354" gradientUnits="userSpaceOnUse">
      <stop stop-color="#E6007E" id="stop158"></stop>
      <stop offset="0.35" stop-color="#E4017D" id="stop160"></stop>
      <stop offset="0.52" stop-color="#DC047C" id="stop162"></stop>
      <stop offset="0.66" stop-color="#CF0A79" id="stop164"></stop>
      <stop offset="0.77" stop-color="#BC1274" id="stop166"></stop>
      <stop offset="0.87" stop-color="#A41C6E" id="stop168"></stop>
      <stop offset="0.96" stop-color="#872967" id="stop170"></stop>
      <stop offset="1" stop-color="#792F64" id="stop172"></stop>
    </linearGradient>
    <linearGradient id="paint4_linear" x1="28.1001" y1="67.8011" x2="25.0326" y2="57.5307" gradientUnits="userSpaceOnUse">
      <stop stop-color="#E50069" id="stop175"></stop>
      <stop offset="0.42" stop-color="#E62242" id="stop177"></stop>
      <stop offset="1" stop-color="#E84E0F" id="stop179"></stop>
    </linearGradient>
    <linearGradient id="paint5_linear" x1="48.5778" y1="56.2273" x2="28.002" y2="55.799" gradientUnits="userSpaceOnUse">
      <stop stop-color="#E6007E" id="stop182"></stop>
      <stop offset="0.35" stop-color="#E4017D" id="stop184"></stop>
      <stop offset="0.52" stop-color="#DC047C" id="stop186"></stop>
      <stop offset="0.66" stop-color="#CF0A79" id="stop188"></stop>
      <stop offset="0.77" stop-color="#BC1274" id="stop190"></stop>
      <stop offset="0.87" stop-color="#A41C6E" id="stop192"></stop>
      <stop offset="0.96" stop-color="#872967" id="stop194"></stop>
      <stop offset="1" stop-color="#792F64" id="stop196"></stop>
    </linearGradient>
  </defs>
  <g style="fill:none" id="g253" transform="matrix(0.47190791,0,0,0.47190791,7.6970073,0.89851886)">
    <path d="m 56.1458,46.6696 h 6.6521 V 27.7674 c 0,-9.8184 -8.0351,-12.8025 -14.7256,-12.7928 -4.8018,0 -8.9058,2.5669 -8.9058,2.5669 V 0.285423 H 32.5176 V 46.6696 H 39.173 V 28.2358 c 0,-0.9079 0,-9.6612 8.4928,-9.6612 8.4927,0 8.48,7.0976 8.48,9.6612 z M 71.4315,29.0829 v -0.8534 l 0.0224,0.0192 c 0,-0.9081 0,-9.6612 8.4929,-9.6612 8.4928,0 8.48,7.0976 8.48,9.6612 l -0.0192,0.8342 z m 0,3.6355 h 23.6314 c 0,-4.4921 0,-17.7502 -15.1417,-17.7502 -15.1418,0 -15.1418,13.2805 -15.1418,15.979 0,2.6984 0,15.6998 15.7468,15.6998 5.9542,0 9.2835,-2.1722 9.2643,-2.1722 -0.0193,0 -1.3829,-2.7048 -1.3829,-2.7017 0,0.0032 -2.4521,1.2835 -7.651,1.2835 -9.3251,0 -9.3251,-10.3158 -9.3251,-10.3158 z m 48.9785,0.6642 c 0,2.5668 0,9.6612 -8.48,9.6612 -8.48,0 -8.496,-8.7533 -8.496,-9.6612 v -5.1339 c 0,-0.9112 0,-9.6612 8.496,-9.6612 8.496,0 8.48,7.0943 8.48,9.6612 z m 6.639,-2.4354 v -2.7049 c 0,-10.5051 -7.862,-13.2614 -14.725,-13.2614 -4.802,0 -8.909,2.567 -8.909,2.567 V 0.285423 H 96.7659 V 30.9472 c 0,3.3948 0,15.6998 15.5991,15.6998 12.344,0 14.684,-7.5113 14.684,-15.6998 z m 25.251,-2.6856 -0.019,0.8342 h -16.966 v -0.8535 l 0.02,0.0193 c 0,-0.9081 0,-9.6613 8.496,-9.6613 8.496,0 8.48,7.0975 8.48,9.6613 z m 6.642,4.4696 c 0,-4.492 0,-17.7503 -15.138,-17.7503 -15.138,0 -15.141,13.2743 -15.141,15.9663 0,2.6921 0,15.6998 15.75,15.6998 5.951,0 9.283,-2.1722 9.261,-2.1722 l -1.383,-2.7017 c 0,-0.0224 -2.452,1.2835 -7.65,1.2835 -9.326,0 -9.326,-10.3158 -9.326,-10.3158 z" fill="#e4007e" id="path109"></path>
    <path d="M 3.89288,60.6538 C 4.48511,62.3577 9.13647,62.3224 15.971,59.3704 23.7533,56.0302 26.6023,52.8632 25.7476,51.0023 24.7615,48.8556 15.3789,46.0128 11.0028,48.1915 5.79441,50.7841 3.28145,58.8826 3.89288,60.6378" fill="#ffffff" id="path111"></path>
    <path d="M 0.00743547,55.2195 C 0.218715,57.0901 5.11016,58.6655 12.9531,57.6292 21.8877,56.4516 25.6235,54.0803 25.1753,51.9788 24.6568,49.5594 15.5333,44.1048 10.437,45.0673 4.37708,46.2097 -0.210247,53.3071 0.00743547,55.2322" fill="#ffffff" id="path113"></path>
    <path d="M 23.647,54.6384 C 26.4929,54.1795 29.5405,47.4542 27.0755,35.6593 24.268,22.2311 19.431,16.5294 16.7548,17.0107 12.398,17.7936 6.49498,35.5149 7.53217,44.3804 8.61738,53.6854 20.7148,55.1133 23.647,54.6481" fill="#ffffff" id="path115"></path>
    <path d="m 21.7176,67.9396 c -1.1141,-0.353 -1.0757,-4.2162 0.4001,-8.5991 1.6775,-4.9894 3.5213,-6.8473 4.757,-6.3306 1.4181,0.5935 3.7614,6.507 2.6282,9.3049 -1.3477,3.3435 -6.6361,5.9713 -7.7853,5.612" fill="#ffffff" id="path117"></path>
    <path d="m 26.2643,70.285 c -1.1363,0.0481 -2.4361,-3.6323 -2.5385,-8.6185 -0.1153,-5.676 1.21,-8.2366 2.5066,-8.1596 1.498,0.0834 5.6084,5.2365 5.4995,8.5062 -0.1247,3.8856 -4.2927,8.2172 -5.4676,8.2719 z" fill="#ffffff" id="path119"></path>
    <path d="m 24.4501,55.3645 c -0.2178,-1.8321 2.9002,-5.0471 11.0634,-5.8718 8.7392,-0.8792 12.6895,1.1295 12.8656,2.8622 0.2816,2.8268 -9.1651,9.7318 -14.7897,10.8066 -5.9094,1.1231 -8.9153,-5.907 -9.1393,-7.797 z" fill="#ffffff" id="path121"></path>
    <path d="m 26.9792,53.2496 c -0.1107,-0.0458 -0.2291,-0.0698 -0.349,-0.0706 -1.0852,0 -2.5929,1.8707 -4.0206,6.1221 -1.399,4.1712 -1.0437,6.8793 -0.0513,7.1905 0.9924,0.3113 5.346,-1.3283 6.6138,-4.492 1.0628,-2.6825 -0.9317,-8.2174 -2.1929,-8.75 z" fill="url(#paint0_linear)" id="path123" style="fill:url(#paint0_linear)"></path>
    <path d="m 25.5132,50.8423 c -0.7299,-1.4888 -6.044,-3.3915 -10.388,-3.3915 -1.2712,-0.0423 -2.5369,0.1862 -3.7134,0.6706 -4.94268,2.3101 -7.17713,9.3691 -6.5785,10.9767 0.58262,1.5594 4.94907,1.8835 11.4379,-0.7219 7.4045,-2.9649 10.0774,-5.8238 9.242,-7.5339 z" fill="url(#paint1_linear)" id="path125" style="fill:url(#paint1_linear)"></path>
    <path d="m 12.644,45.1308 c -0.4112,-0.0021 -0.8217,0.0344 -1.2261,0.1091 -5.72051,1.0941 -9.88209,7.8162 -9.6804,9.626 0.19526,1.7679 4.62893,3.2503 12.0301,2.246 8.432,-1.1294 11.9598,-3.3852 11.5405,-5.3713 C 24.8663,49.655 17.5579,45.134 12.644,45.1308 Z" fill="url(#paint2_linear)" id="path127" style="fill:url(#paint2_linear)"></path>
    <path d="m 23.0364,54.4986 c 2.6379,-0.4588 5.5189,-6.8183 3.3453,-17.8978 -2.3656,-12.042 -6.5049,-16.8838 -9.0338,-16.8838 -0.1171,-8e-4 -0.234,0.0099 -0.349,0.032 -4.0399,0.7798 -9.6484,16.9031 -8.77767,25.2392 0.91875,8.7596 12.09417,9.982 14.81517,9.5104 z" fill="url(#paint3_linear)" id="path129" style="fill:url(#paint3_linear)"></path>
    <path d="m 26.5151,68.4223 c 1.1428,-0.0481 4.8947,-3.2761 5.0194,-6.9275 0.1057,-3.0706 -3.8958,-7.9126 -5.3587,-7.9895 h -0.0512 c -1.2422,0 -2.2665,2.4096 -2.1577,7.6718 0.096,4.6846 1.4374,7.3094 2.5482,7.2452 z" fill="url(#paint4_linear)" id="path131" style="fill:url(#paint4_linear)"></path>
    <path d="m 38.5758,49.8955 c -1.0884,0 -2.2921,0.0578 -3.6174,0.1893 -7.0203,0.6835 -10.3047,3.5616 -10.1062,5.2268 0.2049,1.7199 2.9483,8.2174 8.3552,7.1971 5.1443,-0.9626 13.7652,-7.2484 13.5187,-9.8185 -0.1312,-1.3155 -2.6698,-2.7947 -8.1503,-2.7947 z" fill="url(#paint5_linear)" id="path133" style="fill:url(#paint5_linear)"></path>
    <path d="m 132.447,54.9897 h -0.52 v 5.2246 h 0.52 z m -12.356,0 h -0.523 v 5.2246 h 0.523 z m -11.477,0 h -0.523 v 5.2246 h 0.523 z m -32.8581,5.2246 h 4.05 V 59.7875 H 76.407 v -0.0217 c 0.1962,-0.24 0.3707,-0.4768 0.5576,-0.7166 l 2.8039,-3.7136 v -0.3459 h -3.7821 v 0.4238 h 3.1871 v 0.0218 c -0.2057,0.2616 -0.4019,0.5016 -0.5983,0.7509 l -2.8038,3.7103 z m 9.5986,-2.1122 c 0.0034,0.1472 -0.0143,0.2941 -0.053,0.4361 -0.0846,0.3826 -0.2964,0.7254 -0.6008,0.972 -0.3044,0.2467 -0.6834,0.3829 -1.0754,0.3863 -1.2461,0 -1.8317,-1.0779 -1.8317,-2.2523 0,-1.3491 0.7196,-2.3397 1.8691,-2.3397 0.3779,-0.0047 0.7461,0.1189 1.0448,0.3503 0.2986,0.2313 0.5102,0.557 0.6002,0.9238 0.0376,0.1561 0.0554,0.3162 0.053,0.4766 z m 0.0965,2.1122 h 0.4704 C 85.8872,59.8436 85.8778,59.3857 85.8778,58.9931 V 52.485 h -0.5233 v 3.3086 h -0.0219 c -0.1687,-0.2998 -0.4183,-0.5461 -0.72,-0.7113 -0.3018,-0.1652 -0.6437,-0.2427 -0.9873,-0.2233 -1.2865,0 -2.3644,1.0872 -2.3521,2.8288 0,1.5576 0.9564,2.6356 2.2524,2.6356 0.3864,0.0183 0.7696,-0.0774 1.1019,-0.2751 0.3324,-0.1978 0.5993,-0.4888 0.7674,-0.8371 h 0.0219 z m 5.0471,-4.8445 c 0.0847,-0.0045 0.1696,0.0028 0.2523,0.0219 V 54.89 c -0.0721,-0.0123 -0.1451,-0.0196 -0.2181,-0.0217 -0.3388,0.0171 -0.6637,0.1397 -0.9292,0.3511 -0.2654,0.2112 -0.4579,0.5002 -0.5506,0.8265 h -0.0343 l -0.0218,-1.0562 h -0.4767 c 0.0311,0.511 0.0436,1.0437 0.0436,1.5578 v 3.6575 h 0.5204 v -2.8849 c -0.002,-0.1682 0.0126,-0.3362 0.0435,-0.5015 0.1433,-0.8381 0.6543,-1.458 1.3709,-1.458 z m 6.05,2.1996 c 0,1.3396 -0.8598,2.3178 -1.9471,2.3178 -1.0873,0 -1.9035,-0.9782 -1.9035,-2.2836 0,-1.1215 0.5982,-2.3085 1.9347,-2.3085 1.3365,0 1.9159,1.3179 1.9159,2.2743 z m 0.5235,-0.0312 c 0,-1.592 -0.9782,-2.6792 -2.427,-2.6792 -1.296,0 -2.4705,0.9907 -2.4705,2.7758 0,1.6325 1.0437,2.6886 2.3927,2.6886 1.1651,0 2.4923,-0.838 2.4923,-2.7852 z m 7.2434,2.6668 1.741,-5.2245 h -0.52 l -0.934,2.9596 c -0.206,0.623 -0.371,1.1527 -0.48,1.6418 H 104.1 c -0.128,-0.4891 -0.293,-1.0218 -0.511,-1.6543 l -1,-2.9471 h -0.48 l -1.047,2.9689 c -0.205,0.5982 -0.389,1.1559 -0.52,1.6325 h -0.022 c -0.121,-0.4984 -0.274,-1.0218 -0.448,-1.6325 L 99.19,54.9805 h -0.5327 l 1.6107,5.2245 h 0.458 l 1.034,-2.8973 c 0.22,-0.588 0.41,-1.1869 0.567,-1.7945 h 0.022 c 0.14,0.5888 0.312,1.1527 0.542,1.7851 l 0.991,2.9067 z m 4.436,-6.7169 c 0.004,-0.057 -0.004,-0.1143 -0.023,-0.1684 -0.019,-0.054 -0.049,-0.1037 -0.087,-0.1464 -0.038,-0.0425 -0.084,-0.0771 -0.136,-0.1017 -0.052,-0.0245 -0.108,-0.0387 -0.165,-0.0415 -0.117,0.0057 -0.227,0.0568 -0.306,0.1423 -0.08,0.0855 -0.123,0.1989 -0.121,0.3157 -0.005,0.0581 0.002,0.1165 0.021,0.1718 0.019,0.0552 0.049,0.1058 0.088,0.1488 0.04,0.0429 0.088,0.0771 0.141,0.1006 0.053,0.0235 0.111,0.0355 0.169,0.0355 0.058,0 0.116,-0.012 0.169,-0.0355 0.054,-0.0235 0.102,-0.0577 0.141,-0.1006 0.039,-0.043 0.07,-0.0936 0.088,-0.1488 0.019,-0.0553 0.026,-0.1137 0.021,-0.1718 z m 5.976,3.6451 h -3.318 c 0.096,-0.8069 0.598,-1.8287 1.751,-1.8287 1.246,0 1.557,1.0996 1.557,1.8287 z m 0.511,0.4143 c 0.021,-0.1023 0.03,-0.2071 0.025,-0.3115 0,-0.7509 -0.328,-2.3615 -2.038,-2.3615 -1.349,0 -2.349,1.0873 -2.349,2.8288 0,1.5359 0.935,2.6232 2.436,2.6232 0.568,0.0249 1.133,-0.0906 1.645,-0.3365 l -0.131,-0.4019 c -0.451,0.2144 -0.949,0.315 -1.448,0.2929 -1.088,0 -1.991,-0.6636 -1.991,-2.3272 z m 5.003,-4.05 c 0.004,-0.0573 -0.004,-0.1147 -0.023,-0.1689 -0.018,-0.0541 -0.048,-0.1041 -0.086,-0.1468 -0.039,-0.0427 -0.085,-0.0771 -0.137,-0.1017 -0.052,-0.0244 -0.108,-0.0382 -0.165,-0.0405 -0.117,0.0055 -0.227,0.0566 -0.307,0.1422 -0.08,0.0855 -0.123,0.1988 -0.12,0.3157 -0.005,0.0581 0.002,0.1165 0.021,0.1717 0.019,0.0552 0.049,0.1058 0.088,0.1488 0.039,0.0429 0.087,0.0773 0.141,0.1007 0.053,0.0235 0.111,0.0356 0.169,0.0356 0.058,0 0.116,-0.0121 0.169,-0.0356 0.054,-0.0234 0.101,-0.0578 0.141,-0.1007 0.039,-0.043 0.069,-0.0936 0.088,-0.1488 0.019,-0.0552 0.026,-0.1136 0.021,-0.1717 z m 8.77,4.05 c 0,1.3927 -0.686,2.3615 -1.869,2.3615 -0.394,0.002 -0.777,-0.1276 -1.088,-0.3679 -0.312,-0.2406 -0.534,-0.5781 -0.632,-0.9593 -0.031,-0.1359 -0.045,-0.275 -0.044,-0.4143 v -1.0218 c 0.009,-0.151 0.035,-0.3005 0.078,-0.4455 0.095,-0.3895 0.316,-0.7365 0.629,-0.987 0.312,-0.2503 0.7,-0.3896 1.1,-0.3963 1.187,0 1.838,1.0561 1.838,2.2306 z m 0.536,-0.0217 c 0,-1.5328 -0.904,-2.6451 -2.253,-2.6451 -0.393,-0.0152 -0.782,0.0812 -1.123,0.2779 -0.341,0.1969 -0.619,0.4861 -0.802,0.8344 h -0.022 l -0.034,-0.9908 h -0.502 c 0.035,0.4985 0.044,1.0125 0.044,1.6636 v 5.7137 h 0.523 v -3.0032 h 0.022 c 0.18,0.3066 0.441,0.5585 0.753,0.7292 0.312,0.1705 0.664,0.2533 1.02,0.2397 1.265,0 2.374,-0.9595 2.374,-2.8194 z m 3.065,-4.0158 c 0.004,-0.0572 -0.005,-0.1145 -0.024,-0.1684 -0.018,-0.0541 -0.048,-0.1038 -0.086,-0.1464 -0.038,-0.0425 -0.084,-0.0772 -0.136,-0.1018 -0.052,-0.0245 -0.108,-0.0386 -0.165,-0.0414 -0.117,0.0056 -0.227,0.0566 -0.306,0.1423 -0.08,0.0855 -0.123,0.1987 -0.121,0.3157 -0.005,0.058 0.002,0.1165 0.021,0.1717 0.019,0.0551 0.049,0.1058 0.088,0.1487 0.04,0.043 0.088,0.0773 0.141,0.1008 0.053,0.0235 0.111,0.0355 0.169,0.0355 0.059,0 0.116,-0.012 0.169,-0.0355 0.054,-0.0235 0.102,-0.0578 0.141,-0.1008 0.04,-0.0429 0.07,-0.0936 0.088,-0.1487 0.019,-0.0552 0.027,-0.1137 0.021,-0.1717 z m 6.073,3.6357 h -3.322 c 0.1,-0.8069 0.598,-1.8288 1.741,-1.8288 1.274,0 1.581,1.0997 1.558,1.8288 z m 0.501,0.4143 c 0.005,-0.1038 0.005,-0.2078 0,-0.3116 0,-0.7508 -0.312,-2.3614 -2.022,-2.3614 -1.352,0 -2.352,1.0873 -2.352,2.8288 0,1.5358 0.935,2.6231 2.435,2.6231 0.132,-4e-4 0.263,-0.0076 0.394,-0.0217 -0.38,0.2398 -0.839,0.7289 -0.839,1.2462 -0.004,0.1134 0.017,0.2265 0.061,0.3314 0.044,0.1048 0.11,0.1988 0.193,0.2755 0.085,0.0768 0.185,0.1343 0.292,0.1688 0.109,0.0346 0.223,0.0452 0.336,0.0312 0.254,0.0082 0.505,-0.0602 0.72,-0.1964 l -0.088,-0.3114 c -0.167,0.0742 -0.349,0.1113 -0.532,0.1089 -0.067,0.004 -0.135,-0.0067 -0.197,-0.0312 -0.062,-0.0246 -0.12,-0.0625 -0.166,-0.1112 -0.046,-0.0485 -0.082,-0.1067 -0.103,-0.1703 -0.023,-0.0637 -0.029,-0.1313 -0.023,-0.1982 0,-0.5109 0.623,-1.0779 1.087,-1.2617 0.175,-0.0512 0.346,-0.1168 0.511,-0.1964 l -0.131,-0.4018 c -0.455,0.2146 -0.955,0.3151 -1.458,0.2929 -1.077,0 -1.982,-0.6636 -1.982,-2.3273 z m 6.231,2.6668 -2.405,-3.0594 2.112,-2.1807 h -0.623 l -1.851,1.9346 c -0.162,0.1745 -0.367,0.4144 -0.498,0.5796 H 142.13 V 52.485 h -0.523 v 7.7293 h 0.523 v -2.1807 l 0.532,-0.5671 2.135,2.7448 z m 5.701,0 h 0.523 v -3.1497 c 0,-1.9596 -1.33,-2.2088 -1.829,-2.2088 -0.37,-0.008 -0.734,0.088 -1.051,0.2768 -0.318,0.1889 -0.577,0.4633 -0.746,0.7918 h -0.022 l -0.032,-0.9347 h -0.489 c 0.032,0.4113 0.044,0.7727 0.044,1.2463 v 3.9752 h 0.521 v -3.2431 c 0.004,-0.1578 0.027,-0.3145 0.065,-0.4674 0.101,-0.338 0.306,-0.6357 0.586,-0.8509 0.278,-0.2153 0.619,-0.3371 0.972,-0.3485 1.078,0 1.449,0.8599 1.449,1.8069 z m 7.225,-2.6481 c 0,1.3396 -0.861,2.3178 -1.948,2.3178 -1.087,0 -1.906,-0.9782 -1.906,-2.2835 0,-1.1216 0.598,-2.3085 1.938,-2.3085 1.339,0 1.916,1.3177 1.916,2.2742 z m 0.523,-0.0312 c 0,-1.5919 -0.982,-2.6792 -2.427,-2.6792 -1.295,0 -2.47,0.9906 -2.47,2.7759 0,1.6323 1.043,2.6885 2.392,2.6885 1.165,0 2.492,-0.838 2.492,-2.7852" fill="#e6007e" id="path135"></path>
  </g>
</svg>
