<?xml version="1.0" encoding="UTF-8" standalone="no"?>
<svg xmlns:inkscape="http://www.inkscape.org/namespaces/inkscape" xmlns:sodipodi="http://sodipodi.sourceforge.net/DTD/sodipodi-0.dtd" xmlns="http://www.w3.org/2000/svg" xmlns:svg="http://www.w3.org/2000/svg" viewBox="0 0 90.4 35.099998" version="1.1" id="svg842" sodipodi:docname="drogerie-jawa.svg" width="90.400002" height="35.099998" inkscape:version="1.1 (c4e8f9e, 2021-05-24)">
  <defs id="defs846">
    <clipPath id="clipPath199">
      <path d="M 112.015,688.512 H 398.221 V 801.104 H 112.015 Z" id="path197"></path>
    </clipPath>
    <clipPath id="clipPath199-6">
      <path d="M 112.015,688.512 H 398.221 V 801.104 H 112.015 Z" id="path197-1"></path>
    </clipPath>
  </defs>
  <style type="text/css" id="style109">
	.st0{fill:#E30613;}
	.st1{fill-rule:evenodd;clip-rule:evenodd;fill:#E30613;}
</style>
  <g id="g979" transform="matrix(0.54669488,0,0,-0.54669488,-2.8401558,319.7386)" style="fill:#ffffff">
    <g id="g190" transform="translate(48.1245,538.281)" style="fill:#ffffff">
      <path d="m 0,0 c 0,-0.779 0.273,-1.446 0.819,-2.001 0.545,-0.555 1.202,-0.832 1.97,-0.832 0.767,0 1.431,0.274 1.991,0.82 0.561,0.548 0.842,1.205 0.842,1.973 V 27.338 H 8.72 V 0 C 8.72,-0.826 8.565,-1.601 8.255,-2.324 7.945,-3.047 7.517,-3.674 6.972,-4.205 6.425,-4.736 5.791,-5.157 5.068,-5.467 4.345,-5.777 3.57,-5.932 2.744,-5.932 c -0.827,0 -1.601,0.155 -2.324,0.465 -0.722,0.31 -1.35,0.731 -1.881,1.262 -0.532,0.531 -0.952,1.158 -1.261,1.881 -0.31,0.723 -0.465,1.498 -0.465,2.324 z" style="fill:#ffffff;fill-opacity:1;fill-rule:nonzero;stroke:none" id="path192"></path>
    </g>
    <g id="g194" transform="translate(53.436,571.373)" style="fill:#ffffff">
      <path d="M 0,0 C 0,0.532 0.177,0.974 0.532,1.328 0.885,1.682 1.328,1.859 1.859,1.859 2.39,1.859 2.833,1.682 3.188,1.328 3.541,0.974 3.718,0.532 3.718,0 3.718,-0.531 3.541,-0.974 3.188,-1.328 2.833,-1.682 2.39,-1.859 1.859,-1.859 1.328,-1.859 0.885,-1.682 0.532,-1.328 0.177,-0.974 0,-0.531 0,0" style="fill:#ffffff;fill-opacity:1;fill-rule:nonzero;stroke:none" id="path196"></path>
    </g>
    <g id="g198" transform="translate(87.3208,559.333)" style="fill:#ffffff">
      <path d="m 0,0 c -0.635,1.475 -1.505,2.766 -2.612,3.873 -1.106,1.106 -2.398,1.977 -3.872,2.612 -1.477,0.634 -3.055,0.951 -4.737,0.951 -1.682,0 -3.261,-0.317 -4.737,-0.951 C -17.434,5.85 -18.724,4.979 -19.831,3.873 -20.937,2.766 -21.808,1.475 -22.442,0 c -0.636,-1.476 -0.952,-3.055 -0.952,-4.736 0,-1.682 0.316,-3.262 0.952,-4.737 0.634,-1.476 1.505,-2.766 2.611,-3.873 1.107,-1.107 2.397,-1.978 3.873,-2.612 1.476,-0.634 3.055,-0.952 4.737,-0.952 1.682,0 3.26,0.318 4.737,0.952 0.589,0.254 1.139,0.554 1.668,0.881 v 3.91 c -0.824,-0.821 -1.786,-1.466 -2.886,-1.936 -1.107,-0.472 -2.28,-0.708 -3.519,-0.708 -1.24,0 -2.413,0.236 -3.52,0.708 -1.106,0.472 -2.072,1.122 -2.899,1.948 -0.826,0.826 -1.475,1.793 -1.947,2.899 -0.473,1.107 -0.708,2.28 -0.708,3.52 0,1.239 0.235,2.412 0.708,3.519 0.472,1.106 1.121,2.072 1.947,2.899 0.827,0.826 1.793,1.475 2.899,1.947 1.107,0.472 2.28,0.709 3.52,0.709 1.239,0 2.412,-0.237 3.519,-0.709 1.106,-0.472 2.073,-1.121 2.899,-1.947 0.826,-0.827 1.475,-1.793 1.948,-2.899 0.471,-1.107 0.708,-2.28 0.708,-3.519 0,-0.061 -0.008,-0.12 -0.009,-0.181 h 0.009 v -7.964 -2.966 H 0.951 V -4.736 C 0.951,-3.055 0.634,-1.476 0,0" style="fill:#ffffff;fill-opacity:1;fill-rule:nonzero;stroke:none" id="path200"></path>
    </g>
    <g id="g202" transform="translate(128.066,565.619)" style="fill:#ffffff">
      <path d="m 0,0 h 3.188 v -13.191 c 0,-1.388 -0.259,-2.686 -0.775,-3.895 -0.517,-1.211 -1.233,-2.266 -2.147,-3.165 -0.915,-0.901 -1.977,-1.616 -3.187,-2.147 -1.21,-0.532 -2.495,-0.797 -3.851,-0.797 -1.771,0 -3.387,0.414 -4.847,1.239 -1.461,0.826 -2.634,1.948 -3.519,3.364 -0.915,-1.416 -2.096,-2.538 -3.542,-3.364 -1.445,-0.825 -3.054,-1.239 -4.824,-1.239 -1.388,0 -2.678,0.265 -3.873,0.797 -1.195,0.531 -2.236,1.246 -3.122,2.147 -0.885,0.899 -1.586,1.954 -2.102,3.165 -0.516,1.209 -0.774,2.507 -0.774,3.895 V 0 h 3.098 v -13.191 c 0,-0.945 0.177,-1.83 0.531,-2.656 0.354,-0.827 0.834,-1.549 1.439,-2.169 0.605,-0.62 1.32,-1.107 2.147,-1.461 0.826,-0.354 1.711,-0.531 2.656,-0.531 0.914,0 1.785,0.177 2.611,0.531 0.827,0.354 1.549,0.841 2.169,1.461 0.62,0.62 1.114,1.342 1.483,2.169 0.368,0.826 0.554,1.711 0.554,2.656 V 0 h 3.187 v -13.191 c 0,-1.004 0.177,-1.919 0.531,-2.745 0.354,-0.826 0.841,-1.542 1.46,-2.147 0.62,-0.604 1.335,-1.077 2.147,-1.416 0.811,-0.34 1.675,-0.509 2.59,-0.509 0.944,0 1.829,0.177 2.655,0.531 0.826,0.354 1.543,0.841 2.148,1.461 0.604,0.62 1.084,1.342 1.438,2.169 0.354,0.826 0.531,1.711 0.531,2.656 z" style="fill:#ffffff;fill-opacity:1;fill-rule:nonzero;stroke:none" id="path204"></path>
    </g>
    <g id="g206" transform="translate(70.2485,534.363)" style="fill:#ffffff">
      <path d="M 0,0 V 1.667 C 0,2.202 -0.103,2.568 -0.309,2.765 -0.514,2.961 -0.903,3.06 -1.474,3.06 h -4.125 v -4.444 h 4.125 c 0.545,0 0.927,0.102 1.145,0.306 C -0.11,-0.873 0,-0.514 0,0 m 0.758,0.065 c 0,-0.821 -0.227,-1.391 -0.681,-1.711 -0.353,-0.245 -1.024,-0.368 -2.013,-0.368 h -4.386 v 5.703 h 4.386 c 0.989,0 1.66,-0.122 2.013,-0.368 C 0.531,3.002 0.758,2.432 0.758,1.61 Z" style="fill:#ffffff;fill-opacity:1;fill-rule:nonzero;stroke:none" id="path208"></path>
    </g>
    <g id="g210" transform="translate(83.9448,536.196)" style="fill:#ffffff">
      <path d="M 0,0 V 0.273 C 0,0.659 -0.087,0.915 -0.26,1.04 -0.434,1.165 -0.78,1.227 -1.298,1.227 h -3.671 v -2.181 h 3.671 c 0.518,0 0.864,0.062 1.038,0.188 C -0.087,-0.642 0,-0.386 0,0 M 0.758,-0.182 C 0.758,-0.527 0.686,-0.783 0.542,-0.951 0.397,-1.118 0.128,-1.241 -0.268,-1.319 0.377,-1.393 0.7,-1.764 0.7,-2.434 v -1.413 h -0.723 v 1.274 c 0,0.418 -0.11,0.691 -0.329,0.817 -0.171,0.099 -0.532,0.149 -1.082,0.149 h -3.535 v -2.24 h -0.723 v 5.704 h 4.159 c 0.865,0 1.452,-0.081 1.762,-0.243 C 0.582,1.426 0.758,1.054 0.758,0.5 Z" style="fill:#ffffff;fill-opacity:1;fill-rule:nonzero;stroke:none" id="path212"></path>
    </g>
    <g id="g214" transform="translate(98.4243,534.377)" style="fill:#ffffff">
      <path d="M 0,0 V 1.671 C 0,2.168 -0.072,2.511 -0.217,2.7 -0.43,2.977 -0.879,3.116 -1.564,3.116 H -4.202 C -4.886,3.116 -5.335,2.977 -5.549,2.7 -5.698,2.506 -5.773,2.135 -5.773,1.585 V 0.086 c 0,-0.549 0.075,-0.92 0.224,-1.115 0.214,-0.277 0.663,-0.415 1.347,-0.415 h 2.638 c 0.685,0 1.134,0.138 1.347,0.415 C -0.072,-0.84 0,-0.497 0,0 m 0.781,0.028 c 0,-0.847 -0.195,-1.423 -0.585,-1.726 -0.23,-0.183 -0.564,-0.301 -1.002,-0.353 -0.235,-0.031 -0.604,-0.047 -1.107,-0.047 h -1.94 c -0.556,0 -0.973,0.024 -1.251,0.071 -0.363,0.057 -0.649,0.168 -0.857,0.329 -0.396,0.309 -0.594,0.874 -0.594,1.695 V 1.55 c 0,0.894 0.195,1.493 0.585,1.796 0.23,0.178 0.564,0.296 1.003,0.353 0.245,0.031 0.614,0.047 1.106,0.047 h 1.948 c 0.492,0 0.861,-0.016 1.107,-0.047 C -0.368,3.642 -0.034,3.524 0.196,3.346 0.586,3.043 0.781,2.468 0.781,1.621 Z" style="fill:#ffffff;fill-opacity:1;fill-rule:nonzero;stroke:none" id="path216"></path>
    </g>
    <g id="g218" transform="translate(113.503,534.296)" style="fill:#ffffff">
      <path d="m 0,0 c 0,-0.458 -0.019,-0.779 -0.056,-0.961 -0.065,-0.292 -0.202,-0.524 -0.41,-0.696 -0.177,-0.146 -0.438,-0.245 -0.786,-0.297 -0.272,-0.042 -0.687,-0.063 -1.243,-0.063 h -2.086 c -0.47,0 -0.818,0.016 -1.043,0.047 -0.406,0.057 -0.719,0.178 -0.938,0.361 -0.369,0.309 -0.553,0.871 -0.553,1.687 v 1.553 c 0,0.894 0.184,1.493 0.553,1.796 0.214,0.178 0.526,0.296 0.938,0.353 0.225,0.031 0.57,0.047 1.035,0.047 h 2.093 c 0.914,0 1.541,-0.105 1.884,-0.315 0.369,-0.226 0.553,-0.657 0.553,-1.295 0,-0.131 -0.004,-0.232 -0.011,-0.305 h -0.665 v 0.086 c 0,0.449 -0.102,0.761 -0.305,0.936 -0.202,0.175 -0.555,0.263 -1.057,0.263 h -2.779 c -0.63,0 -1.046,-0.139 -1.249,-0.416 C -6.265,2.592 -6.333,2.224 -6.333,1.674 V 0.159 c 0,-0.544 0.068,-0.912 0.208,-1.107 0.203,-0.277 0.619,-0.415 1.249,-0.415 h 2.755 c 0.577,0 0.956,0.094 1.138,0.282 0.165,0.173 0.248,0.534 0.248,1.083 v 0.291 h -2.989 v 0.63 H 0 Z" style="fill:#ffffff;fill-opacity:1;fill-rule:nonzero;stroke:none" id="path220"></path>
    </g>
    <g id="g222" transform="translate(126.526,532.349)" style="fill:#ffffff">
      <path d="M 0,0 H -5.732 V 5.704 H 0 V 5.074 H -5.032 V 3.278 h 4.824 V 2.648 H -5.032 V 0.63 H 0 Z" style="fill:#ffffff;fill-opacity:1;fill-rule:nonzero;stroke:none" id="path224"></path>
    </g>
    <g id="g226" transform="translate(139.295,536.196)" style="fill:#ffffff">
      <path d="M 0,0 V 0.273 C 0,0.659 -0.087,0.915 -0.26,1.04 -0.435,1.165 -0.78,1.227 -1.298,1.227 h -3.671 v -2.181 h 3.671 c 0.518,0 0.863,0.062 1.038,0.188 C -0.087,-0.642 0,-0.386 0,0 M 0.758,-0.182 C 0.758,-0.527 0.686,-0.783 0.542,-0.951 0.397,-1.118 0.127,-1.241 -0.268,-1.319 0.377,-1.393 0.7,-1.764 0.7,-2.434 v -1.413 h -0.723 v 1.274 c 0,0.418 -0.11,0.691 -0.329,0.817 -0.171,0.099 -0.531,0.149 -1.082,0.149 h -3.535 v -2.24 h -0.723 v 5.704 h 4.158 c 0.866,0 1.453,-0.081 1.763,-0.243 C 0.582,1.426 0.758,1.054 0.758,0.5 Z" style="fill:#ffffff;fill-opacity:1;fill-rule:nonzero;stroke:none" id="path228"></path>
    </g>
    <path d="m 148.071,532.349 h -0.723 v 5.704 h 0.723 z" style="fill:#ffffff;fill-opacity:1;fill-rule:nonzero;stroke:none" id="path230"></path>
    <g id="g232" transform="translate(161.309,532.349)" style="fill:#ffffff">
      <path d="M 0,0 H -5.732 V 5.704 H 0 V 5.074 H -5.032 V 3.278 h 4.824 V 2.648 H -5.032 V 0.63 H 0 Z" style="fill:#ffffff;fill-opacity:1;fill-rule:nonzero;stroke:none" id="path234"></path>
    </g>
    <g id="g236" transform="translate(160.623,559.333)" style="fill:#ffffff">
      <path d="m 0,0 c -0.635,1.475 -1.505,2.766 -2.612,3.873 -1.107,1.106 -2.398,1.977 -3.873,2.612 -1.476,0.634 -3.055,0.951 -4.736,0.951 -1.682,0 -3.261,-0.317 -4.737,-0.951 C -17.434,5.85 -18.724,4.979 -19.831,3.873 -20.937,2.766 -21.808,1.475 -22.442,0 c -0.636,-1.476 -0.952,-3.055 -0.952,-4.736 0,-1.682 0.316,-3.262 0.952,-4.737 0.634,-1.476 1.505,-2.766 2.611,-3.873 1.107,-1.107 2.397,-1.978 3.873,-2.612 1.476,-0.634 3.055,-0.952 4.737,-0.952 1.681,0 3.26,0.318 4.736,0.952 0.59,0.254 1.14,0.554 1.668,0.881 v 3.91 c -0.823,-0.821 -1.785,-1.466 -2.885,-1.936 -1.107,-0.472 -2.28,-0.708 -3.519,-0.708 -1.24,0 -2.413,0.236 -3.52,0.708 -1.106,0.472 -2.072,1.122 -2.899,1.948 -0.826,0.826 -1.476,1.793 -1.947,2.899 -0.473,1.107 -0.709,2.28 -0.709,3.52 0,1.239 0.236,2.412 0.709,3.519 0.471,1.106 1.121,2.072 1.947,2.899 0.827,0.826 1.793,1.475 2.899,1.947 1.107,0.472 2.28,0.709 3.52,0.709 1.239,0 2.412,-0.237 3.519,-0.709 1.106,-0.472 2.073,-1.121 2.899,-1.947 0.825,-0.827 1.475,-1.793 1.948,-2.899 0.471,-1.107 0.708,-2.28 0.708,-3.519 0,-0.061 -0.008,-0.12 -0.009,-0.181 h 0.009 v -7.964 -2.966 H 0.951 V -4.736 C 0.951,-3.055 0.634,-1.476 0,0" style="fill:#ffffff;fill-opacity:1;fill-rule:nonzero;stroke:none" id="path238"></path>
    </g>
    <g id="g240" transform="translate(25.4531,552.872)" style="fill:#ffffff">
      <path d="M 0,0 C 0.433,-0.567 0.712,-1.197 0.893,-1.791 1.073,-1.197 1.353,-0.567 1.786,0 1.711,0.418 1.575,0.839 1.353,1.25 1.222,1.492 1.066,1.72 0.893,1.937 0.719,1.72 0.563,1.492 0.433,1.25 0.21,0.839 0.075,0.418 0,0" style="fill:#ffffff;fill-opacity:1;fill-rule:nonzero;stroke:none" id="path242"></path>
    </g>
    <g id="g244" transform="translate(23.167,554.473)" style="fill:#ffffff">
      <path d="m 0,0 c 0.417,-0.142 0.818,-0.327 1.184,-0.567 0.23,-0.152 0.437,-0.318 0.624,-0.496 0.091,0.331 0.219,0.663 0.397,0.99 0.163,0.302 0.36,0.584 0.58,0.848 C 2.136,1.43 1.334,1.948 0.593,2.338 0.267,1.59 0.037,0.793 0,0" style="fill:#ffffff;fill-opacity:1;fill-rule:nonzero;stroke:none" id="path246"></path>
    </g>
    <g id="g248" transform="translate(26.7402,555.248)" style="fill:#ffffff">
      <path d="m 0,0 c 0.219,-0.264 0.417,-0.546 0.58,-0.848 0.177,-0.327 0.306,-0.659 0.397,-0.99 0.187,0.178 0.394,0.344 0.624,0.496 0.374,0.246 0.786,0.435 1.214,0.578 C 2.776,0.031 2.544,0.828 2.217,1.577 1.469,1.185 0.656,0.662 0,0" style="fill:#ffffff;fill-opacity:1;fill-rule:nonzero;stroke:none" id="path250"></path>
    </g>
    <g id="g252" transform="translate(29.5425,553.858)" style="fill:#ffffff">
      <path d="M 0,0 C -0.311,-0.117 -0.608,-0.261 -0.88,-0.44 -1.195,-0.648 -1.459,-0.895 -1.685,-1.16 -1.572,-2.077 -1.71,-2.954 -1.915,-3.671 -1.07,-2.838 -0.137,-1.578 0,0" style="fill:#ffffff;fill-opacity:1;fill-rule:nonzero;stroke:none" id="path254"></path>
    </g>
    <g id="g256" transform="translate(26.0498,549.529)" style="fill:#ffffff">
      <path d="M 0,0 C -0.061,0.616 -0.228,1.514 -0.667,2.353 -0.64,1.374 -0.346,0.49 -0.101,-0.085 -0.07,-0.109 -0.04,-0.131 -0.012,-0.153 -0.008,-0.104 -0.004,-0.053 0,0" style="fill:#ffffff;fill-opacity:1;fill-rule:nonzero;stroke:none" id="path258"></path>
    </g>
    <g id="g260" transform="translate(21.708,551.365)" style="fill:#ffffff">
      <path d="M 0,0 C 0.914,-1.689 2.77,-2.284 3.857,-2.491 3.828,-2.433 3.799,-2.37 3.767,-2.3 2.733,-1.491 0.975,0.235 0.875,2.672 0.38,2.802 -0.135,2.874 -0.634,2.907 -0.627,1.917 -0.471,0.871 0,0" style="fill:#ffffff;fill-opacity:1;fill-rule:nonzero;stroke:none" id="path262"></path>
    </g>
    <g id="g264" transform="translate(24.8345,552.698)" style="fill:#ffffff">
      <path d="M 0,0 C -0.227,0.266 -0.49,0.512 -0.805,0.72 -1.068,0.893 -1.354,1.033 -1.654,1.148 -1.516,-0.398 -0.613,-1.638 0.218,-2.469 0.02,-1.76 -0.111,-0.898 0,0" style="fill:#ffffff;fill-opacity:1;fill-rule:nonzero;stroke:none" id="path266"></path>
    </g>
    <g id="g268" transform="translate(26.6416,549.529)" style="fill:#ffffff">
      <path d="m 0,0 c 0.005,-0.061 0.01,-0.119 0.013,-0.174 0.024,0.018 0.049,0.036 0.074,0.055 C 0.334,0.455 0.639,1.355 0.668,2.354 0.228,1.514 0.061,0.616 0,0" style="fill:#ffffff;fill-opacity:1;fill-rule:nonzero;stroke:none" id="path270"></path>
    </g>
    <g id="g272" transform="translate(32.2021,554.295)" style="fill:#ffffff">
      <path d="m 0,0 c -0.005,-1.078 -0.177,-2.231 -0.705,-3.208 -0.809,-1.497 -2.242,-2.223 -3.399,-2.575 1.007,-0.18 2.311,-0.184 3.43,0.554 1.863,1.227 2.713,4.13 2.943,5.057 C 1.84,-0.102 0.982,0.012 0,0" style="fill:#ffffff;fill-opacity:1;fill-rule:nonzero;stroke:none" id="path274"></path>
    </g>
    <g id="g276" transform="translate(23.2319,557.073)" style="fill:#ffffff">
      <path d="m 0,0 c -0.937,0.44 -1.668,0.651 -1.668,0.651 0,0 -0.397,-1.294 -0.476,-2.863 0.493,-0.033 1.004,-0.1 1.504,-0.222 C -0.581,-1.597 -0.336,-0.771 0,0" style="fill:#ffffff;fill-opacity:1;fill-rule:nonzero;stroke:none" id="path278"></path>
    </g>
    <g id="g280" transform="translate(21.1943,551.087)" style="fill:#ffffff">
      <path d="M 0,0 C -0.528,0.976 -0.7,2.13 -0.705,3.208 -1.687,3.221 -2.544,3.106 -2.974,3.036 -2.743,2.109 -1.892,-0.797 -0.031,-2.022 1.092,-2.762 2.396,-2.757 3.402,-2.577 2.245,-2.225 0.811,-1.499 0,0" style="fill:#ffffff;fill-opacity:1;fill-rule:nonzero;stroke:none" id="path282"></path>
    </g>
    <g id="g284" transform="translate(31.8496,548.577)" style="fill:#ffffff">
      <path d="m 0,0 c -0.867,-0.571 -1.811,-0.758 -2.674,-0.758 -0.945,0 -1.792,0.224 -2.342,0.414 -0.024,-0.004 -0.046,-0.006 -0.068,-0.009 l -0.034,-0.056 -0.344,0.013 c -0.007,0 -0.022,0.001 -0.042,0.002 -0.019,-0.001 -0.034,-0.002 -0.041,-0.002 l -0.345,-0.013 -0.033,0.056 c -0.023,0.003 -0.044,0.005 -0.069,0.009 -0.55,-0.19 -1.397,-0.414 -2.341,-0.414 -0.864,0 -1.807,0.187 -2.674,0.758 -2.424,1.596 -3.229,5.555 -3.263,5.722 l -0.055,0.282 0.281,0.06 c 0.089,0.02 1.258,0.263 2.697,0.244 0.078,1.604 0.473,2.917 0.502,3.012 l 0.169,0.549 0.552,-0.16 c 0.071,-0.02 0.812,-0.24 1.756,-0.683 1.028,2.044 2.577,3.587 2.675,3.682 l 0.205,0.202 0.204,-0.202 c 0.097,-0.095 1.641,-1.632 2.669,-3.67 0.932,0.435 1.661,0.651 1.732,0.671 l 0.552,0.16 0.168,-0.549 C -0.133,9.225 0.261,7.912 0.34,6.308 1.778,6.327 2.947,6.083 3.036,6.064 L 3.317,6.004 3.262,5.722 C 3.229,5.555 2.423,1.596 0,0 m -5.504,18.192 c -6.723,0 -12.172,-5.45 -12.172,-12.172 0,-6.723 5.449,-12.173 12.172,-12.173 6.723,0 12.173,5.45 12.173,12.173 0,6.722 -5.45,12.172 -12.173,12.172" style="fill:#ffffff;fill-opacity:1;fill-rule:nonzero;stroke:none" id="path286"></path>
    </g>
    <g id="g288" transform="translate(26.3457,555.679)" style="fill:#ffffff">
      <path d="M 0,0 C 0.709,0.709 1.572,1.263 2.361,1.675 1.576,3.222 0.469,4.49 0.016,4.976 -0.438,4.488 -1.55,3.214 -2.336,1.662 -1.554,1.252 -0.702,0.702 0,0" style="fill:#ffffff;fill-opacity:1;fill-rule:nonzero;stroke:none" id="path290"></path>
    </g>
    <g id="g292" transform="translate(30.9834,551.365)" style="fill:#ffffff">
      <path d="M 0,0 C 0.471,0.871 0.628,1.917 0.634,2.906 0.145,2.874 -0.358,2.804 -0.844,2.679 -0.942,0.201 -2.756,-1.543 -3.784,-2.337 -3.809,-2.392 -3.833,-2.443 -3.856,-2.491 -2.77,-2.284 -0.914,-1.689 0,0" style="fill:#ffffff;fill-opacity:1;fill-rule:nonzero;stroke:none" id="path294"></path>
    </g>
    <g id="g296" transform="translate(31.604,554.861)" style="fill:#ffffff">
      <path d="m 0,0 c -0.079,1.57 -0.476,2.864 -0.476,2.864 0,0 -0.717,-0.208 -1.643,-0.64 0.338,-0.772 0.584,-1.6 0.645,-2.438 0.49,0.116 0.99,0.182 1.474,0.214" style="fill:#ffffff;fill-opacity:1;fill-rule:nonzero;stroke:none" id="path298"></path>
    </g>
  </g>
</svg>
