<svg xmlns="http://www.w3.org/2000/svg" width="120" height="48"><path data-name="Path 1" d="M118.391 37.926a8.834 8.834 0 0 1-8.916 8.694H10.713a8.834 8.834 0 0 1-8.916-8.694V9.706a8.832 8.832 0 0 1 8.916-8.692h98.761a8.832 8.832 0 0 1 8.916 8.692z" fill-rule="evenodd" fill="#fff"/><path data-name="Path 2" d="M10.556.234h98.945a10.163 10.163 0 0 1 10.288 10.032v27.471a10.162 10.162 0 0 1-10.288 10.03H10.556A10.162 10.162 0 0 1 .268 37.737V10.266A10.163 10.163 0 0 1 10.556.234zm0 2.677h98.945a7.451 7.451 0 0 1 7.544 7.355v27.471a7.451 7.451 0 0 1-7.544 7.355H10.556a7.451 7.451 0 0 1-7.544-7.355V10.266a7.451 7.451 0 0 1 7.544-7.355z" fill="#d22630" fill-rule="evenodd"/><path data-name="Path 3" d="M109.472 48H10.528A10.411 10.411 0 0 1 .002 37.733v-27.47A10.409 10.409 0 0 1 10.53 0h98.942a10.409 10.409 0 0 1 10.53 10.263v27.471A10.411 10.411 0 0 1 109.474 48zM10.528.467a9.936 9.936 0 0 0-10.048 9.8v27.471a9.936 9.936 0 0 0 10.048 9.8h98.944a9.936 9.936 0 0 0 10.048-9.8V10.263a9.936 9.936 0 0 0-10.048-9.8zm98.944 44.857H10.528a7.7 7.7 0 0 1-7.784-7.591v-27.47a7.7 7.7 0 0 1 7.784-7.59h98.944a7.7 7.7 0 0 1 7.784 7.59v27.471a7.7 7.7 0 0 1-7.784 7.591zM10.528 3.142a7.222 7.222 0 0 0-7.3 7.121v27.471a7.224 7.224 0 0 0 7.3 7.124h98.944a7.224 7.224 0 0 0 7.3-7.124V10.263a7.222 7.222 0 0 0-7.3-7.121z"/><path data-name="Path 4" d="M61.579 10.39a2.991 2.991 0 0 1 1.334 1.007 2.747 2.747 0 0 1-.073 2.113 1.534 1.534 0 0 1-1.327.943 2.039 2.039 0 0 0-1.451.82c-.488.773-.732 5.976-.785 6.381l-.343 2.671c-1.075 8.345-4.066 12.472-11.166 12.946a35.78 35.78 0 0 1-4.364 0c-3.522-.117-9.424-2.25-9.374-6.205l.026-2.082 1.327-11.442a5.656 5.656 0 0 0 0-2.241c-.1-.421-.516-.5-.944-.586-.5-.1-1-.227-1.036-.928a6.281 6.281 0 0 1 .3-2.108 2.444 2.444 0 0 1 1.818-1.362 15.062 15.062 0 0 1 3.728-.45 41.126 41.126 0 0 1 4.252.06c1.749.071 5.042.251 5.042 2.492 0 3.3-3.493-.007-4.01 7.227-.243 3.4-.834 6.927-.835 7.22 0 0-.037.872-.022 1.589 0 .077.016.449.03.56a3.934 3.934 0 0 0 2.8 2.972c.134.026.489.07.619.082a8.1 8.1 0 0 0 .973.005c.138-.007.674-.079.746-.092 2.474-.44 4.717-4.779 5.024-11.018.152-3.16.477-5.184.059-5.72-.826-.679-3.008-.875-3.008-3.184 0-1.866 2.456-2.131 4.124-2.131h4.01a11.547 11.547 0 0 1 2.526.461z" fill="#d22630" fill-rule="evenodd"/><path data-name="Path 5" d="M45.894 37.572c-.572 0-1.107-.02-1.784-.044l-.714-.026c-3.269-.108-9.654-2.168-9.6-6.44l.029-2.106 1.321-11.437c.017-.337.049-.59.074-.795a3.123 3.123 0 0 0-.07-1.368c-.054-.238-.262-.306-.725-.4l-.039-.009c-.469-.1-1.178-.245-1.222-1.144a6.408 6.408 0 0 1 .329-2.223 2.717 2.717 0 0 1 1.961-1.485 15.424 15.424 0 0 1 3.788-.458 71.553 71.553 0 0 1 1.774-.027c.8 0 1.242.024 1.71.049.235.013.478.027.782.038 1.577.062 5.267.211 5.267 2.725a1.919 1.919 0 0 1-1.441 2.117c-1.013.438-2.272.98-2.569 5.129-.172 2.413-.521 4.9-.708 6.231-.068.483-.126.9-.127.97 0 .018-.037.883-.022 1.586 0 .086.016.439.027.535a3.726 3.726 0 0 0 2.613 2.77c.121.024.469.068.6.079a7.512 7.512 0 0 0 .939.007c.126-.007.65-.077.72-.09 2.151-.383 4.5-4.217 4.828-10.8.043-.9.1-1.71.151-2.422a8.658 8.658 0 0 0-.029-3.124 4.429 4.429 0 0 0-.795-.432c-.96-.449-2.276-1.062-2.276-2.915 0-1.569 1.466-2.364 4.357-2.364h4.01a11.68 11.68 0 0 1 2.59.471 3.16 3.16 0 0 1 1.484 1.143 2.97 2.97 0 0 1-.069 2.278 1.759 1.759 0 0 1-1.5 1.1 1.8 1.8 0 0 0-1.3.714c-.363.575-.606 4.2-.7 5.57-.026.4-.043.632-.053.716l-.344 2.671c-1.143 8.877-4.441 12.685-11.383 13.148a27.14 27.14 0 0 1-1.89.07zm-11.6-8.573-.026 2.069c-.049 3.951 6.033 5.863 9.147 5.967l.715.024c.672.024 1.2.044 1.767.044.587 0 1.16-.02 1.858-.068 6.67-.445 9.842-4.136 10.95-12.74l.344-2.671c.009-.071.027-.344.05-.688.179-2.655.395-5.195.769-5.788a2.279 2.279 0 0 1 1.6-.925 1.3 1.3 0 0 0 1.158-.8 2.526 2.526 0 0 0 .076-1.941 2.9 2.9 0 0 0-1.2-.877 11.38 11.38 0 0 0-2.438-.447h-4.018c-2.581 0-3.89.639-3.89 1.9 0 1.555 1.069 2.043 2.005 2.492a5.449 5.449 0 0 1 .953.549c.315.233.278 1.522.141 3.462a98.236 98.236 0 0 0-.151 2.411c-.3 6.03-2.492 10.755-5.213 11.241-.086.015-.626.086-.774.1a7.9 7.9 0 0 1-1.007-.007c-.13-.011-.5-.057-.643-.086a4.134 4.134 0 0 1-2.99-3.171c-.016-.125-.03-.509-.032-.586-.014-.716.022-1.595.023-1.6 0-.088.038-.361.13-1.024.186-1.329.533-3.8.7-6.2.316-4.433 1.781-5.063 2.85-5.522a1.485 1.485 0 0 0 1.158-1.688c0-1.818-2.435-2.162-4.818-2.258a32.897 32.897 0 0 1-.79-.038c-.461-.024-.9-.048-1.685-.048-.479 0-1.055.007-1.762.026a14.9 14.9 0 0 0-3.668.441c-1.176.344-1.508.837-1.667 1.227a5.806 5.806 0 0 0-.287 2.016c.023.476.289.584.85.7l.038.007c.427.09.958.2 1.086.756a3.584 3.584 0 0 1 .079 1.529c-.026.209-.055.443-.074.776l-1.327 11.444z"/><path data-name="Path 6" d="M31.959 10.673a2 2 0 0 1 1.306 3.045c-.24.645-.767.7-1.325.806a2.222 2.222 0 0 0-.943.352 4.889 4.889 0 0 0-.846 2.585c-.3 2.014-.379 4.81-1.314 10.406-1.145 6.846-7.981 9.441-12.291 9.441a17.006 17.006 0 0 1-2.182 0c-3.155-.119-7.79-2.12-7.79-5.934a5.024 5.024 0 0 1 5.018-5.006 4.53 4.53 0 0 1 1.3.09 3.428 3.428 0 0 1 3.039 3.338c-.122 1.335-1.139 1.712-.8 2.347a1.433 1.433 0 0 0 1.386.619c1.488-.276 2.357-2.086 3.244-7.461.3-1.82.713-6.255.713-6.923a12.586 12.586 0 0 0 .059-3.213c-.354-.295-1.4-.179-1.865-.251a1.325 1.325 0 0 1-1-1.17 4.539 4.539 0 0 1 .065-1.174c.043-1.608 2.118-2.485 6.585-2.578l4.5.011a8.8 8.8 0 0 1 3.147.672z" fill="#d22630" fill-rule="evenodd"/><path data-name="Path 7" d="M15.244 37.578a7.716 7.716 0 0 1-.909-.042c-3.212-.119-8-2.162-8-6.165a5.243 5.243 0 0 1 5.249-5.24 4.445 4.445 0 0 1 1.18.066l.157.026a3.651 3.651 0 0 1 3.235 3.591 3.145 3.145 0 0 1-.614 1.549c-.239.359-.309.489-.215.668a1.2 1.2 0 0 0 1.021.505.64.64 0 0 0 .115-.007c1.4-.26 2.225-2.23 3.055-7.271.3-1.794.71-6.2.71-6.883 0-.216.031-.513.066-.859a7.58 7.58 0 0 0 .024-2.21 3.108 3.108 0 0 0-1.091-.132 5.139 5.139 0 0 1-.605-.033 1.553 1.553 0 0 1-1.2-1.4 4.755 4.755 0 0 1 .065-1.21c.069-1.774 2.3-2.684 6.814-2.778l4.507.009a9.083 9.083 0 0 1 3.231.687 2.824 2.824 0 0 1 1.373.9l.026.04a2.848 2.848 0 0 1 .043 2.4 1.53 1.53 0 0 1-1.394.937l-.108.02a2.007 2.007 0 0 0-.847.311c-.194.135-.477.666-.754 2.432-.1.681-.178 1.443-.272 2.41-.179 1.818-.425 4.31-1.043 8-1.182 7.071-8.136 9.637-12.521 9.637.007 0-.656.04-1.3.04zm-3.255-10.99c-.105 0-.229 0-.387.009a4.8 4.8 0 0 0-4.795 4.773c0 3.695 4.514 5.585 7.565 5.7a7.32 7.32 0 0 0 .871.04c.632 0 1.282-.038 1.288-.038 4.079 0 10.948-2.512 12.074-9.247.614-3.673.859-6.156 1.037-7.967.1-.972.172-1.739.276-2.435.256-1.635.538-2.455.943-2.741a2.447 2.447 0 0 1 1.034-.39l.11-.022c.55-.1.869-.179 1.039-.635a2.35 2.35 0 0 0-.007-2 2.406 2.406 0 0 0-1.165-.745 8.657 8.657 0 0 0-3.074-.654l-4.489-.011c-4.172.088-6.311.877-6.35 2.349l-.007.049a4.382 4.382 0 0 0-.058 1.1v.029a1.1 1.1 0 0 0 .8.928 5.205 5.205 0 0 0 .541.026 2.547 2.547 0 0 1 1.435.275l.054.046.02.066a7.165 7.165 0 0 1 .015 2.472c-.034.333-.064.619-.064.811 0 .694-.414 5.149-.715 6.96-.881 5.343-1.779 7.346-3.432 7.654a1.071 1.071 0 0 1-.2.015 1.6 1.6 0 0 1-1.435-.754c-.232-.439.008-.8.24-1.146a2.674 2.674 0 0 0 .537-1.331 3.218 3.218 0 0 0-2.842-3.087l-.159-.024a3.714 3.714 0 0 0-.7-.071z"/><path data-name="Path 8" d="M98.547 20.024c.93-.342 2.054 3.521 2.054 4.664 0 1.736-1.592 1.454-2.346 1.448l-.192-.005c-.73.015-2.249-.194-2.14-1.181.208-1.882 1.626-4.556 2.624-4.925zm-33-9.922a14.54 14.54 0 0 1 1.4-.114c2.589-.092 4.936-.139 7.957 0 2.659.128 3.181 1.236 3.17 2.541-.025 2.983-2.625.936-3.539 3.008a35.487 35.487 0 0 0-.726 4.958c-.07 1.19-.78 7.06-.867 8.84a11.285 11.285 0 0 0-.029 1.5c.118 1.062 1.326 1.368 2.719 1.5 5.537.535 3.6-4.8 7.836-4.8 2.227 0 2.184 2.443 1.77 5.1l8.168-13.564c2.858-4.466.681-9.287 6.664-9.287 5.4 0 6.508 5.68 7.873 11.528.62 2.655 1.858 7.725 1.858 7.725 1.3 6.344 3.455 2.866 3.568 5.9.073 1.935-2.1 2.454-4.216 2.536-2.5.093-5.189.04-6.753-.029-.56-.024-3.568-.15-3.568-1.946 0-2.378 3.066-1.674 2.476-3.539-.176-.56-.663-.967-2-1-1.493-.035-2.271 0-3.952 0-.737 0-3.1-.146-3.214 1.474-.1 1.316 2.477.293 2.477 2.743 0 1.97-4.175 2.4-5.131 2.388l-2.8-.029a7.049 7.049 0 0 1-3.539-.738c-.338-.183-.5.419-1.115.6a4.46 4.46 0 0 1-1.182.007c-.35 0-1.317-.352-1.633-.352H63.825c-.148 0-4.294.795-4.231-1.732a5.417 5.417 0 0 1 .127-1.576c.338-1.373 2.183-.447 3.319-3.31a18.1 18.1 0 0 0 1.122-4.982c.323-2.95.742-6.63.883-7.608.029-.677.448-1.912-.029-2.565a3.31 3.31 0 0 0-1.057-.555c-.7-.293-1.007-.346-1.041-1.049a6.272 6.272 0 0 1 .3-2.106 2.243 2.243 0 0 1 1.586-1.291 7.43 7.43 0 0 1 .743-.176z" fill="#d22630" fill-rule="evenodd"/><path data-name="Path 9" d="m89.522 37.799-2.836-.029a7.272 7.272 0 0 1-3.647-.765c-.046 0-.142.092-.205.15a1.751 1.751 0 0 1-.734.465l-.034.005a4.965 4.965 0 0 1-.66.044 4.075 4.075 0 0 1-.572-.037 4.65 4.65 0 0 1-.9-.189 4.377 4.377 0 0 0-.713-.159H63.825s-.037 0-.082.011a10.442 10.442 0 0 1-1.4.106 3.413 3.413 0 0 1-2.5-.756 1.769 1.769 0 0 1-.482-1.335 6.774 6.774 0 0 1 .135-1.635c.168-.679.661-.89 1.186-1.111a3.44 3.44 0 0 0 2.141-2.221 17.708 17.708 0 0 0 1.1-4.861s.938-8.089.977-8.333a2.7 2.7 0 0 0-.058-1.716 3.179 3.179 0 0 0-.961-.494l-.2-.079c-.58-.236-.962-.392-1-1.177a6.441 6.441 0 0 1 .329-2.223 2.482 2.482 0 0 1 1.72-1.406 7.259 7.259 0 0 1 .781-.181 14.331 14.331 0 0 1 1.429-.115c1.213-.044 2.662-.088 4.2-.088 1.253 0 2.487.029 3.774.088 2.362.114 3.409.97 3.394 2.778-.015 1.851-1.009 1.988-1.885 2.111-.677.093-1.317.181-1.674.989a32.89 32.89 0 0 0-.706 4.885c-.03.505-.174 1.846-.341 3.4-.223 2.071-.476 4.418-.525 5.433a4.935 4.935 0 0 1-.027.536 4.674 4.674 0 0 0 0 .941c.081.734.832 1.121 2.508 1.282a7.139 7.139 0 0 0 .721.037c2.256 0 2.926-1.177 3.636-2.424.675-1.185 1.373-2.411 3.457-2.411a2 2 0 0 1 1.6.654c.671.784.706 2.168.554 3.591l7.586-12.6a13.932 13.932 0 0 0 1.7-4.6c.6-2.578 1.118-4.8 5.161-4.8 5.384 0 6.629 5.37 7.949 11.056l2.009 8.377c.736 3.583 1.712 3.913 2.424 4.153.663.223 1.1.469 1.151 1.793.064 1.727-1.43 2.66-4.442 2.778a92.887 92.887 0 0 1-6.775-.03c-2.444-.1-3.791-.877-3.791-2.181a2.325 2.325 0 0 1 1.635-2.194c.73-.372 1.07-.582.852-1.274-.118-.372-.427-.8-1.788-.839-.949-.022-4.29 0-4.387 0-1.67 0-2.477.4-2.539 1.262-.025.342.177.436.76.617a1.968 1.968 0 0 1 1.718 2.107c0 2.177-4.206 2.622-5.332 2.622zm-6.5-1.269a.494.494 0 0 1 .237.064 6.846 6.846 0 0 0 3.428.709l2.832.029c1.246 0 4.864-.531 4.864-2.155 0-1.234-.706-1.452-1.388-1.661-.536-.165-1.143-.352-1.089-1.1.123-1.694 2.292-1.694 3.006-1.694h.441c.608 0 1.1-.005 1.544-.009.794-.007 1.458-.015 2.413.009 1.276.033 1.982.4 2.223 1.165.348 1.1-.414 1.489-1.086 1.833s-1.38.7-1.38 1.776c0 1.419 2.338 1.67 3.344 1.712a90.1 90.1 0 0 0 6.733.032c2.7-.106 4.044-.877 3.991-2.294-.04-1.1-.321-1.194-.831-1.366-.82-.276-1.944-.656-2.731-4.493-.011-.042-1.244-5.094-1.856-7.72l-.153-.654c-1.275-5.5-2.481-10.693-7.493-10.693-3.671 0-4.105 1.864-4.7 4.442a14.336 14.336 0 0 1-1.761 4.739l-8.165 13.557-.432-.156c.244-1.573.432-3.486-.3-4.338a1.534 1.534 0 0 0-1.242-.489c-1.812 0-2.386 1.007-3.051 2.175-.71 1.247-1.515 2.66-4.043 2.66-.242 0-.5-.013-.765-.038-1.369-.132-2.788-.438-2.929-1.708a5.325 5.325 0 0 1 0-1.029 4.159 4.159 0 0 0 .026-.5c.05-1.04.3-3.395.527-5.471.167-1.547.31-2.882.34-3.384a34.538 34.538 0 0 1 .744-5.039 2.212 2.212 0 0 1 2.038-1.263c.852-.119 1.469-.205 1.481-1.652.009-1.124-.341-2.181-2.948-2.305a79.298 79.298 0 0 0-3.752-.09c-1.532 0-2.975.046-4.185.09a13.345 13.345 0 0 0-1.379.11c-.06.009-.525.1-.7.161-.992.333-1.279.753-1.444 1.155a5.821 5.821 0 0 0-.286 2.016c.023.48.154.533.709.758a6.38 6.38 0 0 1 1.307.67l.036.04a2.88 2.88 0 0 1 .156 2.087c-.038.234-.973 8.309-.973 8.309a18.186 18.186 0 0 1-1.13 4.984 3.887 3.887 0 0 1-2.392 2.477c-.528.223-.808.361-.916.8a6.567 6.567 0 0 0-.121 1.527 1.306 1.306 0 0 0 .35 1 3.043 3.043 0 0 0 2.162.613 9.754 9.754 0 0 0 1.34-.1c.079-.009.13-.015.146-.015h15.397a4.006 4.006 0 0 1 .835.176 4.716 4.716 0 0 0 .8.174h.04a3.28 3.28 0 0 0 .515.033 4.731 4.731 0 0 0 .581-.037 1.345 1.345 0 0 0 .526-.348.771.771 0 0 1 .513-.286zm15.916-10.138c-.146 0-.952-.024-.952-.024a3.113 3.113 0 0 1-2.048-.65 1 1 0 0 1-.25-.793c.2-1.824 1.609-4.687 2.776-5.118a.575.575 0 0 1 .2-.037c1.195 0 2.169 3.955 2.169 4.92a1.618 1.618 0 0 1-1.894 1.7zm0-.467c.741 0 1.426-.15 1.426-1.234 0-1.168-1.074-4.451-1.7-4.451a.1.1 0 0 0-.038.007c-.84.309-2.26 2.809-2.472 4.73a.522.522 0 0 0 .134.428 2.555 2.555 0 0 0 1.7.494s.814.026.953.026z"/><path data-name="Path 10" d="M109.38 8.545a2.16 2.16 0 0 0-1.569.643 2.271 2.271 0 0 0-.679 1.608 2.276 2.276 0 0 0 2.249 2.256 2.282 2.282 0 0 0 1.6-.661 2.173 2.173 0 0 0 .661-1.595 2.247 2.247 0 0 0-2.258-2.25zm.007.331a1.913 1.913 0 0 1 1.919 1.95 1.832 1.832 0 0 1-.56 1.327 1.961 1.961 0 0 1-1.39.56 1.926 1.926 0 0 1-1.888-1.919 1.955 1.955 0 0 1 .579-1.371 1.844 1.844 0 0 1 1.34-.547zm-.923.617v2.523h.542v-1.053h.394l.5 1.053h.6l-.56-1.141a.665.665 0 0 0 .56-.7c0-.443-.355-.685-1.066-.685zm.542.342h.331c.412 0 .61.119.61.4s-.187.386-.584.386h-.357V9.83z" fill-rule="evenodd"/></svg>