<?xml version="1.0" encoding="UTF-8" standalone="no"?>
<svg xmlns:inkscape="http://www.inkscape.org/namespaces/inkscape" xmlns:sodipodi="http://sodipodi.sourceforge.net/DTD/sodipodi-0.dtd" xmlns="http://www.w3.org/2000/svg" xmlns:svg="http://www.w3.org/2000/svg" id="svg34" version="1.1" height="147.935" width="147.935" sodipodi:docname="kaufland.svg" inkscape:version="1.1 (c4e8f9e, 2021-05-24)">
  <defs id="defs7052"></defs>
  <g id="g13" transform="translate(-126.03378,-76.033786)">
    <path id="canvas_background" fill="none" d="M -1,-1 H 401 V 301 H -1 Z"></path>
  </g>
  <style type="text/css" id="style42">.st0{fill:#e10915}</style>
  <g transform="matrix(0.28758443,0,0,0.28758443,-18.203311,-18.490895)" id="g78">
    <path id="Rahmen" class="st0" d="m 70.5,571.5 h 500 V 71.5 H 70.5 Z M 549,550 H 92 V 93 h 457 z"></path>
    <path id="Quadrat2" class="st0" d="m 226.39999,270.39999 h 91.4 v 91.4 h -91.4 z"></path>
    <path id="Quadrat1" class="st0" d="m 226.39999,162.89999 h 91.4 v 91.4 h -91.4 z"></path>
    <path id="Dreieck2" class="st0" d="m 333.9,361.8 h 91.4 l -91.4,-91.4 z"></path>
    <path id="Dreieck1" class="st0" d="m 333.9,162.9 v 91.4 l 91.4,-91.4 z"></path>
    <path id="l" class="st0" d="m 332.70001,415 h 12.9 v 65.1 h -12.9 z"></path>
    <path id="d" class="st0" d="m 493.5,415 v 26.9 c -3.6,-3.8 -8.6,-5.9 -13.8,-5.9 -12.2,0 -20.5,10.1 -20.5,22.8 -0.9,11.5 7.8,21.5 19.2,22.4 0.4,0 0.8,0 1.2,0.1 5.2,0.1 10.2,-2.1 13.8,-5.9 v 4.7 H 506 V 415 Z m 0,50.7 c -2.3,3 -5.9,4.7 -9.7,4.6 -6.6,-0.4 -11.6,-6.1 -11.1,-12.7 0.4,-6 5.1,-10.7 11.1,-11.1 3.8,-0.1 7.3,1.7 9.7,4.6 z"></path>
    <path id="a2" class="st0" d="m 387.4,441.3 c -3.6,-3.4 -8.3,-5.4 -13.3,-5.4 -12.1,0 -20.4,10.1 -20.4,22.8 -0.9,11.5 7.8,21.5 19.2,22.4 0.4,0 0.8,0 1.2,0.1 5,0.1 9.8,-1.9 13.3,-5.4 v 4.4 H 400 v -43.3 h -12.6 z m 0,24.9 c -2.3,2.6 -5.7,4.1 -9.2,4.1 -6.6,-0.4 -11.6,-6.1 -11.1,-12.7 0.4,-6 5.1,-10.7 11.1,-11.1 3.5,0 6.9,1.5 9.2,4.1 z"></path>
    <path id="n" class="st0" d="m 435.6,435.8 c -5.3,0 -10.3,2.2 -13.8,6.1 v -5.4 H 409.2 V 480 h 12.6 v -28.4 c 2.1,-3.1 5.6,-5 9.3,-4.9 4.4,-0.2 8.2,3.1 8.4,7.5 0,0.5 0,1 -0.1,1.5 V 480 h 12.7 v -26.9 c 0.7,-8.9 -5.8,-16.7 -14.7,-17.4 -0.5,0 -1.2,0 -1.8,0.1"></path>
    <path id="u" class="st0" d="m 271.9,465.2 c -2.1,3 -5.6,4.9 -9.3,4.9 -4.5,0.2 -8.3,-3.2 -8.5,-7.7 0,-0.5 0,-0.9 0.1,-1.4 v -24.3 h -12.8 v 26.9 c -0.7,8.9 5.8,16.7 14.7,17.4 0.6,0.1 1.3,0.1 1.9,0 5.3,0 10.4,-2.4 13.9,-6.4 v 5.4 h 12.6 v -43.3 h -12.6 z"></path>
    <path id="a1" class="st0" d="m 219.9,441.3 c -3.6,-3.4 -8.3,-5.4 -13.3,-5.4 -12.1,0 -20.4,10.1 -20.4,22.8 -0.9,11.5 7.8,21.5 19.2,22.4 0.4,0 0.8,0 1.2,0.1 5,0.1 9.8,-1.9 13.3,-5.4 v 4.4 h 12.6 v -43.3 h -12.6 z m 0,24.9 c -2.3,2.6 -5.7,4.1 -9.2,4.1 -6.6,-0.4 -11.6,-6.1 -11.1,-12.7 0.4,-6 5.1,-10.7 11.1,-11.1 3.5,0 6.9,1.5 9.2,4.1 z"></path>
    <path id="K" class="st0" d="M 187.9,480.1 162.8,446.8 187.5,415 H 171 l -21.4,29.8 V 415 H 135 v 65.1 h 14.6 v -29.3 l 21.4,29.3 z"></path>
    <path id="f" class="st0" d="m 317.8,424.6 c 2.4,-0.1 4.8,0.6 6.8,1.9 l 2,-9.7 c -3.5,-2.1 -7.6,-3 -11.6,-2.7 -8.9,-0.6 -16.6,6.1 -17.2,14.9 -0.1,0.9 -0.1,1.8 0,2.7 v 5.4 h -6.4 v 10.4 h 6.4 v 32.6 h 12.9 v -33 h 14.7 v -10.4 h -14.7 v -4 c 0,-5.3 2.5,-8.1 7.1,-8.1"></path>
  </g>
</svg>
