<?xml version="1.0" encoding="UTF-8" standalone="no"?>
<!-- Generator: Adobe Illustrator 25.0.1, SVG Export Plug-In . SVG Version: 6.00 Build 0)  -->
<svg xmlns:inkscape="http://www.inkscape.org/namespaces/inkscape" xmlns:sodipodi="http://sodipodi.sourceforge.net/DTD/sodipodi-0.dtd" xmlns="http://www.w3.org/2000/svg" xmlns:svg="http://www.w3.org/2000/svg" version="1.1" id="Layer_1" x="0px" y="0px" viewBox="0 0 322.55585 73.823657" xml:space="preserve" sodipodi:docname="lewiatan.svg" width="322.55585" height="73.823654" inkscape:version="1.1 (c4e8f9e, 2021-05-24)"><defs id="defs118"><clipPath id="clipPath1098"><path d="M 0,0 H 289.134 V 172.913 H 0 Z" id="path1096"></path></clipPath></defs>
<style type="text/css" id="style109">
	.st0{fill:#E30613;}
	.st1{fill-rule:evenodd;clip-rule:evenodd;fill:#E30613;}
</style>


<g id="g1092" transform="matrix(3.0578967,0,0,-3.0578967,-83.520714,453.00489)"><g id="g1094" clip-path="url(#clipPath1098)"><g id="g2746" transform="translate(20.183404,-17.716544)"><g id="g2719"><g id="g1100" transform="translate(50.7431,150.4345)"><path d="M 0,0 -0.433,-1.632 C -0.48,-1.81 -0.663,-1.955 -0.841,-1.955 h -5.256 c -0.179,0 -0.285,0.145 -0.237,0.323 L -3.6,8.67 c 0.047,0.178 0.23,0.323 0.409,0.323 h 5.256 c 0.178,0 0.284,-0.145 0.237,-0.323 L 1.868,7.038 C 1.821,6.86 1.638,6.715 1.46,6.715 H -1.048 L -1.572,4.74 h 2.148 c 0.179,0 0.285,-0.144 0.238,-0.323 L 0.392,2.83 C 0.345,2.652 0.162,2.508 -0.016,2.508 h -2.148 l -0.58,-2.185 h 2.507 C -0.059,0.323 0.048,0.178 0,0" style="fill:#0d80c8;fill-opacity:1;fill-rule:nonzero;stroke:none" id="path1102"></path></g><g id="g1104" transform="translate(72.4479,159.1045)"><path d="m 0,0 -2.735,-10.302 c -0.047,-0.178 -0.229,-0.323 -0.408,-0.323 h -2.426 c -0.178,0 -0.284,0.145 -0.237,0.323 L -3.072,0 c 0.048,0.178 0.23,0.323 0.409,0.323 h 2.426 C -0.059,0.323 0.047,0.178 0,0" style="fill:#0d80c8;fill-opacity:1;fill-rule:nonzero;stroke:none" id="path1106"></path></g><g id="g1108" transform="translate(80.3073,159.203)"><path d="m 0,0 0.604,-10.277 c 0.006,-0.038 0.003,-0.08 -0.008,-0.124 -0.047,-0.178 -0.231,-0.322 -0.408,-0.322 h -2.546 v 0 c -0.143,0 -0.248,0.095 -0.249,0.239 l -0.004,2.052 h -2.623 l -1.094,-2.026 c -0.067,-0.151 -0.229,-0.265 -0.388,-0.265 h -2.321 v 0 c -0.033,0 -0.065,0.005 -0.096,0.016 -0.154,0.055 -0.198,0.236 -0.098,0.406 l 6.077,10.283 c 0.072,0.139 0.226,0.242 0.377,0.242 h 2.53 V 0.223 C -0.11,0.223 -0.007,0.136 0,0 M -4.125,-6.395 H -2.6 l 0.005,2.823 z" style="fill:#0d80c8;fill-opacity:1;fill-rule:nonzero;stroke:none" id="path1110"></path></g><g id="g1112" transform="translate(90.2165,159.1045)"><path d="M 0,0 -0.433,-1.632 C -0.48,-1.81 -0.663,-1.955 -0.842,-1.955 h -1.534 l -2.215,-8.347 c -0.047,-0.178 -0.23,-0.323 -0.408,-0.323 h -2.426 c -0.179,0 -0.285,0.145 -0.237,0.323 l 2.215,8.347 h -1.534 c -0.178,0 -0.284,0.145 -0.237,0.323 L -6.785,0 c 0.048,0.178 0.231,0.323 0.408,0.323 h 6.14 C -0.059,0.323 0.047,0.178 0,0" style="fill:#0d80c8;fill-opacity:1;fill-rule:nonzero;stroke:none" id="path1114"></path></g><g id="g1116" transform="translate(96.551,159.203)"><path d="m 0,0 0.604,-10.277 c 0.03,-0.206 -0.186,-0.446 -0.417,-0.446 h -2.546 v 0 c -0.142,0 -0.248,0.095 -0.248,0.239 l -0.005,2.052 h -2.623 l -1.094,-2.026 c -0.067,-0.151 -0.229,-0.265 -0.388,-0.265 h -2.321 v 0 c -0.032,0 -0.065,0.005 -0.095,0.016 -0.154,0.055 -0.199,0.236 -0.099,0.406 l 6.078,10.283 c 0.072,0.139 0.226,0.242 0.377,0.242 h 2.53 V 0.223 C -0.111,0.223 -0.007,0.136 0,0 m -4.126,-6.395 h 1.525 l 0.006,2.823 z" style="fill:#0d80c8;fill-opacity:1;fill-rule:nonzero;stroke:none" id="path1118"></path></g><g id="g1120" transform="translate(109.6206,159.1045)"><path d="m 0,0 -2.735,-10.302 c -0.047,-0.178 -0.229,-0.323 -0.408,-0.323 H -5 v 10e-4 c -0.11,0 -0.202,0.056 -0.235,0.158 l -1.852,5.657 -1.457,-5.493 c -0.048,-0.178 -0.231,-0.323 -0.409,-0.323 h -2.036 c -0.178,0 -0.285,0.145 -0.237,0.323 L -8.492,0 c 0.047,0.178 0.23,0.323 0.408,0.323 h 2.126 V 0.322 c 0.111,0 0.203,-0.056 0.236,-0.158 L -4.031,-5.028 -2.697,0 c 0.047,0.178 0.231,0.323 0.408,0.323 h 2.052 C -0.059,0.323 0.047,0.178 0,0" style="fill:#0d80c8;fill-opacity:1;fill-rule:nonzero;stroke:none" id="path1122"></path></g><g id="g1124" transform="translate(43.522,150.4345)"><path d="M 0,0 -0.433,-1.632 C -0.48,-1.81 -0.664,-1.955 -0.842,-1.955 h -5.046 c -0.178,0 -0.284,0.145 -0.237,0.323 L -3.391,8.67 c 0.048,0.178 0.23,0.323 0.409,0.323 h 2.426 c 0.178,0 0.284,-0.145 0.237,-0.323 L -2.535,0.323 h 2.298 C -0.059,0.323 0.047,0.178 0,0" style="fill:#0d80c8;fill-opacity:1;fill-rule:nonzero;stroke:none" id="path1126"></path></g><g id="g1128" transform="translate(52.9978,153.5193)"><path d="m 0,0 c 0.483,1.891 0.992,3.73 1.493,5.621 0.04,0.152 0.255,0.287 0.393,0.287 L 4.335,5.907 C 4.486,5.908 4.599,5.761 4.56,5.611 L 3.181,0.404 c -0.37,-1.416 -0.108,-2.4 1.052,-2.958 0.726,2.735 1.449,5.472 2.173,8.207 0.038,0.141 0.182,0.255 0.323,0.255 0.213,0 2.234,-0.001 2.517,-0.001 0.16,0.001 0.26,-0.156 0.229,-0.288 L 8.213,0.849 C 8.012,0.091 7.918,-0.565 8,-1.137 8.089,-1.771 8.403,-2.251 8.845,-2.65 c 1.275,1.57 1.804,3.804 2.068,5.498 0.173,1.115 0.235,2.278 0.176,3.307 -0.016,0.286 0.04,0.416 0.303,0.532 L 14.276,7.96 C 14.613,8.125 14.847,7.879 14.857,7.729 14.909,6.972 14.869,6.186 14.785,5.4 14.655,4.162 14.334,2.673 13.818,1.399 13.334,0.205 12.68,-0.962 11.854,-2.018 10.818,-3.341 9.704,-4.485 8.195,-5.198 8.107,-5.236 8.026,-5.27 7.926,-5.176 7.134,-4.503 6.563,-3.995 5.927,-3.426 L 3.386,-5.199 C 3.333,-5.237 3.229,-5.268 2.985,-5.183 2.152,-4.866 1.542,-4.52 0.874,-3.981 0.364,-3.57 -0.037,-3.065 -0.194,-2.451 -0.389,-1.695 -0.208,-0.812 0,0" style="fill:#0d80c8;fill-opacity:1;fill-rule:nonzero;stroke:none" id="path1130"></path></g><g id="g1132" transform="translate(29.2643,146.8362)"><path d="m 0,0 c -0.249,-0.95 -1.222,-1.685 -2.201,-1.685 l -10.849,0.001 c -0.748,0 -1.374,0.414 -1.712,1.001 -1.45,0.478 -2.643,1.233 -3.428,2.26 -2.605,3.405 0.253,8.493 6.383,11.363 l 0.034,0.016 0.246,0.931 c 0.253,0.965 1.184,1.702 2.186,1.702 h 6.41 c 0.702,0 1.31,-0.375 1.662,-0.92 C 1.017,14.316 2.914,13.408 4.013,11.971 6.147,9.182 4.615,5.264 0.622,2.36 Z" style="fill:#0d80c8;fill-opacity:1;fill-rule:nonzero;stroke:none" id="path1134"></path></g><g id="g1136" transform="translate(29.2643,146.8362)"><path d="m 0,0 c -0.249,-0.95 -1.222,-1.685 -2.201,-1.685 l -10.849,0.001 c -1.305,0 -2.243,1.261 -1.916,2.508 l 3.438,13.063 c 0.254,0.965 1.185,1.702 2.187,1.702 h 6.41 c 1.288,0 2.257,-1.26 1.916,-2.517 L -3.371,4.123 h 1.84 c 1.315,0.02 2.29,-1.236 1.96,-2.491 z" style="fill:#0d80c8;fill-opacity:1;fill-rule:nonzero;stroke:none" id="path1138"></path></g><g id="g1140" transform="translate(28.2249,147.1098)"><path d="m 0,0 c -0.127,-0.484 -0.667,-0.881 -1.161,-0.881 -0.806,0 -10.849,0.004 -10.849,0.001 -0.611,0 -1.033,0.568 -0.877,1.161 l 3.438,13.059 c 0.131,0.5 0.627,0.898 1.147,0.898 h 6.41 c 0.608,0 1.038,-0.568 0.877,-1.162 l -2.71,-10.3 h 3.25 C 0.14,2.785 0.586,2.23 0.429,1.632 Z" style="fill:#ffffff;fill-opacity:1;fill-rule:nonzero;stroke:none" id="path1142"></path></g><g id="g1144" transform="translate(27.7225,147.2399)"><path d="M 0,0 0.429,1.634 C 0.5,1.905 0.323,2.132 0.034,2.128 l -3.93,-0.001 2.881,10.951 c 0.077,0.279 -0.094,0.51 -0.374,0.51 H -7.8 c -0.28,0 -0.57,-0.23 -0.644,-0.51 L -11.882,0.019 c -0.074,-0.28 0.094,-0.509 0.374,-0.509 3.616,-0.002 7.233,0 10.849,-0.001 0.29,0 0.55,0.233 0.659,0.491" style="fill:#fff200;fill-opacity:1;fill-rule:nonzero;stroke:none" id="path1146"></path></g></g></g></g></g></svg>
