<?xml version="1.0" encoding="UTF-8" standalone="no"?>
<svg xmlns:inkscape="http://www.inkscape.org/namespaces/inkscape" xmlns:sodipodi="http://sodipodi.sourceforge.net/DTD/sodipodi-0.dtd" xmlns="http://www.w3.org/2000/svg" xmlns:svg="http://www.w3.org/2000/svg" viewBox="0 0 90.4 20.1" version="1.1" id="svg842" sodipodi:docname="martes-sport.svg" width="90.400002" height="20.1" inkscape:version="1.1 (c4e8f9e, 2021-05-24)">
  <defs id="defs846">
    <clipPath id="clipPath199">
      <path d="M 112.015,688.512 H 398.221 V 801.104 H 112.015 Z" id="path197"></path>
    </clipPath>
    <clipPath id="clipPath199-6">
      <path d="M 112.015,688.512 H 398.221 V 801.104 H 112.015 Z" id="path197-1"></path>
    </clipPath>
  </defs>
  <g id="Martes-sport-–-logo" style="fill:#ffffff;fill-rule:nonzero;stroke:none;stroke-width:1" transform="matrix(0.25673338,0,0,0.25673338,1.9404262,2.3479988)">
    <path d="M 44.599605,23.613312 C 48.870402,20.364501 55.695878,19.02599 60.798733,19.02599 68.963301,19.02599 79,20.793344 79,31.105071 78.996,32.102088 78.882608,33.095659 78.661976,34.067987 76.620834,44.210777 75.275241,49.889699 73.11059,60 H 62.436847 l 5.31737,-25.184786 c 0.222542,-0.944304 0.348862,-1.908705 0.377026,-2.878447 0,-3.450238 -3.107216,-4.671791 -6.734469,-4.671791 h -1.456101 c -8.496091,0 -11.78532,3.502219 -12.773389,8.115531 L 41.908418,60 H 31.150169 l 5.453879,-25.184786 c 0.222543,-0.944304 0.348862,-1.908705 0.377027,-2.878447 0,-3.450238 -3.107217,-4.671791 -6.734469,-4.671791 h -1.456102 c -8.496091,0 -11.78532,3.502219 -12.773389,8.115531 L 10.751749,60 H 0 L 5.4343783,34.594295 C 7.7745413,23.632805 18.636797,19.045483 28.966017,19 c 5.616391,0 12.116843,0.838193 15.601086,4.587322 z" id="Shape" style="fill:#ffffff"></path>
    <path d="M 97.984495,27.248136 99.753625,19 h 20.961895 c 8.19936,0 18.27883,1.80184 18.27883,11.70871 0.0236,0.597999 -0.0268,1.196617 -0.15015,1.782326 L 132.96886,60 H 99.740568 C 89.589291,60 85,55.056322 85,46.951293 85,35.717436 94.478877,31.443757 102.37141,31.443757 h 25.72745 c 0,-2.771062 -2.65695,-4.195621 -6.7958,-4.195621 z m 25.890655,24.510233 2.56556,-12.046962 H 104.5714 c -5.796998,0 -9.028434,1.873394 -9.028434,6.504839 0,2.894654 1.305631,5.542123 6.156044,5.542123 0.69199,0 2.69613,0.05204 3.74716,0.05204 z" id="path179" style="fill:#ffffff"></path>
    <path d="M 152.75594,60 H 142 l 5.95464,-28.180996 C 150.19654,21.549492 160.49892,19 170.35421,19 H 181 l -1.87257,8.168782 -8.8121,0.07804 c -8.42332,0 -11.34557,3.368973 -12.31101,8.090737 z" id="path181" style="fill:#ffffff"></path>
    <path d="m 194.07392,45.485764 c -0.1878,0.764195 -0.28821,1.547325 -0.2993,2.334275 0,2.855901 1.57456,3.912193 5.85578,3.912193 h 11.77011 c 0,0 -1.49648,7.172354 -1.57456,7.661378 L 209.67631,60 h -12.3622 C 190.56696,60 183,57.893936 183,48.954575 c 0.005,-1.389894 0.1556,-2.775423 0.44894,-4.133884 L 193.02639,0 h 10.72257 l -4.04699,18.85677 H 219 l -1.75673,8.267768 -19.2655,-0.07824 z" id="path183" style="fill:#ffffff"></path>
    <path d="m 274.55249,39.708122 h -42.6779 c -0.26629,1.180204 -0.39737,2.386822 -0.3907,3.596605 0,7.492386 7.72942,8.454949 16.05793,8.454949 h 24.42551 L 270.20265,60 H 242.76221 C 226.40474,60 221,52.800285 221,43.955108 221,31.071066 230.1555,19 257.31593,19 H 279 l -1.79073,8.246827 h -19.68496 c -6.95453,0 -14.46907,0.930045 -19.63288,4.194956 h 38.41922 z" id="path185" style="fill:#ffffff"></path>
    <path d="M 336.98697,43.243535 C 336.98697,53.553705 328.42575,60 310.92541,60 H 279 l 1.79173,-8.248136 h 30.48551 c 12.60728,0 15.38935,-4.04601 15.38935,-7.493574 0,-3.297954 -2.32599,-4.553388 -7.58391,-4.553388 h -22.17839 c -4.22197,0 -10.58099,-1.821355 -10.58099,-9.236871 C 286.3233,23.267174 292.32397,19 300.95686,19 h 32.97439 l -1.73309,8.241631 h -31.16311 c -1.80477,0 -4.11773,0.227669 -4.11773,2.393781 0,1.502617 1.11413,1.80184 3.14042,1.80184 h 21.17502 c 8.47,0 15.76724,2.283199 15.76724,11.806283 z" id="path187" style="fill:#ffffff"></path>
    <path d="m 231.93078,2.858388 h -1.93208 c 0.0842,-0.1831489 0.0736,-0.4025043 -0.0278,-0.5745238 -0.10144,-0.1720196 -0.27809,-0.2702242 -0.46266,-0.2572122 -0.35111,-0.046187 -0.67572,0.2137983 -0.74771,0.5988499 -0.25123,1.3307775 3.15831,0.9381982 2.62595,3.9923326 -0.30507,1.7167031 -1.51336,2.4619385 -3.10448,2.375438 -1.59112,-0.086501 -2.54221,-1.1910459 -2.2192,-2.967634 h 1.96199 c -0.17347,0.6653888 0.17945,0.8982749 0.55629,0.9115826 0.39272,0.06793 0.76121,-0.229103 0.82547,-0.6653887 0.20936,-1.2110076 -3.08055,-1.0380065 -2.57809,-3.9191399 0.27515,-1.62354864 1.45354,-2.41536129 2.99082,-2.34882241 1.53729,0.06653888 2.4465,1.14446871 2.11153,2.85451791 z" id="path189" style="fill:#ffffff"></path>
    <path d="m 251,9 1.84341,-9 h 2.67952 c 1.69199,0 2.83095,1.2004573 2.37668,3.3818598 l -0.0856,0.363567 c -0.45427,2.222561 -1.54057,3.3338415 -3.29181,3.3338415 h -0.9151 L 253.21209,9 Z m 3.58148,-6.8597561 -0.57278,2.7439024 h 0.4016 c 0.42794,0 1.04021,-0.1234756 1.26405,-1.207317 l 0.0724,-0.3292683 C 255.964,2.2637195 255.45048,2.1196646 254.97646,2.1196646 Z" id="path191" style="fill:#ffffff"></path>
    <path d="m 278.06332,6.0022108 0.59882,-2.9977893 C 279.01544,1.1606485 280.03942,0 281.65622,0 c 1.61681,0 2.6348,1.1341194 2.26952,3.0044215 l -0.56888,2.9977893 C 283.00955,7.8393515 281.96761,9 280.36278,9 c -1.60483,0 -2.6348,-1.1341194 -2.29946,-2.9977892 z m 2.5809,-3.0707443 -0.59881,3.1436993 c -0.14372,0.742815 0.19761,0.8290346 0.47905,0.8290346 0.28144,0 0.67666,-0.08622 0.82038,-0.8290346 l 0.59882,-3.1436993 c 0.14371,-0.7494473 -0.19163,-0.8356669 -0.50301,-0.8356669 -0.31139,0 -0.63475,0.08622 -0.77846,0.8356669 z" id="path193" style="fill:#ffffff"></path>
    <path d="m 304,9 1.84403,-9 h 2.63433 c 1.69914,0 2.87801,1.2004573 2.42358,3.3818598 l -0.0593,0.2400914 c -0.25685,1.2964939 -0.75078,2.3803354 -1.66621,2.9085366 L 309.67698,9 h -2.33797 l -0.2305,-2.0579268 h -0.47418 L 306.21284,9 Z m 3.58269,-6.8597561 -0.54663,2.6410061 h 0.40174 c 0.42808,0 1.04056,-0.1303354 1.25789,-1.2141768 l 0.0395,-0.198933 C 308.95252,2.2842988 308.452,2.1402439 307.97782,2.1402439 Z" id="path195" style="fill:#ffffff"></path>
    <polygon id="polygon197" points="332.09401,9 333.32197,2.1814024 332,2.1814024 332.4054,0 337,0 336.61222,2.1814024 335.29025,2.1814024 334.0329,9 " style="fill:#ffffff"></polygon>
  </g>
</svg>
