<?xml version="1.0" encoding="UTF-8" standalone="no"?>
<svg xmlns:inkscape="http://www.inkscape.org/namespaces/inkscape" xmlns:sodipodi="http://sodipodi.sourceforge.net/DTD/sodipodi-0.dtd" xmlns="http://www.w3.org/2000/svg" xmlns:svg="http://www.w3.org/2000/svg" viewBox="0 0 90.4 25.1" version="1.1" id="svg842" sodipodi:docname="natura.svg" width="90.400002" height="25.1" inkscape:version="1.1 (c4e8f9e, 2021-05-24)">
  <defs id="defs846">
    <clipPath id="clipPath199">
      <path d="M 112.015,688.512 H 398.221 V 801.104 H 112.015 Z" id="path197"></path>
    </clipPath>
    <clipPath id="clipPath199-6">
      <path d="M 112.015,688.512 H 398.221 V 801.104 H 112.015 Z" id="path197-1"></path>
    </clipPath>
  </defs>
  <g style="fill:#ffffff" id="g186" transform="matrix(0.80940583,0,0,0.80940583,3.0081031,2.8371302)">
    <path d="M 16.6959,22.7851 V 10.0745 c 0,-3.98854 -3.6568,-5.44413 -8.13258,-5.44413 -2.75699,0 -5.30633,0.45846 -6.59831,1.06591 C 0.822994,6.23496 0.5,6.72779 0.5,7.97708 V 22.7851 c 0,0.5043 0.219175,0.745 0.7152,0.745 h 3.79518 c 0.49603,0 0.74981,-0.2522 0.74981,-0.745 V 9.58166 c 0,-1.10028 0.323,-2.17765 2.65317,-2.17765 2.29554,0 3.01074,1.38682 3.01074,2.92259 v 12.4585 c 0,0.5043 0.2192,0.745 0.7152,0.745 h 3.8298 c 0.5191,0.0114 0.7268,-0.2407 0.7268,-0.745 z m 19.3565,-2.8424 v -9.7192 c 0,-3.80516 -2.9069,-5.59313 -6.5637,-5.59313 -5.8369,0 -8.0979,2.73926 -8.0979,4.48138 0,1.31805 1.0382,2.06305 2.2956,2.06305 1.142,0 1.9379,-0.4585 2.3301,-1.63898 0.3576,-1.03152 1.0728,-2.24642 2.757,-2.24642 1.292,0 2.2264,0.89398 2.2264,2.41834 v 2.34956 c -4.4412,0.8138 -10.3935,1.9599 -10.3935,6.831 0,3.8051 4.0143,5.0888 8.2017,5.0888 2.3994,0 4.9488,-0.5731 5.837,-1.1347 1.0843,-0.6647 1.4073,-1.3753 1.4073,-2.8997 z M 30.9999,19.553 c 0,1.3181 -1.142,1.7421 -2.3302,1.7421 -1.938,0 -3.0454,-1.2149 -3.0454,-2.808 0,-2.808 2.6186,-3.6332 5.3756,-4.1605 z m 19.7372,2.6247 c 0,-0.5731 -0.3576,-0.9284 -1.0036,-0.9284 -0.2191,0 -0.4268,0.0344 -0.7152,0.0344 -1.0728,0 -2.0763,-0.4585 -2.0763,-2.5674 V 7.94269 h 2.7569 c 0.4961,0 0.7498,-0.25215 0.7498,-0.74498 V 5.84527 c 0,-0.49283 -0.2537,-0.74498 -0.7498,-0.74498 H 46.942 V 0.744986 C 46.942,0.286533 46.6882,0 46.2267,0 46.0422,0 45.8691,0.0687679 45.6846,0.137536 L 42.2124,1.70774 c -0.3922,0.18338 -0.496,0.3553 -0.496,0.77937 v 2.60172 h -1.765 c -0.5075,0 -0.7498,0.25214 -0.7498,0.74498 v 1.35244 c 0,0.5043 0.2538,0.74498 0.7498,0.74498 h 1.7534 V 18.5788 c 0,4.6648 3.1954,5.4097 5.3064,5.4097 2.111,0.0115 3.7259,-0.7335 3.7259,-1.8108 z M 69.8399,20.149 V 5.84527 c 0,-0.49283 -0.2191,-0.74498 -0.7152,-0.74498 h -3.8298 c -0.496,0 -0.7152,0.25215 -0.7152,0.74498 V 18.8768 c 0,1.1805 -0.5421,1.9599 -2.6877,1.9599 -1.615,0 -2.6532,-0.8596 -2.6532,-2.6017 V 5.84527 c 0,-0.49283 -0.2538,-0.74498 -0.7498,-0.74498 h -3.7952 c -0.5076,0 -0.7152,0.25215 -0.7152,0.74498 V 18.3381 c 0,5.2034 5.2717,5.6619 7.9249,5.6619 3.0108,0 5.5947,-0.6074 6.5983,-1.2149 0.9113,-0.5272 1.3381,-1.318 1.3381,-2.6361 z M 87.7084,7.65616 c 0,-1.70774 -1.5457,-3.02579 -5.3409,-3.02579 -2.584,0 -4.9141,0.53868 -6.0907,1.06591 -1.1421,0.53868 -1.4997,1.03151 -1.4997,2.2808 V 22.7851 c 0,0.5043 0.2192,0.745 0.7152,0.745 h 3.7952 c 0.5076,0 0.7498,-0.2522 0.7498,-0.745 V 8.97421 c 0,-0.96275 0.7152,-1.53581 1.8226,-1.53581 2.0072,0 1.3958,2.45272 3.7606,2.45272 1.3727,0.01146 2.0879,-0.88252 2.0879,-2.23496 z M 103.754,19.9427 v -9.7192 c 0,-3.80516 -2.907,-5.59313 -6.5634,-5.59313 -5.8369,0 -8.0979,2.73926 -8.0979,4.48138 0,1.31805 1.0382,2.06305 2.2956,2.06305 1.142,0 1.9379,-0.4585 2.3301,-1.63898 0.3576,-1.03152 1.0728,-2.24642 2.757,-2.24642 1.292,0 2.2264,0.89398 2.2264,2.41834 v 2.34956 c -4.4412,0.8138 -10.3935,1.9599 -10.3935,6.831 0,3.8051 4.0143,5.0888 8.2017,5.0888 2.3994,0 4.949,-0.5731 5.837,-1.1347 1.096,-0.6647 1.407,-1.3753 1.407,-2.8997 z M 98.7018,19.553 c 0,1.3181 -1.142,1.7421 -2.3302,1.7421 -1.938,0 -3.0454,-1.2149 -3.0454,-2.808 0,-2.808 2.6186,-3.6332 5.3756,-4.1605 z" fill="#7dba00" id="path177" style="fill:#ffffff"></path>
  </g>
</svg>
