<?xml version="1.0" encoding="UTF-8" standalone="no"?>
<svg
   xmlns:dc="http://purl.org/dc/elements/1.1/"
   xmlns:cc="http://creativecommons.org/ns#"
   xmlns:rdf="http://www.w3.org/1999/02/22-rdf-syntax-ns#"
   xmlns:svg="http://www.w3.org/2000/svg"
   xmlns="http://www.w3.org/2000/svg"
   xmlns:sodipodi="http://sodipodi.sourceforge.net/DTD/sodipodi-0.dtd"
   xmlns:inkscape="http://www.inkscape.org/namespaces/inkscape"
   sodipodi:docname="netto-logo2.svg"
   inkscape:version="1.0beta2 (2b71d25, 2019-12-03)"
   id="svg121"
   version="1.1"
   viewBox="0 0 79.374988 23.812504"
   height="90"
   width="300">
  <defs
     id="defs115" />
  <sodipodi:namedview
     inkscape:window-maximized="0"
     inkscape:window-y="28"
     inkscape:window-x="0"
     inkscape:window-height="872"
     inkscape:window-width="1440"
     showguides="false"
     units="px"
     showgrid="false"
     inkscape:document-rotation="0"
     inkscape:current-layer="layer1"
     inkscape:document-units="mm"
     inkscape:cy="176.03519"
     inkscape:cx="267.20353"
     inkscape:zoom="1.1907135"
     inkscape:pageshadow="2"
     inkscape:pageopacity="0.0"
     borderopacity="1.0"
     bordercolor="#666666"
     pagecolor="#ffffff"
     id="base" />
  <metadata
     id="metadata118">
    <rdf:RDF>
      <cc:Work
         rdf:about="">
        <dc:format>image/svg+xml</dc:format>
        <dc:type
           rdf:resource="http://purl.org/dc/dcmitype/StillImage" />
        <dc:title></dc:title>
      </cc:Work>
    </rdf:RDF>
  </metadata>
  <g
     id="layer1"
     inkscape:groupmode="layer"
     inkscape:label="Warstwa 1">
    <g
       transform="matrix(0.08585721,0,0,0.08585721,0.72120524,2.7796286)"
       id="g156">
      <path
         inkscape:connector-curvature="0"
         class="st0"
         d="m 304.4,118.2 c 0,-42.1 -24.6,-65.4 -63.7,-65.4 -43.5,0 -69.2,25.3 -69.2,71.8 0,45.4 26.5,69.8 69.2,69.8 23,0 42,-6.6 63.7,-22 l -14.2,-28.7 c -17.3,8.1 -29.1,11.7 -47.4,11.7 -13.5,0 -20.5,-5.3 -23,-18.2 h 83.4 c 0.7,-6.2 1.1,-12.6 1.2,-19 z M 219.7,110 c 2.1,-15.2 9.6,-22.4 21,-22.4 12.7,0 19.7,7.9 20.2,22.4 z"
         id="path127" />
      <path
         inkscape:connector-curvature="0"
         class="st0"
         d="m 480.5,153.9 c -12.4,0 -15.5,-5.9 -15.5,-16 V 97.4 h 31.6 V 55.7 H 465 V 21.3 H 414.9 V 55.7 H 374 V 21.3 h -50.2 v 34.4 h -18.2 v 41.8 h 18.2 V 140 c 0,39 13.8,54.1 46.2,54.1 15,0 32.1,-4.1 41.5,-10.1 l -5,-30.5 c -6.4,0.3 -11.2,0.3 -17.1,0.3 -12.4,0 -15.5,-5.9 -15.5,-16 V 97.4 h 41 V 140 c 0,39 13.8,54.1 46.2,54.1 15,0 32.1,-4.1 41.5,-10.1 l -5,-30.5 c -6.3,0.4 -11.2,0.4 -17.1,0.4 z"
         id="path129" />
      <path
         inkscape:connector-curvature="0"
         class="st0"
         d="m 571.4,52.8 c -44.6,0 -70.8,25.7 -70.8,71.5 0,44.6 26.4,70.1 71,70.1 44.6,0 70.8,-25.6 70.8,-70.2 -0.1,-45.8 -26.4,-71.4 -71,-71.4 z m 0.1,101.9 c -13.8,0 -21.8,-7.6 -21.8,-30.4 0,-23.8 8.3,-31.7 21.8,-31.7 13.5,0 21.8,7.9 21.8,31.7 0,22.6 -8.3,30.2 -21.8,30.4 z"
         id="path131" />
      <polygon
         class="st0"
         points="47.1,21.3 0,21.3 0,191.3 52.1,191.3 52.1,120 51.9,105.2 116,191.3 163.1,191.3 163.1,21.3 111,21.3 111,93.5 111.3,107.4 "
         id="polygon133" />
      <path
         inkscape:connector-curvature="0"
         class="st0"
         d="M 907.7,106.3 C 907.7,165 860.1,212.6 801.4,212.6 742.7,212.6 695.1,165 695.1,106.3 695.1,47.6 742.7,0 801.4,0 c 0,0 0,0 0,0 58.7,0 106.3,47.6 106.3,106.3"
         id="path135" />
      <path
         inkscape:connector-curvature="0"
         class="st1"
         d="m 801.4,207.3 c -54.9,0 -99.5,-45.3 -99.5,-101 0,-55.7 44.7,-101 99.5,-101 54.8,0 99.5,45.3 99.5,101 0,55.7 -44.6,101 -99.5,101 m 0,-200.8 c -54.3,0 -98.4,44.8 -98.4,99.8 0,55 44.1,99.8 98.4,99.8 54.3,0 98.4,-44.8 98.4,-99.8 0,-55 -44.2,-99.8 -98.4,-99.8 z"
         id="path137" />
      <path
         inkscape:connector-curvature="0"
         class="st1"
         d="M 865,151.6 781.8,31.2 c -1.3,-1.8 -2.1,-1.2 -2.2,-0.4 -0.1,4.2 -0.1,8.4 -0.2,12.6 0,1 -0.2,1 -0.5,0.7 -2.9,-2.2 -4.9,-4.9 -7.5,-7.3 -0.5,-0.4 -1.2,-0.3 -1.6,0.1 -0.2,0.2 -0.3,0.5 -0.3,0.8 l 1.7,9.3 c 0.2,1.7 1.3,4 0,5.3 -2.7,3.5 -5.3,-1.3 -8.2,-1.3 -2.2,1.1 1.6,2.9 0.4,4.4 -2.4,-2 -5.8,-4.4 -9.1,-3.3 0.2,2.2 3.7,3.1 3.5,5.5 -1.9,-1.8 -4.5,-2.8 -7.1,-2.9 -0.9,0 -2.6,-0.5 -2.7,0.9 1.1,1.3 3.1,1.8 4.2,3.3 0.2,0.7 0.4,1.5 -0.4,1.8 -6,1.8 -12,3.8 -17.9,6.2 -1.2,1 -1.7,2.5 -1.5,4 2.5,8.8 6,16.4 5.3,27 -0.2,0.7 0.7,1.1 1.3,0.7 l 5.7,-6.6 c 1.6,0.4 0.5,2.9 0.9,4 0,1.1 -0.2,3.3 1.3,2.7 1.5,-1.6 3.1,-4.2 4.7,-5.1 -0.2,2.4 0.4,5.1 -0.2,8 l -16.8,0.2 c -0.2,9.5 0.2,19.7 0,31.2 0,4.9 1.5,7.7 5.5,7.7 h 30.3 c 5,0 6.4,-2.2 6.4,-6 V 102 l -17.3,-0.4 c 0.5,-4.4 -2,-7.8 2.5,-11.5 2.9,-2.4 0.7,3.3 2.4,3.3 3.8,-2.4 5.5,-8.8 10.8,-8.8 2.4,0.2 4.3,2.1 4.4,4.5 l 0.4,53 c -0.6,7.6 -2.7,7.7 -8,13.9 -0.6,1.7 -0.6,3.6 0,5.3 0.8,1.7 2.4,3 4.2,3.5 l 81.2,0.2 c 2.6,-0.4 4.9,-1.7 6.6,-3.6 1.9,-2.8 2.4,-6.5 1,-9.8 M 753.4,83.8 h 4.2 l 0.2,18.1 -4.6,-0.2 z m -16.8,53.1 c -1.2,-3.1 -0.9,-7.8 -0.1,-10.4 h 0.6 l 4.2,4.9 z M 770.2,119 c 1.4,-2 3,-3.9 4.9,-5.5 v 9.8 l -0.5,0.4 z m 4,7.1 -4.4,4.9 -6.4,-6.9 4.4,-4.7 c 2,1.9 4.6,4.5 6.4,6.7 z m -4.4,-9.5 -5.3,-5.8 c 2.9,-0.2 5.8,0 8.9,0 l 0.7,0.7 c -1.2,1.8 -2.7,3.5 -4.3,5.1 z m -2.4,0 c -1.8,2.5 -3.8,4.9 -6,7.1 -1.5,-1.4 -3.1,-3.1 -4.4,-4.6 l 0.2,-0.7 5.8,-6.4 z m -6.5,9.5 c -1.2,1.7 -2.6,3.3 -4.2,4.7 l -6.2,-6.9 4.2,-4.6 c 2.2,2.1 4.3,4.4 6.2,6.8 z m -4.2,-9.6 c -2,-1.5 -3.5,-3.7 -5.1,-5.3 2.9,-0.4 5.8,-0.5 8.8,-0.4 l 0.5,0.9 c -0.9,1.6 -2.9,3.3 -4.2,4.8 z m -2.2,0.3 -6,6.8 -0.5,-0.2 -4.2,-4.6 6.2,-6.9 z m -6.6,9.1 c -1.3,1.9 -2.8,3.6 -4.6,5.1 -2,-2.2 -4.2,-4.2 -6.2,-6.8 0.9,-2 2.9,-3.3 4.4,-5.1 z m -4.5,-9.6 -4.7,-5.3 c 2.8,-0.3 5.7,-0.4 8.6,-0.2 l 0.5,0.7 z m -2,0.3 c -1.6,2 -3.3,3.9 -5.1,5.7 l -0.2,-9.3 0.7,-1.1 c 1.7,0.9 3.1,3.1 4.6,4.7 z m -4.1,21.9 4,-4.7 c 2.2,1.6 3.7,3.8 5.3,5.8 -3.1,-0.2 -7.3,1 -9.3,-1.1 z m 6.4,-4.9 c 1.8,-2.6 4.2,-4.7 6.2,-7.1 1.6,1.1 2.9,3.1 4.6,4.6 l -0.2,0.6 -6.2,6.7 z m 7.5,6 c -0.4,0 -0.7,-0.5 -0.9,-0.9 l 4.4,-5.1 c 2,1.8 3.7,3.6 5.5,5.7 z m 5.8,-6.2 c 1.8,-2.4 4,-4.7 6,-6.9 l 4.6,4.9 -6.2,6.6 c -1.8,-1.3 -2.9,-3.3 -4.4,-4.6 z m 7.2,5.8 -0.5,-0.7 c 1.5,-1.6 2.5,-3.6 4.4,-4.7 l 4.8,5.3 c -2,1.2 -6.2,0.3 -8.7,0.1 z m 10,-1.2 -4.2,-4.4 5.1,-5.7 c 0.3,3.7 0.8,8.5 -0.9,10.1 z m 0.5,-34.5 c 0.5,1.6 0.2,3.7 0.4,5.5 h -38.8 c -0.2,-2 -0.5,-3.7 0,-5.5 z"
         id="path139" />
    </g>
  </g>
  <style
     type="text/css"
     id="style123">
	.st0{fill:#242424;}
	.st1{fill:#FAD85B;}
</style>
</svg>
