<?xml version="1.0" encoding="UTF-8" standalone="no"?>
<svg xmlns:inkscape="http://www.inkscape.org/namespaces/inkscape" xmlns:sodipodi="http://sodipodi.sourceforge.net/DTD/sodipodi-0.dtd" xmlns="http://www.w3.org/2000/svg" xmlns:svg="http://www.w3.org/2000/svg" viewBox="0 0 90.4 35.099998" version="1.1" id="svg842" sodipodi:docname="odido.svg" width="90.400002" height="35.099998" inkscape:version="1.1 (c4e8f9e, 2021-05-24)">
  <defs id="defs846">
    <clipPath id="clipPath199">
      <path d="M 112.015,688.512 H 398.221 V 801.104 H 112.015 Z" id="path197"></path>
    </clipPath>
    <clipPath id="clipPath199-6">
      <path d="M 112.015,688.512 H 398.221 V 801.104 H 112.015 Z" id="path197-1"></path>
    </clipPath>
  </defs>
  <g id="g195" clip-path="url(#clipPath199-6)" transform="matrix(0.29001258,0,0,-0.29001258,-28.787439,233.55362)">
    <g id="g201" transform="translate(248.9884,771.2149)">
      <path d="m 0,0 c -3.252,0 -5.756,-0.902 -7.501,-2.701 -1.749,-1.801 -2.621,-4.532 -2.621,-8.191 0,-3.603 0.813,-6.319 2.441,-8.147 1.625,-1.831 3.975,-2.745 7.047,-2.745 1.085,0 2.064,0.159 2.94,0.478 0.87,0.318 1.548,0.684 2.031,1.091 V -1.047 C 3.131,-0.348 1.687,0 0,0 m -25.664,-10.892 c 0,3.833 0.601,7.159 1.807,9.978 1.203,2.816 2.875,5.154 5.016,7.012 2.138,1.86 4.638,3.24 7.501,4.139 2.86,0.903 5.947,1.351 9.261,1.351 1.206,0 2.38,-0.101 3.524,-0.304 1.144,-0.203 2.078,-0.451 2.801,-0.74 v 14.115 c 0.601,0.174 1.566,0.362 2.892,0.566 1.324,0.203 2.681,0.306 4.066,0.306 1.324,0 2.516,-0.088 3.571,-0.262 1.053,-0.174 1.94,-0.522 2.663,-1.047 0.725,-0.522 1.268,-1.232 1.63,-2.132 0.363,-0.902 0.543,-2.078 0.543,-3.529 v -41.306 c 0,-2.73 -1.327,-4.909 -3.978,-6.534 -1.751,-1.103 -4.007,-2.079 -6.776,-2.919 -2.771,-0.84 -5.964,-1.262 -9.579,-1.262 -3.919,0 -7.428,0.522 -10.53,1.569 -3.101,1.043 -5.723,2.553 -7.86,4.529 -2.141,1.975 -3.769,4.343 -4.88,7.103 -1.118,2.756 -1.672,5.882 -1.672,9.367" style="fill:#e8793d;fill-opacity:1;fill-rule:nonzero;stroke:none" id="path203"></path>
    </g>
    <g id="g205" transform="translate(292.6967,739.2345)">
      <path d="m 0,0 c -0.663,-0.115 -1.642,-0.274 -2.934,-0.481 -1.3,-0.197 -2.609,-0.303 -3.93,-0.303 -1.327,0 -2.521,0.091 -3.571,0.262 -1.055,0.174 -1.943,0.522 -2.665,1.044 -0.726,0.525 -1.283,1.235 -1.675,2.135 -0.392,0.902 -0.587,2.078 -0.587,3.529 v 35.465 c 0.664,0.115 1.642,0.277 2.937,0.481 1.297,0.203 2.606,0.303 3.93,0.303 1.324,0 2.518,-0.085 3.571,-0.259 1.056,-0.177 1.943,-0.525 2.665,-1.047 0.723,-0.522 1.283,-1.235 1.675,-2.135 C -0.192,38.092 0,36.916 0,35.465 Z m -16.081,54.026 c 0,2.206 0.766,4.066 2.3,5.576 1.539,1.509 3.57,2.267 6.1,2.267 2.533,0 4.564,-0.758 6.103,-2.267 1.534,-1.51 2.3,-3.37 2.3,-5.576 0,-2.208 -0.766,-4.066 -2.3,-5.579 -1.539,-1.509 -3.57,-2.264 -6.103,-2.264 -2.53,0 -4.561,0.755 -6.1,2.264 -1.534,1.513 -2.3,3.371 -2.3,5.579" style="fill:#74c146;fill-opacity:1;fill-rule:nonzero;stroke:none" id="path207"></path>
    </g>
    <g id="g209" transform="translate(325.0212,771.2149)">
      <path d="m 0,0 c -3.252,0 -5.756,-0.902 -7.501,-2.701 -1.749,-1.801 -2.621,-4.532 -2.621,-8.191 0,-3.603 0.816,-6.319 2.441,-8.147 1.625,-1.831 3.975,-2.745 7.047,-2.745 1.085,0 2.064,0.159 2.94,0.478 0.87,0.318 1.551,0.684 2.034,1.091 V -1.047 C 3.131,-0.348 1.687,0 0,0 m -25.664,-10.892 c 0,3.833 0.601,7.159 1.807,9.978 1.203,2.816 2.878,5.154 5.016,7.012 2.138,1.86 4.641,3.24 7.501,4.139 2.86,0.903 5.947,1.351 9.261,1.351 1.206,0 2.383,-0.101 3.524,-0.304 1.144,-0.203 2.078,-0.451 2.801,-0.74 v 14.115 c 0.601,0.174 1.568,0.362 2.892,0.566 1.324,0.203 2.681,0.306 4.066,0.306 1.327,0 2.516,-0.088 3.574,-0.262 1.05,-0.174 1.94,-0.522 2.663,-1.047 0.722,-0.522 1.267,-1.232 1.63,-2.132 0.36,-0.902 0.54,-2.078 0.54,-3.529 v -41.306 c 0,-2.73 -1.327,-4.909 -3.975,-6.534 -1.751,-1.103 -4.01,-2.079 -6.779,-2.919 -2.771,-0.84 -5.965,-1.262 -9.579,-1.262 -3.916,0 -7.428,0.522 -10.527,1.569 -3.105,1.043 -5.726,2.553 -7.86,4.529 -2.144,1.975 -3.772,4.343 -4.883,7.103 -1.118,2.756 -1.672,5.882 -1.672,9.367" style="fill:#e8793d;fill-opacity:1;fill-rule:nonzero;stroke:none" id="path211"></path>
    </g>
    <g id="g213" transform="translate(366.5944,760.3221)">
      <path d="m 0,0 c 0,-3.544 0.705,-6.26 2.123,-8.147 1.412,-1.89 3.388,-2.833 5.921,-2.833 2.529,0 4.47,0.958 5.826,2.874 1.353,1.92 2.034,4.621 2.034,8.106 0,3.485 -0.695,6.171 -2.081,8.058 -1.383,1.89 -3.341,2.834 -5.874,2.834 C 5.422,10.892 3.465,9.948 2.076,8.058 0.69,6.171 0,3.485 0,0 m 31.629,0 c 0,-3.603 -0.575,-6.811 -1.716,-9.63 -1.144,-2.819 -2.757,-5.183 -4.836,-7.1 -2.078,-1.917 -4.564,-3.37 -7.454,-4.358 -2.895,-0.988 -6.118,-1.48 -9.674,-1.48 -3.556,0 -6.776,0.522 -9.665,1.568 -2.896,1.044 -5.378,2.539 -7.457,4.488 -2.079,1.943 -3.692,4.314 -4.836,7.1 -1.147,2.79 -1.716,5.927 -1.716,9.412 0,3.426 0.569,6.534 1.716,9.323 1.144,2.79 2.757,5.154 4.836,7.103 2.079,1.946 4.561,3.441 7.457,4.488 2.889,1.044 6.109,1.569 9.665,1.569 3.556,0 6.779,-0.54 9.674,-1.613 2.89,-1.076 5.376,-2.586 7.454,-4.532 2.079,-1.946 3.692,-4.314 4.836,-7.1 C 31.054,6.448 31.629,3.367 31.629,0" style="fill:#e8793d;fill-opacity:1;fill-rule:nonzero;stroke:none" id="path215"></path>
    </g>
    <g id="g217" transform="translate(171.7432,718.2435)">
      <path d="m 0,0 -19.767,-19.767 c -0.781,-0.784 -2.046,-0.784 -2.825,0 -0.778,0.775 -0.778,2.046 0,2.825 L -2.828,2.825 c 0.779,0.778 2.05,0.778 2.828,0 C 0.781,2.04 0.781,0.781 0,0 m -28.857,-10.68 c -0.776,-0.778 -2.05,-0.778 -2.825,0 v 0.003 c -0.781,0.779 -0.781,2.041 0,2.825 l 19.767,19.767 c 0.778,0.781 2.043,0.781 2.825,0 0.778,-0.781 0.778,-2.049 0,-2.828 z m 10.676,28.861 -19.767,-19.77 c -0.781,-0.782 -2.043,-0.782 -2.824,0 -0.782,0.781 -0.782,2.043 0,2.824 l 19.767,19.77 c 0.781,0.779 2.046,0.779 2.824,0 0.782,-0.784 0.782,-2.046 0,-2.824 m -9.087,9.084 -19.77,-19.764 c -0.778,-0.784 -2.043,-0.784 -2.825,0 -0.781,0.781 -0.781,2.043 0,2.825 l 19.767,19.767 c 0.782,0.781 2.047,0.781 2.825,0 h 0.003 c 0.778,-0.782 0.778,-2.044 0,-2.828 M 8.38,43.293 c 1.244,-0.796 2.314,-2.025 2.314,-2.025 9.76,-9.757 9.843,-25.582 0.257,-35.448 l -35.704,35.704 c 6.534,5.995 12.239,6.558 12.239,6.558 -0.141,3.747 0.263,4.868 0.263,4.868 -5.791,-0.991 -11.346,-3.686 -15.849,-8.079 l -3.258,3.261 c -1.778,1.778 -4.617,2.182 -6.678,0.74 -2.306,-1.61 -2.781,-4.609 -1.469,-6.817 0.009,-0.018 0.009,-0.035 0,-0.053 L -58.086,13.457 c -0.003,-0.006 -0.003,-0.006 -0.006,-0.006 -2.182,-2.188 -2.182,-5.761 0.003,-7.943 l 33.601,-33.602 c 2.185,-2.185 5.759,-2.187 7.944,-0.003 0,0.003 0.003,0.003 0.006,0.006 L 12.328,-9.3 c 0.012,0.009 0.026,0.009 0.038,0.006 2.026,-0.696 4.399,-0.106 5.797,1.814 1.507,2.064 1.129,4.959 -0.678,6.766 L 14.297,2.474 C 25.729,14.188 25.646,33.012 14.041,44.617 12.195,46.463 8.156,49.182 8.156,49.182 7.864,46.024 8.38,43.293 8.38,43.293" style="fill:#74c146;fill-opacity:1;fill-rule:nonzero;stroke:none" id="path219"></path>
    </g>
    <g id="g221" transform="translate(161.3962,764.5418)">
      <path d="m 0,0 c 0.177,-3.851 0.882,-7.324 2.12,-10.423 1.445,-3.615 3.435,-6.658 5.965,-9.129 2.53,-2.471 5.543,-4.352 9.037,-5.646 2.736,-1.015 5.479,-1.613 8.583,-1.834 1.259,6.846 -1.285,13.283 -1.285,13.283 -1.893,0.649 -3.515,1.781 -4.859,3.417 -1.289,1.566 -2.191,3.612 -2.737,6.107 0,0 -1.058,4.24 -0.315,10.55 0.463,3.331 1.489,5.967 3.099,7.878 2.258,2.68 5.254,4.022 8.99,4.022 3.795,0 6.793,-1.356 8.993,-4.069 2.2,-2.71 3.299,-6.776 3.299,-12.198 0,-5.484 -1.117,-9.58 -3.346,-12.29 -1.071,-1.303 -2.327,-2.285 -3.76,-2.96 0,0 2.344,-4.777 1.43,-13.212 1.681,0.312 3.12,0.695 4.68,1.259 3.494,1.267 6.522,3.119 9.084,5.561 2.56,2.438 4.562,5.481 6.009,9.125 1.445,3.645 2.167,7.817 2.167,12.517 0,4.7 -0.737,8.854 -2.214,12.469 -1.474,3.615 -3.509,6.643 -6.097,9.085 -2.592,2.438 -5.62,4.293 -9.085,5.558 -3.464,1.265 -7.215,1.896 -11.249,1.896 -4.039,0 -7.787,-0.631 -11.251,-1.896 C 13.793,27.805 10.78,25.95 8.221,23.512 5.658,21.07 3.641,18.042 2.164,14.427 2.164,14.427 -0.195,8.498 0,0" style="fill:#e8793d;fill-opacity:1;fill-rule:nonzero;stroke:none" id="path223"></path>
    </g>
  </g>
</svg>
