<?xml version="1.0" encoding="UTF-8" standalone="no"?>
<svg xmlns:inkscape="http://www.inkscape.org/namespaces/inkscape" xmlns:sodipodi="http://sodipodi.sourceforge.net/DTD/sodipodi-0.dtd" xmlns="http://www.w3.org/2000/svg" xmlns:svg="http://www.w3.org/2000/svg" viewBox="0 0 90.4 30.1" version="1.1" id="svg842" sodipodi:docname="pepco.svg" width="90.400002" height="30.1" inkscape:version="1.1 (c4e8f9e, 2021-05-24)">
  <defs id="defs846">
    <radialGradient id="paint0_radial_7565_11574" cx="0" cy="0" r="1" gradientUnits="userSpaceOnUse" gradientTransform="matrix(113.944,0,0,49.3344,110.39,-11.332)">
      <stop stop-color="#009EE2" id="stop123"></stop>
      <stop offset=".539" stop-color="#008BE2" stop-opacity=".46" id="stop125"></stop>
      <stop offset="1" stop-color="#0078E3" stop-opacity="0" id="stop127"></stop>
    </radialGradient>
    <radialGradient id="paint1_radial_7565_11574" cx="0" cy="0" r="1" gradientUnits="userSpaceOnUse" gradientTransform="matrix(106.871,0,0,95.7907,228.72,30.966)">
      <stop stop-color="#E30567" id="stop130"></stop>
      <stop offset=".093" stop-color="#DB096C" stop-opacity=".907" id="stop132"></stop>
      <stop offset=".237" stop-color="#C51478" stop-opacity=".763" id="stop134"></stop>
      <stop offset=".413" stop-color="#A2268B" stop-opacity=".586" id="stop136"></stop>
      <stop offset=".616" stop-color="#703FA6" stop-opacity=".384" id="stop138"></stop>
      <stop offset=".837" stop-color="#325EC8" stop-opacity=".163" id="stop140"></stop>
      <stop offset="1" stop-color="#0078E3" stop-opacity="0" id="stop142"></stop>
    </radialGradient>
    <clipPath id="clip0_7565_11574">
      <path fill="#fff" d="M0 0h220v63.834H0z" id="path145"></path>
    </clipPath>
  </defs>
  <g style="fill:none" id="g180" transform="matrix(0.38694611,0,0,0.38694611,2.6359292,2.6998412)">
    <g clip-path="url(#clip0_7565_11574)" id="g121">
      <path d="M 0,0.028 H 220 V 63.806 H 0 Z" fill="#0078e3" id="path101"></path>
      <mask id="a" maskUnits="userSpaceOnUse" x="0" y="0" width="220" height="64">
        <path d="M 0,0.028 H 220 V 63.806 H 0 Z" fill="#ffffff" id="path103"></path>
      </mask>
      <g mask="url(#a)" id="g108">
        <path d="m 110.388,56.798 c 85.091,0 154.071,-30.503 154.071,-68.13 0,-37.628 -68.98,-68.13 -154.071,-68.13 -85.09,0 -154.07,30.502 -154.07,68.13 0,37.627 68.98,68.13 154.07,68.13 z" fill="url(#paint0_radial_7565_11574)" id="path106" style="fill:url(#paint0_radial_7565_11574)"></path>
      </g>
      <mask id="b" maskUnits="userSpaceOnUse" x="0" y="0" width="220" height="64">
        <path d="M 0,0.028 H 220 V 63.806 H 0 Z" fill="#ffffff" id="path110"></path>
      </mask>
      <g mask="url(#b)" id="g115">
        <path opacity="0.9" d="m 228.713,141.065 c 79.807,0 144.503,-49.293 144.503,-110.098 0,-60.805 -64.696,-110.097 -144.503,-110.097 -79.807,0 -144.503,49.292 -144.503,110.097 0,60.805 64.696,110.098 144.503,110.098 z" fill="url(#paint1_radial_7565_11574)" id="path113" style="fill:url(#paint1_radial_7565_11574)"></path>
      </g>
      <path d="m 161.449,31.083 c 0,-8.485 6.766,-15.076 15.208,-15.076 8.441,0 15.266,6.59 15.266,15.076 0,8.482 -6.825,15.077 -15.266,15.077 -8.443,-0.002 -15.208,-6.597 -15.208,-15.077 z m 25.443,0 c 0,-5.793 -4.452,-10.203 -10.237,-10.203 -5.723,0 -10.177,4.41 -10.177,10.203 0,5.788 4.454,10.203 10.177,10.203 5.785,0 10.237,-4.415 10.237,-10.203 z m -56.626,0 c 0,-8.485 6.476,-15.076 15.208,-15.076 5.724,0 10.581,2.977 12.781,7.51 l -4.222,2.403 c -1.448,-3.039 -4.684,-5.042 -8.559,-5.042 -5.782,0 -10.177,4.41 -10.177,10.204 0,5.732 4.395,10.142 10.177,10.142 3.934,0 7.111,-2.002 8.732,-4.984 l 4.28,2.464 c -2.43,4.471 -7.345,7.454 -13.011,7.454 -8.733,0 -15.209,-6.595 -15.209,-15.075 z m -4.414,0 c 0,8.482 -6.591,15.077 -14.63,15.077 -4.913,0 -8.614,-2.18 -10.927,-5.675 v 13.623 h -5.03 V 16.749 h 5.03 v 4.934 c 2.314,-3.5 6.014,-5.675 10.927,-5.675 8.039,-10e-4 14.63,6.59 14.63,15.075 z m -5.03,0 c 0,-5.848 -4.454,-10.264 -10.236,-10.264 -5.841,0 -10.293,4.416 -10.293,10.264 0,5.843 4.452,10.26 10.293,10.26 5.782,0 10.236,-4.417 10.236,-10.26 z M 75.529,41.46 c 3.99,0 6.881,-1.835 8.327,-4.187 l 4.28,2.41 c -2.545,3.896 -6.94,6.477 -12.722,6.477 -9.308,0 -15.497,-6.478 -15.497,-15.076 0,-8.485 6.13,-15.076 15.15,-15.076 8.732,0 14.398,7.108 14.398,15.132 0,0.746 -0.059,1.488 -0.174,2.236 H 65.063 c 0.984,5.157 5.09,8.084 10.466,8.084 z M 65.063,29.02 h 19.313 c -0.867,-5.675 -4.972,-8.313 -9.308,-8.313 -5.436,0.002 -9.195,3.325 -10.005,8.313 z m -9.56,2.064 c 0,8.482 -6.59,15.077 -14.63,15.077 -4.912,0 -8.614,-2.18 -10.927,-5.675 v 13.623 h -5.03 v -37.36 h 5.03 v 4.934 c 2.315,-3.5 6.015,-5.675 10.927,-5.675 8.04,-10e-4 14.63,6.59 14.63,15.075 z m -5.03,0 c 0,-5.848 -4.454,-10.264 -10.236,-10.264 -5.84,0 -10.292,4.416 -10.292,10.264 0,5.843 4.451,10.26 10.292,10.26 5.782,0 10.236,-4.417 10.236,-10.26 z m 146.604,-11.111 3.347,3.318 3.347,-3.318 a 2.29,2.29 0 0 0 0.682,-1.635 c 0,-1.275 -1.047,-2.313 -2.334,-2.313 -0.623,0 -1.207,0.24 -1.648,0.676 l -0.047,0.047 -0.047,-0.047 a 2.33,2.33 0 0 0 -1.649,-0.676 2.326,2.326 0 0 0 -2.333,2.313 c 0,0.617 0.242,1.197 0.682,1.635 z m 1.651,-2.722 c 0.293,0 0.568,0.113 0.774,0.318 l 0.895,0.885 0.027,0.025 0.026,-0.025 0.894,-0.885 a 1.084,1.084 0 0 1 0.774,-0.318 c 0.604,0 1.096,0.488 1.096,1.087 0,0.29 -0.113,0.564 -0.321,0.768 l -2.471,2.45 -2.471,-2.45 a 1.077,1.077 0 0 1 -0.321,-0.768 1.096,1.096 0 0 1 1.098,-1.087 z" fill="#ffffff" id="path117"></path>
      <path d="m 200.424,12.097 a 7.103,7.103 0 0 0 -5.033,2.066 6.983,6.983 0 0 0 -2.085,4.99 6.98,6.98 0 0 0 2.085,4.99 7.097,7.097 0 0 0 5.033,2.066 7.104,7.104 0 0 0 5.033,-2.066 6.982,6.982 0 0 0 2.085,-4.99 6.98,6.98 0 0 0 -2.085,-4.99 7.104,7.104 0 0 0 -5.033,-2.066 z m 4.13,11.152 a 5.829,5.829 0 0 1 -4.13,1.697 5.826,5.826 0 0 1 -4.131,-1.697 5.73,5.73 0 0 1 -1.711,-4.095 c 0,-1.547 0.607,-3 1.711,-4.095 a 5.83,5.83 0 0 1 4.131,-1.696 5.82,5.82 0 0 1 4.13,1.697 5.726,5.726 0 0 1 1.712,4.094 5.726,5.726 0 0 1 -1.712,4.095 z" fill="#ffffff" id="path119"></path>
    </g>
  </g>
</svg>
