<?xml version="1.0" encoding="UTF-8" standalone="no"?>
<svg xmlns:inkscape="http://www.inkscape.org/namespaces/inkscape" xmlns:sodipodi="http://sodipodi.sourceforge.net/DTD/sodipodi-0.dtd" xmlns="http://www.w3.org/2000/svg" xmlns:svg="http://www.w3.org/2000/svg" id="svg34" version="1.1" height="147.935" width="147.935" sodipodi:docname="polo-market.svg" inkscape:version="1.1 (c4e8f9e, 2021-05-24)">
  <defs id="defs7052">
    <clipPath id="clipPath3078">
      <path d="M 0,0 H 496.063 V 822.047 H 0 Z" id="path3076"></path>
    </clipPath>
  </defs>
  <g id="g13" transform="translate(-126.03378,-76.033786)">
    <path id="canvas_background" fill="none" d="M -1,-1 H 401 V 301 H -1 Z"></path>
  </g>
  <style type="text/css" id="style42">.st0{fill:#e10915}</style>
  <g id="g4061" transform="matrix(1.3174184,0,0,1.3174184,-182.47116,7.0398885)">
    <path d="M 140.48507,104.92809 H 248.81974 V -3.3239068 H 140.48507 Z" style="fill:#ed1d24;fill-opacity:1;fill-rule:nonzero;stroke:none;stroke-width:1.33333" id="path3070"></path>
    <g id="g3072" transform="matrix(1.3333333,0,0,-1.3333333,114.02774,1057.1654)">
      <g id="g3074" clip-path="url(#clipPath3078)">
        <g id="g3080" transform="translate(44.0573,728.458)">
          <path d="m 0,0 c -0.028,-0.008 -0.057,-0.012 -0.087,-0.012 -0.031,0 -0.06,0.004 -0.088,0.012 -0.028,0.007 -0.055,0.018 -0.08,0.032 h -0.001 c -0.027,0.014 -0.05,0.032 -0.072,0.054 -0.021,0.02 -0.039,0.045 -0.055,0.072 l -0.001,0.001 -0.629,1.118 v -1.495 -0.001 c 0,-0.031 -0.005,-0.06 -0.012,-0.089 -0.009,-0.029 -0.02,-0.056 -0.036,-0.082 -0.014,-0.026 -0.032,-0.05 -0.053,-0.07 h -10e-4 c -0.02,-0.021 -0.044,-0.039 -0.069,-0.054 v 0 C -1.21,-0.53 -1.238,-0.541 -1.266,-0.549 -1.295,-0.556 -1.325,-0.561 -1.356,-0.562 h -10e-4 c -0.032,0.001 -0.061,0.006 -0.09,0.013 -0.028,0.008 -0.056,0.019 -0.081,0.035 l -10e-4,0.001 c -0.026,0.015 -0.049,0.033 -0.07,0.053 v 0 c -0.02,0.02 -0.039,0.044 -0.054,0.07 -0.015,0.026 -0.026,0.053 -0.034,0.082 C -1.695,-0.28 -1.7,-0.25 -1.7,-0.219 v 0.001 2.773 0.002 c 0,0.031 0.005,0.061 0.013,0.089 0.008,0.028 0.019,0.056 0.034,0.082 l 0.001,10e-4 c 0.015,0.025 0.033,0.048 0.053,0.068 0.021,0.021 0.044,0.038 0.07,0.054 0.026,0.016 0.054,0.028 0.082,0.036 0.028,0.007 0.058,0.011 0.09,0.012 h 10e-4 c 0.036,-10e-4 0.07,-0.006 0.1,-0.015 h 0.001 c 0.032,-0.009 0.062,-0.023 0.088,-0.042 l 0.001,-10e-4 c 0.024,-0.017 0.046,-0.037 0.065,-0.059 0.02,-0.023 0.036,-0.047 0.05,-0.073 l 0.964,-1.725 0.963,1.725 c 0.014,0.026 0.031,0.05 0.05,0.073 0.019,0.021 0.041,0.042 0.065,0.059 l 0.001,10e-4 c 0.027,0.018 0.056,0.033 0.089,0.042 0.03,0.009 0.064,0.014 0.1,0.015 H 1.183 C 1.214,2.898 1.244,2.894 1.272,2.886 1.302,2.878 1.329,2.866 1.355,2.851 1.381,2.835 1.404,2.818 1.424,2.797 1.444,2.777 1.462,2.755 1.477,2.729 1.493,2.702 1.505,2.675 1.513,2.646 1.521,2.618 1.525,2.588 1.525,2.557 V 2.555 -0.218 -0.219 C 1.525,-0.251 1.521,-0.28 1.513,-0.308 1.505,-0.338 1.493,-0.365 1.477,-0.391 1.462,-0.416 1.444,-0.44 1.424,-0.46 v 0 C 1.404,-0.48 1.381,-0.498 1.355,-0.513 L 1.354,-0.514 C 1.328,-0.53 1.301,-0.541 1.272,-0.549 1.244,-0.556 1.214,-0.561 1.183,-0.562 H 1.181 C 1.15,-0.561 1.12,-0.556 1.092,-0.549 1.063,-0.541 1.036,-0.53 1.01,-0.514 L 1.009,-0.513 C 0.983,-0.498 0.96,-0.48 0.94,-0.46 v 0 C 0.919,-0.44 0.901,-0.416 0.886,-0.39 0.871,-0.364 0.859,-0.337 0.851,-0.308 0.843,-0.279 0.839,-0.25 0.839,-0.219 L 0.838,-0.218 V 1.277 L 0.209,0.159 0.208,0.158 C 0.192,0.13 0.174,0.105 0.153,0.085 0.132,0.064 0.109,0.047 0.081,0.032 0.056,0.018 0.029,0.007 0,0 Z M 6.443,0.844 H 7.231 L 6.837,1.852 Z M 7.652,-0.336 7.376,0.322 H 6.299 L 6.022,-0.336 v 0 C 6.009,-0.368 5.992,-0.397 5.972,-0.423 5.951,-0.449 5.927,-0.472 5.902,-0.492 5.873,-0.515 5.842,-0.533 5.808,-0.543 5.774,-0.554 5.739,-0.561 5.7,-0.562 H 5.697 C 5.667,-0.561 5.637,-0.556 5.609,-0.549 5.58,-0.541 5.552,-0.53 5.527,-0.514 L 5.526,-0.513 C 5.5,-0.498 5.476,-0.48 5.456,-0.46 v 0 C 5.436,-0.44 5.418,-0.416 5.402,-0.39 5.387,-0.364 5.375,-0.337 5.368,-0.308 5.36,-0.28 5.355,-0.25 5.355,-0.219 v 0.001 c 0,0.009 0,0.019 10e-4,0.029 l 0.001,0.002 0.002,0.026 0.001,0.004 c 0.002,0.011 0.005,0.022 0.008,0.033 v 0.001 C 5.371,-0.112 5.375,-0.1 5.379,-0.09 H 5.38 l 1.138,2.773 c 0.006,0.014 0.015,0.03 0.024,0.046 0.009,0.013 0.019,0.029 0.032,0.045 0.013,0.018 0.029,0.034 0.047,0.048 0.017,0.014 0.036,0.027 0.057,0.038 0.023,0.013 0.049,0.023 0.075,0.029 0.025,0.006 0.053,0.009 0.083,0.01 H 6.839 C 6.869,2.898 6.897,2.895 6.922,2.889 6.949,2.883 6.973,2.873 6.996,2.86 H 6.997 C 7.018,2.849 7.037,2.836 7.054,2.822 7.071,2.808 7.087,2.792 7.1,2.774 7.113,2.758 7.124,2.742 7.133,2.729 7.142,2.713 7.15,2.697 7.156,2.683 L 8.295,-0.09 C 8.299,-0.1 8.303,-0.112 8.307,-0.123 V -0.124 C 8.31,-0.135 8.313,-0.146 8.315,-0.157 V -0.161 L 8.318,-0.187 V -0.189 C 8.319,-0.199 8.32,-0.209 8.32,-0.218 V -0.219 C 8.319,-0.25 8.315,-0.28 8.307,-0.308 8.299,-0.337 8.287,-0.364 8.273,-0.39 8.258,-0.416 8.239,-0.44 8.218,-0.46 v 0 C 8.198,-0.48 8.175,-0.498 8.149,-0.513 L 8.148,-0.514 C 8.123,-0.53 8.095,-0.541 8.066,-0.549 8.038,-0.556 8.008,-0.561 7.977,-0.562 H 7.975 c -0.038,0.001 -0.075,0.008 -0.108,0.019 -0.034,0.01 -0.065,0.028 -0.094,0.051 -0.026,0.02 -0.05,0.043 -0.071,0.069 -0.019,0.026 -0.036,0.055 -0.05,0.087 m 6.262,-0.096 -0.857,1.153 h -0.211 v -0.934 -0.001 c -10e-4,-0.032 -0.005,-0.063 -0.013,-0.092 -0.008,-0.029 -0.02,-0.057 -0.036,-0.083 -0.015,-0.026 -0.033,-0.049 -0.054,-0.07 -0.02,-0.02 -0.043,-0.039 -0.068,-0.054 H 12.674 C 12.647,-0.529 12.619,-0.54 12.59,-0.548 12.561,-0.557 12.53,-0.561 12.498,-0.562 h -10e-4 c -0.032,0.001 -0.063,0.006 -0.092,0.014 -0.03,0.008 -0.057,0.019 -0.083,0.035 h -10e-4 c -0.026,0.015 -0.049,0.034 -0.07,0.054 -0.02,0.021 -0.038,0.044 -0.053,0.07 -0.016,0.027 -0.028,0.054 -0.036,0.083 -0.008,0.029 -0.012,0.059 -0.012,0.092 l -0.001,0.001 v 2.725 l 0.001,10e-4 c 0,0.032 0.004,0.063 0.012,0.092 0.008,0.029 0.02,0.057 0.035,0.083 l 0.001,10e-4 c 0.03,0.051 0.071,0.093 0.123,0.123 l 10e-4,0.001 c 0.027,0.016 0.055,0.027 0.083,0.034 0.029,0.009 0.059,0.013 0.092,0.013 v 0 h 0.923 v 0 c 0.085,0 0.166,-0.008 0.243,-0.022 0.076,-0.014 0.149,-0.037 0.217,-0.064 0.067,-0.029 0.13,-0.062 0.187,-0.101 0.057,-0.039 0.109,-0.084 0.156,-0.134 0.046,-0.05 0.087,-0.104 0.122,-0.162 0.036,-0.056 0.065,-0.117 0.089,-0.182 0.024,-0.064 0.042,-0.131 0.054,-0.2 0.012,-0.068 0.018,-0.139 0.018,-0.212 0,-0.06 -0.004,-0.12 -0.013,-0.18 C 14.484,1.544 14.47,1.485 14.452,1.428 14.434,1.37 14.412,1.315 14.386,1.264 14.36,1.211 14.329,1.162 14.295,1.113 14.26,1.065 14.222,1.022 14.18,0.983 14.138,0.943 14.092,0.908 14.042,0.876 v 0 C 13.992,0.844 13.938,0.819 13.882,0.799 13.862,0.791 13.841,0.785 13.819,0.78 l 0.643,-0.781 10e-4,-0.002 c 0.012,-0.017 0.023,-0.035 0.033,-0.052 v 0 c 0.01,-0.018 0.017,-0.036 0.023,-0.055 v -0.001 c 0.005,-0.018 0.01,-0.036 0.012,-0.052 v -0.001 c 0.003,-0.016 0.004,-0.033 0.004,-0.049 V -0.214 C 14.534,-0.246 14.53,-0.277 14.521,-0.306 14.514,-0.335 14.502,-0.362 14.487,-0.388 14.457,-0.441 14.414,-0.482 14.364,-0.513 H 14.363 C 14.336,-0.529 14.309,-0.54 14.279,-0.548 14.25,-0.557 14.22,-0.561 14.188,-0.562 h -0.001 c -0.026,0 -0.051,0.003 -0.077,0.009 h -10e-4 c -0.024,0.007 -0.048,0.015 -0.072,0.025 h -0.001 c -0.023,0.01 -0.046,0.025 -0.066,0.039 -0.02,0.017 -0.038,0.035 -0.054,0.055 z M 13.509,2.211 C 13.48,2.218 13.448,2.222 13.414,2.222 H 12.846 V 1.351 h 0.583 V 1.35 c 0.031,10e-4 0.062,0.004 0.09,0.01 0.027,0.006 0.051,0.014 0.072,0.025 h 0.001 c 0.021,0.012 0.042,0.025 0.06,0.041 v 0 c 0.018,0.014 0.035,0.032 0.049,0.052 v 0 c 0.015,0.02 0.028,0.041 0.039,0.065 0.011,0.022 0.021,0.047 0.028,0.073 0.007,0.027 0.013,0.054 0.016,0.082 0.004,0.027 0.006,0.055 0.006,0.085 0,0.032 -0.002,0.061 -0.006,0.089 -0.003,0.028 -0.009,0.055 -0.016,0.082 v 0.001 c -0.007,0.025 -0.017,0.05 -0.029,0.073 -0.011,0.023 -0.024,0.045 -0.04,0.065 v 0.002 c -0.014,0.018 -0.031,0.036 -0.05,0.051 -0.018,0.015 -0.04,0.029 -0.063,0.039 v 10e-4 c -0.023,0.012 -0.049,0.021 -0.077,0.025 m 5.612,0.432 c 0.007,-0.029 0.011,-0.06 0.012,-0.091 V 2.551 1.625 l 1.04,1.159 0.001,0.001 c 0.017,0.019 0.036,0.036 0.055,0.05 0.02,0.014 0.041,0.027 0.063,0.036 0.021,0.008 0.043,0.016 0.065,0.02 v 10e-4 c 0.023,0.004 0.046,0.007 0.069,0.007 h 0.001 c 0.031,-10e-4 0.061,-0.005 0.088,-0.012 h 10e-4 c 0.027,-0.008 0.055,-0.019 0.082,-0.035 v 0 C 20.623,2.837 20.645,2.819 20.665,2.8 V 2.799 c 0.021,-0.02 0.038,-0.042 0.053,-0.067 V 2.731 C 20.733,2.706 20.744,2.678 20.752,2.65 20.76,2.623 20.764,2.593 20.764,2.561 V 2.56 C 20.764,2.537 20.762,2.515 20.757,2.492 20.753,2.471 20.747,2.45 20.739,2.432 20.731,2.413 20.721,2.394 20.711,2.377 20.7,2.361 20.688,2.344 20.675,2.331 V 2.33 l -0.87,-0.942 1.033,-1.406 c 0.011,-0.014 0.02,-0.029 0.027,-0.044 v 0 c 0.009,-0.016 0.016,-0.032 0.021,-0.048 l 0.001,-0.002 c 0.006,-0.017 0.01,-0.035 0.013,-0.052 0.003,-0.019 0.004,-0.037 0.004,-0.054 V -0.219 C 20.903,-0.25 20.899,-0.28 20.892,-0.308 20.884,-0.337 20.872,-0.364 20.857,-0.39 20.841,-0.416 20.824,-0.44 20.803,-0.46 v 0 c -0.02,-0.02 -0.043,-0.038 -0.07,-0.053 V -0.514 C 20.707,-0.53 20.679,-0.541 20.651,-0.549 20.623,-0.556 20.593,-0.561 20.561,-0.562 H 20.56 c -0.024,0.001 -0.046,0.003 -0.066,0.008 -0.022,0.004 -0.042,0.009 -0.06,0.017 l -0.002,0.001 c -0.017,0.006 -0.033,0.016 -0.049,0.026 v -0.001 c -0.015,0.01 -0.031,0.021 -0.044,0.033 l -10e-4,0.001 c -0.011,0.01 -0.022,0.021 -0.032,0.031 -0.01,0.011 -0.019,0.022 -0.027,0.034 L 19.332,0.896 19.133,0.686 V -0.213 -0.214 C 19.132,-0.246 19.128,-0.277 19.121,-0.306 19.112,-0.335 19.1,-0.362 19.085,-0.389 h -0.001 c -0.015,-0.026 -0.032,-0.049 -0.054,-0.07 -0.019,-0.02 -0.042,-0.039 -0.069,-0.054 v 0 C 18.935,-0.529 18.906,-0.54 18.877,-0.548 18.848,-0.556 18.818,-0.561 18.786,-0.562 h -0.002 c -0.031,0.001 -0.062,0.005 -0.092,0.014 -0.029,0.008 -0.057,0.019 -0.083,0.035 v 0 c -0.027,0.015 -0.049,0.034 -0.071,0.054 -0.019,0.021 -0.037,0.044 -0.052,0.07 -0.017,0.026 -0.028,0.054 -0.036,0.083 -0.008,0.029 -0.013,0.059 -0.013,0.092 v 0.001 2.764 10e-4 c 0,0.031 0.005,0.062 0.013,0.091 0.008,0.029 0.019,0.057 0.036,0.084 v 0.001 c 0.015,0.025 0.033,0.048 0.052,0.068 v 0.001 c 0.022,0.021 0.044,0.038 0.071,0.054 l 10e-4,10e-4 c 0.026,0.015 0.054,0.026 0.083,0.034 0.027,0.008 0.059,0.012 0.091,0.013 h 0.002 C 18.818,2.898 18.849,2.894 18.877,2.886 18.906,2.878 18.934,2.867 18.96,2.852 l 10e-4,-10e-4 c 0.027,-0.016 0.05,-0.033 0.069,-0.054 l 0.002,-0.001 c 0.02,-0.02 0.037,-0.043 0.053,-0.068 V 2.727 C 19.101,2.7 19.112,2.672 19.121,2.643 M 26.56,2.222 H 25.402 V 1.495 h 0.843 10e-4 C 26.275,1.494 26.303,1.49 26.329,1.484 26.355,1.476 26.38,1.466 26.404,1.452 26.427,1.438 26.449,1.422 26.467,1.403 26.486,1.385 26.503,1.363 26.516,1.339 26.53,1.315 26.541,1.291 26.548,1.264 26.555,1.237 26.56,1.21 26.56,1.181 V 1.18 C 26.56,1.151 26.555,1.123 26.548,1.098 26.541,1.071 26.53,1.046 26.516,1.022 26.503,0.999 26.486,0.977 26.467,0.959 v 0 C 26.449,0.94 26.427,0.924 26.404,0.91 26.38,0.896 26.355,0.885 26.329,0.878 26.303,0.871 26.275,0.867 26.246,0.867 L 26.245,0.866 h -0.843 v -0.75 h 1.21 0.001 c 0.03,-0.001 0.058,-0.004 0.084,-0.012 0.026,-0.007 0.051,-0.017 0.076,-0.032 h 0.001 c 0.024,-0.015 0.046,-0.031 0.064,-0.049 0.019,-0.019 0.036,-0.04 0.05,-0.065 l 10e-4,-10e-4 c 0.014,-0.024 0.023,-0.048 0.031,-0.077 0.007,-0.025 0.011,-0.053 0.012,-0.083 v -10e-4 c -10e-4,-0.03 -0.005,-0.058 -0.012,-0.084 v 0 c -0.008,-0.027 -0.017,-0.053 -0.031,-0.077 l -10e-4,-0.001 c -0.015,-0.024 -0.031,-0.045 -0.05,-0.063 -0.018,-0.019 -0.04,-0.035 -0.064,-0.05 L 26.773,-0.48 c -0.025,-0.014 -0.05,-0.024 -0.076,-0.031 -0.026,-0.007 -0.054,-0.011 -0.084,-0.011 l -0.001,-0.001 h -1.558 l -0.002,0.001 c -0.032,0 -0.063,0.004 -0.091,0.012 -0.029,0.008 -0.057,0.02 -0.083,0.035 l -0.001,0.001 c -0.026,0.015 -0.05,0.033 -0.07,0.053 -0.02,0.02 -0.038,0.044 -0.054,0.07 v 0 c -0.015,0.027 -0.027,0.054 -0.035,0.084 -0.008,0.029 -0.012,0.059 -0.013,0.091 v 0.001 2.687 10e-4 c 0.001,0.032 0.005,0.063 0.013,0.092 0.008,0.029 0.02,0.057 0.035,0.083 v 10e-4 c 0.031,0.051 0.072,0.093 0.124,0.123 l 0.001,0.001 c 0.026,0.016 0.054,0.027 0.083,0.034 0.028,0.009 0.059,0.013 0.091,0.013 h 0.002 1.506 c 0.03,0 0.058,-0.004 0.083,-0.011 C 26.67,2.842 26.696,2.831 26.72,2.818 V 2.817 c 0.024,-0.014 0.046,-0.031 0.065,-0.05 0.019,-0.02 0.036,-0.041 0.05,-0.065 v 0 c 0.014,-0.024 0.025,-0.05 0.032,-0.076 0.007,-0.027 0.01,-0.054 0.011,-0.084 V 2.54 C 26.877,2.51 26.874,2.482 26.867,2.457 26.86,2.429 26.849,2.403 26.835,2.38 V 2.379 C 26.821,2.355 26.804,2.333 26.785,2.314 26.766,2.297 26.745,2.28 26.72,2.265 v 0 C 26.696,2.252 26.67,2.24 26.644,2.234 V 2.232 C 26.618,2.226 26.59,2.223 26.56,2.222 m 6.5,0.021 C 33.034,2.236 33.006,2.232 32.978,2.231 h -0.001 -0.671 v -2.444 -0.001 c 0,-0.032 -0.004,-0.063 -0.012,-0.092 -0.008,-0.029 -0.02,-0.056 -0.036,-0.083 -0.015,-0.026 -0.033,-0.049 -0.054,-0.07 -0.02,-0.021 -0.043,-0.039 -0.069,-0.054 v 0 c -0.026,-0.016 -0.054,-0.027 -0.084,-0.035 -0.029,-0.009 -0.06,-0.013 -0.092,-0.014 h -0.002 c -0.031,0.001 -0.063,0.006 -0.091,0.014 -0.029,0.008 -0.057,0.019 -0.084,0.035 -0.026,0.016 -0.049,0.034 -0.07,0.053 -0.02,0.021 -0.038,0.045 -0.053,0.071 -0.016,0.026 -0.028,0.054 -0.036,0.083 -0.008,0.029 -0.012,0.059 -0.013,0.092 v 0.001 2.444 H 30.94 30.939 C 30.91,2.232 30.883,2.236 30.857,2.243 30.831,2.25 30.805,2.26 30.782,2.274 30.757,2.289 30.737,2.305 30.718,2.324 30.7,2.343 30.683,2.364 30.669,2.387 30.655,2.411 30.645,2.436 30.637,2.463 30.63,2.489 30.626,2.516 30.626,2.545 v 0.002 c 0,0.029 0.004,0.056 0.011,0.082 0.008,0.026 0.018,0.051 0.032,0.075 0.014,0.025 0.031,0.046 0.049,0.064 0.019,0.018 0.04,0.035 0.064,0.049 0.023,0.014 0.049,0.024 0.075,0.031 0.026,0.008 0.053,0.012 0.082,0.012 h 0.001 2.037 0.001 c 0.028,0 0.056,-0.004 0.082,-0.012 C 33.087,2.841 33.111,2.831 33.135,2.817 33.158,2.803 33.18,2.786 33.199,2.768 33.217,2.75 33.234,2.729 33.248,2.704 33.262,2.68 33.272,2.655 33.28,2.629 v 0 C 33.287,2.603 33.291,2.576 33.291,2.547 V 2.545 c 0,-0.029 -0.004,-0.056 -0.011,-0.082 V 2.462 C 33.272,2.436 33.262,2.412 33.248,2.387 33.234,2.364 33.218,2.343 33.199,2.324 33.181,2.305 33.159,2.288 33.135,2.274 33.111,2.26 33.087,2.25 33.06,2.243 m -29.072,8.89 c 0,1.889 0.577,3.381 1.729,4.467 1.151,1.09 2.729,1.635 4.735,1.635 1.998,0 3.573,-0.545 4.725,-1.635 1.151,-1.086 1.728,-2.578 1.728,-4.467 C 16.905,9.229 16.332,7.73 15.18,6.636 14.033,5.542 12.457,4.998 10.452,4.998 8.446,4.998 6.868,5.542 5.717,6.636 4.565,7.73 3.988,9.229 3.988,11.133 m 14.88,7.594 c 0,0.72 0.208,1.294 0.621,1.721 0.412,0.427 0.972,0.642 1.679,0.642 0.703,0 1.255,-0.208 1.668,-0.621 0.408,-0.412 0.614,-0.971 0.614,-1.681 V 7.518 C 23.45,6.816 23.241,6.259 22.829,5.84 22.417,5.424 21.864,5.216 21.168,5.216 c -0.714,0 -1.274,0.212 -1.686,0.631 -0.409,0.42 -0.614,0.998 -0.614,1.733 z m 6.558,-7.594 c 0,1.889 0.578,3.381 1.729,4.467 1.151,1.09 2.73,1.635 4.735,1.635 1.999,0 3.574,-0.545 4.726,-1.635 1.151,-1.086 1.728,-2.578 1.728,-4.467 0,-1.904 -0.574,-3.403 -1.725,-4.497 -1.148,-1.094 -2.723,-1.638 -4.729,-1.638 -2.005,0 -3.584,0.544 -4.735,1.638 -1.151,1.094 -1.729,2.593 -1.729,4.497 M 10.458,8.506 c 0.624,0 1.091,0.215 1.397,0.641 0.304,0.427 0.455,1.087 0.455,1.983 0,0.829 -0.162,1.471 -0.488,1.929 -0.327,0.459 -0.779,0.689 -1.364,0.689 -0.588,0 -1.047,-0.23 -1.374,-0.689 C 8.755,12.601 8.589,11.959 8.589,11.13 8.589,10.234 8.74,9.574 9.045,9.147 9.35,8.721 9.823,8.506 10.458,8.506 M -4.139,8.454 c 0.624,0 1.09,0.216 1.395,0.642 0.305,0.427 0.456,1.086 0.456,1.983 0,0.828 -0.162,1.471 -0.488,1.929 -0.326,0.459 -0.778,0.689 -1.363,0.689 -0.588,0 -1.048,-0.23 -1.374,-0.689 -0.33,-0.458 -0.495,-1.101 -0.495,-1.929 0,-0.897 0.151,-1.556 0.456,-1.983 0.304,-0.426 0.778,-0.642 1.413,-0.642 m 36.098,0.052 c 0.624,0 1.091,0.215 1.396,0.641 0.304,0.427 0.455,1.087 0.455,1.983 0,0.829 -0.161,1.471 -0.488,1.929 -0.327,0.459 -0.779,0.689 -1.363,0.689 -0.588,0 -1.048,-0.23 -1.374,-0.689 -0.33,-0.458 -0.495,-1.1 -0.495,-1.929 0,-0.896 0.151,-1.556 0.455,-1.983 0.305,-0.426 0.779,-0.641 1.414,-0.641 m -42.632,2.49 c 0,1.89 0.577,3.382 1.729,4.468 1.151,1.09 2.73,1.635 4.735,1.635 1.998,0 3.573,-0.545 4.725,-1.635 C 1.667,14.378 2.245,12.886 2.245,10.996 2.245,9.092 1.671,7.594 0.52,6.501 -0.629,5.407 -2.203,4.862 -4.209,4.862 c -0.717,0 -1.38,0.069 -1.987,0.209 V 1.515 c 0,-0.699 -0.201,-1.256 -0.6,-1.667 -0.397,-0.41 -0.939,-0.614 -1.618,-0.614 -0.678,0 -1.22,0.212 -1.617,0.631 -0.399,0.42 -0.599,0.99 -0.599,1.711 0,3.139 -0.043,6.285 -0.043,9.42" style="fill:#ffffff;fill-opacity:1;fill-rule:nonzero;stroke:none" id="path3082"></path>
        </g>
        <g id="g3084" transform="translate(77.989,758.823)">
          <path d="m 0,0 c -4.696,0 -8.786,-2.601 -10.906,-6.439 -0.049,-0.09 -0.076,-0.193 -0.076,-0.3 0,-0.265 0.161,-0.491 0.392,-0.587 0.405,-0.185 0.766,-0.435 1.081,-0.752 0.754,-0.76 1.132,-1.792 1.132,-3.101 v -0.808 c 0,-0.351 0.284,-0.635 0.635,-0.635 0.14,0 0.269,0.045 0.374,0.122 l 0.003,-10e-4 c 1.434,1.031 3.26,1.55 5.496,1.55 2.626,0 4.696,-0.716 6.21,-2.149 1.513,-1.427 2.272,-3.388 2.272,-5.872 0,-1.08 -0.141,-2.061 -0.422,-2.943 l 0.001,-0.002 c -0.018,-0.059 -0.028,-0.122 -0.028,-0.188 0,-0.35 0.283,-0.635 0.635,-0.635 0.141,0 0.271,0.046 0.377,0.124 l 10e-4,-0.001 c 3.192,2.253 5.275,5.969 5.275,10.171 C 12.452,-5.574 6.876,0 0,0" style="fill:#ffdd00;fill-opacity:1;fill-rule:nonzero;stroke:none" id="path3086"></path>
        </g>
      </g>
    </g>
  </g>
</svg>
