<?xml version="1.0" encoding="UTF-8" standalone="no"?>
<svg xmlns:inkscape="http://www.inkscape.org/namespaces/inkscape" xmlns:sodipodi="http://sodipodi.sourceforge.net/DTD/sodipodi-0.dtd" xmlns="http://www.w3.org/2000/svg" xmlns:svg="http://www.w3.org/2000/svg" height="90.545586" width="445.01376" viewBox="-5.2481373 0 144.27821 29.14152" version="1.1" id="svg17" sodipodi:docname="psb-mrowka.svg" inkscape:version="1.1 (c4e8f9e, 2021-05-24)">
  <defs id="defs21"></defs>
  <g transform="matrix(0.42380198,0,0,0.42380198,-17.86964,-48.999537)" id="g100" fill-rule="evenodd">
    <path inkscape:connector-curvature="0" id="path94" fill="#0d1c8c" d="M 45.781,120.394 H 354.22 v 59.212 H 45.781"></path>
    <path inkscape:connector-curvature="0" id="path96" fill="#ebb00f" d="m 140.372,120.395 c -8.912,7.579 -15.336,18.423 -16.968,30.434 -1.297,9.562 0.483,20.321 6.367,28.172 -8.95,-7.283 -14.057,-19.114 -12.412,-32.013 1.312,-10.287 5.688,-19.039 13.063,-26.593"></path>
    <path inkscape:connector-curvature="0" id="path98" fill="#ffffff" d="m 330.023,154.198 h -7.192 l 2.665,-9.028 a 139.15,139.15 0 0 0 0.93,-3.672 c 0.48,2.028 0.78,3.251 0.887,3.673 z m -129.177,10.214 -4.075,-27.351 h -7.153 l -4.042,14.076 a 31.45,31.45 0 0 0 -0.446,1.672 19.442,19.442 0 0 0 -0.363,2.078 19.987,19.987 0 0 0 -0.416,-2.142 38.107,38.107 0 0 0 -0.438,-1.568 l -4.004,-14.116 h -7.155 l -4.074,27.35 6.708,0.001 1.554,-11.82 c 0.116,-0.823 0.224,-1.74 0.327,-2.76 0.102,-1.015 0.19,-2.137 0.268,-3.361 0.197,1.199 0.407,2.225 0.637,3.066 0.236,0.842 0.428,1.53 0.587,2.06 l 3.596,12.816 h 4.813 l 3.596,-12.816 c 0.159,-0.53 0.35,-1.219 0.586,-2.058 0.23,-0.843 0.44,-1.87 0.639,-3.068 0.075,1.224 0.16,2.346 0.247,3.36 0.096,1.02 0.2,1.938 0.307,2.76 l 1.555,11.821 z m 15.728,-17.827 c 10e-4,1.2 -0.362,2.067 -1.103,2.609 -0.74,0.542 -1.861,0.804 -3.378,0.796 h -1.333 v -7.19 h 1.441 c 1,-0.008 1.824,0.107 2.467,0.342 0.651,0.237 1.129,0.632 1.442,1.187 0.311,0.555 0.465,1.307 0.464,2.256 z m 8.41,17.828 -7.223,-11.018 c 1.93,-0.427 3.404,-1.3 4.411,-2.626 1.009,-1.32 1.512,-3.048 1.518,-5.178 0,-1.422 -0.255,-2.703 -0.759,-3.838 a 7.469,7.469 0 0 0 -2.206,-2.856 7.312,7.312 0 0 0 -2.454,-1.275 13.046,13.046 0 0 0 -2.895,-0.484 48.014,48.014 0 0 0 -3.391,-0.078 l -0.446,0.001 h -7.563 v 27.351 h 6.783 v -10.711 l 6.078,10.71 z m 21.192,-13.62 c -0.007,1.13 -0.172,2.175 -0.502,3.143 -0.333,0.97 -0.804,1.824 -1.423,2.551 a 6.593,6.593 0 0 1 -2.186,1.716 c -0.849,0.407 -1.786,0.618 -2.82,0.624 -1.058,-0.006 -2.013,-0.21 -2.861,-0.618 a 6.356,6.356 0 0 1 -2.187,-1.71 7.71,7.71 0 0 1 -1.39,-2.542 9.966,9.966 0 0 1 -0.491,-3.164 c 0.007,-1.127 0.173,-2.174 0.51,-3.142 0.338,-0.97 0.81,-1.823 1.428,-2.55 a 6.563,6.563 0 0 1 2.187,-1.715 c 0.848,-0.408 1.779,-0.62 2.805,-0.626 1.014,0.007 1.945,0.217 2.787,0.632 0.84,0.414 1.576,0.988 2.193,1.721 a 8.035,8.035 0 0 1 1.434,2.55 c 0.338,0.969 0.51,2.015 0.516,3.13 z m 7.225,0 c 0,-1.293 -0.153,-2.537 -0.466,-3.742 a 13.865,13.865 0 0 0 -3.647,-6.394 14.178,14.178 0 0 0 -2.965,-2.283 14.286,14.286 0 0 0 -3.417,-1.428 13.628,13.628 0 0 0 -3.659,-0.497 c -1.244,0 -2.455,0.164 -3.647,0.497 a 14.232,14.232 0 0 0 -6.356,3.711 14.141,14.141 0 0 0 -3.094,4.622 c -0.701,1.715 -1.051,3.557 -1.057,5.515 0,1.472 0.196,2.875 0.592,4.208 a 13.785,13.785 0 0 0 1.741,3.735 14.277,14.277 0 0 0 2.819,3.113 c 0.853,0.7 1.771,1.3 2.754,1.783 a 14.13,14.13 0 0 0 3.047,1.124 c 1.058,0.255 2.123,0.383 3.2,0.382 1.243,10e-4 2.455,-0.165 3.647,-0.484 a 14.394,14.394 0 0 0 6.395,-3.723 c 0.892,-0.9 1.639,-1.882 2.25,-2.952 a 14.158,14.158 0 0 0 1.39,-3.418 c 0.313,-1.212 0.473,-2.467 0.473,-3.769 z m -7.817,-23.066 h -6.19 l -3.297,6.426 h 4.636 z m 43.514,9.334 h -7.3 l -3.112,13.006 a 46.635,46.635 0 0 0 -0.37,1.722 c -0.132,0.67 -0.28,1.434 -0.445,2.294 -0.013,-0.095 -0.084,-0.484 -0.205,-1.16 a 53.035,53.035 0 0 0 -0.65,-2.856 l -3.334,-13.006 h -5.82 l -3.336,13.083 c -0.166,0.65 -0.331,1.32 -0.491,2 a 43.49,43.49 0 0 0 -0.433,2.093 c -0.116,-0.67 -0.237,-1.345 -0.37,-2.034 -0.134,-0.682 -0.28,-1.37 -0.447,-2.059 l -3.04,-13.083 h -7.3 l 7.484,27.351 h 6.707 l 3.227,-11.668 c 0.146,-0.515 0.293,-1.083 0.433,-1.695 0.141,-0.613 0.293,-1.27 0.46,-1.977 0.406,1.76 0.7,2.984 0.885,3.673 l 3.265,11.667 h 6.707 z m 24.266,25.406 -9.162,-12.055 9.787,-13.35 h -8.41 l -8.377,12.432 V 137.06 h -7.154 v 27.351 h 7.153 v -12.28 l 8.631,12.28 h 14.073 l 1.37,-4.895 10.266,-0.001 1.332,4.897 h 7.192 l -9.156,-27.352 h -9.04 M 61.39,137.679 v 27.205 a 0.87,0.87 0 0 0 0.725,0.416 0.84,0.84 0 0 0 0.847,-0.832 v -26.373 a 0.84,0.84 0 0 0 -0.847,-0.831 c -0.29,0 -0.58,0.17 -0.725,0.415 z m -3.856,-8.391 -1.29,0.004 -10e-4,0.63 h 0.57 v 0.904 c 0,0.308 -0.092,0.597 -0.48,0.598 -0.388,0.001 -0.511,-0.263 -0.511,-0.598 v -2.554 c 0,-0.308 0.167,-0.57 0.51,-0.572 0.354,-0.001 0.48,0.263 0.481,0.57 v 0.21 l 0.72,-0.004 v -0.209 c 0,-0.705 -0.444,-1.29 -1.2,-1.288 -0.733,0.002 -1.232,0.601 -1.232,1.296 v 2.553 c 0,0.3 0.03,0.57 0.21,0.84 0.24,0.3 0.63,0.51 1.022,0.508 0.42,-0.002 0.81,-0.213 1.051,-0.605 0.12,-0.24 0.15,-0.48 0.15,-0.752 v -1.53 z m 3.834,0.632 0.451,-10e-4 0.691,2.19 0.78,-0.003 -0.78,-2.34 c 0.42,-0.272 0.6,-0.573 0.6,-1.054 v -0.48 c 0,-0.661 -0.51,-1.2 -1.2,-1.198 l -1.262,0.005 v 5.076 l 0.72,-0.003 z m 0,-0.631 v -1.592 l 0.512,-0.002 c 0.33,0 0.51,0.239 0.51,0.54 v 0.48 c 0,0.346 -0.138,0.571 -0.51,0.573 h -0.511 z m 7.235,-2.254 -0.75,0.002 v 3.874 c 0,0.257 -0.117,0.511 -0.42,0.513 -0.306,0.001 -0.482,-0.207 -0.482,-0.51 v -3.874 l -0.75,0.003 v 3.874 c 0,0.67 0.504,1.26 1.202,1.258 0.695,-0.003 1.2,-0.61 1.2,-1.266 v -3.875 z m 3.925,3.065 0.39,-0.001 c 0.737,-0.002 1.261,-0.489 1.261,-1.236 v -0.75 c 0,-0.62 -0.579,-1.08 -1.171,-1.078 l -1.201,0.005 v 5.075 l 0.72,-0.002 v -2.012 z m 0,-0.69 v -1.713 l 0.45,-0.002 c 0.3,0 0.48,0.209 0.481,0.48 v 0.69 c 0,0.418 -0.101,0.541 -0.541,0.542 z m 5.047,1.592 0.961,-0.005 0.212,1.11 0.78,-0.002 -1.141,-5.072 -0.631,0.002 -1.141,5.08 0.78,-0.003 z m 0.842,-0.665 -0.691,0.002 0.33,-1.833 0.36,1.83 z m 13.834,34.367 v -27.206 a 0.873,0.873 0 0 1 0.726,-0.415 0.84,0.84 0 0 1 0.845,0.831 v 26.374 a 0.842,0.842 0 0 1 -0.845,0.831 0.872,0.872 0 0 1 -0.726,-0.415 z m 2.902,3.106 c 2.613,0 4.766,-2.152 4.765,-4.819 v -23.437 c 0,-2.667 -2.154,-4.845 -4.764,-4.845 H 92.25 v -7.73 h -6.289 v 40.832 z M 75.371,134.573 h 4.305 c 2.613,0 4.766,2.153 4.765,4.818 v 7.047 h -6.096 v -8.343 a 0.842,0.842 0 0 0 -0.846,-0.831 0.82,0.82 0 0 0 -0.823,0.831 v 7.144 c 0,0.06 0.03,0.126 0.074,0.171 l 7.135,7.584 c 0.357,0.379 0.557,0.954 0.556,1.469 v 8.366 c 0,2.666 -2.153,4.844 -4.765,4.844 h -4.305 c -2.613,0 -4.766,-2.177 -4.765,-4.844 l -10e-4,-6.802 h 6.072 v 8.441 c 0,0.716 0.797,0.832 0.822,0.833 0.46,-10e-4 0.846,-0.368 0.846,-0.833 l 0.001,-7.658 c 0,-0.127 -0.086,-0.246 -0.17,-0.342 l -7.208,-8.22 c -0.238,-0.272 -0.363,-0.538 -0.362,-1.003 v -7.853 c 0,-2.666 2.152,-4.82 4.765,-4.82 z m -11.079,0 c 2.613,0 4.766,2.153 4.766,4.818 v 23.438 c 0,2.667 -2.154,4.844 -4.765,4.844 h -2.904 v 7.707 h -6.288 v -40.807"></path>
  </g>
</svg>
