<?xml version="1.0" encoding="UTF-8" standalone="no"?>
<!-- Generator: Adobe Illustrator 25.0.1, SVG Export Plug-In . SVG Version: 6.00 Build 0)  -->
<svg xmlns:inkscape="http://www.inkscape.org/namespaces/inkscape" xmlns:sodipodi="http://sodipodi.sourceforge.net/DTD/sodipodi-0.dtd" xmlns="http://www.w3.org/2000/svg" xmlns:svg="http://www.w3.org/2000/svg" version="1.1" id="Layer_1" x="0px" y="0px" viewBox="0 0 287.55585 73.823657" xml:space="preserve" sodipodi:docname="selgros.svg" width="287.55585" height="73.823654" inkscape:version="1.1 (c4e8f9e, 2021-05-24)"><defs id="defs118"><clipPath id="clipPath1098"><path d="M 0,0 H 289.134 V 172.913 H 0 Z" id="path1096"></path></clipPath></defs>
<style type="text/css" id="style109">
	.st0{fill:#E30613;}
	.st1{fill-rule:evenodd;clip-rule:evenodd;fill:#E30613;}
</style>


<g id="g8" transform="matrix(2.5021356,0,0,2.5021356,5.1311842,1.8962793)" style="fill:#ffffff"><path d="m 87.1856,20.7399 c 0.5489,-0.0338 1.0884,-0.1579 1.5969,-0.3672 l -0.9114,-3.2062 c -0.331,-1.1828 -0.8872,-1.8219 -1.656,-2.0708 v -0.0471 c 0.981,-0.3552 2.1892,-1.4438 2.1892,-2.7684 0,-2.28427 -1.7398,-3.24199 -5.219,-3.24199 -1.239,-0.02094 -2.4775,0.06205 -3.7027,0.2481 V 20.3618 h 2.7217 v -4.5203 h 0.8046 c 1.2775,0 1.8804,0.5321 2.2481,1.8929 l 0.5452,2.0003 c 0.0684,0.3078 0.2471,0.5799 0.5023,0.7651 0.2551,0.1852 0.5693,0.2706 0.8831,0.2401 z m -3.9052,-6.5673 h -1.0765 v -3.2065 c 0.3976,-0.1038 0.8078,-0.1515 1.2186,-0.1418 1.4664,0 2.2356,0.6271 2.2356,1.704 0,1.0648 -0.8755,1.6443 -2.3758,1.6443 z m 11.9151,6.366 c 3.7503,0 5.7865,-2.449 5.7865,-5.9278 0,-3.1236 -1.8824,-5.68008 -5.5742,-5.68008 -3.7736,0 -5.7615,2.54478 -5.7615,5.69258 0,2.9689 1.7749,5.9153 5.5492,5.9153 z m 0.1301,-2.0701 c -1.9995,0 -2.8159,-1.7873 -2.8159,-3.9052 0,-2.1055 0.7926,-3.5614 2.8159,-3.5614 2.0113,0 2.7926,1.6565 2.7926,3.6915 0,2.213 -0.8047,3.7751 -2.7926,3.7751 z M 52.6693,15.6044 h 3.4792 v -2.0939 h -3.4792 v -2.3072 h 3.9286 c 0.7455,0 1.0411,-0.2847 1.0411,-1.33746 0.0023,-0.2533 -0.0134,-0.50645 -0.0471,-0.75752 H 50.0084 V 20.3618 h 7.8448 c 0.0356,-0.251 0.0515,-0.5045 0.0475,-0.7579 0,-1.0649 -0.296,-1.3371 -1.0414,-1.3371 h -4.19 z m 6.8512,4.7574 h 7.6337 c 0.0344,-0.2512 0.0503,-0.5045 0.0475,-0.7579 0,-1.0649 -0.296,-1.3371 -1.0414,-1.3371 h -3.9302 v -8.0574 c 0,-0.98268 -0.6742,-1.27868 -1.4196,-1.27868 -0.4515,-0.01686 -0.8986,0.09397 -1.29,0.31976 z m 46.3595,0.1768 c 3.194,0 4.555,-1.6089 4.555,-3.3958 0,-1.7982 -1.029,-2.6874 -3.36,-3.5022 -1.644,-0.5795 -2.259,-0.7104 -2.259,-1.5501 0,-0.5674 0.486,-1.1002 2.107,-1.1002 0.943,0.0107 1.867,0.2588 2.688,0.7213 0.255,-0.4263 0.416,-0.9024 0.472,-1.3963 -0.003,-0.2255 -0.082,-0.44335 -0.224,-0.61896 -0.141,-0.17561 -0.338,-0.29895 -0.557,-0.35044 -0.943,-0.30473 -1.931,-0.44516 -2.921,-0.41518 -2.899,0 -4.378,1.32618 -4.378,3.14768 0,1.8462 1.208,2.7217 3.336,3.3495 1.811,0.5328 2.272,1.0302 2.272,1.8111 0,0.7454 -0.426,1.2186 -2.165,1.2186 -1.08,-0.0196 -2.137,-0.3218 -3.065,-0.8763 -0.252,0.4818 -0.423,1.0016 -0.508,1.5388 0,0.4966 0.284,0.7459 0.779,0.9581 1.039,0.3551 2.136,0.5116 3.233,0.4616 z m -61.9781,0 c 3.1936,0 4.5568,-1.6089 4.5568,-3.3958 0,-1.7982 -1.0294,-2.6874 -3.3604,-3.5022 -1.6447,-0.5795 -2.2589,-0.7104 -2.2589,-1.5501 0,-0.5674 0.4853,-1.1002 2.1063,-1.1002 0.9421,0.0107 1.8664,0.2587 2.6873,0.7213 0.2561,-0.4261 0.4174,-0.9023 0.4732,-1.3963 C 48.1027,10.0901 48.0242,9.87251 47.8831,9.69694 47.742,9.52137 47.5464,9.39784 47.3273,9.3459 46.3845,9.04132 45.3965,8.90089 44.4062,8.93072 c -2.8988,0 -4.378,1.32618 -4.378,3.14768 0,1.8462 1.2073,2.7217 3.3366,3.3495 1.8106,0.5328 2.2718,1.0302 2.2718,1.8111 0,0.7454 -0.4261,1.2186 -2.1651,1.2186 -1.0806,-0.0196 -2.1372,-0.3218 -3.0648,-0.8763 -0.2523,0.4818 -0.4241,1.0016 -0.5086,1.5388 0,0.4966 0.2839,0.7459 0.7789,0.9581 1.0384,0.3549 2.1341,0.5115 3.2303,0.4616 z m 29.5571,0 c 1.2815,-0.0013 2.5551,-0.2008 3.7756,-0.5916 v -5.8332 h -4.2472 v 1.8816 h 1.7137 v 2.2835 c -0.3664,0.1378 -0.7562,0.2022 -1.1474,0.1896 -2.2952,0 -3.6685,-1.5501 -3.6685,-3.7631 0,-2.1421 1.2783,-3.7035 3.5267,-3.7035 0.9706,0.0107 1.9245,0.2541 2.7816,0.7097 0.2713,-0.5365 0.4428,-1.1179 0.5063,-1.71567 0,-0.3665 -0.2243,-0.66211 -0.733,-0.80427 -0.7147,-0.18628 -1.4515,-0.27407 -2.19,-0.26094 -4.2121,0 -6.7562,2.26088 -6.7562,5.92858 -0.0086,0.7689 0.1414,1.5314 0.4406,2.2398 0.2993,0.7084 0.7415,1.3475 1.2988,1.8773 1.1252,1.0302 2.5811,1.5622 4.699,1.5622 z" fill="#e40521" id="path2" style="fill:#ffffff"></path><path d="m 26.2388,14.7322 c -4.8762,1.5579 -7.0183,1.7063 -7.9331,1.769 -0.1626,0.0045 -0.3245,0.0224 -0.4842,0.0533 -0.2316,0.0646 -0.4444,0.1837 -0.6205,0.3473 -0.1762,0.1636 -0.3106,0.3671 -0.3921,0.5933 -0.007,0.0253 -0.014,0.0557 -0.021,0.0892 -0.0904,0.4113 -0.303,1.3745 -2.9756,1.3745 -0.5734,-0.004 -1.1462,-0.0383 -1.716,-0.1029 -3.99681,-0.4334 -8.7698,-1.8616 -10.23306,-2.5132 1.78613,5.2547 4.995,10.0223 8.52946,10.6209 9.2983,1.5754 23.0097,-9.5842 23.2037,-16.6379 -0.7108,0.8549 -2.8237,2.9573 -7.3576,4.4065 z" fill="#e40521" id="path4" style="fill:#ffffff"></path><path d="m 1.31292,14.5099 0.27613,0.0319 c 2.47461,0.3021 4.96506,0.4559 7.45803,0.4608 2.69142,0.0118 5.37912,-0.1995 8.03562,-0.6318 9.9814,-1.6747 15.3293,-4.95991 16.2999,-5.60177 l 0.005,-0.00311 C 33.3431,8.62434 33.2911,8.48523 33.2318,8.34918 33.1478,8.16342 33.0516,7.98336 32.944,7.81015 h -0.0027 c -1.519,0.7287 -3.8616,1.4021 -6.5965,1.89479 l -2.0202,0.36496 c -4.5495,0.8245 -7.296,1.3207 -8.2732,1.3207 -0.0781,8e-4 -0.1562,-0.0037 -0.2337,-0.0137 C 15.56,11.3348 15.3175,11.2268 15.1136,11.0636 14.9097,10.9003 14.7514,10.6872 14.6539,10.4449 L 14.2466,9.78283 C 13.7854,9.00973 13.3508,8.27946 9.97598,8.21832 5.13287,8.13497 4.41001,7.4752 4.32316,6.91163 4.30834,6.85632 4.30731,6.79821 4.32014,6.7424 4.33297,6.68659 4.35928,6.63478 4.39677,6.59149 4.52763,6.44076 4.79014,6.39246 5.47678,6.39246 c 0.38947,0 0.93162,0.01558 1.61592,0.03583 l 2.48329,0.06115 c 3.02351,0.05842 3.46121,0.11412 4.02091,0.32716 0.7256,0.25975 1.3263,0.78407 1.6818,1.46793 l 0.0105,0.01752 c 0.2387,0.38948 0.3965,0.64575 0.8097,0.66211 0.2563,0.01051 0.6434,0.02687 1.1513,0.02687 C 19.9006,8.96072 22.5369,8.59921 25.0977,7.91492 28.062,7.15388 30.19,6.53968 31.4578,6.15722 24.9886,0.833116 5.72371,-0.506284 2.35047,2.31935 -0.0381675,4.3193 -0.0689355,9.44321 1.30591,14.5099 Z M 4.55178,9.66326 4.61604,9.41945 C 4.73976,9.25576 4.92048,9.14455 5.12236,9.10787 L 5.8277,9.17993 c 0.70611,0.09542 1.75574,0.22784 2.72008,0.27691 l 2.60952,0.03233 0.6574,-0.00623 c 0.4611,0.00389 0.9328,0.07283 0.9398,0.55456 l 0.0031,0.1169 c 0.0074,0.1904 -0.0078,0.2407 -0.1986,0.3852 -0.1145,0.0899 -0.3591,0.1059 -0.83,0.1059 -0.1706,0 -0.3766,-0.0023 -0.6154,-0.005 H 11.04 L 9.12576,10.6284 c -1.26892,0.02 -2.53741,-0.061 -3.79347,-0.2423 L 5.31203,10.3834 5.16637,10.3624 C 5.00698,10.3528 4.85696,10.2839 4.74587,10.1692 4.63478,10.0545 4.57067,9.90233 4.56619,9.74272 L 4.54983,9.66989 Z M 4.12336,12.2599 c 0.03538,-0.1275 0.10237,-0.2441 0.19475,-0.3388 0.09238,-0.0948 0.20718,-0.1647 0.33376,-0.2034 h 0.0039 0.0035 l 0.50632,0.0631 c 1.09295,0.2246 2.20645,0.3338 3.32221,0.326 0.15929,0 0.32209,0 0.48412,-0.0054 1.30398,0.0175 2.60328,-0.1581 3.85578,-0.5211 0.0105,-0.0032 0.2555,-0.0748 0.3081,-0.0869 0.1396,-0.0401 0.2833,-0.0637 0.4284,-0.0705 0.1171,-0.0046 0.2325,0.0293 0.3284,0.0966 0.096,0.0672 0.1672,0.1641 0.2028,0.2757 0.023,0.0566 0.042,0.1146 0.0569,0.1737 0.0258,0.0815 0.0334,0.1676 0.0222,0.2523 -0.0113,0.0847 -0.041,0.1658 -0.0872,0.2377 -0.2045,0.4261 -0.8841,0.7279 -3.7483,1.0056 -0.39457,0.039 -0.80391,0.0577 -1.21675,0.0577 C 7.4808,13.5483 5.85021,13.2516 4.32316,12.649 4.25334,12.6132 4.19652,12.5564 4.16074,12.4866 4.12495,12.4168 4.11163,12.3375 4.12336,12.2599 Z" fill="#e40521" id="path6" style="fill:#ffffff"></path></g></svg>
