<?xml version="1.0" encoding="UTF-8" standalone="no"?>
<!-- Generator: Adobe Illustrator 25.2.1, SVG Export Plug-In . SVG Version: 6.00 Build 0)  -->
<svg xmlns:inkscape="http://www.inkscape.org/namespaces/inkscape" xmlns:sodipodi="http://sodipodi.sourceforge.net/DTD/sodipodi-0.dtd" xmlns="http://www.w3.org/2000/svg" xmlns:svg="http://www.w3.org/2000/svg" version="1.1" id="Warstwa_1" x="0px" y="0px" viewBox="0 0 265.5 73.699996" xml:space="preserve" sodipodi:docname="spar.svg" width="265.5" height="73.699997" inkscape:version="1.1 (c4e8f9e, 2021-05-24)"><defs id="defs933"></defs>
<style type="text/css" id="style922">
	.st0{fill:#D91F16;}
	.st1{fill:#FFC800;}
</style>

<g id="g50703" transform="matrix(0.30170835,0,0,0.30170835,22.351811,66.929792)"><path inkscape:connector-curvature="0" id="path46293" style="fill:#ec1b24;fill-rule:nonzero;stroke:none" d="m -246.37027,-177.16042 810.1575,-0.008 v 154.83825 l -810.1575,0.0077 v -154.83825"></path><path inkscape:connector-curvature="0" id="path46321" style="fill:#ffffff;fill-rule:nonzero;stroke:none" d="m 329.54003,-149.32108 c 6.97136,0 11.29495,2.57124 17.81474,10.89701 l 48.47786,69.36886 c 2.57883,3.63484 2.3263,9.42003 -2.11974,13.17738 -3.94095,3.32874 -10.91225,3.63485 -14.69256,-1.36211 l -11.60099,-16.05474 h -76.35546 l -11.58569,16.35313 c -4.08636,4.85162 -9.09103,4.85162 -13.6289,1.82128 -4.72153,-3.14514 -5.91529,-9.23644 -3.03034,-13.4835 l 48.9293,-69.8203 c 6.21375,-8.63187 11.12659,-10.89701 17.79178,-10.89701 z m 2.90025,25.67375 c -1.27794,-1.87485 -1.75234,-2.05086 -3.11446,-2.05086 -1.52283,0 -2.11974,0.75761 -3.15279,2.14269 -1.66823,2.22687 -21.10527,30.87734 -21.3272,30.87734 h 49.09001 c -0.0918,0 -18.78657,-26.95934 -21.49556,-30.96917"></path><path inkscape:connector-curvature="0" id="path46349" style="fill:#ffffff;fill-rule:nonzero;stroke:none" d="M -1.1192345,-149.20629 H 68.716375 c 17.32502,0 18.91672,19.94213 18.91672,19.94213 H 1.7121355 c -4.25471,0 -8.20332,3.21401 -8.20332,8.80023 0,6.37445 4.84397,9.40479 7.89728,9.40479 H 62.127705 c 12.02955,0 29.14789,10.01695 29.14789,27.31896 0,22.45974 -19.88849,30.44119 -26.81394,30.44119 H -6.5830145 c -21.1129305,0 -19.9421305,-20.12579 -19.9421305,-20.12579 h 88.04829 c 3.52012,0 8.7084,-3.48945 8.7084,-8.7084 0,-4.98166 -4.55311,-8.80023 -7.89721,-8.80023 H 2.8294355 c -16.8811705,0 -29.9590805,-12.53456 -29.9590805,-29.53052 0,-19.12329 16.41436,-28.74236 26.0104105,-28.74236"></path><path inkscape:connector-curvature="0" id="path46377" style="fill:#ffffff;fill-rule:nonzero;stroke:none" d="m 446.51446,-149.33638 h 72.11606 c 10.92761,0 27.8776,8.93032 27.8776,30.28813 v 1.36212 c 0,11.37142 -7.12436,21.35782 -17.11835,26.20179 0,0 0.7193,1.09427 16.20774,22.10771 2.00494,2.71659 2.11973,9.24409 -2.27273,13.17739 -4.1859,3.75729 -11.17251,4.23176 -14.69262,0.15305 -4.92044,-5.69336 -10.60615,-13.17738 -26.20938,-33.01237 h -28.18371 c -8.02737,0 -18.93197,-6.3668 -18.93197,-20.44714 h 60.89763 c 3.30585,-0.13775 8.60892,-3.30584 8.60892,-9.52724 0,-5.75458 -5.09651,-9.69554 -8.63953,-9.69554 H 448.9097 l 0.0536,63.75197 c 0.008,6.96364 -5.32609,11.65456 -11.08067,11.65456 -5.45612,0 -10.9046,-4.84397 -10.9046,-11.35611 v -64.96874 c 0,-10.91231 11.50916,-19.68958 19.53647,-19.68958"></path><path inkscape:connector-curvature="0" id="path46405" style="fill:#ffffff;fill-rule:nonzero;stroke:none" d="m 149.28829,-149.17574 h 72.11605 c 10.92762,0 27.8776,8.93798 27.8776,30.28814 v 1.36212 c 0,11.37906 -7.1167,21.35775 -17.11834,26.20172 0,0 -5.17304,1.66823 -10.01695,2.28044 h -45.30211 c -8.02737,0 -18.32747,-6.5122 -18.32747,-20.60025 h 60.29313 c 3.30584,-0.13769 8.77727,-3.00739 8.77727,-9.22872 0,-5.75459 -5.09651,-9.6956 -8.63952,-9.6956 l -67.24912,-0.008 0.0383,63.75961 c 0.008,6.96371 -5.32609,11.65463 -11.08067,11.65463 -5.45613,0 -10.9046,-4.84398 -10.9046,-11.35617 v -64.96868 c 0,-10.91232 11.50916,-19.68959 19.53647,-19.68959"></path><path inkscape:connector-curvature="0" id="path46433" style="fill:#157946;fill-rule:nonzero;stroke:none" d="m 602.40113,-97.65982 c 0,29.71418 14.96041,56.3215 41.31518,69.33818 24.77079,12.23617 57.77547,12.23617 82.62277,0 24.5029,-12.06781 41.2387,-39.624 41.2387,-69.33818 0,-45.44752 -36.3565,-82.59216 -82.5921,-82.59216 -46.44234,0 -82.58455,36.85384 -82.58455,82.59216"></path><path inkscape:connector-curvature="0" id="path46461" style="fill:#ffffff;fill-rule:nonzero;stroke:none" d="m 685.03148,-158.84072 c -8.3105,28.18377 -33.08124,69.48364 -51.14851,89.73181 h 42.83801 l 0.0995,12.27444 c -0.0995,6.95599 -5.63216,14.17989 -13.68249,14.0804 -11.18775,-0.13009 -25.17632,-5.30313 -33.63218,-19.65132 -6.16017,-10.46846 -10.62916,-18.71776 -10.62916,-35.25455 0,-36.12684 29.10197,-66.06296 66.11653,-66.06296 36.609,0 66.1166,30.80846 66.1166,66.06296 0,16.53679 -7.7213,30.83913 -10.2695,34.96375 -9.0375,14.63899 -22.8041,19.81203 -33.4562,19.94212 -7.3463,0.09183 -14.1187,-5.30313 -14.1187,-14.11867 v -12.23617 h 43.4962 c -18.7254,-20.24817 -43.4962,-61.54804 -51.7301,-89.73181"></path></g></svg>
