<?xml version="1.0" encoding="UTF-8" standalone="no"?>
<!-- Generator: Adobe Illustrator 25.0.1, SVG Export Plug-In . SVG Version: 6.00 Build 0)  -->
<svg xmlns:inkscape="http://www.inkscape.org/namespaces/inkscape" xmlns:sodipodi="http://sodipodi.sourceforge.net/DTD/sodipodi-0.dtd" xmlns="http://www.w3.org/2000/svg" xmlns:svg="http://www.w3.org/2000/svg" version="1.1" id="Layer_1" x="0px" y="0px" viewBox="0 0 290.55585 73.823657" xml:space="preserve" sodipodi:docname="super-pharm.svg" width="290.55585" height="73.823654" inkscape:version="1.1 (c4e8f9e, 2021-05-24)"><defs id="defs118"></defs>
<style type="text/css" id="style109">
	.st0{fill:#E30613;}
	.st1{fill-rule:evenodd;clip-rule:evenodd;fill:#E30613;}
</style>


<g id="g167" transform="matrix(1.8169804,0,0,1.8169804,18.650938,4.6649674)"><g id="g119"><g id="g109"><path fill="#e31837" d="m 115.798,35.495 c -5.156,0 -9.338,-2.767 -9.338,-7.731 0,-4.23 1.858,-6.5 1.75,-10.749 -0.095,-3.68 -1.66,-5.305 -1.75,-9.284 C 106.36,3.465 110.642,0 115.798,0 h 14.244 c 5.156,0 9.44,3.465 9.338,7.731 -0.096,3.98 -1.661,5.604 -1.75,9.284 -0.108,4.248 1.75,6.519 1.75,10.749 0,4.964 -4.182,7.73 -9.338,7.73 z" id="path107"></path></g><g id="g113"><path fill="#ffffff" d="m 129.474,22.32 c 0.508,0.479 2.157,1.662 2.683,2.552 1.236,2.085 -0.323,2.88 -2.611,3.453 0,0 -4.11,0.7 -7.271,0.681 -4.188,-0.03 -11.19,-0.603 -9.643,-4.439 1.057,-2.623 6.124,-3.136 6.566,-3.07 0.496,0.083 0.388,0.43 -0.37,0.764 -4.738,2.677 0.52,2.784 0.52,2.784 l 5.765,0.042 c 0.639,-0.09 -0.102,-0.562 -0.18,-0.651 l -7.76,-6.405 c -0.867,-0.8 -2.946,-2.874 -3.298,-3.734 -0.717,-2.444 3.178,-3.065 8.394,-3.149 4.266,-0.071 9.953,0.012 10.85,2.223 1.045,2.61 -3.137,4.911 -6.405,5.335 -0.418,0.054 -0.52,0.084 -0.759,-0.095 -0.478,-0.347 0.83,-0.777 1.16,-0.98 4.181,-2.378 -1.148,-2.408 -1.148,-2.408 0,0 -4.02,-0.054 -5.377,-0.018 -0.269,0.006 -0.514,0.036 -0.323,0.215 0.359,0.347 0.508,0.448 0.86,0.711 l 8.347,6.19" id="path111"></path></g><g id="g117"><path fill="#ffffff" d="m 121.886,5.843 1.482,-0.83 c 1.774,-1.004 3.704,-1.004 4.302,-0.006 0.597,0.997 -0.359,2.622 -2.133,3.62 l -1.482,0.83 c -1.78,1.004 -3.71,1.004 -4.308,0.007 -0.597,-0.998 0.359,-2.623 2.14,-3.62" id="path115"></path></g></g><g id="g165"><g id="g123"><path fill="#17479e" d="m 4.618,12.994 c 1.769,0 3.49,0.442 4.272,2.288 l -2.342,0.645 c -0.358,-0.872 -0.944,-1.1 -1.834,-1.1 -0.717,0 -1.434,0.162 -1.434,0.765 0,0.634 1.075,0.771 1.512,0.83 0.89,0.162 2.097,0.341 2.891,0.784 0.914,0.501 1.482,1.284 1.482,2.228 0,0.926 -0.532,1.804 -1.398,2.36 C 6.865,22.38 5.646,22.553 4.541,22.553 2.706,22.553 0.586,21.979 0,19.87 l 2.533,-0.478 c 0.359,1.07 1.225,1.303 2.229,1.303 0.758,0 1.625,-0.24 1.625,-0.896 0,-0.705 -1.339,-0.849 -1.846,-0.944 -1.93,-0.323 -3.944,-0.813 -3.944,-2.886 0,-0.884 0.419,-1.655 1.22,-2.217 0.824,-0.567 1.786,-0.758 2.801,-0.758" id="path121"></path></g><g id="g127"><path fill="#17479e" d="M 16.239,13.49 H 18.7 v 5.388 c 0,1.034 0,2.014 -0.902,2.737 -0.884,0.723 -2.175,0.938 -3.358,0.938 -1.129,0 -2.45,-0.138 -3.333,-0.765 C 10.001,21.005 9.96,19.954 9.96,18.878 V 13.49 h 2.634 v 5.39 c 0,0.394 -0.012,0.967 0.221,1.308 0.305,0.424 1.19,0.55 1.799,0.55 0.502,0 1.063,-0.126 1.35,-0.443 0.323,-0.37 0.275,-0.962 0.275,-1.416 V 13.49" id="path125"></path></g><g id="g131"><path fill="#17479e" d="m 22.171,15.085 h 1.476 c 0.472,0 1.004,0 1.422,0.256 0.37,0.234 0.556,0.622 0.556,0.992 0,0.305 -0.12,0.61 -0.377,0.843 -0.466,0.412 -1.01,0.406 -1.583,0.406 h -1.494 z m 1.697,4.092 c 1.1,0 2.14,0.024 3.095,-0.627 a 2.741,2.741 0 0 0 1.195,-2.294 c 0,-0.944 -0.508,-1.721 -1.434,-2.259 -0.92,-0.514 -1.918,-0.508 -2.94,-0.508 h -4.122 v 8.938 h 2.677 v -3.25 z" id="path129"></path></g><g id="g135"><path fill="#17479e" d="m 36.714,13.49 v 1.87 h -5.162 v 1.607 h 4.863 v 1.816 h -4.863 v 1.774 h 5.162 v 1.87 H 28.88 V 13.49 Z" id="path133"></path></g><g id="g139"><path fill="#17479e" d="m 43.584,15.222 c 0.383,0.191 0.657,0.586 0.657,0.974 0,0.412 -0.239,0.848 -0.675,1.07 -0.478,0.226 -1.051,0.19 -1.571,0.19 H 40.537 V 15.05 h 1.398 c 0.49,0 1.201,-0.054 1.65,0.173 z m 0.454,7.205 H 47.02 L 45.012,18.52 c 1.135,-0.376 1.828,-1.302 1.828,-2.312 0,-0.89 -0.508,-1.775 -1.41,-2.265 -0.848,-0.442 -1.84,-0.454 -2.79,-0.454 h -4.606 v 8.938 h 2.67 v -3.465 h 1.691 z" id="path137"></path></g><g id="g143"><path fill="#17479e" d="m 56.382,19.177 h -1.53 v 3.25 h -2.67 V 13.49 h 4.122 c 1.016,0 2.02,-0.006 2.94,0.508 0.925,0.538 1.433,1.315 1.433,2.259 0,0.854 -0.376,1.726 -1.195,2.294 -0.956,0.651 -1.995,0.627 -3.1,0.627 z m -1.53,-3.925 v 2.163 h 1.327 c 0.525,0 1.051,0.012 1.475,-0.365 a 0.946,0.946 0 0 0 0.317,-0.717 1,1 0 0 0 -0.478,-0.848 c -0.376,-0.24 -0.896,-0.233 -1.332,-0.233 z" id="path141"></path></g><g id="g147"><path fill="#17479e" d="m 67.261,13.49 h 2.67 v 8.937 h -2.67 v -3.62 h -3.148 v 3.62 H 61.436 V 13.49 h 2.677 v 3.424 h 3.148 z" id="path145"></path></g><g id="g151"><path fill="#17479e" d="m 73.983,13.49 h 3.023 l 3.43,8.937 h -2.624 l -0.657,-1.804 h -3.358 l -0.675,1.804 H 70.47 Z m 1.511,2.598 -1.021,2.755 h 2.043 z" id="path149"></path></g><g id="g155"><path fill="#17479e" d="m 84.94,15.216 c 0.454,0 1.17,-0.054 1.577,0.155 0.335,0.168 0.568,0.514 0.568,0.825 0,0.352 -0.203,0.729 -0.58,0.92 -0.448,0.21 -1.021,0.167 -1.5,0.167 H 83.71 v -2.067 z m 2.109,7.211 h 2.975 L 88.023,18.52 c 1.129,-0.376 1.822,-1.302 1.822,-2.312 0,-0.89 -0.502,-1.775 -1.404,-2.265 -0.848,-0.442 -1.846,-0.454 -2.796,-0.454 h -4.606 v 8.938 h 2.67 v -3.465 h 1.697 z" id="path153"></path></g><g id="g159"><path fill="#17479e" d="m 93.824,16.291 v 6.136 H 91.386 V 13.49 h 4.07 l 1.893,5.037 2.3,-5.037 h 3.609 v 8.938 h -2.259 v -5.962 l -2.766,5.962 h -2.067 z" id="path157"></path></g><g id="g163"><path fill="#17479e" d="m 47.545,18.974 h 3.298 v -1.745 h -3.298 z" id="path161"></path></g></g></g></svg>
