<?xml version="1.0" encoding="UTF-8" standalone="no"?>
<svg xmlns:inkscape="http://www.inkscape.org/namespaces/inkscape" xmlns:sodipodi="http://sodipodi.sourceforge.net/DTD/sodipodi-0.dtd" xmlns="http://www.w3.org/2000/svg" xmlns:svg="http://www.w3.org/2000/svg" viewBox="0 0 90.4 35.099998" version="1.1" id="svg842" sodipodi:docname="takko-fashion.svg" width="90.400002" height="35.099998" inkscape:version="1.1 (c4e8f9e, 2021-05-24)">
  <defs id="defs846">
    <clipPath id="clipPath199">
      <path d="M 112.015,688.512 H 398.221 V 801.104 H 112.015 Z" id="path197"></path>
    </clipPath>
    <clipPath id="clipPath199-6">
      <path d="M 112.015,688.512 H 398.221 V 801.104 H 112.015 Z" id="path197-1"></path>
    </clipPath>
  </defs>
  <g id="TakkoLogo_Schriftzug_schwarz_rgb" transform="translate(-41.595774,-57.600103)">
    <g id="Gruppe_15" data-name="Gruppe 15" transform="translate(44.34,61.31)">
      <path id="Pfad_65" data-name="Pfad 65" d="m 147.2,69.27 v 0.013 a 5.327,5.327 0 1 1 0,-0.013 m 2.745,7.486 V 61.8 h -2.923 v 0.91 c 0,0.367 0.064,1.052 0.064,1.052 h -0.152 a 6.1,6.1 0 0 0 -4.85,-2.44 7.96,7.96 0 1 0 0,15.919 6.272,6.272 0 0 0 4.85,-2.442 h 0.152 c 0,0 -0.065,0.724 -0.064,1.054 0,0.578 0,0.91 0,0.91 h 2.923 z" transform="translate(-118.211,-61.318)" fill="#a90230"></path>
      <path id="Pfad_66" data-name="Pfad 66" d="m 52.724,66.918 h 4.7 l 0.34,-2.748 H 44.34 v 2.748 h 5.38 v 12.21 h 3 z" transform="translate(-44.34,-63.691)" fill="#a90230"></path>
      <path id="Pfad_67" data-name="Pfad 67" d="m 260.167,64.17 h -2.877 v 14.959 h 2.877 V 73.2 l 0.99,-0.99 5.68,6.921 h 3.741 l -7.378,-8.76 6.278,-6.2 h -3.69 l -5.621,5.629 h -0.111 a 2.072,2.072 0 0 0 0.111,-0.793 z" transform="translate(-219.689,-63.691)" fill="#a90230"></path>
      <path id="Pfad_68" data-name="Pfad 68" d="m 446.994,69.269 a 5.117,5.117 0 1 1 -5.113,-5.324 5.29,5.29 0 0 1 5.113,5.324 m 2.878,0 a 7.991,7.991 0 1 0 -7.991,7.96 7.868,7.868 0 0 0 7.991,-7.96" transform="translate(-364.961,-61.31)" fill="#a90230"></path>
      <path id="Pfad_69" data-name="Pfad 69" d="m 355.187,64.17 h -2.877 v 14.959 h 2.877 V 73.2 l 0.99,-0.99 5.68,6.921 h 3.743 l -7.375,-8.758 6.279,-6.2 h -3.69 l -5.627,5.627 h -0.111 a 2.072,2.072 0 0 0 0.111,-0.793 z" transform="translate(-297.93,-63.691)" fill="#a90230"></path>
    </g>
    <g id="Gruppe_16" data-name="Gruppe 16" transform="translate(58.914,82.816)">
      <path id="Pfad_70" data-name="Pfad 70" d="m 170.971,188.6 h 1.054 v -4.577 h 0.015 l 2.812,4.577 h 1.339 v -5.924 h -1.056 v 4.434 h -0.017 l -2.752,-4.434 h -1.4 z m -9.157,-2.978 a 2.042,2.042 0 1 1 2.033,2.184 2.028,2.028 0 0 1 -2.033,-2.184 m -1.145,0 a 3.183,3.183 0 0 0 6.365,0 3.184,3.184 0 0 0 -6.365,0 m -5.205,2.978 h 1.054 v -5.924 h -1.054 z m -9.633,0 h 1.054 v -2.626 h 2.769 v 2.626 h 1.056 v -5.924 h -1.056 v 2.393 h -2.769 v -2.393 h -1.054 z m -4.635,-5.438 a 2.6,2.6 0 0 0 -1.723,-0.633 c -1.071,0 -2.167,0.535 -2.167,1.741 0,1.1 0.778,1.455 1.5,1.679 0.744,0.236 1.364,0.412 1.364,1.031 0,0.637 -0.576,0.878 -1.071,0.878 a 1.69,1.69 0 0 1 -1.3,-0.652 l -0.752,0.7 a 2.7,2.7 0 0 0 2.033,0.846 1.918,1.918 0 0 0 2.159,-1.892 c 0,-1.161 -0.97,-1.5 -1.731,-1.733 -0.67,-0.208 -1.13,-0.367 -1.13,-0.91 0,-0.578 0.561,-0.813 1.046,-0.813 a 1.45,1.45 0 0 1 1.088,0.511 z m -11.753,3.179 0.928,-2.408 0.912,2.408 z m -2.075,2.259 h 1.18 l 0.536,-1.356 h 2.569 l 0.553,1.356 h 1.2 l -2.552,-5.924 h -0.912 z m -6.938,0 h 1.054 v -2.492 h 2.616 v -0.887 h -2.611 V 183.6 h 2.769 v -0.92 h -3.828 z" transform="translate(-120.43,-182.53)" fill="#a90230"></path>
    </g>
  </g>
</svg>
