<?xml version="1.0" encoding="UTF-8"?>
<svg xmlns="http://www.w3.org/2000/svg" xmlns:v="https://vecta.io/nano" height="147.935" width="147.935">
  <g transform="matrix(.254527 0 0 .254527 4.316358 11.22657)">
    <circle cx="283.9" cy="246.3" r="242.5" fill="#ffec00"></circle>
    <circle cx="283.9" cy="246.5" r="230.5" fill="#8fbbe0"></circle>
    <circle cx="283.9" cy="246.3" r="222.4" fill="#007bc1"></circle>
    <g fill="#1a171b">
      <path d="M284 8c64.5 0 124.3 23.8 168.5 66.9 22 21.5 39.2 46.8 51.1 75.3 12.5 29.8 18.8 62.2 18.8 96.2 0 32.2-6.3 63.4-18.7 92.8-12 28.4-29.2 53.9-51.1 75.8s-47.4 39.1-75.8 51.1C347.4 478.7 316.2 485 284 485h-.1c-32.2 0-63.4-6.3-92.8-18.7-28.4-12-53.9-29.2-75.8-51.1s-39.1-47.4-51.1-75.8c-12.4-29.4-18.8-60.6-18.8-92.8s6.3-63.4 18.7-92.8c12-28.4 29.2-53.9 51.1-75.8 21.9-22 47.4-39.2 75.8-51.2C220.4 14.3 251.7 8 284 8m-.1-8C147.7 0 37.4 110.4 37.4 246.6 37.5 382.7 147.8 493 283.9 493h.1c136.1 0 246.5-110.4 246.4-246.6C530.4 102.3 419.7 0 283.9 0"></path>
      <path d="M150.9 216.8l1.2-60.9c0-.5-.2-.9-.5-1.2l-2.8-2.7-3.4-3.3c-.3-.3-.7-.5-1.2-.5L3 148.1c-.5 0-.9.2-1.2.5s-.5.8-.5 1.2l-1.2 61c0 .5.3 1 .6 1.3l-.1-.1 6.1 6c.3.3.7.5 1.2.5h29.2l-2.3 117.6c0 .5.2 1 .6 1.3l-.1-.1 6.1 6c.3.3.7.5 1.2.5h67c.9 0 1.7-.8 1.7-1.7l2.4-123.6h35.5c.5 0 .9-.2 1.2-.5.3-.2.5-.7.5-1.2m-46.8-5.9l-2.5 123.6H44.4l2.3-117.6c0-.5-.2-.9-.5-1.2l-6.1-6c-.3-.3-.7-.5-1.2-.5H9.6l1-51.5h131.6l-1 51.5h-35.5c-.8-.1-1.6.7-1.6 1.7m-63.4-.4v-.2c-.1.1-.1.1 0 .2m-.1-.3c0-.1-.1-.1-.1-.2 0 .1 0 .1.1.2m-.2-.3l-.1-.1s.1 0 .1.1M145.7 149l-.1-.1c.1 0 .1 0 .1.1m.3.6v-.1.1m-.1-.4s0-.1-.1-.1c0 .1.1.1.1.1M.9 212.4c-.1 0-.1-.1-.2-.1.1 0 .2 0 .2.1m.4.1c-.1 0-.1 0-.2-.1 0 .1.1.1.2.1m.1 0h.3c-.1.1-.2.1-.3 0m34.7 125.3h.3c-.1.1-.2 0-.3 0m-.6-.2l.1.1c0-.1-.1-.1-.1-.1m.3.1c.1 0 .1 0 .2.1-.1 0-.2 0-.2-.1m251-129.5c.4 0 .8-.2 1.2-.5.3-.3.5-.8.5-1.2l1-50.5c0-.5-.2-.9-.5-1.2l-6.1-6c-.3-.3-.8-.5-1.2-.5l-126.2-.1c-.9 0-1.7.8-1.7 1.7l-3.7 186.2c0 .6.2 1.1.7 1.4-.1 0-.1-.1-.2-.1l1.8 1.8 4.3 4.2c.3.3.7.5 1.2.5h126c.4 0 .8-.2 1.2-.5.3-.3.5-.8.5-1.2l1-50.5c0-.5-.2-1-.5-1.3l-6.1-5.9c-.3-.3-.7-.5-1.2-.5h-52.4l.2-10.1h51.7c.4 0 .8-.2 1.2-.5.3-.3.5-.8.5-1.2l1-47.7c0-.5-.2-.9-.5-1.2l-6.1-5.9c-.3-.3-.7-.5-1.2-.5h-45.4l.2-8.6zm-68.5-7.7l-.4 18c0 .6.3 1 .7 1.4l-.1-.1 6.1 6c.3.3.7.5 1.2.5h45.4l-.8 38.2h-51.7c-.9 0-1.7.8-1.7 1.7l-.4 19.5c0 .5.2 1 .6 1.3l-.1-.1 6.1 6c.3.3.7.5 1.2.5h52.4l-.8 41.1H159.7l3.5-176.8h116.4l-.8 41.1H220c-.8 0-1.6.7-1.7 1.7m1.4 19.7h-.3.3m-.5-.1c-.1 0-.1 0-.2-.1.1.1.2.1.2.1m-.3-.1c-.1 0-.1-.1-.2-.1.1 0 .1.1.2.1m-.6 67.4h-.4.4m-.4-.1c-.1 0-.2 0-.2-.1 0 .1.1.1.2.1m-.3-.1c-.1 0-.1-.1-.2-.1 0 0 .1.1.2.1m-66.2 50.7h.4-.4m-.6-.3c.1 0 .1.1.2.1-.1 0-.1 0-.2-.1m.3.2c.1 0 .1 0 .2.1-.1-.1-.1-.1-.2-.1m129.1-53.1s0-.1 0 0c0-.1 0 0 0 0m.3.6s-.1 0 0 0c-.1 0 0 0 0 0m-.1-.3s-.1-.1 0 0c-.1-.1 0 0 0 0m-5.9-67.5s0-.1 0 0c0-.1 0 0 0 0m.2.3s-.1-.1 0 0c-.1-.1 0 0 0 0m124.6 3.8l-5.8-5.7-.3-.3 1.2 1.2c-2.3-2.6-5.1-4.7-8.4-6.4-6.6-3.4-15-4.9-25.1-4.9H358c-1 0-1.8.8-1.8 1.7l-1.4 72.1c0 .5.2.9.5 1.2l6.1 6c.3.3.8.5 1.3.5 15-.3 26.3-3 34.1-9.2 3.9-3.1 6.8-7.1 8.7-11.8 1.9-4.8 2.9-10.4 3.1-16.9v-1.2c0-6.1-.8-11.4-2.6-16-1.5-4-3.8-7.4-6.7-10.3m-.3 21.7c-.1 6.2-1.1 11.3-2.8 15.6-2.6 6.4-7 10.9-13.5 14-4.8 2.3-10.9 3.7-18.2 4.4l1.2-62.3h1.1c11.6 0 22.1 2.4 26.4 6.4 1.6 1.9 2.5 3.7 3.4 5.9 1.6 4.1 2.4 9.1 2.3 14.8.1.4.1.8.1 1.2m-2.9-24.3c.5.6.9 1.3 1.3 1.9-.4-.6-.8-1.3-1.3-1.9m1.5 2.3c.4.7.8 1.3 1.1 2-.3-.6-.7-1.3-1.1-2m-1.6-2.5a11.51 11.51 0 0 0-1.4-1.7l1.4 1.7m80.5 28.6c.1-25.5-9.2-48.2-26.3-64.9l-6.1-6s.1.1.1.2c-6.6-6.4-14.3-12-23.1-16.5-17.5-8.8-41.8-11.9-74.2-11.9h-54.2c-.9 0-1.7.8-1.7 1.7l-3.7 186.2c0 .5.2 1 .6 1.4l-.1-.1 6.1 6c.3.3.7.5 1.2.5h49.2l13.1-.1c31-.5 56.3-3.7 78.3-18.7 25.5-17.2 40.2-44.7 40.8-75.9v-1.9m-9.6-4.1c-.6 30.2-14.6 56.4-39.2 73-21.1 14.4-45.5 17.5-76.4 18.1-4.2.1-8.6.1-13.1.1H297l3.5-176.8h52.4c32.2 0 56.1 3.2 72.7 11.6 7.1 3.6 13.5 8 19 12.9 14.5 15.7 22.3 36.2 22.3 59.3.1.6.1 1.2 0 1.8m-40.4-76c.6.3 1.1.7 1.7 1.1-.6-.4-1.1-.8-1.7-1.1m2.9 1.8c.5.4 1 .7 1.6 1.1-.6-.4-1.1-.8-1.6-1.1m2.7 1.9c.5.4 1 .7 1.5 1.1-.5-.4-1-.8-1.5-1.1m2.6 1.9c.5.4 1 .8 1.4 1.2-.5-.4-1-.8-1.4-1.2m2.5 2.1c.5.4 1 .8 1.4 1.2-.5-.4-1-.8-1.4-1.2m2.3 2c.5.5 1 .9 1.5 1.4-.5-.4-1-.9-1.5-1.4m-17-12.1c-1-.5-2-1.1-3-1.6 1 .5 2 1 3 1.6m2.9 1.7c-.6-.4-1.3-.7-1.9-1.1.6.3 1.3.7 1.9 1.1M288.7 337.9h.3-.3m-.6-.2c.1 0 .1.1.2.1-.1-.1-.2-.1-.2-.1m.2.1c.1 0 .1 0 .2.1 0-.1-.1-.1-.2-.1m258.9-153.9v-.8c0-8.4-2.6-15.5-7.8-20.6l-6.1-6 .4.4-.6-.6c-5.4-5.1-13.3-7.8-23.5-7.9h-1c-10.1.2-18 3.1-23.5 8.3s-8.3 12.6-8.5 21.1v.7c0 8.5 2.8 16 8.2 21.1-.1-.1-.2-.1-.2-.2.9.9 1.8 1.8 2.8 2.7 1.1 1.1 2.2 2.2 3.4 3.3.1.1.2.1.2.2 1.2 1.1 2.5 2.2 4 3.1h-14.4c-1 0-1.7.8-1.8 1.7L476.3 333c0 .5.2.9.5 1.2l6.1 6c.3.3.8.5 1.2.5H540c.9 0 1.7-.8 1.7-1.7l2.5-122.6c0-.5-.1-.9-.5-1.2l-6.1-6c-.3-.3-.8-.5-1.2-.5h-2.2c1.7-1 3.2-2.2 4.6-3.6 5.4-5.1 8.2-12.6 8.4-21.2m-56.8 15.9c-2.8-4.1-4.3-9.2-4.2-15.2v-.7c.2-7.9 2.7-14.2 7.4-18.7s11.7-7.1 21.1-7.3h.9c7.6 0 13.6 1.6 18 4.5 2.7 4 4 9 4 14.9v.7c-.2 7.9-2.7 14.4-7.4 18.9-4.7 4.6-11.6 7.4-21 7.5h-.9c-7.4.1-13.4-1.6-17.9-4.6m-4.5 131.6l2.3-113.2h46.2l-2.3 113.2z"></path>
    </g>
    <path d="M479.7 331.4l52.4.1 2.4-119.2h-52.4zM3.5 209.1H39c.1 0 .2.2.4.3.1.1.3.2.4.4l.4.4.6.6v.1l-2.4 123.6h63.4l2.5-123.6c0-1 .8-1.7 1.8-1.7h35.5l1.2-57.5H4.9zm35.8 0h.1c0 .1 0 .1-.1 0m.4.1s.1 0 .1.1c-.1 0-.1 0-.1-.1m.2.2l.1.1s0-.1-.1-.1m113.6 125H276l.9-47.1h-58.6l-1.8-1.7h0l.4-19.5c0-.9.8-1.7 1.8-1.7h51.6l.9-44.2h-51.6l-1.8-1.7h0l.4-18c0-1 .8-1.7 1.8-1.7h58.8l.9-47.1H157zm63.5-47.6l.1.1c0-.1 0-.1-.1-.1m-.2-.5c0-.1 0-.1-.1-.2 0 .1 0 .2.1.2m.1.3c0-.1-.1-.1-.1-.2.1.1.1.2.1.2m1.5-67l.1.1c-.1 0-.1-.1-.1-.1m-.3-.5v-.1.1m.2.3s0-.1-.1-.1c0 0 0 .1.1.1m201.2-56.1c-16.6-8.4-40.5-11.6-72.7-11.6h-52.4l-3.6 182.8h47.5l13.1-.1c30.9-.5 55.3-3.7 76.4-18.1 24.6-16.6 38.6-42.8 39.2-73v-1.8c0-34.1-16.9-62.6-47.5-78.2m-64.4 117.1c.1.1.1.2.2.3-.1-.1-.2-.2-.2-.3m-.2-.4c0 .1.1.2.1.2s-.1-.1-.1-.2m47.6-36.7c-.1 6.5-1.1 12.1-3.1 16.9s-4.9 8.8-8.7 11.8c-7.7 6.2-19 8.9-34.1 9.2l-1.8-1.7a.9.9 0 0 0 .1.5c0-.2-.1-.3-.1-.5l1.4-72.1c0-1 .8-1.7 1.8-1.7h2.9c10.2 0 18.6 1.6 25.1 4.9 6.6 3.4 11.3 8.6 13.9 15.5 1.7 4.6 2.6 10 2.6 16v1.2m128.1-84.4c-4.6-4.3-11.6-6.9-21.2-6.9h-.9c-9.4.2-16.4 2.9-21.1 7.3-4.7 4.5-7.2 10.8-7.4 18.7v.7c0 7.8 2.5 14.2 7.2 18.7s11.8 7.2 21.3 7.2h.9c9.3-.2 16.3-3 21-7.5 4.7-4.6 7.2-11 7.4-18.9v-.7c-.2-8.1-2.6-14.3-7.2-18.6" fill="#ffec00"></path>
  </g>
</svg>
