<?xml version="1.0" encoding="UTF-8"?>
<svg xmlns="http://www.w3.org/2000/svg" xmlns:v="https://vecta.io/nano" width="322.556" height="100.824">
  <path d="M130.536 79.578a2.55 2.55 0 0 0 .074.651c.266.961.917 1.658 1.287 1.895 1.081.636 3.315.147 4.588-.237.311.206.503.607.68.961a10.33 10.33 0 0 0 .829 1.391c.134.192.221.325.311.384-.059.074 0 0-.03.029l-.562.43c-.487.384-.947.754-1.449.976a14.01 14.01 0 0 1-2.146.71l-.296.074c-.147.045-.282.075-.445.104l-.074.015a2.81 2.81 0 0 1-.77.09c-.546-.015-1.094-.119-1.612-.178-.311-.029-.577-.118-.888-.163-.917-.133-1.805-.443-2.738-.783l-.074-.029c-.197-.065-.378-.171-.532-.311l-.415-.415-1.035-1.095c-.04-.042-.07-.093-.09-.147l-.03-.059c-.031-.067-.056-.136-.074-.208l-.015-.044c-.281-.785-1.213-3.478-1.11-5.475.119-2.353.86-4.335 1.51-5.09l.028-.044c.252-.311.548-.607.918-.903.754-.608 1.583-1.125 2.441-1.687l.059-.044c.266-.163.607-.222 1.14-.282l2.516-.147h.059c.325 0 .695.088 1.169.266.607.237 1.198.577 1.879 1.095.607.473 1.198 1.05 1.836 1.805a2.59 2.59 0 0 1 .133.237l.133.237c.459.798.459 1.731.726 2.812.044.192.103 1.006.133 1.434v.029l-.607.104c-.517.088-1.02.133-1.568.177-.503.044-.666.09-1.228.178-.386.059-.873.074-1.406.088-.844.029-1.717.059-2.456.237l-.724.178zm96.272-.696l.724-.177c.74-.193 1.614-.221 2.457-.237l1.406-.088 1.584-.178c.546-.044.695-.088 1.212-.177l.607-.104v-.029l-.133-1.435c-.266-1.095-.266-2.013-.724-2.812l-.134-.236-.133-.237c-.637-.755-1.213-1.332-1.836-1.805-.666-.518-1.257-.86-1.879-1.095-.474-.178-.844-.266-1.169-.266h-.059l-2.516.147c-.533.045-.872.104-1.14.282l-.059.044-2.441 1.686a5.91 5.91 0 0 0-.917.904l-.031.044c-.666.754-1.39 2.737-1.509 5.09-.103 1.983.814 4.691 1.095 5.475l.015.044c.015.059.044.133.074.208l.029.059c.031.059.06.103.09.147l1.035 1.095.415.415c.133.133.295.236.532.311l.074.029c.933.34 1.821.651 2.738.783l.888.163 1.614.178c.295 0 .458-.015.769-.09l.074-.015.445-.103.296-.074c.785-.193 1.48-.43 2.145-.711.503-.221.963-.592 1.45-.976l.562-.43.031-.029c-.09-.059-.193-.193-.312-.384a11.91 11.91 0 0 1-.828-1.391c-.178-.356-.356-.739-.682-.961-1.272.384-3.507.872-4.586.237-.371-.222-1.022-.933-1.288-1.895-.053-.213-.077-.432-.074-.651zm-151.26-2.945c.193-.724.327-1.109.977-1.48.754-.487 1.465-.414 2.101-.414s2.013.829 2.603 1.007c.223-.193.43-.74.652-.963.296-.311.798-1.007 1.228-1.347.09-.074.163-.133.252-.251-.03-.031-.044-.06-.074-.074-.178-.135-.71-.667-.858-.786-.445-.355-.724-.605-1.257-.842-.686-.316-1.4-.569-2.132-.755l-.368-.103c-.135-.029-.253-.074-.386-.104l-.074-.015c-.296-.074-.977-.059-1.169-.015-.548.119-.667.104-1.2.163l-.872.118c-.918.147-1.821.489-2.768.844l-.044.015c-.203.067-.387.184-.533.34l-.489.548-.961 1.066a.51.51 0 0 0-.103.177l-.015.031c-.03.074-.06.147-.09.266l-.015.044-.162.443c-.415 1.169-1.036 2.93-.947 4.735.074 1.687.162 2.975.43 3.878l.413.872c.015.016.015.031.031.031l.133.162.059.193.09.252.03.059c.03.074.074.133.103.178l1.095 1.213.355.384c.133.147.296.252.533.34l.03.015c.947.356 1.849.711 2.767.844l.873.119 1.614.236c.208.044.43-.015.739-.088l.09-.015.399-.103.34-.09c.799-.206 1.494-.443 2.132-.754.503-.237.961-.621 1.449-1.036l.562-.458.222-.266c-.088-.059-.607-.651-.858-.814-.458-.296-.769-1.022-1.331-1.45-.325-.252-.474-.666-.799-.888-1.272.399-2.53 1.257-3.595.577-.371-.252-1.007-.976-1.259-1.968a2.22 2.22 0 0 1-.059-.592l.059-2.856c-.009-.209.011-.418.06-.621zm140.695 5.845l-.044-.858-.134-1.776c-.003-.06-.012-.119-.029-.177l-.147-1.051-.325-2.086-.533-3.404-.266-1.361h-5.387c-.507-.026-1.015.019-1.509.133-1.007.208-1.82.415-2.603.755-1.081.473-2.014.961-2.856 1.48-.799.503-1.302 1.125-1.555 1.893-.235.747-.399 1.515-.488 2.294-.119 1.007.014 1.82.443 2.56.104.162.193.34.282.518l.177.34c.621 1.14 1.598 1.998 2.959 2.634a9.2 9.2 0 0 0 3.906.872h.208l1.362.016.946-.059-1.093 1.731-.165.236c-.416.486-.918.893-1.48 1.2-1.169.651-2.397.961-3.328 1.169-.889.192-1.793.28-2.591.325l1.066 3.699 1.035-.088 1.273-.118 2.471-.222c.074 0 .208-.059.356-.104.162-.059.325-.118.532-.162 1.259-.296 2.235-.621 3.093-1.007.666-.295 1.198-.651 1.598-1.05.755-.755 1.302-1.437 1.717-2.13l.104-.178c.133-.221.266-.43.295-.592l.667-3.093c.074-.325.103-.636.103-.917l-.044-.947-.015-.474zm36.949-7.56c-.517-.904-1.42-2.014-1.701-2.235-.829-.459-2.575-.933-3.168-.961l-1.805-.045-2.13.031-1.39.074-3.196.193-1.614.177-.266 14.502 5.327-.178.06-6.806c.015-.844-.044-1.406-.074-1.776-.045-.489-.09-.903.28-1.273.134-.133.134-.221.325-.281.163-.059.296-.177.696-.221.118-.015.281-.015.399-.015.221 0 .548.015.844.074.621.118 1.332.829 1.494 1.095.252.399.37.888.37 1.568l.015 7.887 6.111.384.252-2.989c.059-.503.044-5.608-.088-6.569-.134-.948-.548-2.279-.74-2.634zm-95.251 0c-.503-.904-1.419-2.014-1.701-2.235-.829-.459-2.575-.933-3.168-.961l-1.805-.045-2.145.031-1.375.074-3.196.193-1.259.177-.281 14.502 5.328-.178.059-7.117c.015-.844-.044-1.406-.074-1.776-.045-.489-.074-.903.28-1.288a1.04 1.04 0 0 1 .474-.281 3.93 3.93 0 0 1 .903-.206c.119-.015-.43-.015-.311-.015.221 0 .548.015.844.074.577.103 1.302.785 1.494 1.11.252.384.37.888.37 1.553l.015 8.198 6.111.384.252-2.989c.059-.503.044-5.608-.088-6.569-.104-.948-.518-2.279-.724-2.634zm20.362-.193c-.518-.903-1.421-2.013-1.702-2.235-.829-.458-2.574-.932-3.167-.976l-1.776-.044h-.769l-1.095.015.015-1.036.044-4.202-2.603-.296c-.918-.134-1.496-.266-2.339-.296-.029 1.14-.473 3.092-.548 5.134l-.059 1.244h-.029l-.015 1.05-.147 4.514.015.798.015 1.066-.074 3.345-.016.355c-.029.399-.044 1.539-.044 2.367l-.015.932 6.437-.193.059-7.176c.016-.844-.044-1.406-.074-1.776-.044-.489-.088-.903.282-1.288a1.04 1.04 0 0 1 .473-.281c.292-.104.595-.174.903-.206.074-.015.208-.015.37-.015a6.31 6.31 0 0 1 .858.059c.636.118.976.829 1.154 1.095.252.399.37.888.37 1.568l.015 8.301 4.04.325.252-2.959c.059-.503.044-5.608-.088-6.569-.119-.947-.533-2.264-.74-2.619zM99.46 72.505c-.829-.799-1.776-1.702-2.915-1.983-.221-.059-1.302-.134-3.358-.134l-3.182.09c-.592.221-2.13 1.125-2.768 1.967-1.835 2.442-1.923 6.111-1.938 6.615.103.844 1.998 5.948 3.092 6.806.503.341 4.218 1.437 6.763 1.437.281 0 .546-.016.754-.045 2.014-.281 4.247-2.204 4.632-2.708.34-.829 1.421-6.053 1.362-6.896-.386-2.248-1.184-3.936-2.442-5.149zm16.781-.992l-9.677.386-.356 19.296 5.919.206-.103-6.999.873-.162c1.717-.34 4.573-1.421 5.016-1.702l.104-.088c.443-.356 1.776-1.406 2.204-2.279.786-1.539.459-4.128-.754-6.156-.903-1.45-2.072-2.353-3.226-2.501zm80.439 4.825l-.443-2.057c-.015-.074-.104-.222-.178-.34l-.088-.149c-.282-.474-.667-.947-1.184-1.465-.266-.266-.608-.489-1.066-.695-.474-.222-2.101-.562-2.959-.755l-.829-.178-1.347-.221-1.094-.09-1.437-.118c-.118-.015-.769-.015-.887-.015-.193.724-.209 1.257-.222 1.584-.015.384-.147 1.434-.178 1.76.518.045 1.066-.118 1.599-.088.266.015.651-.044.888-.015.548.059 1.539.133 2.175.489.43.237.459.206.785.577l.088.118c.147.237.163.325.178 1.125l.015.443-.09.371-.103.917c-.147.177-.474.147-1.081.147h-.162c-1.066 0-2.797.252-3.566.607-.933.43-1.584 1.007-1.998 1.761l-.134.252c-.059.134-.133.252-.206.371-.252.443-.356 1.553-.282 2.248a2.99 2.99 0 0 1 .016.371c0 .015.015.029.015.044.236.724.399 1.094.739 1.671.119.178.724.844 1.213 1.066.562.252 1.198.399 1.805.518.371.074.696.103 1.007.088l8.523-.266.147-.769c.045-.266.045-1.628.045-2.634v-1.672l.177-1.273c0-.044.015-.074.015-.118l.09-1.257.029-.621.015-.296.029-.696c0-.192-.029-.399-.074-.607zm12.149-50.622c0 3.713-.577 7.428-.548 11.128.029 3.463.118 6.91-.119 10.358-.088 1.228-.088 2.456-.118 3.684-.015.503.103.623.607.637.118 0 .237-.015.356-.015l4.142-.044 7.635-.147c.667-.016.651-.031.608-.667l-.282-4.321-.162-4.202-.43-8.657-.384-8.716c-.015-.162-.059-.34-.103-.548-3.922.119-7.207.445-11.142.74-.015.281-.059.518-.059.77zm70.717 10.49c1.893-.281 3.492-.325 5.194-.621 1.76-.295.769-.147 2.544-.577-.088-.754-.208-3.61-.356-4.29-.429-1.851-1.035-3.641-1.938-5.313-.192-.355-.34-.754-.592-1.081-.976-1.243-2.042-2.412-3.27-3.417-1.081-.873-2.22-1.643-3.507-2.161-.872-.355-1.776-.605-2.722-.577-1.419.037-2.835.126-4.247.268-.917.088-1.849.221-2.663.769-1.449.992-2.9 1.968-4.231 3.107-.654.55-1.244 1.17-1.761 1.851-1.363 1.628-2.665 5.431-2.886 9.87-.178 3.654 1.287 8.346 1.893 10.151.074.221.134.443.237.666.007.03.017.06.029.088v-.015a2.82 2.82 0 0 0 .415.651l2.397 2.649c.43.474.947.786 1.553 1.007 1.614.621 3.242 1.243 4.957 1.494 1.332.208 2.678.296 3.981.562.769.163 1.449-.029 2.161-.208.414-.103.813-.221 1.228-.325 1.302-.34 2.574-.754 3.787-1.331 1.406-.651 2.501-1.776 3.715-2.709.193-.147 1.48-1.805 1.628-2.026l-2.309-1.481c-1.494-.946-3.301-2.515-4.81-3.463-1.908.844-3.64.726-5.134-.206-.178-.104-1.007-.933-1.347-2.235a6.96 6.96 0 0 1-.059-.548c1.717-.473 4.351-.281 6.111-.548zm-65.479-14.931c1.598-.162 4.586-1.125 5.016-3.048.295-1.599.577-3.374.577-5.297 0-1.761-2.117-3.684-3.863-4.647-.577-.325-1.154-.325-1.731-.325-1.449 0-2.751.798-3.905 1.761-1.599 1.287-2.606 3.847-2.606 6.097 0 .798.147 1.598.43 2.248.724 2.102 3.61 3.7 6.082 3.211zm104.322 5.091l-.252-6.304c-.029-.266-.104-.503-.445-.577-.533-.088-22.61 1.584-22.61 1.584-.682 2.1-2.146 15.936-2.146 15.936h.031c-.147 1.347-.252 2.768-.356 4.114l-.724 9.205c-.015.162 0 .311 0 .503 3.566.487 8.479.842 12.089.932l.341-10.802.384-11.883s2.827.666 4.838 2.026c2.146.519 5.299.43 8.909.43-.029-.325-.044-4.838-.059-5.163zm-64.059 10.595l-.088-.636h.029l-1.642-11.113c-.222-1.347-.74-3.819-.74-3.819h-10.137c-.979-.037-1.959.053-2.915.268-1.583.34-3.136.739-4.617 1.435a35.84 35.84 0 0 0-4.897 2.708c-1.539 1.035-2.678 2.412-3.242 4.231a23.64 23.64 0 0 0-.872 4.306c-.208 1.909-.015 3.744.917 5.461.266.473.474.976.724 1.465 1.259 2.441 3.226 4.158 5.639 5.327 2.294 1.125 4.75 1.731 7.325 1.702.221 0 .473-.044.651.206-.059.09-.088.178-.147.252a7.49 7.49 0 0 1-1.94 1.672c-1.537.903-3.225 1.435-4.956 1.835-1.717.4-3.463.518-5.209.607-.252.015-.489.045-.844.074.074.297.104.474.147.667l2.339 8.716c.118.458.162.503.651.458l2.678-.236 6.097-.608c.621-.059 1.14-.368 1.717-.517 1.849-.459 3.669-1.036 5.4-1.865 1.169-.562 2.25-1.257 3.137-2.204 1.169-1.228 2.235-2.56 3.064-4.055.325-.577.68-1.169.842-1.79.43-1.805.77-3.626 1.11-5.446a10.44 10.44 0 0 0 .193-1.908c0-.844-.074-1.672-.134-2.517-.088-1.567-.103-3.136-.281-4.675zm-50.918 16.203l-3.285.489c-.489.221-.992.104-1.494.074-1.968-.133-3.907-.458-5.742-1.243-.917-.399-1.835-.814-2.619-1.48l-3.123-2.619c-.961-.814-1.583-1.908-2.189-3.004-1.125-1.998-1.731-3.242-2.294-5.268-.266-.948-.208-2.516-.34-3.597-.029-.206-.178-3.166-.325-6.466l-5.475-.133.252-8.938 4.854-.325.147-6.63c0-.133.015-.281.015-.414.015-.266.147-.37.415-.399l3.64-.325 8.109-.814 2.56-.266c.147-.015.311.015.592.029l-.474 7.871c2.53-.118 5.121-.354 7.635-.516.029.442.088.857.103 1.287l.266 10.165c.015.533-7.945-.43-8.168-.325.474 3.078.696 7.917 1.288 11.543l2.767 1.035 2.591.621zm-14.649-28.13c0-.503-.147-1.007-.311-1.494-.088-.281-.755-.917-.755-.917s-1.14-.459-2.057-.548c-.769-.074-4.29.873-4.29.873s-.682.844-.682 1.198c0 .34.178 1.939.178 1.939s.221.783.562.903 2.738.118 2.738.118l.635-.074c-.029-.029-.059-.074-.088-.103-.399-.562-.607-1.288-.443-1.954.162-.607 1.213-1.318 2.309-1.318s1.464.963 1.583 1.2c.162.443.252.961.177 1.405.147-.311.445-.858.445-1.228zm6.806-1.406c.415-.133.917-.251 1.259-.162.443.118.842.414 1.154.754.192.193.355.415.487.651.221.445.282.977.147 1.451.4-.371.564-1.45.564-1.45s.059-.977-.325-1.599c-.623-.991-2.591-1.568-3.005-1.568s-2.175-.029-2.367.015-1.939.71-1.939.71-.783.636-.903.814c-.118.163.119 1.952.119 1.952s.325 1.525.414 1.584 2.516.296 2.516.296h1.095c-.415-.592-.533-1.553-.341-2.25a1.59 1.59 0 0 1 1.125-1.198zm-30.896 20.51c0-.844-.074-1.672-.134-2.517-.088-1.552-.118-3.121-.296-4.675l-.088-.636h.029l-1.643-11.113c-.221-1.347-.739-3.819-.739-3.819h-10.137a11.39 11.39 0 0 0-2.915.268c-1.584.34-3.137.739-4.617 1.434a35.84 35.84 0 0 0-4.898 2.709c-1.539 1.035-2.677 2.412-3.241 4.231a23.64 23.64 0 0 0-.872 4.306c-.209 1.909-.016 3.744.917 5.461.265.473.473.976.724 1.465 1.257 2.441 3.226 4.158 5.637 5.327 2.294 1.125 4.751 1.731 7.325 1.702.222 0 .474-.044.651.206-.059.09-.088.178-.147.252-.548.667-1.198 1.228-1.939 1.672-1.539.903-3.226 1.435-4.957 1.835-1.715.4-3.463.518-5.208.607-.252.015-.489.044-.844.074.074.297.103.474.147.667l2.338 8.716c.119.458.163.503.651.458l2.679-.237 6.097-.607c.621-.059 1.138-.368 1.715-.517 1.851-.459 3.67-1.036 5.402-1.865 1.169-.562 2.25-1.257 3.137-2.204 1.169-1.228 2.235-2.56 3.062-4.055.325-.577.68-1.169.844-1.79.43-1.805.77-3.626 1.11-5.446.136-.627.205-1.267.208-1.909zM70.428 62.205c0-3.566.755-10.595.755-10.595l8.064-27.953c-2.116-.162-2.397-.133-10.935-1.42h-1.465c-.296 1.213-.77 3.64-.948 4.439-.532 2.515-1.243 6.422-1.923 8.982-1.82-2.856-5.593-9.087-6.97-12.135-.548-1.213-1.007-1.494-1.849-1.095-.667.311-5.135 1.584-5.135 1.584s-1.627.872-2.042 1.035c0 0 9.426 20.391 10.67 24.431.177.562.236 1.494.384 2.309l-.71 12.074c.384-.059 12.104-1.658 12.104-1.658zm12.06-10.595c.104 0 .208-.015.325-.015l4.928-.044 7.029-.133c.607-.015.607-.031.562-.608-.088-1.331-.192-5.371-.266-6.702-.074-1.288-.088-2.575-.147-3.878l-.386-7.961-.355-9.751c0-.147-.059-.311-.088-.503-3.61.103-7.709.399-11.365.68-.03.252-.059.474-.059.711 0 3.417-.533 8.567-.503 11.971.03 3.18.119 6.362-.103 9.529-.074 1.125-.074 4.987-.104 6.111-.03.474.074.577.533.592zm-36.579-7.503c-.074-1.287.134-2.574.074-3.877l-.384-7.961c-.118-2.665.221-18.379.103-21.042-.015-.147-.059-.311-.088-.503-3.595.104-8.907.4-12.519.682-.03.251-.059.473-.059.71 0 3.419-.755 19.858-.724 23.262.03 3.18.118 6.362-.104 9.529-.074 1.125-.074 4.987-.103 6.111-.015.474.103.577.562.592.103 0 .206-.015.325-.015l5.579-.044 7.088-.133c.607-.015.607-.031.562-.608-.133-1.331-.237-5.371-.311-6.702zm40.62-24.193c.561.311 1.124.311 1.686.311 1.406 0 2.9-.059 4.025-.992 1.539-1.243 3.004-3.492 3.004-5.667 0-.77-.147-1.553-.415-2.176-.695-2.011-3.507-3.092-5.889-2.618-1.539.147-3.757 1.331-4.187 3.195-.281 1.555-.562 2.546-.562 4.411 0 1.701.651 2.619 2.338 3.536zM28.004 8.861c-2.101 0-9.515.947-10.506 1.391-.562.251-5.016 3.299-5.372 3.581-.651.503-2.1 3.551-2.649 6.082l-.133 1.835-.118 2.367-5.017.518.104.917-.09 4.705-.029 1.184-.088.636c1.066.044 2.871.356 4.691.577l-.489 16.84c-.015.088 0 1.761 0 1.849-.015.193 12.771.415 12.978.415l.281-18.808v-.192l5.563-.044.016-.889s.252-5.163.193-7.31c-.016-.355-.045-.399-.4-.458l-4.365-.059h-.044v-.208c.029-.193.193-1.968.193-1.968l.355-2.382 5.327-2.101c.193-1.687.074-8.479-.399-8.479zm87.837 27.834c.03-3.033-.34-4.143-.059-4.143 0 0 .474-.221 1.11-.296.208-.015.976-.029 1.48.059.281.044 1.081.74 1.302 1.095.252.414.341 1.02.341 1.805l.03 15.212 9.411.888c.059-.162.147-4.573.489-6.778.147-.931.074-10.165-.147-11.896-.238-1.82-.963-4.321-1.422-5.179-.932-1.731-2.738-4.158-3.373-4.527-1.555-.933-4.72-1.879-6.023-1.952-2.145-.135-6.097-.045-6.659 0l-6.614.487-3.536.518-.503 28.501 14.028-.43z"></path>
</svg>
