<?xml version="1.0" encoding="UTF-8"?>
<!-- Generator: Adobe Illustrator 20.1.0, SVG Export Plug-In . SVG Version: 6.00 Build 0)  -->
<svg xmlns="http://www.w3.org/2000/svg" xmlns:xlink="http://www.w3.org/1999/xlink" version="1.1" id="Warstwa_1" x="0px" y="0px" viewBox="0 0 371.1 268.3" style="enable-background:new 0 0 371.1 268.3;" xml:space="preserve">
<style type="text/css">
	.st0{fill:#ED1C24;}
	.st1{fill:#FFFFFF;}
	.st2{fill-rule:evenodd;clip-rule:evenodd;fill:#FFFFFF;}
</style>
<g>
	<g>
		<path class="st0" d="M371.1,160.7c0-10.5-8.4-19-18.8-19.3V0H0v268.3l352.3-30.8V180C362.7,179.7,371.1,171.2,371.1,160.7z"></path>
	</g>
</g>
<g>
	<g>
		<g>
			<path class="st1" d="M58,148.7c-11.3,5-21.9,9.5-33.3,14.8c-6.9,4.1-9.3,21.7,0.5,17.7c2.9-1.1,5.9-2,8.8-3     c0.1,13,0.3,25.2,0.4,38.2c0,10.5,17.6,10.5,17.2-0.2c-0.2-14.9-0.3-29-0.5-43.9c3.2-0.9,6.4-1.7,9.6-2.6     C68.6,167.1,68.8,144.3,58,148.7z"></path>
			<path class="st1" d="M245.2,146.3c-1.6-4.1-4.3-6.3-6.9-6.8c-3.6-0.6-7.2,1.8-8.5,6.9c-6.4,20.6-12,38.5-18.3,59.1     c-6.2,16.6,10.5,30.5,16.9,7.6l10-0.1l9-0.1c5.1,20.6,21.6,10.5,18.5-3.3C258.9,188.3,252.1,167.6,245.2,146.3z M238.3,195.7     l-5.4,0c1.7-5.8,3.5-11.6,5.3-17.4l0.1,0.3l5.3,17L238.3,195.7z"></path>
			<path class="st1" d="M109.3,137.9c-0.2,0-0.3,0-0.5,0c-15.8,0.9-30.6,24.2-30.5,44.2c0.3,21.5,12.2,41.3,30.5,42.9     c0.8,0.1,1.5,0.1,2.3,0.1c19.1-0.2,27.8-25.5,27.7-43.2C138.5,160.7,127.7,137.7,109.3,137.9z M109.3,198.3c-0.2,0-0.3,0-0.5,0     c-7.7-0.2-12.4-8.1-12.5-17c0.2-8,4.8-16.6,12.4-16.6h0.1c7,0,12.2,8.1,12.5,16C121.6,188.8,117.3,198.2,109.3,198.3z"></path>
			<path class="st1" d="M178.8,134.8c-0.3,0-0.7,0-1.1,0c-5.4-0.1-7.7-0.1-13.1,0.3c-6.9,0.2-9.2,5.4-9.1,14.5     c0.1,21,0.3,40.8,0.4,61.8c0.3,19.8,18,15.6,17.9,2.4c0-5.1,0.1-10.3,0-15.4c2.3,0,3.1,0.1,4.9,0.1c0.4,0,0.8,0,1.3,0     c10.9-0.3,19.3-16.2,19.1-31.1C199,150.7,191.8,135.4,178.8,134.8z M178.8,174.3c-1.6,0.7-3.4,0.9-5.1,1c0-6-0.1-11.8-0.2-17.8     c1.7,0,3.6,0.1,5.3,0.6c2.8,0.9,5.1,3,5.3,7.8C184.1,170.6,181.7,173.1,178.8,174.3z"></path>
			<path class="st1" d="M316.6,204.5c-4.1-0.3-6.4-0.4-10.7-0.7c5.9-10,11.3-19.4,17.2-29.4c3.9-6.7,0.2-14.7-8.9-18.3     c-8.5-2.6-16.1-5-24.6-7.6c-12.2-3.4-10.2,20-1.1,22.5c3.9,0.8,7.7,1.7,11.6,2.5c-5.6,11.3-10.2,20.8-15.8,32.2     c-3.8,7.2-3,19,8.6,18.9c9.3-0.1,13-0.1,22.3-0.2c7.5-0.1,10.7-3.6,11.2-7.7v-2.1C325.9,209.5,321.7,204.4,316.6,204.5z"></path>
		</g>
		<path class="st1" d="M26.6,135.9c0.5-1.8,1-3.5,1.5-5.3c1.1,0.7,1.9,1.2,2.4,1.5c1.8,1,3.5,1.5,5.3,1.4c1.1-0.1,2-0.4,2.6-0.9    c0.8-0.6,1.1-1.2,1.1-2c0-0.9-0.5-1.5-1.4-1.9c-0.3-0.2-1.8-0.6-4.4-1.4c-2.7-0.9-4.6-1.9-5.6-3.2c-1-1.3-1.5-2.8-1.5-4.4    c0-1.7,0.5-3.3,1.6-4.8c2.1-2.8,5.6-4.2,10.7-4.5c2.9-0.2,5.8,0.1,8.6,0.8c-0.5,1.7-0.9,3.5-1.3,5.2c-2.8-1.6-5.1-2.3-7-2.1    c-0.9,0.1-1.6,0.3-2.1,0.8c-0.5,0.4-0.8,1-0.8,1.7c0,0.7,0.3,1.2,0.9,1.5c0.6,0.3,2.3,0.8,5.1,1.5c2.9,0.7,4.8,1.7,5.8,3    c0.8,1.1,1.2,2.4,1.2,4c0,2-0.5,3.9-1.5,5.6c-2,3.2-5.6,5-11,5.4c-1.8,0.1-3.5,0-5-0.3C30.2,137.2,28.5,136.6,26.6,135.9    L26.6,135.9z M52.2,109.5c3.6-0.5,7.2-1.1,10.8-1.6c-0.2,0.3-0.3,0.8-0.3,1.4c0,4,0,8,0,12c0,4,0,8,0,12c0,0.6,0.1,1,0.3,1.3    c-3.6,0.5-7.2,1-10.8,1.5c0.2-0.3,0.3-0.8,0.3-1.3c0-4,0-7.9,0-11.9c0-4,0-7.9,0-11.9C52.5,110.2,52.4,109.7,52.2,109.5    L52.2,109.5z M67.6,107c6.5-1.2,12.9-2.6,19.4-4c0,1.3,0,2.6,0,4c-0.5,0-1,0-1.6,0.2c-2.4,0.5-4.9,1-7.3,1.5c0,2.6,0,5.1,0,7.7    c2.4-0.5,4.8-1,7.2-1.5c0.7-0.1,1.2-0.3,1.6-0.5c0,1.4,0,2.7,0,4.1c-0.4,0-0.9,0-1.6,0.2c-2.4,0.5-4.9,1-7.3,1.5c0,2.5,0,5,0,7.5    c2.3-0.4,4.7-0.9,7.1-1.4c0.8-0.2,1.4-0.3,1.8-0.5c0,1.4,0,2.8,0,4.3c-6.5,1.3-13,2.5-19.4,3.6c0.2-0.4,0.3-0.8,0.3-1.4    c0-4,0-8,0-12c0-4,0-8,0-12C67.9,107.7,67.8,107.3,67.6,107L67.6,107z M101.2,97.7c1.1-2.7,2.1-5.4,3.2-8.2c2.2-0.5,4.4-1,6.6-1.6    c-1.9,2.9-3.7,5.8-5.6,8.8C104,97.1,102.6,97.4,101.2,97.7L101.2,97.7z M115.1,97.5c-2.6-0.4-5.4-0.2-8.4,0.5    c-2.6,0.6-4.8,1.3-6.6,2.2c-1.8,0.9-3.5,2-4.9,3.3c-1.4,1.3-2.6,2.7-3.4,4.2c-1.2,2.1-1.8,4.8-1.8,8c0,2.4,0.3,4.4,1,6    c0.6,1.6,1.6,2.9,2.9,3.9c2.7,1.9,6.6,2.2,12,1.1c3.3-0.7,6.4-1.8,9.4-3.4c0-1.9,0-3.8,0-5.7c-2.8,2.5-5.3,4-7.4,4.5    c-0.9,0.2-1.8,0.2-2.8,0c-0.9-0.2-1.6-0.6-2.2-1.2c-0.8-0.7-1.4-1.7-1.7-2.8c-0.4-1.2-0.5-2.7-0.5-4.5c0-3.1,0.6-5.6,1.8-7.6    c1.2-2,3-3.3,5.1-3.8c2.2-0.5,4.7-0.1,7.6,1.4C115.1,101.5,115.1,99.5,115.1,97.5L115.1,97.5z M131.9,119.3c0.5-2,1-3.9,1.5-5.9    c1.1,0.6,1.9,1,2.5,1.3c1.8,0.8,3.5,1.1,5.3,0.8c1.1-0.2,2-0.6,2.6-1.1c0.7-0.6,1.1-1.4,1.1-2.3c0-1-0.4-1.6-1.4-2    c-0.4-0.1-1.8-0.6-4.3-1.1c-2.7-0.6-4.6-1.4-5.6-2.6c-1-1.2-1.5-2.7-1.5-4.5c0-1.9,0.5-3.6,1.6-5.3c2.1-3.3,5.6-5.4,10.6-6.2    c2.9-0.4,5.8-0.3,8.6,0.6c-0.5,1.9-0.9,3.7-1.3,5.5c-2.8-1.6-5.1-2.2-7-2c-0.9,0.1-1.6,0.5-2.1,1c-0.6,0.5-0.9,1.2-0.9,1.9    c0,0.7,0.3,1.3,0.9,1.5c0.6,0.3,2.3,0.7,5.1,1.3c2.9,0.6,4.8,1.7,5.8,3.1c0.8,1.2,1.2,2.6,1.2,4.4c0,2.1-0.5,4.1-1.5,6    c-2,3.4-5.6,5.5-11,6.2c-1.8,0.3-3.5,0.4-5,0.3C135.5,120.1,133.8,119.8,131.9,119.3L131.9,119.3z M167.8,105.1c0,1.7,0,3.4,0,5.1    c0,1.7,0,3.4,0,5.2c0,0.6,0.1,1.1,0.3,1.4c-3.6,0.2-7.2,0.5-10.8,0.8c0.2-0.4,0.3-0.8,0.3-1.5c0-4.3,0-8.5,0-12.8    c0-4.3,0-8.5,0-12.8c0-0.6-0.1-1.1-0.3-1.4c3.6-0.3,7.2-0.6,10.8-0.9c-0.2,0.3-0.3,0.8-0.3,1.4c0,1.9,0,3.8,0,5.6    c0,1.9,0,3.8,0,5.7c1.1-1.9,2.3-3.8,3.4-5.7c1.2-1.9,2.4-3.8,3.5-5.8c0.3-0.5,0.5-1,0.6-1.4c2.6,0,5.1,0.1,7.7,0.1    c-0.4,0.3-0.8,0.8-1.2,1.4c-1.1,1.7-2.2,3.3-3.2,5c-1,1.7-2.1,3.4-3.2,5.1c1.3,2.5,2.6,5.1,3.9,7.7c1.3,2.6,2.6,5.2,4,7.8    c0.3,0.6,0.7,1.1,1,1.5c-4-0.1-8-0.2-12-0.1c0-0.4-0.1-0.8-0.4-1.4c-0.7-1.7-1.4-3.4-2-5.1C169.2,108.4,168.5,106.7,167.8,105.1    L167.8,105.1z M204.2,118.7c-6.4-0.9-12.7-1.5-19-2c0.2-0.3,0.3-0.8,0.3-1.4c0-4.3,0-8.6,0-12.8c0-4.3,0-8.6,0-12.8    c0-0.6-0.1-1.1-0.3-1.4c3.6,0.2,7.2,0.5,10.8,0.8c-0.2,0.3-0.3,0.8-0.3,1.4c0,3.8,0,7.6,0,11.4c0,3.8,0,7.6,0,11.4    c2.1,0.3,4.2,0.6,6.3,0.8c1,0.1,1.7,0.1,2.2,0C204.2,115.7,204.2,117.2,204.2,118.7L204.2,118.7z M206.1,90.4    c6.5,1.1,12.9,2.3,19.4,3.6c0,1.4,0,2.8,0,4.2c-0.5-0.2-1-0.4-1.6-0.5c-2.5-0.5-4.9-1-7.3-1.4c0,2.7,0,5.5,0,8.2    c2.4,0.5,4.9,1,7.3,1.5c0.7,0.1,1.2,0.2,1.6,0.2c0,1.4,0,2.9,0,4.4c-0.4-0.2-0.9-0.4-1.6-0.5c-2.5-0.5-4.9-1-7.3-1.5    c0,2.7,0,5.4,0,8.1c2.4,0.5,4.7,1,7.1,1.5c0.8,0.2,1.4,0.2,1.8,0.2c0,1.5,0,3,0,4.5c-6.5-1.4-13-2.6-19.4-3.8    c0.2-0.3,0.3-0.8,0.3-1.4c0-4.3,0-8.6,0-12.9c0-4.3,0-8.6,0-12.9C206.4,91.3,206.2,90.8,206.1,90.4L206.1,90.4z M239.8,115.7    c0,3,0,6,0,9c0,0.4,0.1,0.9,0.4,1.5c-3.7-0.9-7.3-1.8-10.9-2.6c0.2-0.3,0.3-0.8,0.3-1.4c0-4.3,0-8.6,0-13c0-4.3,0-8.6,0-13    c0-0.6-0.1-1.2-0.3-1.5c4.6,1,9.1,2.1,13.7,3.1c1.7,0.4,3.1,0.9,4.2,1.4c1.1,0.5,2.1,1.2,3,2c2.3,2.1,3.4,4.8,3.4,8.2    c0,3.5-1.1,5.7-3.5,6.7c-1.1,0.5-2.2,0.7-3.5,0.7c-1.2,0-2.8-0.3-4.7-0.7C241.2,116,240.5,115.9,239.8,115.7L239.8,115.7z     M239.8,111.3c0.2,0.1,0.5,0.1,0.8,0.2c1,0.2,1.7,0.1,2.1-0.5c0.4-0.6,0.6-1.9,0.6-3.9c0-1.9-0.2-3.2-0.7-4.1    c-0.4-0.8-1.1-1.3-1.9-1.5c-0.3-0.1-0.6-0.1-0.8-0.2c0,1.7,0,3.3,0,5C239.8,108,239.8,109.7,239.8,111.3L239.8,111.3z     M271.3,104.2c4.5,1,8.1,2.8,10.9,5.3c1.7,1.6,3.1,3.5,4,5.7c0.9,2.2,1.3,4.8,1.3,7.6c0,2.6-0.4,4.9-1.2,6.7    c-0.8,1.8-1.9,3.2-3.4,4.2c-2.8,1.8-6.8,2-11.9,0.8c-3.6-0.8-6.3-2.1-8.4-3.6c-2.7-2-4.7-4.5-5.9-7.6c-1-2.4-1.5-5.1-1.5-8.2    c0-1.6,0.2-3.1,0.6-4.6c0.4-1.5,0.9-2.7,1.6-3.6C260,103.6,264.6,102.7,271.3,104.2L271.3,104.2z M271.3,108.3    c-1.9-0.5-3.3,0.1-4.2,1.6c-0.9,1.6-1.3,4.2-1.3,7.9c0,3.7,0.4,6.6,1.3,8.7c0.8,2.1,2.2,3.4,4.2,3.9c1.9,0.4,3.3-0.1,4.1-1.7    c0.9-1.5,1.3-4.2,1.3-8c0-3.8-0.4-6.7-1.2-8.7C274.6,110.1,273.2,108.8,271.3,108.3L271.3,108.3z M267.3,101.6    c1.1-2.4,2.1-4.8,3.2-7.2c2.2,0.5,4.4,1,6.6,1.4c-1.9,2.3-3.7,4.5-5.6,6.7C270,102.2,268.6,101.9,267.3,101.6L267.3,101.6z     M307.9,124c0.6,2.7,1.1,5.3,1.7,8c0.6,2.7,1.1,5.3,1.7,7.9c0.1,0.4,0.1,0.6,0.1,0.8c0,0.1-0.1,0.4-0.1,0.7    c3.1,0.3,6.3,0.5,9.5,0.7c-0.1-0.3-0.1-0.5-0.1-0.6c0-0.2,0.1-0.5,0.2-0.9c1.1-4.4,2.2-8.9,3.3-13.3c1.1-4.4,2.3-8.9,3.4-13.3    c0.2-0.6,0.4-1.1,0.7-1.5c-1.8,0-3.6-0.1-5.4-0.1c0.1,0.3,0.1,0.5,0.1,0.6c0,0.2,0,0.5-0.1,0.9c-0.7,2.6-1.3,5.2-2,7.8    c-0.6,2.6-1.3,5.2-2,7.8c-0.6-2.7-1.3-5.3-1.9-8c-0.6-2.7-1.2-5.3-1.8-8c-0.1-0.4-0.1-0.7-0.1-0.9c0-0.1,0-0.3,0.1-0.6    c-3-0.2-6-0.5-8.9-0.9c0.1,0.3,0.1,0.6,0.1,0.7c0,0.2,0,0.4-0.1,0.8c-0.7,2.5-1.5,5-2.3,7.5c-0.7,2.5-1.5,5-2.2,7.5    c-0.6-2.7-1.1-5.4-1.6-8c-0.5-2.7-1.1-5.4-1.6-8c-0.1-0.4-0.1-0.7-0.1-0.8c0-0.2,0-0.4,0.1-0.7c-3.7-0.6-7.4-1.2-11.1-1.9    c0.3,0.4,0.5,0.9,0.6,1.6c1.1,4.6,2.2,9.3,3.4,13.9c1.1,4.6,2.2,9.2,3.3,13.9c0.1,0.4,0.1,0.7,0.1,0.8c0,0.1,0,0.4-0.1,0.7    c3,0.5,6.1,1,9.1,1.4c-0.1-0.3-0.1-0.6-0.1-0.7c0-0.2,0-0.4,0.1-0.8c0.7-2.5,1.3-5,2-7.5C306.5,129,307.2,126.5,307.9,124z"></path>
		<path class="st2" d="M352.3,147c7.4,0,13.4,6,13.4,13.4s-6,13.4-13.4,13.4c-7.4,0-13.4-6-13.4-13.4S344.9,147,352.3,147L352.3,147    z M352.3,149.4c-6,0-11,4.9-11,11c0,6,4.9,10.9,11,10.9c6,0,11-4.9,11-10.9C363.3,154.3,358.4,149.4,352.3,149.4z"></path>
		<path class="st1" d="M346,167.6v-14.5h7.4c1.4,0,2.4,0.1,3.2,0.4c0.7,0.2,1.3,0.7,1.8,1.3c0.4,0.6,0.7,1.4,0.7,2.4    c0,0.8-0.2,1.5-0.5,2.1c-0.3,0.6-0.8,1-1.4,1.4c-0.4,0.2-0.9,0.4-1.6,0.6c0.5,0.2,0.9,0.4,1.1,0.5c0.2,0.1,0.4,0.4,0.7,0.8    c0.3,0.4,0.5,0.7,0.6,0.9l2.2,4.2h-5l-2.4-4.4c-0.3-0.6-0.6-1-0.8-1.1c-0.4-0.2-0.7-0.3-1.1-0.3h-0.4v5.9H346L346,167.6z     M350.4,159h1.9c0.2,0,0.6-0.1,1.2-0.2c0.3-0.1,0.5-0.2,0.8-0.5c0.2-0.2,0.3-0.5,0.3-0.8c0-0.5-0.2-0.8-0.5-1.1    c-0.3-0.3-0.9-0.4-1.7-0.4h-2V159z"></path>
	</g>
</g>
</svg>
