<?xml version="1.0" encoding="UTF-8" standalone="no"?>
<svg xmlns:inkscape="http://www.inkscape.org/namespaces/inkscape" xmlns:sodipodi="http://sodipodi.sourceforge.net/DTD/sodipodi-0.dtd" xmlns="http://www.w3.org/2000/svg" xmlns:svg="http://www.w3.org/2000/svg" viewBox="0 0 90.4 35.099998" version="1.1" id="svg842" sodipodi:docname="zabka.svg" width="90.400002" height="35.099998" inkscape:version="1.1 (c4e8f9e, 2021-05-24)">
  <defs id="defs846">
    <clipPath id="clipPath199">
      <path d="M 112.015,688.512 H 398.221 V 801.104 H 112.015 Z" id="path197"></path>
    </clipPath>
    <clipPath id="clipPath199-6">
      <path d="M 112.015,688.512 H 398.221 V 801.104 H 112.015 Z" id="path197-1"></path>
    </clipPath>
  </defs>
  <g transform="matrix(0.30469791,0,0,0.30469791,-15.739579,-28.154687)" id="g828" style="fill:#ffffff">
    <path fill="#006420" d="m 112.03542,183.945 2.09025,-10.79961 c 34.14071,21.59922 78.03589,21.59922 112.1766,0 l 2.09025,10.79961 c -34.1407,26.82484 -82.21639,26.82484 -116.35709,0 z m 135.16932,-49.81757 c 3.83212,0.69675 8.01262,0.34838 11.49637,-1.74187 2.78699,-1.74187 4.52886,-4.52886 5.22561,-7.66424 0.69675,-3.13537 1.04512,-5.92236 1.3935,-9.05774 h 13.23823 v 4.87725 c -0.34838,4.18049 -1.39349,8.01261 -3.13537,11.49636 -1.3935,2.78699 -3.83212,5.22562 -6.27074,6.96749 -0.69675,0.34837 -1.3935,1.04512 -2.09025,1.3935 0.69675,1.04513 1.3935,2.43862 1.74188,3.48375 3.48373,6.27073 6.96748,12.1931 10.79961,18.46384 0.34837,0.69676 0.69674,1.3935 1.04511,2.09025 0.34838,0.69675 0.34838,1.3935 0.34838,2.09024 h -14.63172 l -11.49637,-20.90247 -7.66424,0.69676 v 20.55409 H 232.92139 V 97.896482 h 14.28335 V 134.12744 Z M 108.55168,115.31521 c 0,0.69675 -0.34838,1.3935 -0.69675,2.43862 -2.43862,4.1805 -4.87724,8.36099 -7.31587,12.54149 -4.528867,7.66423 -9.057739,15.32847 -13.238234,22.99271 0,0.34838 -0.348369,0.69675 -0.348369,1.04513 h 21.599223 v 12.54148 H 66.049986 c 0,-0.69675 0.348369,-1.39349 0.696748,-2.09025 2.090243,-3.83212 4.180494,-7.31586 6.270737,-10.79961 2.090252,-3.48374 3.832125,-6.61911 5.922368,-10.10286 2.786999,-4.87724 5.573999,-9.75449 8.360989,-14.28335 0.348378,-0.34838 0.348378,-0.69676 0.696748,-1.3935 H 67.791861 v -12.88986 z m -19.857349,-4.87725 c -2.090252,0.34838 -3.832125,-0.34837 -5.22562,-1.74186 -2.090252,-1.74187 -3.135369,-4.87725 -2.090252,-7.66424 0.696757,-2.438623 3.135378,-4.528875 5.922368,-4.877244 2.438621,-0.696757 5.22562,0.348369 6.967494,2.090243 2.090243,2.090241 2.438621,4.877241 1.741873,7.664241 -1.045126,2.787 -3.483747,4.52886 -6.270746,4.52886 -0.348369,0.34838 -0.696748,0.34838 -1.045117,0 z m 134.124189,20.90247 c -1.3935,-4.87724 -4.18049,-9.4061 -8.36099,-12.54148 -3.83212,-2.78699 -8.01261,-4.18049 -12.54148,-4.18049 -3.83212,-0.34837 -8.01261,0.34838 -11.84473,1.74187 -0.34838,0 -1.04513,0.34838 -1.3935,0.34838 V 97.89648 h -14.28336 v 65.84279 c 2.09025,0.69675 4.18049,1.04513 6.27075,1.3935 3.48374,1.04512 6.96749,1.74187 10.79961,2.43862 5.57399,0.69675 11.14798,0 16.72197,-1.74187 8.36099,-2.43863 14.63173,-9.40612 15.67686,-18.11548 0.69674,-5.22562 0.69674,-11.14799 -1.04513,-16.37361 z m -13.5866,17.07036 c -1.04513,3.48375 -3.83213,6.27075 -7.31587,6.96749 -4.1805,1.04513 -8.70936,0.69675 -12.54149,-0.69674 0,0 -0.34836,0 -0.34836,-0.34838 v -25.43135 c 4.87724,-3.48374 11.49635,-3.48374 16.37359,-0.34837 1.74188,1.3935 2.787,3.13537 3.48375,5.22562 1.3935,4.52887 1.74187,9.75449 0.34838,14.63173 z m -48.07569,-29.61184 c -3.48375,-1.39349 -7.31586,-2.43862 -11.14799,-3.13537 -5.22561,-1.04512 -10.45123,-1.39349 -15.67685,-1.04512 -4.52887,0.34837 -9.05774,2.43862 -12.54148,5.92236 -3.13537,3.48375 -5.57399,7.66425 -6.27074,12.19312 -0.69676,3.48374 -1.04513,6.96748 -1.04513,10.45123 0,4.52887 1.04513,8.70937 3.13537,12.54148 1.74188,3.13537 4.1805,5.92237 7.31587,7.66424 6.96749,3.83212 14.9801,5.22562 22.64434,3.83212 5.57399,-0.69675 10.79961,-2.43862 16.37361,-3.48374 v -43.54681 c -0.69676,-0.34838 -1.74187,-1.04513 -2.787,-1.39351 z m -11.14799,35.88259 c -4.87724,1.74186 -10.10286,2.09024 -14.9801,0 -2.43862,-1.04513 -4.1805,-2.787 -5.22562,-5.574 -1.74187,-5.57399 -1.74187,-11.14798 0.34838,-16.72198 1.39349,-3.48375 4.87724,-5.92237 8.36098,-6.27074 3.48375,-0.34837 7.31587,0 10.45124,1.74188 0.34837,0 0.34837,0.34836 0.69675,0.34836 l 0.34837,26.47647 v 0 z M 329.42113,118.1022 c -4.18049,-1.39349 -8.36099,-2.43862 -12.88986,-3.13536 -4.18049,-0.69675 -8.70936,-0.69675 -13.23823,0 -8.01261,1.39349 -14.28336,7.31586 -16.72198,14.9801 -1.74187,5.92237 -2.43862,12.1931 -1.39349,18.46385 0.69674,5.57399 3.48374,10.79961 8.01261,14.28336 1.04512,0.69675 2.43862,1.74187 3.48374,2.09024 2.787,1.3935 6.27075,2.43862 9.40612,2.787 3.83211,0.69675 7.66424,0.69675 11.49636,0 5.57399,-1.04513 11.14798,-2.43862 16.3736,-3.48375 v -43.89518 c -1.3935,-0.69676 -2.787,-1.39351 -4.52887,-2.09026 z m -9.05773,36.57934 c -0.69675,0.34837 -1.04513,0.34837 -1.74188,0.34837 -2.787,0.69674 -5.57399,1.04512 -8.70936,1.04512 -3.48375,0 -6.61912,-1.74187 -8.70936,-4.52887 -1.04513,-1.3935 -1.74188,-3.13537 -2.09026,-4.87724 -0.69674,-4.1805 -0.69674,-8.36099 0.69675,-12.54149 1.04513,-4.18049 4.87725,-7.31586 9.05775,-7.66424 3.83211,-0.69675 7.66423,0 11.14798,2.09025 z" stroke="null" id="path826" style="fill:#ffffff"></path>
  </g>
</svg>
