<?xml version="1.0" encoding="UTF-8" standalone="no"?>
<!-- Generator: Adobe Illustrator 25.0.1, SVG Export Plug-In . SVG Version: 6.00 Build 0)  -->
<svg xmlns:inkscape="http://www.inkscape.org/namespaces/inkscape" xmlns:sodipodi="http://sodipodi.sourceforge.net/DTD/sodipodi-0.dtd" xmlns="http://www.w3.org/2000/svg" xmlns:svg="http://www.w3.org/2000/svg" version="1.1" id="Layer_1" x="0px" y="0px" viewBox="0 0 290.55585 73.823657" xml:space="preserve" sodipodi:docname="ziko-dermo.svg" width="290.55585" height="73.823654" inkscape:version="1.1 (c4e8f9e, 2021-05-24)"><defs id="defs118"></defs>
<style type="text/css" id="style109">
	.st0{fill:#E30613;}
	.st1{fill-rule:evenodd;clip-rule:evenodd;fill:#E30613;}
</style>


<style type="text/css" id="style109-0">
	.st0{fill:#E30613;}
	.st1{fill-rule:evenodd;clip-rule:evenodd;fill:#E30613;}
</style><g id="g122" transform="matrix(0.37996776,0,0,0.37996776,-43.034078,-17.117689)"><path class="st0" d="m 816.62,178.47 c 7.93,0 14.12,-2.96 18.57,-8.85 4.44,-5.89 6.66,-14.08 6.66,-24.59 0,-10.43 -2.22,-18.56 -6.66,-24.42 -4.44,-5.86 -10.63,-8.8 -18.57,-8.8 -7.93,0 -14.12,2.94 -18.56,8.8 -4.44,5.86 -6.67,13.99 -6.67,24.42 0,10.5 2.22,18.69 6.67,24.59 4.44,5.89 10.63,8.85 18.56,8.85 m 0,8.48 c -11.29,0 -20.32,-3.8 -27.1,-11.38 -6.76,-7.58 -10.14,-17.72 -10.14,-30.43 0,-12.71 3.38,-22.84 10.14,-30.43 6.78,-7.58 15.81,-11.39 27.1,-11.39 11.29,0 20.33,3.8 27.1,11.39 6.76,7.58 10.14,17.72 10.14,30.43 0,12.71 -3.38,22.84 -10.14,30.43 -6.77,7.58 -15.8,11.38 -27.1,11.38 z m -125.11,-2.12 v -79.37 h 15.55 l 21.97,61.46 22.62,-61.46 h 13.96 v 79.37 h -10.54 v -64.51 l -21.86,59.24 h -10.85 l -21.19,-59.41 v 64.68 z m -60.94,-42.05 h 3.64 c 6.92,0 12.17,-1.41 15.77,-4.23 3.61,-2.82 5.4,-6.93 5.4,-12.35 0,-8.2 -5.91,-12.3 -17.75,-12.3 h -7.06 z m -11.31,42.05 v -79.37 h 24.04 c 7.61,0 13.45,1.68 17.51,5.03 4.06,3.37 6.09,8.25 6.09,14.64 0,5.05 -1.37,9.53 -4.1,13.47 -2.74,3.91 -6.59,6.93 -11.53,9.06 l 26.05,37.18 H 663.51 L 641.3,151.25 h -10.74 v 33.59 h -11.3 z m -60.98,0 v -79.37 h 44.35 v 8.45 h -33.05 v 25.47 h 27.68 v 8.45 h -27.68 v 28.54 h 35.35 v 8.45 h -46.65 z m -69.48,-8.46 h 14.4 c 10.28,0 17.57,-2.76 21.85,-8.31 4.59,-5.89 6.9,-13.8 6.9,-23.73 0,-9.31 -2.27,-16.65 -6.81,-21.96 -2.75,-3.26 -6.02,-5.47 -9.84,-6.68 -3.82,-1.19 -9.57,-1.79 -17.23,-1.79 h -9.26 v 62.47 z m -11.3,8.46 v -79.37 h 26.37 c 7.87,0 14.22,0.88 19.06,2.63 4.85,1.74 9.04,4.72 12.57,8.89 5.62,6.66 8.42,15.41 8.42,26.27 0,12.28 -3.29,22.21 -9.86,29.82 -3.57,4.19 -7.7,7.19 -12.41,9.02 -4.7,1.81 -10.58,2.73 -17.62,2.73 H 477.5 Z" id="path111-3"></path><path class="st1" d="M 277.65,196.05 V 88.34 h 31.18 v 45.35 c 8.98,-2.62 13.94,-7.22 13.93,-13.96 0,-2.72 -0.49,-5.03 -1.46,-6.96 -0.97,-1.92 -2.82,-4.14 -5.37,-6.01 l 24.09,-18.43 c 4.74,2.9 8.36,6.45 10.49,9.97 2.13,3.51 3.68,8.69 3.68,14.13 0.01,5.25 -2.1,9.13 -5.38,13.06 -3.27,3.93 -8.16,8.41 -14.47,11.04 8.38,2.83 14.91,6.41 19.42,13.2 4.01,6.11 6.09,13.18 6.1,20.81 v 25.51 h -31.18 v -25.51 c -0.01,-5.85 -1.31,-11.07 -4.23,-15.22 -3.41,-4.8 -8.93,-8.79 -15.61,-10.29 v 51.02 z m -48.19,-69.44 h 31.18 v 69.45 H 229.46 M 179.86,109.6 H 140.18 V 88.34 h 66.61 l 5.67,24.09 c -23.82,13.14 -36.8,33.74 -39.68,59.53 h 39.68 v 24.09 h -75.12 v -9.92 c -0.05,-32.57 17.57,-58.17 42.52,-76.53 z m 216.85,-2.84 v 31.18 c 0.01,7.6 0.99,15.72 3.08,20.51 2.95,6.75 6.94,9.46 13.93,12.09 v -49.61 z m -25.51,42.52 v -36.85 l 39.68,-24.09 32.6,18.48 v 70.81 l -28.35,18.42 c -13.19,-5.06 -24.26,-9.37 -31.84,-17.62 -8.07,-8.82 -12.08,-18.27 -12.09,-29.15 z M 245.05,118.1 c 12.01,0 21.27,-7.45 21.26,-15.59 -0.01,-8.14 -9.25,-14.17 -21.26,-14.17 -12.01,0 -21.27,6.03 -21.26,14.17 0.02,8.14 9.26,15.59 21.26,15.59 z" id="path113"></path></g></svg>
