<svg xmlns="http://www.w3.org/2000/svg"
     xmlns:xlink="http://www.w3.org/1999/xlink"
     viewBox="0 0 511.985 511.985"
     width="511.985"
     height="511.985"
     shape-rendering="geometricPrecision"
     text-rendering="geometricPrecision">

  <path d="M500.391,223.525l-4.469-5.203c-9.875-11.539-16.094-34.741-13.312-49.67l1.266-6.742c2.125-11.289-.078-23.336-6.188-33.913-6.109-10.578-15.438-18.508-26.265-22.32l-6.484-2.281c-14.327-5.038-31.312-22.03-36.358-36.357L406.3,60.57c-6.781-19.266-26.858-33.249-47.764-33.249-2.844,0-5.688.266-8.453.781l-6.75,1.266c-2.391.445-5.062.672-7.922.672-14.734,0-32.295-5.883-41.748-13.984l-5.203-4.461c-8.719-7.478-20.25-11.594-32.468-11.594-12.219,0-23.749,4.116-32.468,11.593l-5.203,4.469c-9.453,8.094-27.015,13.977-41.749,13.977-2.875,0-5.531-.227-7.922-.672l-6.749-1.266c-2.75-.516-5.609-.773-8.469-.773v0c-20.89,0-40.968,13.976-47.749,33.241l-2.281,6.477c-5.046,14.319-22.03,31.312-36.373,36.35l-6.469,2.281c-10.828,3.812-20.156,11.742-26.266,22.32-6.108,10.577-8.296,22.624-6.202,33.913l1.281,6.742c2.781,14.929-3.438,38.139-13.312,49.662l-4.469,5.211C4.124,232.252,0,243.782,0,255.993c0,12.219,4.124,23.749,11.593,32.468l4.469,5.203c9.875,11.53,16.094,34.733,13.312,49.67l-1.281,6.75c-2.094,11.28.094,23.327,6.202,33.905c6.109,10.578,15.438,18.5,26.266,22.312l6.469,2.281c14.343,5.046,31.327,22.029,36.373,36.357l2.281,6.484c6.781,19.25,26.859,33.233,47.765,33.233c2.859,0,5.703-.266,8.453-.781l6.749-1.266c2.391-.438,5.047-.656,7.922-.656c14.734,0,32.296,5.875,41.733,13.968l5.219,4.469c8.719,7.469,20.249,11.594,32.468,11.594c12.218,0,23.749-4.125,32.468-11.594l5.203-4.469c9.453-8.093,27.014-13.968,41.748-13.968c2.875,0,5.531.219,7.922.656l6.734,1.281c2.766.5,5.609.766,8.469.766c20.905,0,40.982-13.983,47.764-33.233l2.281-6.484c5.047-14.328,22.031-31.312,36.358-36.357l6.484-2.281c10.827-3.812,20.155-11.734,26.265-22.312s8.297-22.625,6.188-33.905l-1.266-6.75c-2.781-14.937,3.438-38.14,13.312-49.654l4.469-5.219c7.468-8.719,11.593-20.249,11.593-32.468-.001-12.211-4.126-23.741-11.594-32.468Z" fill="#e42d31"/>
  
  <g transform="matrix(.88149 0 0 0.88149 30.054135 30.148947)">
    <path d="M260,310.4c11.2,11.2,11.2,30.4,0,41.6l-23.2,23.2c-11.2,11.2-30.4,11.2-41.6,0L93.6,272.8c-11.2-11.2-11.2-30.4,0-41.6L116.8,208c11.2-11.2,30.4-11.2,41.6,0L260,310.4Z" fill="#fff"/>
    <path d="M348.8,133.6c11.2-11.2,30.4-11.2,41.6,0l23.2,23.2c11.2,11.2,11.2,30.4,0,41.6l-176,175.2c-11.2,11.2-30.4,11.2-41.6,0l-23.2-23.2c-11.2-11.2-11.2-30.4,0-41.6l176-175.2Z" fill="#fff"/>
  </g>

  <style>
    @media (prefers-color-scheme: light) { :root { filter: none; } }
    @media (prefers-color-scheme: dark) { :root { filter: none; } }
  </style>
</svg>

